<svg width="61" height="61" viewBox="0 0 61 61" fill="none" xmlns="http://www.w3.org/2000/svg">
<path d="M21.2294 0C19.2752 0 17.6912 1.58407 17.6912 3.53823V10.6147H24.7676V3.53823C24.7676 1.58407 23.1836 0 21.2294 0Z" fill="white"/>
<path d="M38.9206 0C36.9664 0 35.3824 1.58407 35.3824 3.53823V10.6147H42.4588V3.53823C42.4588 1.58407 40.8748 0 38.9206 0Z" fill="white"/>
<path d="M38.9206 60.1499C40.8748 60.1499 42.4588 58.5658 42.4588 56.6116V49.5352H35.3824V56.6116C35.3824 58.5658 36.9664 60.1499 38.9206 60.1499Z" fill="white"/>
<path d="M21.2294 60.1499C23.1836 60.1499 24.7676 58.5658 24.7676 56.6116V49.5352H17.6912V56.6116C17.6912 58.5658 19.2752 60.1499 21.2294 60.1499Z" fill="white"/>
<path d="M0 38.9206C0 40.8747 1.58407 42.4588 3.53823 42.4588H10.6147V35.3823H3.53823C1.58407 35.3823 0 36.9664 0 38.9206Z" fill="white"/>
<path d="M0 21.2296C0 23.1838 1.58407 24.7679 3.53823 24.7679H10.6147V17.6914H3.53823C1.58407 17.6914 0 19.2755 0 21.2296Z" fill="white"/>
<path d="M60.1499 21.2296C60.1499 19.2755 58.5659 17.6914 56.6117 17.6914H49.5352V24.7679H56.6117C58.5659 24.7679 60.1499 23.1838 60.1499 21.2296Z" fill="white"/>
<path d="M60.1499 38.9206C60.1499 36.9664 58.5659 35.3823 56.6117 35.3823H49.5352V42.4588H56.6117C58.5659 42.4588 60.1499 40.8747 60.1499 38.9206Z" fill="white"/>
<path d="M35.3821 36.9841H24.7674C23.8828 36.9841 23.1659 36.2672 23.1659 35.3826V24.7679C23.1659 23.8833 23.8828 23.1664 24.7674 23.1664H35.3821C36.2667 23.1664 36.9836 23.8833 36.9836 24.7679V35.3826C36.9836 36.2672 36.2667 36.9841 35.3821 36.9841Z" stroke="white" stroke-width="10.95"/>
<mask id="path-10-inside-1_5334_1779" fill="white">
<path d="M38.9205 10.6149C44.7831 10.6149 49.5353 15.3675 49.5353 21.2296V38.9208C49.5353 44.7833 44.7831 49.5355 38.9205 49.5355H21.2294C15.3669 49.5355 10.6147 44.7833 10.6147 38.9208V21.2296C10.6147 15.3675 15.3669 10.6149 21.2294 10.6149H38.9205ZM38.9205 7.07666H21.2294C13.4254 7.07666 7.07643 13.4257 7.07643 21.2296V38.9208C7.07643 46.7247 13.4254 53.0737 21.2294 53.0737H38.9205C46.7245 53.0737 53.0735 46.7247 53.0735 38.9208V21.2296C53.0735 13.4257 46.7245 7.07666 38.9205 7.07666Z"/>
</mask>
<path d="M38.9205 21.5649C38.8945 21.5649 38.842 21.5575 38.7867 21.534C38.7386 21.5137 38.7058 21.4891 38.6834 21.4667C38.6611 21.4443 38.6364 21.4115 38.6161 21.3635C38.5927 21.3082 38.5853 21.2557 38.5853 21.2296H60.4853C60.4853 9.32017 50.8308 -0.335104 38.9205 -0.335104V21.5649ZM38.5853 21.2296V38.9208H60.4853V21.2296H38.5853ZM38.5853 38.9208C38.5853 38.8948 38.5927 38.8424 38.6161 38.7871C38.6364 38.739 38.6611 38.7062 38.6835 38.6838C38.706 38.6613 38.7388 38.6366 38.7869 38.6163C38.8422 38.5929 38.8946 38.5855 38.9205 38.5855V60.4855C50.8306 60.4855 60.4853 50.8308 60.4853 38.9208H38.5853ZM38.9205 38.5855H21.2294V60.4855H38.9205V38.5855ZM21.2294 38.5855C21.2553 38.5855 21.3077 38.5929 21.3631 38.6163C21.4111 38.6366 21.444 38.6613 21.4664 38.6838C21.4888 38.7062 21.5135 38.739 21.5338 38.7871C21.5573 38.8424 21.5647 38.8948 21.5647 38.9208H-0.335333C-0.335333 50.8308 9.31935 60.4855 21.2294 60.4855V38.5855ZM21.5647 38.9208V21.2296H-0.335333V38.9208H21.5647ZM21.5647 21.2296C21.5647 21.2557 21.5572 21.3082 21.5338 21.3635C21.5135 21.4115 21.4889 21.4443 21.4665 21.4667C21.4441 21.4891 21.4113 21.5137 21.3633 21.534C21.3079 21.5575 21.2555 21.5649 21.2294 21.5649V-0.335104C9.31911 -0.335104 -0.335333 9.32017 -0.335333 21.2296H21.5647ZM21.2294 21.5649H38.9205V-0.335104H21.2294V21.5649ZM38.9205 -3.87334H21.2294V18.0267H38.9205V-3.87334ZM21.2294 -3.87334C7.37792 -3.87334 -3.87357 7.37815 -3.87357 21.2296H18.0264C18.0264 19.4732 19.473 18.0267 21.2294 18.0267V-3.87334ZM-3.87357 21.2296V38.9208H18.0264V21.2296H-3.87357ZM-3.87357 38.9208C-3.87357 52.7722 7.37792 64.0237 21.2294 64.0237V42.1237C19.473 42.1237 18.0264 40.6772 18.0264 38.9208H-3.87357ZM21.2294 64.0237H38.9205V42.1237H21.2294V64.0237ZM38.9205 64.0237C52.772 64.0237 64.0235 52.7722 64.0235 38.9208H42.1235C42.1235 40.6772 40.677 42.1237 38.9205 42.1237V64.0237ZM64.0235 38.9208V21.2296H42.1235V38.9208H64.0235ZM64.0235 21.2296C64.0235 7.37815 52.772 -3.87334 38.9205 -3.87334V18.0267C40.677 18.0267 42.1235 19.4732 42.1235 21.2296H64.0235Z" fill="url(#paint0_linear_5334_1779)" mask="url(#path-10-inside-1_5334_1779)"/>
<defs>
<linearGradient id="paint0_linear_5334_1779" x1="7.10878" y1="7.10897" x2="52.9927" y2="52.9929" gradientUnits="userSpaceOnUse">
<stop stop-color="#7882F2"/>
<stop offset="1" stop-color="#6DA5E9"/>
</linearGradient>
</defs>
</svg>
