<svg width="42" height="42" viewBox="0 0 42 42" fill="none" xmlns="http://www.w3.org/2000/svg">
<path d="M11.4375 39.75H30.3125" stroke="white" stroke-width="3" stroke-linecap="round" stroke-linejoin="round"/>
<path d="M2 30.3125V5.775C2 4.77381 2.39772 3.81362 3.10567 3.10567C3.81362 2.39772 4.77381 2 5.775 2H35.975C36.9762 2 37.9364 2.39772 38.6443 3.10567C39.3523 3.81362 39.75 4.77381 39.75 5.775V30.3125C39.75 31.3137 39.3523 32.2739 38.6443 32.9818C37.9364 33.6898 36.9762 34.0875 35.975 34.0875H5.775C4.77381 34.0875 3.81362 33.6898 3.10567 32.9818C2.39772 32.2739 2 31.3137 2 30.3125Z" stroke="white" stroke-width="3"/>
<path d="M15.2124 18.0436L18.9874 21.8186L26.5374 14.2686" stroke="white" stroke-width="3" stroke-linecap="round" stroke-linejoin="round"/>
</svg>
