<svg width="60" height="58" viewBox="0 0 60 58" fill="none" xmlns="http://www.w3.org/2000/svg">
<path d="M50.9071 37.8001C52.7449 33.4323 53.1677 28.5984 52.1161 23.9779C51.0646 19.3573 48.5915 15.1825 45.0446 12.0401C41.4976 8.89778 37.0551 6.94593 32.3415 6.45895C27.6279 5.97196 22.8802 6.97432 18.7658 9.32512L15.9523 4.40362C20.252 1.9456 25.1211 0.658074 30.0738 0.669509C35.0265 0.680944 39.8896 1.99094 44.1779 4.46879C56.8996 11.8156 61.7729 27.5406 55.8456 40.6505L59.6451 42.8463L47.8443 49.1193L47.3768 35.763L50.9071 37.8001ZM9.11544 20.2165C7.27702 24.5846 6.85383 29.4191 7.90537 34.0402C8.95692 38.6613 11.4303 42.8367 14.9778 45.9792C18.5253 49.1218 22.9685 51.0735 27.6827 51.56C32.3969 52.0465 37.1451 51.0433 41.2596 48.6915L44.0703 53.6129C39.7704 56.0708 34.9011 57.358 29.9484 57.3461C24.9956 57.3341 20.1326 56.0235 15.8446 53.5449C3.12294 46.1981 -1.75039 30.4731 4.17977 17.3633L0.377441 15.1731L12.1783 8.89729L12.6458 22.2536L9.11827 20.2136L9.11544 20.2165ZM20.0946 34.675H35.6779C36.0537 34.675 36.414 34.5257 36.6797 34.26C36.9454 33.9943 37.0946 33.634 37.0946 33.2583C37.0946 32.8826 36.9454 32.5222 36.6797 32.2565C36.414 31.9909 36.0537 31.8416 35.6779 31.8416H24.3446C22.466 31.8416 20.6643 31.0953 19.3359 29.767C18.0076 28.4386 17.2613 26.6369 17.2613 24.7583C17.2613 22.8797 18.0076 21.078 19.3359 19.7496C20.6643 18.4212 22.466 17.675 24.3446 17.675H27.1779V14.8416H32.8446V17.675H39.9279V23.3416H24.3446C23.9689 23.3416 23.6085 23.4909 23.3429 23.7566C23.0772 24.0222 22.9279 24.3826 22.9279 24.7583C22.9279 25.134 23.0772 25.4943 23.3429 25.76C23.6085 26.0257 23.9689 26.175 24.3446 26.175H35.6779C37.5566 26.175 39.3582 26.9212 40.6866 28.2496C42.015 29.578 42.7613 31.3797 42.7613 33.2583C42.7613 35.1369 42.015 36.9386 40.6866 38.267C39.3582 39.5953 37.5566 40.3416 35.6779 40.3416H32.8446V43.175H27.1779V40.3416H20.0946V34.675Z" fill="url(#paint0_linear_5327_784)"/>
<defs>
<linearGradient id="paint0_linear_5327_784" x1="30.0113" y1="0.669434" x2="30.0113" y2="57.3462" gradientUnits="userSpaceOnUse">
<stop stop-color="#7882F2"/>
<stop offset="1" stop-color="#6DA5E9"/>
</linearGradient>
</defs>
</svg>
