<svg width="50" height="43" viewBox="0 0 50 43" fill="none" xmlns="http://www.w3.org/2000/svg">
<path d="M24.9438 17.0547C24.6535 17.0531 24.3655 17.0833 24.0968 17.1436C23.8281 17.2038 23.584 17.2929 23.3788 17.4056L2.47645 28.8754C2.27378 28.9866 2.113 29.1186 2.00331 29.2638C1.89362 29.4091 1.83716 29.5648 1.83716 29.7221C1.83716 29.8793 1.89362 30.035 2.00331 30.1803C2.113 30.3256 2.27378 30.4576 2.47645 30.5687L23.3783 42.0395C23.5809 42.1507 23.8214 42.2389 24.0861 42.2991C24.3508 42.3593 24.6346 42.3903 24.9211 42.3903C25.2077 42.3903 25.4915 42.3593 25.7562 42.2991C26.0209 42.2389 26.2614 42.1507 26.464 42.0395L47.3654 30.5692C47.5681 30.458 47.7288 30.3261 47.8385 30.1808C47.9482 30.0355 48.0047 29.8798 48.0047 29.7225C48.0047 29.5653 47.9482 29.4096 47.8385 29.2643C47.7288 29.119 47.5681 28.987 47.3654 28.8759L26.464 17.4056C26.0604 17.184 25.5147 17.058 24.9438 17.0547Z" fill="white"/>
<g filter="url(#filter0_d_1_5)">
<path d="M24.9438 9.32037C24.6535 9.31876 24.3655 9.34897 24.0968 9.40922C23.8281 9.46946 23.584 9.55854 23.3788 9.67123L2.47645 21.141C2.27378 21.2522 2.113 21.3842 2.00331 21.5295C1.89362 21.6747 1.83716 21.8304 1.83716 21.9877C1.83716 22.145 1.89362 22.3007 2.00331 22.4459C2.113 22.5912 2.27378 22.7232 2.47645 22.8344L23.3783 34.3051C23.5809 34.4163 23.8214 34.5046 24.0861 34.5648C24.3508 34.625 24.6346 34.6559 24.9211 34.6559C25.2077 34.6559 25.4915 34.625 25.7562 34.5648C26.0209 34.5046 26.2614 34.4163 26.464 34.3051L47.3654 22.8348C47.5681 22.7237 47.7288 22.5917 47.8385 22.4464C47.9482 22.3011 48.0047 22.1454 48.0047 21.9882C48.0047 21.8309 47.9482 21.6752 47.8385 21.5299C47.7288 21.3846 47.5681 21.2527 47.3654 21.1415L26.464 9.67123C26.0604 9.44961 25.5147 9.32364 24.9438 9.32037Z" fill="white"/>
</g>
<path d="M22.1455 8.89634C22.1455 8.30561 22.3448 7.73216 22.7111 7.26871C23.0774 6.80527 23.5893 6.47893 24.1641 6.34247V7.18299C23.7908 7.315 23.4709 7.56533 23.253 7.89589C23.0351 8.22645 22.9312 8.61915 22.957 9.01422L22.1835 9.34526C22.1581 9.19697 22.1454 9.04679 22.1455 8.89634ZM25.3752 7.18299V6.34247C26.0258 6.49671 26.593 6.8934 26.961 7.45157C27.3291 8.00975 27.4703 8.68734 27.3558 9.34607L26.5823 9.01503C26.6081 8.61995 26.5042 8.22726 26.2863 7.8967C26.0684 7.56614 25.7485 7.315 25.3752 7.18299ZM26.1051 10.1277L26.8778 10.4587C26.634 10.7883 26.3162 11.056 25.9501 11.2404C25.5839 11.4248 25.1796 11.5207 24.7696 11.5205C23.9057 11.5205 23.1387 11.103 22.6615 10.4587L23.4342 10.1277C23.604 10.3126 23.8104 10.4602 24.0403 10.5611C24.2702 10.6621 24.5186 10.7143 24.7696 10.7143C25.0207 10.7143 25.2691 10.6621 25.499 10.5611C25.7288 10.4602 25.9352 10.3126 26.1051 10.1277Z" fill="white"/>
<path fill-rule="evenodd" clip-rule="evenodd" d="M21.3849 3.93311C20.7922 4.01304 20.4789 4.15919 20.2553 4.38203C20.0316 4.60569 19.8863 4.91897 19.8064 5.51242C19.7248 6.12122 19.7232 6.93025 19.7232 8.0889V9.70374C19.7232 10.8624 19.7248 11.6714 19.8064 12.281C19.8863 12.8737 20.0324 13.1869 20.2553 13.4106C20.4789 13.6343 20.7922 13.7796 21.3857 13.8595C21.9945 13.9411 22.8035 13.9427 23.9622 13.9427H25.577C26.7356 13.9427 27.5447 13.9411 28.1543 13.8595C28.7469 13.7796 29.0602 13.6334 29.2839 13.4106C29.5075 13.1869 29.6528 12.8737 29.7328 12.2802C29.8143 11.6714 29.8159 10.8624 29.8159 9.70374V8.0889C29.8159 6.93025 29.8143 6.12122 29.7328 5.51161C29.6528 4.91897 29.5067 4.60569 29.2839 4.38203C29.0602 4.15838 28.7469 4.01304 28.1535 3.93311C27.5447 3.85156 26.7356 3.84995 25.577 3.84995H23.9622C22.8035 3.84995 21.9945 3.85156 21.3849 3.93311ZM24.7696 5.06107C23.7524 5.06107 22.7769 5.46514 22.0576 6.18439C21.3384 6.90364 20.9343 7.87915 20.9343 8.89632C20.9343 9.91349 21.3384 10.889 22.0576 11.6082C22.7769 12.3275 23.7524 12.7316 24.7696 12.7316C25.7867 12.7316 26.7623 12.3275 27.4815 11.6082C28.2007 10.889 28.6048 9.91349 28.6048 8.89632C28.6048 7.87915 28.2007 6.90364 27.4815 6.18439C26.7623 5.46514 25.7867 5.06107 24.7696 5.06107Z" fill="white"/>
<path fill-rule="evenodd" clip-rule="evenodd" d="M16.6953 8.89597C16.6953 5.0898 16.6953 3.18671 17.8774 2.00384C19.0611 0.821777 20.9633 0.821777 24.7695 0.821777C28.5757 0.821777 30.4788 0.821777 31.6608 2.00384C32.8437 3.18752 32.8437 5.0898 32.8437 8.89597C32.8437 12.7022 32.8437 14.6052 31.6608 15.7873C30.4796 16.9702 28.5757 16.9702 24.7695 16.9702C20.9633 16.9702 19.0602 16.9702 17.8774 15.7873C16.6953 14.606 16.6953 12.7022 16.6953 8.89597ZM25.6213 2.63847C26.7251 2.63847 27.6157 2.63847 28.3157 2.73294C29.0424 2.82983 29.6544 3.03976 30.1405 3.52502C30.6265 4.01109 30.8348 4.62311 30.9334 5.34979C31.027 6.04982 31.027 6.9404 31.027 8.04415V9.7478C31.027 10.8515 31.027 11.7421 30.9334 12.4422C30.8348 13.1688 30.6265 13.7809 30.1405 14.2669C29.6544 14.753 29.0424 14.9613 28.3157 15.0598C27.6157 15.1535 26.7251 15.1535 25.6213 15.1535H23.9177C22.8139 15.1535 21.9234 15.1535 21.2233 15.0598C20.4966 14.9613 19.8846 14.753 19.3986 14.2669C19.1824 14.05 19.0087 13.7945 18.8866 13.5136C18.7963 13.5405 18.7008 13.5459 18.608 13.5295C18.5151 13.513 18.4274 13.475 18.3518 13.4186C18.2762 13.3622 18.2148 13.289 18.1726 13.2047C18.1303 13.1204 18.1083 13.0274 18.1083 12.9331V10.5108C18.1083 10.3856 18.1471 10.2635 18.2194 10.1612C18.2917 10.059 18.394 9.98171 18.512 9.93997V7.85198C18.394 7.81024 18.2917 7.73294 18.2194 7.63071C18.1471 7.52848 18.1083 7.40635 18.1083 7.28113V4.85888C18.1081 4.7645 18.1301 4.6714 18.1723 4.58699C18.2145 4.50259 18.2759 4.42922 18.3515 4.37275C18.4271 4.31627 18.5149 4.27825 18.6078 4.26172C18.7007 4.24519 18.7962 4.2506 18.8866 4.27753C19.0087 3.99688 19.1824 3.74163 19.3986 3.52502C19.8846 3.03895 20.4966 2.83064 21.2233 2.73294C21.9234 2.63847 22.8139 2.63847 23.9177 2.63847H25.6213Z" fill="white"/>
<defs>
<filter id="filter0_d_1_5" x="0.697271" y="9.32031" width="48.4473" height="27.6154" filterUnits="userSpaceOnUse" color-interpolation-filters="sRGB">
<feFlood flood-opacity="0" result="BackgroundImageFix"/>
<feColorMatrix in="SourceAlpha" type="matrix" values="0 0 0 0 0 0 0 0 0 0 0 0 0 0 0 0 0 0 127 0" result="hardAlpha"/>
<feOffset dy="1.13989"/>
<feGaussianBlur stdDeviation="0.569943"/>
<feComposite in2="hardAlpha" operator="out"/>
<feColorMatrix type="matrix" values="0 0 0 0 0 0 0 0 0 0 0 0 0 0 0 0 0 0 0.5 0"/>
<feBlend mode="normal" in2="BackgroundImageFix" result="effect1_dropShadow_1_5"/>
<feBlend mode="normal" in="SourceGraphic" in2="effect1_dropShadow_1_5" result="shape"/>
</filter>
</defs>
</svg>
