<svg width="597" height="294" viewBox="0 0 597 294" fill="none" xmlns="http://www.w3.org/2000/svg">
<rect x="112" y="111" width="161" height="54" fill="#58E1D9" fill-opacity="0.21"/>
<rect x="112.5" y="111.5" width="160" height="53" stroke="white" stroke-opacity="0.33"/>
<rect x="285" y="165" width="119" height="54" fill="#58E1D9" fill-opacity="0.21"/>
<rect x="285.5" y="165.5" width="118" height="53" stroke="white" stroke-opacity="0.33"/>
<rect x="415" y="126" width="156" height="64" fill="#58E1D9" fill-opacity="0.21"/>
<rect x="415.5" y="126.5" width="155" height="63" stroke="white" stroke-opacity="0.33"/>
<rect width="597" height="294" rx="10" fill="url(#paint0_linear_1_96)"/>
<rect x="0.5" y="0.5" width="596" height="293" rx="9.5" stroke="white" stroke-opacity="0.15"/>
<line x1="30.3057" y1="99.9696" x2="30.7501" y2="227.997" stroke="white" stroke-opacity="0.75" stroke-width="1.5"/>
<line x1="579" y1="228.528" x2="29.5555" y2="228.528" stroke="white" stroke-opacity="0.75" stroke-width="1.5"/>
<path d="M18.4669 80.2476C19.2361 80.9834 19.6207 81.9031 19.6207 83.0068C19.6207 84.1104 19.2361 85.0357 18.4669 85.7827C17.6977 86.5184 16.7111 86.8863 15.5071 86.8863H13.6843V91H11.7278V79.1272H15.5071C16.7111 79.1272 17.6977 79.5007 18.4669 80.2476ZM17.0957 84.4783C17.497 84.0881 17.6977 83.5976 17.6977 83.0068C17.6977 82.4159 17.497 81.931 17.0957 81.5519C16.7055 81.1618 16.1704 80.9667 15.4903 80.9667H13.6843V85.0469H15.4903C16.1704 85.0469 16.7055 84.8574 17.0957 84.4783ZM21.2106 91V82.6389H23.0501V84.1272C23.2062 83.6589 23.4904 83.2799 23.9029 82.9901C24.3266 82.7002 24.7781 82.5553 25.2574 82.5553C25.5473 82.5553 25.787 82.5776 25.9765 82.6222V84.5118C25.7089 84.4114 25.4023 84.3613 25.0568 84.3613C24.4993 84.3613 24.0256 84.5898 23.6354 85.0469C23.2452 85.4928 23.0501 86.1171 23.0501 86.9198V91H21.2106ZM28.4829 80.8162C28.1484 80.8162 27.8586 80.6991 27.6133 80.465C27.368 80.2197 27.2454 79.9243 27.2454 79.5787C27.2454 79.2443 27.368 78.96 27.6133 78.7259C27.8586 78.4806 28.1484 78.358 28.4829 78.358C28.8284 78.358 29.1183 78.4806 29.3524 78.7259C29.5865 78.96 29.7036 79.2443 29.7036 79.5787C29.7036 79.9243 29.5865 80.2197 29.3524 80.465C29.1183 80.6991 28.8284 80.8162 28.4829 80.8162ZM27.5631 91V82.6389H29.4026V91H27.5631ZM35.687 91.1672C34.4273 91.1672 33.3738 90.7547 32.5265 89.9298C31.6904 89.0937 31.2723 88.0569 31.2723 86.8194C31.2723 85.582 31.6904 84.5508 32.5265 83.7258C33.3738 82.8897 34.4273 82.4717 35.687 82.4717C36.5454 82.4717 37.3146 82.6779 37.9947 83.0904C38.6858 83.5029 39.2154 84.0659 39.5833 84.7793L37.9779 85.6489C37.7661 85.203 37.4595 84.8462 37.0582 84.5787C36.6569 84.3111 36.1998 84.1773 35.687 84.1773C34.9512 84.1773 34.3436 84.4337 33.8643 84.9466C33.3849 85.4482 33.1452 86.0725 33.1452 86.8194C33.1452 87.5664 33.3849 88.1962 33.8643 88.7091C34.3436 89.2107 34.9512 89.4616 35.687 89.4616C36.1998 89.4616 36.6569 89.3278 37.0582 89.0602C37.4595 88.7927 37.7661 88.4359 37.9779 87.99L39.5833 88.8596C39.2154 89.573 38.6858 90.136 37.9947 90.5485C37.3146 90.961 36.5454 91.1672 35.687 91.1672ZM45.0435 91.1672C43.7726 91.1672 42.7247 90.7603 41.8997 89.9465C41.0859 89.1327 40.679 88.0903 40.679 86.8194C40.679 85.582 41.0914 84.5508 41.9164 83.7258C42.7414 82.8897 43.7837 82.4717 45.0435 82.4717C46.2029 82.4717 47.1616 82.8396 47.9197 83.5753C48.6889 84.3111 49.0735 85.3256 49.0735 86.6188C49.0735 86.8417 49.0679 87.0424 49.0568 87.2208H42.485C42.5296 87.9008 42.7915 88.4526 43.2709 88.8763C43.7503 89.2888 44.3467 89.495 45.0602 89.495C46.1304 89.495 46.9275 89.0714 47.4515 88.2241L48.8561 89.2274C48.0535 90.5206 46.7826 91.1672 45.0435 91.1672ZM42.5686 85.883H47.2174C47.117 85.3033 46.855 84.8518 46.4314 84.5285C46.0189 84.1941 45.534 84.0268 44.9766 84.0268C44.3969 84.0268 43.8785 84.1885 43.4214 84.5118C42.9755 84.8351 42.6912 85.2921 42.5686 85.883Z" fill="white" fill-opacity="0.5"/>
<path d="M545.14 254V244H541.695V242.127H550.558V244H547.096V254H545.14ZM552.924 243.816C552.59 243.816 552.3 243.699 552.055 243.465C551.809 243.22 551.687 242.924 551.687 242.579C551.687 242.244 551.809 241.96 552.055 241.726C552.3 241.481 552.59 241.358 552.924 241.358C553.27 241.358 553.56 241.481 553.794 241.726C554.028 241.96 554.145 242.244 554.145 242.579C554.145 242.924 554.028 243.22 553.794 243.465C553.56 243.699 553.27 243.816 552.924 243.816ZM552.005 254V245.639H553.844V254H552.005ZM566.968 254V249.301C566.968 248.621 566.84 248.091 566.583 247.712C566.338 247.333 565.97 247.144 565.48 247.144C564.889 247.144 564.415 247.372 564.058 247.83C563.701 248.287 563.512 248.928 563.49 249.753V254H561.65V249.301C561.65 248.621 561.522 248.091 561.266 247.712C561.02 247.333 560.652 247.144 560.162 247.144C559.549 247.144 559.058 247.384 558.69 247.863C558.334 248.342 558.155 249.017 558.155 249.886V254H556.316V245.639H558.155V246.776C558.668 245.906 559.46 245.472 560.53 245.472C561.79 245.472 562.654 246.023 563.122 247.127C563.356 246.603 563.713 246.196 564.192 245.906C564.682 245.617 565.218 245.472 565.797 245.472C566.734 245.472 567.47 245.789 568.005 246.425C568.54 247.06 568.807 247.919 568.807 249V254H566.968ZM574.939 254.167C573.668 254.167 572.62 253.76 571.795 252.947C570.982 252.133 570.575 251.09 570.575 249.819C570.575 248.582 570.987 247.551 571.812 246.726C572.637 245.89 573.68 245.472 574.939 245.472C576.099 245.472 577.057 245.84 577.815 246.575C578.585 247.311 578.969 248.326 578.969 249.619C578.969 249.842 578.964 250.042 578.953 250.221H572.381C572.425 250.901 572.687 251.453 573.167 251.876C573.646 252.289 574.242 252.495 574.956 252.495C576.026 252.495 576.823 252.071 577.347 251.224L578.752 252.227C577.949 253.521 576.678 254.167 574.939 254.167ZM572.464 248.883H577.113C577.013 248.303 576.751 247.852 576.327 247.528C575.915 247.194 575.43 247.027 574.872 247.027C574.293 247.027 573.774 247.188 573.317 247.512C572.871 247.835 572.587 248.292 572.464 248.883Z" fill="white" fill-opacity="0.5"/>
<path d="M32.8521 198.82C35.0835 196.34 36.6242 192.975 38.5734 190.273C38.7911 189.971 42.0676 183.86 42.3877 186.741C42.5658 188.344 44.3472 189.669 45.2837 190.873C47.3627 193.546 47.2063 190.736 48.2504 188.648C49.2552 186.639 50.3751 184.662 51.2877 182.609C52.2097 180.534 53.8095 177.634 55.7376 176.428C56.5461 175.923 56.5944 175.18 56.9737 176.888C57.264 178.194 57.3822 179.389 57.9626 180.666C58.9019 182.733 59.3251 185.061 61.459 182.927C63.5057 180.88 63.8998 178.293 65.5912 181.338C66.7448 183.414 67.9672 178.189 70.5003 179.748C74.1283 181.981 73.1784 181.235 76.7161 179.466C78.7092 178.469 80.1019 184.119 80.5304 178.336C80.7662 175.152 82.5904 172.074 83.0379 168.941C83.9666 162.44 85.2462 169.812 85.9692 172.544C87.1985 177.187 89.3072 181.539 90.6664 186.07C92.5616 192.387 95.0249 182.187 96.2819 184.198C98.3569 187.518 101.3 180.877 101.544 181.973C102.721 187.271 106.593 178.348 108.007 181.02C109.883 184.563 111.601 176.091 111.998 174.663C113.047 170.887 113.932 166.919 114.717 163.078C115.727 158.142 115.76 152.727 117.084 147.963C118.301 143.582 117.644 139.171 119.309 134.825C119.694 133.818 121.852 127.364 121.852 128.609C121.852 130.598 122.381 132.981 122.805 134.931C123.695 139.025 124.732 142.694 126.16 146.55C126.672 147.931 126.442 149.66 127.326 147.892C127.754 147.035 131.92 141.158 131.988 141.394C132.083 141.727 131.952 145.579 132.517 144.007C132.698 143.506 134.443 138.997 134.566 140.475C134.818 143.497 136.895 140.525 137.744 139.345C140.6 135.378 142.507 131.298 144.984 127.126C146.848 123.988 145.373 126.465 145.373 128.256C145.373 132.208 148.261 125.94 148.693 125.077C149.932 122.598 151.159 120.142 152.648 117.802C152.971 117.294 153.308 114.857 153.672 116.495C154.367 119.622 157.636 122.388 159.217 125.077C161.032 128.163 162.05 119.646 163.491 122.817C164.339 124.684 164.612 121.652 165.574 121.545C166.097 121.487 165.597 124.383 167.128 123.311C168.47 122.372 170.089 130.649 170.201 131.434C170.397 132.804 170.711 134.641 171.296 135.884C171.478 136.271 172.018 134.274 172.708 133.624C174.187 132.232 172.854 141.949 176.205 135.248C177.377 132.905 177.639 134.445 177.794 136.379C177.888 137.55 179.887 133.791 180.478 133.341C182.304 131.954 181.861 132.719 182.597 134.613C182.913 135.424 184.741 140.664 185.458 138.992C186.787 135.89 189.267 133.415 190.65 130.304C191.357 128.712 193.687 121.335 193.687 126.49C193.687 130.501 194.143 134.448 194.64 138.427C195.171 142.672 194.783 147.194 195.947 151.353C196.859 154.609 199.174 149.21 199.903 148.104C201.463 145.735 200.915 150.685 202.728 147.327C203.645 145.628 204.992 141.937 206.684 140.97C207.732 140.371 207.74 136.352 207.99 135.248C208.119 134.682 209.374 129.251 209.438 129.315C210.1 129.976 211.019 134.246 211.487 135.39C211.882 136.355 212.872 140.264 214.312 140.264C214.882 140.264 215.288 137.009 215.937 138.144C216.506 139.14 216.694 140.149 217.844 139.063C219.959 137.065 220.078 140.678 221.164 142.241C223.29 145.303 222.93 147.173 222.93 151.071C222.93 152.681 223.947 158.945 224.06 158.77C225.09 157.168 227.131 168.244 229.922 163.22C230.9 161.46 230.988 159.434 231.688 162.584C232.065 164.28 232.842 156.307 233.36 157.993C233.939 159.874 233.481 164.225 235.162 161.984C237.647 158.669 239.196 164.608 240 163.22C242.142 159.52 244.544 163.655 244.544 159.194C244.544 158.4 247.271 152.003 248.217 149.375C248.617 148.264 248.358 151.807 248.358 152.413C248.358 155.97 249.293 152.288 250.265 151.177C252.16 149.011 253.314 146.09 254.221 143.371C255.864 138.443 255.148 143.075 256.304 145.773C257.183 147.824 257.996 149.854 258.812 151.918C259.984 154.884 259.615 154.062 261.072 152.695C261.558 152.24 262.756 155.336 262.979 155.838C263.371 156.72 264.902 154.123 265.204 153.719C266.435 152.078 267.172 153.98 267.571 155.097C268.177 156.795 269.989 157.409 270.467 158.417C271.455 160.502 271.06 173.01 272.833 171.237C272.943 171.126 276.958 178.477 278.236 178.477C279.447 178.477 280.38 177.197 281.662 178.194C282.421 178.785 282.978 181.062 283.322 182.009C284.028 183.951 286.58 193.113 288.267 187.377C289.709 182.473 289.999 187.732 291.904 189.849C293.379 191.488 295.688 184.197 298.579 188.789C298.994 189.449 300.236 192.743 301.44 192.074C303.372 191 303.58 191.656 304.618 193.734C305.855 196.206 306.603 197.943 308.433 199.773C309.69 201.03 309.521 201.228 310.658 200.091C311.31 199.438 311.938 198.767 312.424 199.738C312.863 200.618 313.5 203.199 314.79 203.199C315.852 203.199 315.999 201.285 316.697 200.727C317.436 200.136 318.61 197.532 318.922 196.63C319.632 194.578 319.264 191.327 320.829 194.37C325.185 202.839 327.247 189.605 330.012 191.58C330.937 192.241 331.495 195.711 331.636 194.581C331.721 193.905 332.577 190.74 333.049 191.968C333.418 192.927 340.358 209.629 342.302 206.448C342.718 205.767 344.242 203.068 345.304 203.658C346.331 204.229 347.198 205.677 348.483 204.788C349.984 203.749 351.058 201.576 353.25 202.139C354.388 202.432 355.865 205.635 357.065 205.035C359.333 203.901 363.524 196.222 364.022 193.981C364.755 190.683 364.247 186.342 364.057 182.927C364 181.899 366.007 170.587 366.459 170.99C367.786 172.169 367.181 171.555 368.79 171.555C369.767 171.555 370.687 175.5 371.368 176.181C372.784 177.597 375.409 168.588 376.63 168.588C377.24 168.588 377.334 171.099 378.326 169.824C379.606 168.178 380.596 166.388 382.14 164.844C382.981 164.003 384.474 172.1 385 170.99C385.404 170.137 385.688 166.549 386.413 166.186C386.673 166.057 387.086 169.762 387.366 169.93C387.547 170.038 387.928 167.246 388.673 167.246C391.095 167.246 392.046 170.566 392.523 172.473C394.039 178.538 394.268 169.445 394.607 172.155C394.941 174.831 395.274 174.2 396.126 172.897C397.249 171.178 397.323 171.172 397.891 172.12C398.546 173.211 401.049 168.38 401.211 167.952C402.127 165.538 403.621 162.167 404.072 159.688C405.377 152.512 404.128 160.19 406.509 157.993C407.143 157.407 408.365 154.425 409.193 155.874C409.793 156.924 412.141 153.221 412.654 152.801C413.18 152.371 413.323 152.497 413.643 152.978C413.935 153.416 414.734 151.513 414.914 151.283C415.397 150.666 416.982 153.48 417.457 154.179C417.811 154.698 420.107 159.335 420.318 159.335C421.688 159.335 423.629 153.25 425.227 153.825C428.422 154.975 428.264 161.586 428.264 164.103C428.264 166.407 432.112 159.074 432.573 157.64C432.939 156.501 433.126 152.975 433.385 154.143C433.98 156.818 435.301 159.285 435.893 161.948C436.131 163.02 436.702 165.769 437.659 163.855C438.66 161.853 439.108 164.53 439.707 165.763C440.165 166.705 440.543 169.413 441.932 169.259C443.287 169.108 444.234 171.425 444.793 172.402C445.308 173.304 445.57 171.222 446.064 170.99C447.142 170.482 448.265 173.346 448.466 174.027C448.972 175.748 452.335 181.213 453.693 178.159C454.843 175.57 448.615 174.995 446.982 174.451C445.271 173.88 450.239 176.195 451.15 176.428C453.639 177.067 456.833 176.641 459.026 178.159C459.458 178.458 460.713 181.007 461.039 180.914C462.12 180.605 463.204 178.124 464.359 178.124C465.155 178.124 464.785 181.11 466.407 181.02C467.869 180.938 468.331 177.895 469.232 176.993C469.272 176.954 470.23 180.933 470.539 181.62C472.426 185.813 472.893 185.948 475.166 181.655C475.347 181.313 478.454 189.969 479.757 186.388C480.688 183.826 480.728 186.685 481.664 187.236C482.78 187.892 483.01 186.182 483.712 187.377C485.653 190.677 487.801 184.591 487.986 182.927C488.386 179.321 489.168 175.625 490.069 172.12C491.119 168.038 492.636 163.481 494.025 159.511C494.671 157.665 494.22 159.789 495.014 160.677C496.311 162.127 496.463 164.107 497.062 165.904C497.532 167.312 497.234 169.34 497.875 167.034C498.34 165.359 497.992 163.642 498.51 161.984C498.923 160.664 498.828 159.367 498.828 157.993C498.828 156.191 499.722 155.742 500.594 154.179C501.365 152.797 501.607 148.137 502.042 149.658C502.26 150.421 503.151 153.613 504.196 153.613C504.318 153.613 507.184 150.132 507.587 149.729C508.781 148.534 509.195 147.073 509.777 145.561C510.264 144.295 511.333 143.258 511.825 141.923C512.823 139.216 512.001 142.77 512.213 144.042C512.386 145.079 517.818 138.462 518.535 137.297C519.096 136.386 519.618 135.049 519.771 133.977C520.003 132.356 519.403 132.086 519.842 133.624C520.099 134.524 521.632 133.077 521.855 132.706C522.635 131.406 522.529 135.713 523.48 134.33C524.448 132.922 525.195 131.695 525.881 130.127C526.122 129.577 527.622 125.439 528.036 127.302C528.35 128.718 533.456 131.745 534.287 129.668C536.155 124.998 535.031 129.899 537.289 128.644C538.222 128.126 541.381 130.958 542.056 130.657C543.018 130.23 543.613 128.564 544.882 128.927C545.803 129.19 546.043 131.547 547.46 130.445C550.573 128.024 550.52 135.713 551.733 134.966C554.218 133.437 553.89 133.851 555.442 135.92C556.232 136.973 558.075 144.162 560.139 141.535C561.502 139.801 561.441 138.435 562.399 141.252C562.899 142.723 563.671 143.479 563.671 144.784C563.671 145.75 563.618 145.962 564.306 145.102C564.63 144.697 565.116 144.963 565.437 144.643C565.612 144.468 565.537 143.71 565.613 143.901C565.96 144.767 566.924 145.11 567.344 146.056C567.879 147.261 567.164 148.278 568.121 149.234" stroke="white" stroke-width="2.38889" stroke-linecap="round"/>
<path d="M152.293 110.161C152.784 109.124 152.974 108.484 152.844 107.258C152.154 100.779 150.518 94.5309 148.99 88.2412" stroke="white" stroke-linecap="round"/>
<path d="M145.987 94.5465C146.879 93.1742 147.489 91.4986 147.856 89.909C147.946 89.5172 148.336 87.2783 148.756 87.1733C149.382 87.0169 152.326 90.0759 152.893 90.643" stroke="white" stroke-linecap="round"/>
<path d="M87.1537 77V65.1272H88.4246V75.796H94.361V77H87.1537ZM96.6833 66.1306C96.4269 66.1306 96.2095 66.0469 96.0311 65.8797C95.8639 65.7014 95.7803 65.4895 95.7803 65.2443C95.7803 64.999 95.8639 64.7928 96.0311 64.6256C96.2095 64.4472 96.4269 64.358 96.6833 64.358C96.9285 64.358 97.1348 64.4472 97.302 64.6256C97.4692 64.7928 97.5528 64.999 97.5528 65.2443C97.5528 65.4895 97.4692 65.7014 97.302 65.8797C97.1348 66.0469 96.9285 66.1306 96.6833 66.1306ZM96.0813 77V68.6389H97.2518V77H96.0813ZM107.857 80.4949H106.686V75.5953C106.385 76.0636 105.951 76.4426 105.382 76.7324C104.825 77.0223 104.228 77.1672 103.593 77.1672C102.422 77.1672 101.436 76.7436 100.633 75.8963C99.8302 75.0491 99.4288 74.0234 99.4288 72.8194C99.4288 71.6154 99.8302 70.5898 100.633 69.7426C101.436 68.8953 102.422 68.4717 103.593 68.4717C104.228 68.4717 104.825 68.6166 105.382 68.9064C105.951 69.1963 106.385 69.5753 106.686 70.0436V68.6389H107.857V80.4949ZM101.486 75.1438C102.065 75.7681 102.807 76.0803 103.71 76.0803C104.613 76.0803 105.349 75.7681 105.917 75.1438C106.497 74.5084 106.787 73.7336 106.787 72.8194C106.787 71.9053 106.497 71.1361 105.917 70.5118C105.349 69.8763 104.613 69.5586 103.71 69.5586C102.807 69.5586 102.065 69.8763 101.486 70.5118C100.917 71.1361 100.633 71.9053 100.633 72.8194C100.633 73.7336 100.917 74.5084 101.486 75.1438ZM113.656 77.1672C112.753 77.1672 112.017 76.8662 111.449 76.2642C110.88 75.6622 110.596 74.8651 110.596 73.8729V68.6389H111.766V73.7057C111.766 74.4304 111.956 75.0101 112.335 75.4448C112.714 75.8685 113.204 76.0803 113.806 76.0803C114.531 76.0803 115.127 75.7849 115.596 75.194C116.075 74.592 116.315 73.7949 116.315 72.8027V68.6389H117.485V77H116.315V75.5953C115.746 76.6433 114.86 77.1672 113.656 77.1672ZM120.966 66.1306C120.71 66.1306 120.493 66.0469 120.314 65.8797C120.147 65.7014 120.063 65.4895 120.063 65.2443C120.063 64.999 120.147 64.7928 120.314 64.6256C120.493 64.4472 120.71 64.358 120.966 64.358C121.212 64.358 121.418 64.4472 121.585 64.6256C121.752 64.7928 121.836 64.999 121.836 65.2443C121.836 65.4895 121.752 65.7014 121.585 65.8797C121.418 66.0469 121.212 66.1306 120.966 66.1306ZM120.364 77V68.6389H121.535V77H120.364ZM127.876 77.1672C126.705 77.1672 125.719 76.7436 124.916 75.8963C124.113 75.0491 123.712 74.0234 123.712 72.8194C123.712 71.6154 124.113 70.5898 124.916 69.7426C125.719 68.8953 126.705 68.4717 127.876 68.4717C128.511 68.4717 129.108 68.6166 129.665 68.9064C130.234 69.1963 130.668 69.5753 130.969 70.0436V64.4583H132.14V77H130.969V75.5953C130.668 76.0636 130.234 76.4426 129.665 76.7324C129.108 77.0223 128.511 77.1672 127.876 77.1672ZM125.769 75.1438C126.349 75.7681 127.09 76.0803 127.993 76.0803C128.896 76.0803 129.632 75.7681 130.2 75.1438C130.78 74.5084 131.07 73.7336 131.07 72.8194C131.07 71.9053 130.78 71.1361 130.2 70.5118C129.632 69.8763 128.896 69.5586 127.993 69.5586C127.09 69.5586 126.349 69.8763 125.769 70.5118C125.2 71.1361 124.916 71.9053 124.916 72.8194C124.916 73.7336 125.2 74.5084 125.769 75.1438ZM135.615 66.1306C135.358 66.1306 135.141 66.0469 134.963 65.8797C134.795 65.7014 134.712 65.4895 134.712 65.2443C134.712 64.999 134.795 64.7928 134.963 64.6256C135.141 64.4472 135.358 64.358 135.615 64.358C135.86 64.358 136.066 64.4472 136.233 64.6256C136.401 64.7928 136.484 64.999 136.484 65.2443C136.484 65.4895 136.401 65.7014 136.233 65.8797C136.066 66.0469 135.86 66.1306 135.615 66.1306ZM135.013 77V68.6389H136.183V77H135.013ZM142.056 77.0836C141.354 77.0836 140.779 76.8829 140.333 76.4816C139.899 76.0691 139.681 75.4671 139.681 74.6756V69.7426H137.892V68.6389H139.681V66.3145H140.852V68.6389H143.293V69.7426H140.852V74.5753C140.852 75.0881 140.963 75.456 141.186 75.6789C141.42 75.8908 141.772 75.9967 142.24 75.9967C142.663 75.9967 143.015 75.9354 143.293 75.8127V76.8662C142.925 77.0111 142.513 77.0836 142.056 77.0836ZM147.126 80.4949H145.805L147.644 76.5819L143.932 68.6389H145.236L148.296 75.2776L151.357 68.6389H152.678L147.126 80.4949ZM158.174 77V65.1272H162.054C163.146 65.1272 164.005 65.4171 164.629 65.9968C165.253 66.5653 165.565 67.3401 165.565 68.3212C165.565 69.2353 165.287 69.9767 164.729 70.5452C164.183 71.1026 163.425 71.4204 162.455 71.4984L167.154 77H165.498L160.8 71.4817H159.445V77H158.174ZM159.445 70.3111H161.903C163.486 70.3111 164.278 69.6478 164.278 68.3212C164.278 66.9834 163.486 66.3145 161.903 66.3145H159.445V70.3111ZM171.723 77.1672C170.552 77.1672 169.565 76.7436 168.763 75.8963C167.96 75.0491 167.559 74.0234 167.559 72.8194C167.559 71.6154 167.96 70.5898 168.763 69.7426C169.565 68.8953 170.552 68.4717 171.723 68.4717C172.358 68.4717 172.955 68.6166 173.512 68.9064C174.08 69.1963 174.515 69.5753 174.816 70.0436V68.6389H175.987V77H174.816V75.5953C174.515 76.0636 174.08 76.4426 173.512 76.7324C172.955 77.0223 172.358 77.1672 171.723 77.1672ZM169.616 75.1438C170.195 75.7681 170.937 76.0803 171.84 76.0803C172.743 76.0803 173.478 75.7681 174.047 75.1438C174.627 74.5084 174.917 73.7336 174.917 72.8194C174.917 71.9053 174.627 71.1361 174.047 70.5118C173.478 69.8763 172.743 69.5586 171.84 69.5586C170.937 69.5586 170.195 69.8763 169.616 70.5118C169.047 71.1361 168.763 71.9053 168.763 72.8194C168.763 73.7336 169.047 74.5084 169.616 75.1438ZM178.86 77V68.6389H180.03V70.0436C180.599 68.9956 181.513 68.4717 182.773 68.4717C183.698 68.4717 184.45 68.7671 185.03 69.3579C185.621 69.9488 185.916 70.7515 185.916 71.7659V77H184.746V71.9332C184.746 71.2085 184.551 70.6344 184.16 70.2108C183.781 69.776 183.274 69.5586 182.639 69.5586C181.881 69.5586 181.256 69.854 180.766 70.4449C180.275 71.0246 180.03 71.8217 180.03 72.8362V77H178.86ZM190.012 75.0101C190.581 75.6121 191.317 75.9131 192.22 75.9131C193.123 75.9131 193.853 75.6121 194.41 75.0101C194.979 74.4081 195.263 73.65 195.263 72.7358C195.263 71.8217 194.979 71.0636 194.41 70.4616C193.853 69.8596 193.123 69.5586 192.22 69.5586C191.317 69.5586 190.581 69.8596 190.012 70.4616C189.455 71.0636 189.176 71.8217 189.176 72.7358C189.176 73.65 189.455 74.4081 190.012 75.0101ZM192.203 80.6622C191.3 80.6622 190.503 80.4894 189.812 80.1438C189.12 79.7982 188.602 79.3634 188.256 78.8394L189.176 78.0535C189.901 79.068 190.91 79.5752 192.203 79.5752C193.005 79.5752 193.697 79.3188 194.276 78.806C194.867 78.2932 195.163 77.524 195.163 76.4983V75.4281C194.85 75.8963 194.421 76.2754 193.875 76.5652C193.329 76.8551 192.738 77 192.102 77C190.921 77 189.934 76.5931 189.143 75.7793C188.362 74.9543 187.972 73.9398 187.972 72.7358C187.972 71.5318 188.362 70.5229 189.143 69.7091C189.934 68.8841 190.921 68.4717 192.102 68.4717C192.738 68.4717 193.329 68.6166 193.875 68.9064C194.421 69.1963 194.85 69.5753 195.163 70.0436V68.6389H196.333V76.5652C196.333 77.8807 195.949 78.8896 195.179 79.5919C194.41 80.3054 193.418 80.6622 192.203 80.6622ZM202.819 77.1672C201.537 77.1672 200.5 76.7547 199.709 75.9298C198.917 75.0937 198.521 74.0569 198.521 72.8194C198.521 71.5931 198.928 70.5619 199.742 69.7258C200.556 68.8897 201.593 68.4717 202.853 68.4717C203.978 68.4717 204.915 68.8507 205.662 69.6088C206.409 70.3669 206.782 71.3981 206.782 72.7024V73.0201H199.725C199.725 73.8897 200.015 74.6199 200.595 75.2107C201.175 75.7904 201.916 76.0803 202.819 76.0803C203.488 76.0803 204.034 75.9521 204.458 75.6957C204.893 75.4281 205.266 75.0324 205.578 74.5084L206.531 75.1271C205.74 76.4872 204.502 77.1672 202.819 77.1672ZM199.826 71.9833H205.562C205.45 71.2364 205.143 70.6456 204.642 70.2108C204.14 69.776 203.527 69.5586 202.802 69.5586C202.078 69.5586 201.431 69.7816 200.863 70.2275C200.305 70.6623 199.96 71.2476 199.826 71.9833Z" fill="white" fill-opacity="0.75"/>
<path d="M290.068 39L295.185 27.1272H297.342L302.476 39H299.934L298.78 36.291H293.713L292.576 39H290.068ZM296.255 30.3212L294.616 34.1673H297.877L296.255 30.3212ZM303.8 39V27.1272H306.224V39H303.8ZM319.406 37.9298C318.548 38.7659 317.511 39.1839 316.296 39.1839C315.081 39.1839 314.044 38.7659 313.185 37.9298C312.327 37.0825 311.898 36.0457 311.898 34.8194C311.898 33.6043 312.327 32.5731 313.185 31.7258C314.044 30.8786 315.081 30.4549 316.296 30.4549C317.511 30.4549 318.548 30.8786 319.406 31.7258C320.264 32.5731 320.694 33.6043 320.694 34.8194C320.694 36.0457 320.264 37.0825 319.406 37.9298ZM316.296 37.0435C316.887 37.0435 317.377 36.8373 317.767 36.4248C318.169 36.0011 318.369 35.466 318.369 34.8194C318.369 34.1729 318.169 33.6433 317.767 33.2308C317.377 32.8072 316.887 32.5954 316.296 32.5954C315.694 32.5954 315.192 32.8072 314.791 33.2308C314.401 33.6433 314.205 34.1729 314.205 34.8194C314.205 35.466 314.401 36.0011 314.791 36.4248C315.192 36.8373 315.694 37.0435 316.296 37.0435ZM324.637 42.4949H322.346V30.6389H324.637V31.5753C324.849 31.2743 325.172 31.0124 325.607 30.7894C326.041 30.5664 326.526 30.4549 327.061 30.4549C328.165 30.4549 329.096 30.8841 329.854 31.7426C330.612 32.601 330.991 33.6266 330.991 34.8194C330.991 36.0123 330.612 37.0379 329.854 37.8963C329.096 38.7547 328.165 39.1839 327.061 39.1839C326.526 39.1839 326.041 39.0725 325.607 38.8495C325.172 38.6265 324.849 38.3646 324.637 38.0636V42.4949ZM325.021 36.4582C325.412 36.8819 325.924 37.0937 326.56 37.0937C327.195 37.0937 327.702 36.8819 328.082 36.4582C328.472 36.0346 328.667 35.4883 328.667 34.8194C328.667 34.1506 328.472 33.6043 328.082 33.1807C327.702 32.757 327.195 32.5452 326.56 32.5452C325.924 32.5452 325.412 32.757 325.021 33.1807C324.642 33.6043 324.453 34.1506 324.453 34.8194C324.453 35.4883 324.642 36.0346 325.021 36.4582ZM336.534 39.1003C335.597 39.1003 334.828 38.8439 334.226 38.3311C333.635 37.8071 333.34 37.0546 333.34 36.0736V32.6456H331.651V30.6389H333.34V28.3145H335.631V30.6389H337.989V32.6456H335.631V35.6221C335.631 36.1349 335.742 36.5028 335.965 36.7258C336.188 36.9376 336.55 37.0435 337.052 37.0435C337.409 37.0435 337.721 36.9933 337.989 36.893V38.9164C337.587 39.039 337.102 39.1003 336.534 39.1003ZM340.76 29.2677C340.37 29.2677 340.03 29.1283 339.74 28.8496C339.45 28.5598 339.306 28.2142 339.306 27.8128C339.306 27.4115 339.45 27.0715 339.74 26.7928C340.03 26.5029 340.37 26.358 340.76 26.358C341.173 26.358 341.518 26.5029 341.797 26.7928C342.087 27.0715 342.232 27.4115 342.232 27.8128C342.232 28.2142 342.087 28.5598 341.797 28.8496C341.518 29.1283 341.173 29.2677 340.76 29.2677ZM339.623 39V30.6389H341.914V39H339.623ZM354.649 39V34.5352C354.649 33.2085 354.214 32.5452 353.345 32.5452C352.843 32.5452 352.442 32.7347 352.141 33.1138C351.851 33.4928 351.695 34.0558 351.673 34.8027V39H349.382V34.5352C349.382 33.2085 348.947 32.5452 348.077 32.5452C347.564 32.5452 347.158 32.7459 346.857 33.1472C346.556 33.5486 346.405 34.1394 346.405 34.9198V39H344.114V30.6389H346.405V31.5921C346.929 30.834 347.67 30.4549 348.629 30.4549C349.8 30.4549 350.664 30.9678 351.221 31.9934C351.466 31.514 351.834 31.1406 352.325 30.873C352.815 30.5943 353.311 30.4549 353.813 30.4549C354.805 30.4549 355.574 30.7838 356.121 31.4416C356.667 32.0993 356.94 33.0023 356.94 34.1506V39H354.649ZM360.177 29.2677C359.787 29.2677 359.447 29.1283 359.157 28.8496C358.867 28.5598 358.722 28.2142 358.722 27.8128C358.722 27.4115 358.867 27.0715 359.157 26.7928C359.447 26.5029 359.787 26.358 360.177 26.358C360.59 26.358 360.935 26.5029 361.214 26.7928C361.504 27.0715 361.649 27.4115 361.649 27.8128C361.649 28.2142 361.504 28.5598 361.214 28.8496C360.935 29.1283 360.59 29.2677 360.177 29.2677ZM359.04 39V30.6389H361.331V39H359.04ZM363.113 39V37.2107L367.026 32.7124H363.163V30.6389H369.986V32.4449L366.073 36.9264H370.119V39H363.113ZM375.641 39.1839C374.37 39.1839 373.311 38.7826 372.464 37.9799C371.628 37.1773 371.21 36.1238 371.21 34.8194C371.21 33.5709 371.628 32.5341 372.464 31.7091C373.3 30.873 374.348 30.4549 375.608 30.4549C376.767 30.4549 377.743 30.8173 378.534 31.5419C379.326 32.2554 379.721 33.2643 379.721 34.5686C379.721 34.9365 379.71 35.1985 379.688 35.3546H373.434C373.501 35.9008 373.74 36.33 374.153 36.6422C374.577 36.9432 375.078 37.0937 375.658 37.0937C376.639 37.0937 377.358 36.7425 377.815 36.0402L379.521 37.3111C378.662 38.5596 377.369 39.1839 375.641 39.1839ZM373.518 33.7994H377.431C377.33 33.32 377.102 32.9577 376.745 32.7124C376.399 32.4672 375.998 32.3446 375.541 32.3446C375.073 32.3446 374.643 32.4672 374.253 32.7124C373.863 32.9577 373.618 33.32 373.518 33.7994ZM384.222 39.1839C382.639 39.1839 381.491 38.6488 380.777 37.5786L382.349 36.2408C382.75 36.8874 383.375 37.2107 384.222 37.2107C384.478 37.2107 384.696 37.1606 384.874 37.0602C385.052 36.9599 385.142 36.8094 385.142 36.6087C385.142 36.4304 385.064 36.2854 384.907 36.1739C384.763 36.0513 384.467 35.9287 384.021 35.8061L383.402 35.6556C382.633 35.4549 382.048 35.1204 381.647 34.6522C381.256 34.184 381.072 33.6266 381.095 32.98C381.117 32.2219 381.418 31.6144 381.998 31.1573C382.589 30.6891 383.336 30.4549 384.239 30.4549C385.521 30.4549 386.485 30.9232 387.131 31.8596L385.626 33.0803C385.236 32.5898 384.763 32.3446 384.205 32.3446C383.982 32.3446 383.787 32.3947 383.62 32.4951C383.453 32.5954 383.369 32.7347 383.369 32.9131C383.369 33.2476 383.642 33.4872 384.188 33.6322L384.974 33.8663C386.591 34.3011 387.399 35.165 387.399 36.4582C387.399 37.2497 387.098 37.9019 386.496 38.4147C385.894 38.9275 385.136 39.1839 384.222 39.1839ZM393.73 39V32.6456H392.041V30.6389H393.73V29.5519C393.73 28.5598 394.031 27.7794 394.633 27.2108C395.235 26.6423 395.999 26.358 396.924 26.358C397.492 26.358 397.977 26.4193 398.379 26.5419V28.5653C398.111 28.465 397.799 28.4148 397.442 28.4148C396.941 28.4148 396.578 28.5263 396.355 28.7493C396.132 28.9611 396.021 29.3234 396.021 29.8362V30.6389H398.379V32.6456H396.021V39H393.73ZM406.463 37.9298C405.604 38.7659 404.568 39.1839 403.353 39.1839C402.137 39.1839 401.101 38.7659 400.242 37.9298C399.384 37.0825 398.955 36.0457 398.955 34.8194C398.955 33.6043 399.384 32.5731 400.242 31.7258C401.101 30.8786 402.137 30.4549 403.353 30.4549C404.568 30.4549 405.604 30.8786 406.463 31.7258C407.321 32.5731 407.751 33.6043 407.751 34.8194C407.751 36.0457 407.321 37.0825 406.463 37.9298ZM403.353 37.0435C403.943 37.0435 404.434 36.8373 404.824 36.4248C405.225 36.0011 405.426 35.466 405.426 34.8194C405.426 34.1729 405.225 33.6433 404.824 33.2308C404.434 32.8072 403.943 32.5954 403.353 32.5954C402.751 32.5954 402.249 32.8072 401.848 33.2308C401.457 33.6433 401.262 34.1729 401.262 34.8194C401.262 35.466 401.457 36.0011 401.848 36.4248C402.249 36.8373 402.751 37.0435 403.353 37.0435ZM409.403 39V30.6389H411.694V31.9767C411.838 31.5642 412.1 31.2242 412.479 30.9566C412.87 30.6779 413.299 30.5386 413.767 30.5386C414.057 30.5386 414.313 30.572 414.536 30.6389V32.9633C414.168 32.8406 413.823 32.7793 413.5 32.7793C412.953 32.7793 412.513 32.98 412.178 33.3813C411.855 33.7715 411.694 34.3122 411.694 35.0034V39H409.403ZM419.429 39V30.6389H421.72V31.9767C421.865 31.5642 422.127 31.2242 422.506 30.9566C422.896 30.6779 423.326 30.5386 423.794 30.5386C424.084 30.5386 424.34 30.572 424.563 30.6389V32.9633C424.195 32.8406 423.85 32.7793 423.526 32.7793C422.98 32.7793 422.54 32.98 422.205 33.3813C421.882 33.7715 421.72 34.3122 421.72 35.0034V39H419.429ZM429.128 39.1839C428.024 39.1839 427.093 38.7547 426.335 37.8963C425.577 37.0379 425.198 36.0123 425.198 34.8194C425.198 33.6266 425.577 32.601 426.335 31.7426C427.093 30.8841 428.024 30.4549 429.128 30.4549C429.663 30.4549 430.142 30.5664 430.566 30.7894C430.989 31.0124 431.313 31.2743 431.536 31.5753V30.6389H433.826V39H431.536V38.0636C431.313 38.3646 430.989 38.6265 430.566 38.8495C430.142 39.0725 429.663 39.1839 429.128 39.1839ZM428.074 36.4582C428.464 36.8819 428.977 37.0937 429.612 37.0937C430.248 37.0937 430.755 36.8819 431.134 36.4582C431.524 36.0346 431.719 35.4883 431.719 34.8194C431.719 34.1506 431.524 33.6043 431.134 33.1807C430.755 32.757 430.248 32.5452 429.612 32.5452C428.977 32.5452 428.464 32.757 428.074 33.1807C427.695 33.6043 427.505 34.1506 427.505 34.8194C427.505 35.4883 427.695 36.0346 428.074 36.4582ZM436.054 39V30.6389H438.345V31.5921C438.857 30.834 439.655 30.4549 440.736 30.4549C441.739 30.4549 442.525 30.7894 443.094 31.4583C443.673 32.116 443.963 32.9967 443.963 34.1004V39H441.672V34.485C441.672 33.8719 441.544 33.3981 441.288 33.0636C441.031 32.718 440.669 32.5452 440.201 32.5452C439.643 32.5452 439.192 32.7459 438.846 33.1472C438.512 33.5486 438.345 34.1394 438.345 34.9198V39H436.054ZM448.455 36.2241C448.868 36.6254 449.37 36.8261 449.96 36.8261C450.551 36.8261 451.053 36.6254 451.465 36.2241C451.878 35.8228 452.084 35.31 452.084 34.6857C452.084 34.0614 451.878 33.5486 451.465 33.1472C451.053 32.7459 450.551 32.5452 449.96 32.5452C449.37 32.5452 448.868 32.7459 448.455 33.1472C448.043 33.5486 447.837 34.0614 447.837 34.6857C447.837 35.31 448.043 35.8228 448.455 36.2241ZM449.693 42.6622C448.021 42.6622 446.722 42.2162 445.797 41.3244L447.051 39.6187C447.753 40.3099 448.623 40.6555 449.659 40.6555C450.328 40.6555 450.869 40.4437 451.281 40.0201C451.694 39.5964 451.9 39.0446 451.9 38.3646V37.796C451.666 38.1193 451.332 38.3869 450.897 38.5987C450.462 38.7993 449.988 38.8997 449.475 38.8997C448.383 38.8997 447.452 38.4928 446.683 37.6789C445.914 36.854 445.529 35.8562 445.529 34.6857C445.529 33.504 445.914 32.5062 446.683 31.6924C447.452 30.8674 448.383 30.4549 449.475 30.4549C449.999 30.4549 450.473 30.5609 450.897 30.7727C451.332 30.9733 451.666 31.2409 451.9 31.5753V30.6389H454.191V38.3478C454.191 39.7859 453.779 40.8617 452.954 41.5752C452.129 42.2999 451.042 42.6622 449.693 42.6622ZM460.281 39.1839C459.01 39.1839 457.951 38.7826 457.104 37.9799C456.268 37.1773 455.85 36.1238 455.85 34.8194C455.85 33.5709 456.268 32.5341 457.104 31.7091C457.94 30.873 458.988 30.4549 460.248 30.4549C461.407 30.4549 462.383 30.8173 463.174 31.5419C463.966 32.2554 464.361 33.2643 464.361 34.5686C464.361 34.9365 464.35 35.1985 464.328 35.3546H458.074C458.141 35.9008 458.38 36.33 458.793 36.6422C459.216 36.9432 459.718 37.0937 460.298 37.0937C461.279 37.0937 461.998 36.7425 462.455 36.0402L464.161 37.3111C463.302 38.5596 462.009 39.1839 460.281 39.1839ZM458.157 33.7994H462.07C461.97 33.32 461.742 32.9577 461.385 32.7124C461.039 32.4672 460.638 32.3446 460.181 32.3446C459.713 32.3446 459.283 32.4672 458.893 32.7124C458.503 32.9577 458.258 33.32 458.157 33.7994ZM320.719 60.1839C319.615 60.1839 318.684 59.7547 317.926 58.8963C317.168 58.0379 316.789 57.0123 316.789 55.8194C316.789 54.6266 317.168 53.601 317.926 52.7426C318.684 51.8841 319.615 51.4549 320.719 51.4549C321.254 51.4549 321.733 51.5664 322.157 51.7894C322.581 52.0124 322.904 52.2743 323.127 52.5753V51.6389H325.418V60H323.127V59.0636C322.904 59.3646 322.581 59.6265 322.157 59.8495C321.733 60.0725 321.254 60.1839 320.719 60.1839ZM319.665 57.4582C320.056 57.8819 320.568 58.0937 321.204 58.0937C321.839 58.0937 322.346 57.8819 322.726 57.4582C323.116 57.0346 323.311 56.4883 323.311 55.8194C323.311 55.1506 323.116 54.6043 322.726 54.1807C322.346 53.757 321.839 53.5452 321.204 53.5452C320.568 53.5452 320.056 53.757 319.665 54.1807C319.286 54.6043 319.097 55.1506 319.097 55.8194C319.097 56.4883 319.286 57.0346 319.665 57.4582ZM327.645 60V51.6389H329.936V52.5921C330.449 51.834 331.246 51.4549 332.327 51.4549C333.331 51.4549 334.116 51.7894 334.685 52.4583C335.265 53.116 335.555 53.9967 335.555 55.1004V60H333.264V55.485C333.264 54.8719 333.135 54.3981 332.879 54.0636C332.623 53.718 332.26 53.5452 331.792 53.5452C331.235 53.5452 330.783 53.7459 330.438 54.1472C330.103 54.5486 329.936 55.1394 329.936 55.9198V60H327.645ZM341.05 60.1839C339.946 60.1839 339.016 59.7547 338.257 58.8963C337.499 58.0379 337.12 57.0123 337.12 55.8194C337.12 54.6266 337.499 53.601 338.257 52.7426C339.016 51.8841 339.946 51.4549 341.05 51.4549C341.585 51.4549 342.065 51.5664 342.488 51.7894C342.912 52.0124 343.235 52.2743 343.458 52.5753V47.4583H345.749V60H343.458V59.0636C343.235 59.3646 342.912 59.6265 342.488 59.8495C342.065 60.0725 341.585 60.1839 341.05 60.1839ZM339.997 57.4582C340.387 57.8819 340.9 58.0937 341.535 58.0937C342.17 58.0937 342.678 57.8819 343.057 57.4582C343.447 57.0346 343.642 56.4883 343.642 55.8194C343.642 55.1506 343.447 54.6043 343.057 54.1807C342.678 53.757 342.17 53.5452 341.535 53.5452C340.9 53.5452 340.387 53.757 339.997 54.1807C339.618 54.6043 339.428 55.1506 339.428 55.8194C339.428 56.4883 339.618 57.0346 339.997 57.4582ZM351.781 60V51.6389H354.072V52.9767C354.217 52.5642 354.479 52.2242 354.858 51.9566C355.248 51.6779 355.677 51.5386 356.146 51.5386C356.436 51.5386 356.692 51.572 356.915 51.6389V53.9633C356.547 53.8406 356.201 53.7793 355.878 53.7793C355.332 53.7793 354.891 53.98 354.557 54.3813C354.234 54.7715 354.072 55.3122 354.072 56.0034V60H351.781ZM361.981 60.1839C360.71 60.1839 359.651 59.7826 358.804 58.9799C357.968 58.1773 357.55 57.1238 357.55 55.8194C357.55 54.5709 357.968 53.5341 358.804 52.7091C359.64 51.873 360.688 51.4549 361.947 51.4549C363.107 51.4549 364.082 51.8173 364.874 52.5419C365.665 53.2554 366.061 54.2643 366.061 55.5686C366.061 55.9365 366.05 56.1985 366.028 56.3546H359.774C359.84 56.9008 360.08 57.33 360.493 57.6422C360.916 57.9432 361.418 58.0937 361.998 58.0937C362.979 58.0937 363.698 57.7425 364.155 57.0402L365.86 58.3111C365.002 59.5596 363.709 60.1839 361.981 60.1839ZM359.857 54.7994H363.77C363.67 54.32 363.441 53.9577 363.085 53.7124C362.739 53.4672 362.338 53.3446 361.881 53.3446C361.412 53.3446 360.983 53.4672 360.593 53.7124C360.203 53.9577 359.958 54.32 359.857 54.7994ZM372.468 60.1839C371.933 60.1839 371.448 60.0725 371.013 59.8495C370.578 59.6265 370.255 59.3646 370.043 59.0636V60H367.752V47.4583H370.043V52.5753C370.255 52.2743 370.578 52.0124 371.013 51.7894C371.448 51.5664 371.933 51.4549 372.468 51.4549C373.572 51.4549 374.502 51.8841 375.26 52.7426C376.019 53.601 376.398 54.6266 376.398 55.8194C376.398 57.0123 376.019 58.0379 375.26 58.8963C374.502 59.7547 373.572 60.1839 372.468 60.1839ZM370.428 57.4582C370.818 57.8819 371.331 58.0937 371.966 58.0937C372.602 58.0937 373.109 57.8819 373.488 57.4582C373.878 57.0346 374.073 56.4883 374.073 55.8194C374.073 55.1506 373.878 54.6043 373.488 54.1807C373.109 53.757 372.602 53.5452 371.966 53.5452C371.331 53.5452 370.818 53.757 370.428 54.1807C370.049 54.6043 369.859 55.1506 369.859 55.8194C369.859 56.4883 370.049 57.0346 370.428 57.4582ZM381.468 60.1839C380.364 60.1839 379.433 59.7547 378.675 58.8963C377.917 58.0379 377.538 57.0123 377.538 55.8194C377.538 54.6266 377.917 53.601 378.675 52.7426C379.433 51.8841 380.364 51.4549 381.468 51.4549C382.003 51.4549 382.482 51.5664 382.906 51.7894C383.329 52.0124 383.653 52.2743 383.876 52.5753V51.6389H386.166V60H383.876V59.0636C383.653 59.3646 383.329 59.6265 382.906 59.8495C382.482 60.0725 382.003 60.1839 381.468 60.1839ZM380.414 57.4582C380.804 57.8819 381.317 58.0937 381.952 58.0937C382.588 58.0937 383.095 57.8819 383.474 57.4582C383.864 57.0346 384.059 56.4883 384.059 55.8194C384.059 55.1506 383.864 54.6043 383.474 54.1807C383.095 53.757 382.588 53.5452 381.952 53.5452C381.317 53.5452 380.804 53.757 380.414 54.1807C380.035 54.6043 379.845 55.1506 379.845 55.8194C379.845 56.4883 380.035 57.0346 380.414 57.4582ZM388.394 60V47.4583H390.685V60H388.394ZM396.279 60.1839C395.175 60.1839 394.245 59.7547 393.487 58.8963C392.728 58.0379 392.349 57.0123 392.349 55.8194C392.349 54.6266 392.728 53.601 393.487 52.7426C394.245 51.8841 395.175 51.4549 396.279 51.4549C396.814 51.4549 397.294 51.5664 397.717 51.7894C398.141 52.0124 398.464 52.2743 398.687 52.5753V51.6389H400.978V60H398.687V59.0636C398.464 59.3646 398.141 59.6265 397.717 59.8495C397.294 60.0725 396.814 60.1839 396.279 60.1839ZM395.226 57.4582C395.616 57.8819 396.129 58.0937 396.764 58.0937C397.4 58.0937 397.907 57.8819 398.286 57.4582C398.676 57.0346 398.871 56.4883 398.871 55.8194C398.871 55.1506 398.676 54.6043 398.286 54.1807C397.907 53.757 397.4 53.5452 396.764 53.5452C396.129 53.5452 395.616 53.757 395.226 54.1807C394.847 54.6043 394.657 55.1506 394.657 55.8194C394.657 56.4883 394.847 57.0346 395.226 57.4582ZM403.205 60V51.6389H405.496V52.5921C406.009 51.834 406.806 51.4549 407.887 51.4549C408.891 51.4549 409.677 51.7894 410.245 52.4583C410.825 53.116 411.115 53.9967 411.115 55.1004V60H408.824V55.485C408.824 54.8719 408.696 54.3981 408.439 54.0636C408.183 53.718 407.821 53.5452 407.352 53.5452C406.795 53.5452 406.343 53.7459 405.998 54.1472C405.663 54.5486 405.496 55.1394 405.496 55.9198V60H403.205ZM417.112 60.1839C415.863 60.1839 414.81 59.7715 413.952 58.9465C413.104 58.1104 412.681 57.068 412.681 55.8194C412.681 54.5709 413.104 53.5341 413.952 52.7091C414.81 51.873 415.863 51.4549 417.112 51.4549C417.97 51.4549 418.751 51.6779 419.453 52.1238C420.167 52.5586 420.707 53.1383 421.075 53.8629L419.085 54.9332C418.907 54.5318 418.645 54.2085 418.299 53.9633C417.965 53.718 417.569 53.5954 417.112 53.5954C416.51 53.5954 416.003 53.8072 415.59 54.2308C415.189 54.6545 414.988 55.184 414.988 55.8194C414.988 56.4549 415.189 56.9844 415.59 57.4081C416.003 57.8317 416.51 58.0435 417.112 58.0435C417.569 58.0435 417.965 57.9209 418.299 57.6756C418.645 57.4304 418.907 57.1071 419.085 56.7057L421.075 57.7759C420.707 58.5006 420.167 59.0859 419.453 59.5318C418.751 59.9666 417.97 60.1839 417.112 60.1839ZM426.437 60.1839C425.166 60.1839 424.107 59.7826 423.259 58.9799C422.423 58.1773 422.005 57.1238 422.005 55.8194C422.005 54.5709 422.423 53.5341 423.259 52.7091C424.095 51.873 425.143 51.4549 426.403 51.4549C427.563 51.4549 428.538 51.8173 429.33 52.5419C430.121 53.2554 430.517 54.2643 430.517 55.5686C430.517 55.9365 430.506 56.1985 430.483 56.3546H424.229C424.296 56.9008 424.536 57.33 424.948 57.6422C425.372 57.9432 425.874 58.0937 426.453 58.0937C427.434 58.0937 428.153 57.7425 428.61 57.0402L430.316 58.3111C429.458 59.5596 428.165 60.1839 426.437 60.1839ZM424.313 54.7994H428.226C428.126 54.32 427.897 53.9577 427.54 53.7124C427.195 53.4672 426.793 53.3446 426.336 53.3446C425.868 53.3446 425.439 53.4672 425.049 53.7124C424.658 53.9577 424.413 54.32 424.313 54.7994ZM435.017 60.1839C433.434 60.1839 432.286 59.6488 431.572 58.5786L433.144 57.2408C433.546 57.8874 434.17 58.2107 435.017 58.2107C435.274 58.2107 435.491 58.1606 435.669 58.0602C435.848 57.9599 435.937 57.8094 435.937 57.6087C435.937 57.4304 435.859 57.2854 435.703 57.1739C435.558 57.0513 435.262 56.9287 434.817 56.8061L434.198 56.6556C433.429 56.4549 432.843 56.1204 432.442 55.6522C432.052 55.184 431.868 54.6266 431.89 53.98C431.912 53.2219 432.213 52.6144 432.793 52.1573C433.384 51.6891 434.131 51.4549 435.034 51.4549C436.316 51.4549 437.28 51.9232 437.927 52.8596L436.422 54.0803C436.032 53.5898 435.558 53.3446 435 53.3446C434.778 53.3446 434.582 53.3947 434.415 53.4951C434.248 53.5954 434.164 53.7347 434.164 53.9131C434.164 54.2476 434.437 54.4872 434.984 54.6322L435.77 54.8663C437.386 55.3011 438.194 56.165 438.194 57.4582C438.194 58.2497 437.893 58.9019 437.291 59.4147C436.689 59.9275 435.931 60.1839 435.017 60.1839Z" fill="white" fill-opacity="0.75"/>
<path d="M337.888 163.615C345.678 139.635 353.941 115.806 361.989 91.9108C363.251 88.1628 368.089 76.063 369.105 69.9629" stroke="white" stroke-linecap="round"/>
<path d="M444.366 125.668C429.897 112.489 415.612 99.2627 401.245 86.0593C398.991 83.9883 391.85 77.1131 388 74" stroke="white" stroke-linecap="round"/>
<path d="M358.879 76.9597C360.904 74.0343 364.705 70.4968 368.148 69.3049C371.022 68.3102 373.558 76.7888 374.488 79.1127" stroke="white" stroke-linecap="round"/>
<path d="M385.47 84.507C384.833 81.0063 385.02 75.8173 386.612 72.5396C387.94 69.8044 395.729 74.0064 398.029 74.9923" stroke="white" stroke-linecap="round"/>
<defs>
<linearGradient id="paint0_linear_1_96" x1="298.5" y1="0" x2="298.5" y2="294" gradientUnits="userSpaceOnUse">
<stop stop-color="#7D6FF6" stop-opacity="0.16"/>
<stop offset="1" stop-color="#58E1D9" stop-opacity="0.16"/>
</linearGradient>
</defs>
</svg>
