<svg width="36" height="36" viewBox="0 0 36 36" fill="none" xmlns="http://www.w3.org/2000/svg">
<path d="M18 2.14586e-05C27.9416 2.14586e-05 36 8.0584 36 18C36 27.9416 27.9416 36 18 36C8.05838 36 7.87739e-06 27.9416 7.87739e-06 18C-0.00256418 15.2531 0.624749 12.5423 1.83372 10.0757C3.0427 7.60923 4.80114 5.45278 6.97388 3.77215L7.07851 3.9004L7.35976 4.24465C11.3468 9.12715 13.4078 11.6618 13.5428 11.8474C13.7678 12.1601 13.6834 12.4403 13.2964 12.6608C13.0815 12.7834 12.6383 12.9071 12.4178 12.9071C12.1669 12.9071 11.8845 12.7868 11.6786 12.5921C11.6238 12.5333 11.5734 12.4705 11.5279 12.4043L11.4311 12.2704C11.1274 11.8384 10.5536 10.9654 9.59401 9.47815C8.96024 8.48544 8.31822 7.49803 7.66801 6.51602L7.65451 6.50477C7.65226 6.50477 7.65338 6.50927 7.65901 6.52277L7.69501 6.59477C7.81088 6.81752 8.22263 7.55327 9.48826 9.81902C10.665 11.925 11.0633 12.6686 11.0633 12.7688C11.0633 12.9713 11.007 13.077 10.7573 13.356C10.341 13.8206 10.1554 14.3426 10.0204 15.4226C9.86963 16.6343 9.44663 17.4893 8.27213 18.9529C7.58588 19.8101 7.47338 19.9676 7.29901 20.313C7.08076 20.7473 7.02113 20.9914 6.99638 21.5404C6.97051 22.1209 7.02113 22.4966 7.19888 23.0513C7.35413 23.5373 7.51613 23.859 7.93013 24.5003C8.28788 25.0549 8.49376 25.4666 8.49376 25.6275C8.49376 25.7558 8.51851 25.7558 9.07313 25.6309C10.3995 25.3316 11.4761 24.804 12.0825 24.1583C12.4571 23.7589 12.5449 23.5384 12.5483 22.9905C12.5494 22.6328 12.537 22.5574 12.4403 22.3515C12.2828 22.0163 11.9959 21.7373 11.3636 21.3053C10.5345 20.7383 10.1813 20.2815 10.0834 19.6549C10.0024 19.1408 10.0958 18.7774 10.5548 17.8166C11.0284 16.8221 11.1465 16.3991 11.2264 15.3968C11.277 14.7488 11.3479 14.4934 11.5346 14.2886C11.7281 14.0749 11.9036 14.0018 12.384 13.9365C13.167 13.8296 13.6654 13.6271 14.0749 13.2503C14.4304 12.9218 14.5789 12.6056 14.6014 12.1309L14.6194 11.7709L14.4203 11.5391L14.3978 11.5121C14.0243 11.0846 11.6674 8.48477 7.32826 3.71365L7.21351 3.58877C10.3243 1.25365 14.1103 -0.00599586 18 2.14586e-05ZM18.054 23.31C17.5433 23.1795 16.6241 23.1435 16.0718 23.2335C14.7904 23.4416 13.3853 24.1189 12.2546 25.0729L11.9183 25.3575L12.2141 25.4025C13.7565 25.6444 14.1716 25.8581 15.2426 26.9606C15.858 27.5951 16.0661 27.7369 16.5769 27.8663C17.3273 28.0575 18.0675 27.7065 18.3206 27.0371C18.4343 26.7379 18.4196 26.2418 18.2891 25.9931C17.9798 25.4014 17.0786 25.2101 16.6433 25.6444C16.2799 26.0044 16.3856 26.5489 16.8368 26.6434C16.9403 26.6648 16.938 26.6603 16.8109 26.6029C16.6129 26.5129 16.5274 26.3891 16.5263 26.1923C16.524 25.731 17.0528 25.4711 17.5444 25.6928C17.9044 25.8548 18.0484 26.0674 18.0484 26.4398C18.0497 26.5735 18.0223 26.706 17.9679 26.8282C17.9136 26.9505 17.8337 27.0596 17.7335 27.1482C17.6333 27.2369 17.5153 27.303 17.3874 27.342C17.2594 27.3811 17.1246 27.3922 16.992 27.3746C16.6587 27.3215 16.3519 27.1611 16.1179 26.9179C15.6173 26.3509 15.8119 25.4576 16.5116 25.1145C17.0438 24.8535 17.7514 24.9176 18.3004 25.2776C18.9304 25.6905 19.1993 26.0674 19.7426 27.306C19.9193 27.7099 20.1476 28.1633 20.2489 28.3151C20.7619 29.0858 21.3784 29.4626 22.1209 29.4626C22.5304 29.4626 22.8386 29.3884 23.2268 29.1949C23.5148 29.0509 23.922 28.7786 23.8928 28.7483C23.8012 28.7646 23.712 28.7922 23.6273 28.8304C22.8173 29.1465 21.9926 29.1251 21.5145 28.7741C21.213 28.5548 20.97 28.1149 20.8451 27.5659C20.7866 27.2556 20.7337 26.9443 20.6865 26.6321C20.52 25.5724 20.3603 25.0954 19.9879 24.5486C19.6054 23.9895 18.8741 23.5193 18.054 23.31ZM23.5013 17.7356C23.4788 17.7356 23.4405 17.8043 23.4169 17.8875C23.1953 18.6716 23.2875 19.5109 23.6925 20.3805L23.7656 20.5324C23.9524 20.907 24.1954 21.2929 24.9244 22.3853C25.6343 23.4506 25.9864 24.0806 26.1585 24.597C26.4398 25.4408 26.3981 26.199 26.0258 26.9775C25.9369 27.162 25.8784 27.3116 25.8941 27.3116C25.9099 27.3116 26.055 27.2396 26.2181 27.1508C27.3251 26.55 28.1025 25.5195 28.4366 24.2078C28.5424 23.7915 28.584 22.7981 28.5131 22.3853C28.3871 21.6563 28.1261 21.0578 27.7031 20.5324C27.2216 19.9328 26.5129 19.4074 25.2698 18.7301C24.2741 18.1879 23.9006 17.9764 23.7139 17.8504C23.6491 17.8019 23.5774 17.7632 23.5013 17.7356ZM8.04601 21.4909C8.04601 21.2681 8.44538 21.1871 8.70188 21.3581C8.97413 21.5381 9.06076 21.9094 8.89763 22.1974C8.74238 22.473 8.44426 22.5641 8.23388 22.3999C8.10451 22.2975 8.09551 22.1468 8.20913 21.9758C8.32163 21.807 8.31038 21.7249 8.16751 21.6518C8.08313 21.6079 8.04601 21.5584 8.04601 21.4909ZM22.0725 17.0246L22.1501 17.2575C22.212 17.4688 22.2608 17.6837 22.2964 17.901C22.5405 19.3523 21.7789 20.5256 20.2961 20.9801C20.1386 21.0285 19.521 21.1489 18.9236 21.249C17.7109 21.4515 17.1709 21.5933 16.6275 21.8554C16.2416 22.041 15.7759 22.3189 15.8029 22.347C15.8705 22.3435 15.9369 22.3275 15.9986 22.2998C16.6838 22.059 17.4465 21.9353 18.6041 21.8745C19.0643 21.8509 19.5874 21.8126 19.7663 21.7901C20.799 21.6596 21.5134 21.3469 22.0703 20.7799C22.3796 20.4649 22.5641 20.1724 22.7115 19.7584C22.8071 19.4951 22.8195 19.3984 22.8206 18.9326C22.8206 18.459 22.8094 18.3724 22.7081 18.081C22.5731 17.6985 22.4156 17.4116 22.2165 17.1878L22.0725 17.0246ZM20.3366 12.8261C20.3254 12.8261 20.3164 13.0421 20.3164 13.3065C20.3164 15.102 21.3896 16.1663 24.4339 17.3925C26.4623 18.2081 27.2914 18.63 27.9101 19.161C28.4524 19.6279 28.7764 20.2511 28.8068 20.8901C28.8124 21.0105 28.8349 21.0971 28.8574 21.0904C28.9406 21.0634 29.2511 20.367 29.3535 19.98C29.4829 19.4906 29.529 18.5625 29.4503 18.0675C29.1758 16.3643 28.026 15.1133 26.1675 14.4968C25.5825 14.3033 24.948 14.1705 23.8219 14.0051C21.9083 13.7261 21.2164 13.5146 20.5988 13.0196C20.516 12.9491 20.4284 12.8844 20.3366 12.8261ZM16.0571 14.2155C15.8299 14.0996 15.3473 14.0535 15.1133 14.1255C14.7454 14.238 14.3888 14.6284 14.2774 15.0368C14.2099 15.2854 14.2481 15.723 14.3494 15.858C14.5125 16.0763 14.6711 16.1336 15.0986 16.1303C15.9356 16.1246 16.6624 15.7658 16.7479 15.3169C16.8176 14.949 16.497 14.4405 16.0571 14.2155ZM14.895 14.7263C14.895 14.3314 15.5273 14.1188 15.9446 14.3753C16.164 14.5091 16.2214 14.7071 16.0909 14.8905C16.0031 15.0165 15.7275 15.138 15.5261 15.138C15.2246 15.138 14.895 14.922 14.895 14.7263ZM15.0548 6.5374C14.5834 6.4249 13.8994 6.36527 13.6103 6.40915C13.4595 6.43165 13.473 6.4384 13.7936 6.4879C14.9636 6.67015 15.876 7.13365 16.8064 8.0179C17.2148 8.40602 17.6265 8.88865 18.2914 9.76165C19.7899 11.727 20.4255 12.2749 21.6866 12.6866C22.4269 12.9274 23.175 13.0399 24.4958 13.1096C25.9583 13.1873 26.5095 13.3043 27.0326 13.6496C27.3218 13.8409 27.5479 14.0794 27.7729 14.4281L27.9045 14.6306L27.8764 14.4079C27.7718 13.5529 27.1609 12.3491 26.3824 11.4683L26.2406 11.3074L26.1686 11.6303C25.9886 12.4436 25.5994 13.0275 25.2371 13.0286C25.1495 13.028 25.0638 13.0028 24.9899 12.9558C24.9159 12.9089 24.8565 12.8421 24.8186 12.7631C24.7388 12.5719 24.7455 12.5021 24.8636 12.2794C25.083 11.8688 25.137 11.3198 25.029 10.6031C24.9986 10.3961 24.9525 10.2015 24.9278 10.1723C24.849 10.0766 24.2168 9.70877 23.8163 9.52427C22.3616 8.85152 20.6213 8.63327 18.9113 8.9089L18.5063 8.97415L18.2228 8.65802C17.154 7.4689 16.1539 6.79952 15.0548 6.5374ZM25.6286 6.86027C25.6196 6.86027 25.56 6.97502 25.497 7.11452C25.3373 7.46665 25.2585 7.85252 25.2248 8.43752C25.2034 8.8144 25.182 8.94377 25.1381 8.95952C25.0718 8.9854 24.9829 8.9584 24.4406 8.75027C24.0773 8.60965 23.1728 8.34527 23.1469 8.37227C23.1401 8.37902 23.3291 8.47127 23.5676 8.57702C23.8061 8.68277 24.1931 8.88302 24.4271 9.02252C25.3553 9.57152 25.5128 9.89102 25.5139 11.223C25.5139 11.8868 25.506 11.9734 25.4239 12.1736C25.3136 12.4425 25.3339 12.4931 25.4543 12.2558C25.6793 11.817 25.7738 11.376 25.7873 10.692C25.7951 10.2533 25.8086 10.1599 25.8705 10.098C25.938 10.0305 25.9549 10.0305 26.064 10.0868C26.2271 10.17 26.964 10.7573 27.2858 11.0576L27.5479 11.304L27.2858 10.9598C27.1418 10.7696 26.7435 10.3298 26.4004 9.97877C25.6714 9.23289 25.6129 9.1339 25.5116 8.44315C25.4329 7.89865 25.4509 7.43065 25.5679 7.08977C25.5985 7.01641 25.619 6.93919 25.6286 6.86027ZM13.4764 7.09652L13.4494 7.4149C13.3628 8.44315 13.7655 9.81902 14.4169 10.7156C14.9231 11.4109 15.705 11.9509 16.2844 12.0038C16.6624 12.0375 16.776 11.9194 16.605 11.6696C16.3665 11.322 16.074 10.7876 15.9975 10.5581C15.9074 10.2501 15.8297 9.93864 15.7646 9.6244C15.4935 8.35877 15.2258 7.8649 14.6093 7.49027C14.3001 7.32212 13.9687 7.19864 13.6249 7.12352L13.4764 7.09652Z" fill="white"/>
</svg>
