<svg width="62" height="60" viewBox="0 0 62 60" fill="none" xmlns="http://www.w3.org/2000/svg">
<path d="M30.1147 0.0170898C27.639 0.339027 25.3763 3.14801 25.1949 6.85561V6.85826C25.1868 7.01707 25.1825 7.17605 25.182 7.33506C25.182 9.50814 25.9335 11.4293 27.0337 12.7562L28.3787 14.3782L26.3079 14.7678C24.8801 15.0367 23.8346 15.7907 22.938 17.0227C22.6345 17.4397 22.3558 17.9134 22.1 18.4331C14.4579 17.5778 9.09629 15.6361 9.09629 13.3926C9.09629 11.0866 14.7603 9.14489 22.7428 8.34975C22.7142 8.01245 22.6999 7.6741 22.6999 7.33559V7.33532C22.6999 7.22376 22.7031 7.113 22.7061 7.00196C9.899 7.90111 0.486848 10.8734 0.486582 14.4009C0.486317 17.7651 9.04794 20.6245 20.9495 21.6618C20.9243 21.7604 20.8972 21.8564 20.873 21.9561C20.5596 23.2471 20.3351 24.6416 20.1734 26.0773C20.1721 26.0773 20.1707 26.0773 20.1694 26.0776C20.1139 26.5627 20.0658 27.0524 20.024 27.5446L20.0306 27.5439C19.8558 29.6393 19.7953 31.778 19.7792 33.7795H24.5464L24.8273 37.5514C15.7641 36.8881 9.09642 34.7618 9.09642 32.2597C9.09642 30.5009 12.3942 28.954 17.4995 27.9659C17.5393 27.4272 17.5871 26.8881 17.6424 26.3506C7.49284 27.5928 0.486981 30.2245 0.486715 33.2683C0.486449 37.0096 11.0732 40.1271 25.07 40.8078L25.8589 51.4022C27.2535 51.7539 29.158 51.955 31.0409 51.9425C32.8724 51.9303 34.658 51.7154 35.8819 51.4113L36.5809 40.8067C50.5671 40.1241 61.1426 37.0076 61.1426 33.2683C61.1426 30.2119 54.0775 27.5713 43.8597 26.3355C43.9001 26.8694 43.9337 27.4042 43.96 27.9385C49.1241 28.9253 52.4553 30.4845 52.4553 32.2597C52.4553 34.7619 45.8407 36.8882 36.7957 37.5515L37.044 33.7794H41.5835C41.582 31.7722 41.5667 29.6263 41.4464 27.5247C41.4477 27.5247 41.449 27.525 41.4506 27.5252C41.4226 27.0384 41.388 26.552 41.3467 26.0661L41.3441 26.0659C41.2192 24.5841 41.0297 23.1461 40.7403 21.8203C40.7284 21.7665 40.7159 21.7136 40.7038 21.6601C52.5929 20.6207 61.1427 17.7628 61.1427 14.4011C61.1427 10.8434 51.5701 7.84918 38.5951 6.97859C38.5985 7.09746 38.6022 7.21606 38.6022 7.33559C38.6022 7.66762 38.5884 7.99567 38.5618 8.31933C46.6886 9.09443 52.4553 11.0566 52.4553 13.3928C52.4553 15.6247 47.1916 17.5571 39.6357 18.4195C39.3688 17.8506 39.0699 17.337 38.7376 16.8914C37.8305 15.674 36.7371 14.9245 35.1331 14.6759L33.0197 14.3478L34.3527 12.6757C35.2728 11.5216 35.9348 9.9245 36.0868 8.1245H36.0871C36.1088 7.86551 36.1203 7.60254 36.1203 7.33586C36.1203 7.23359 36.1174 7.13239 36.1139 7.03171C36.1119 6.96796 36.1096 6.90448 36.1064 6.84126H36.1061C35.9095 2.89075 33.3825 0.0279806 30.6507 0.0279806C30.3149 0.0279806 30.124 0.0164259 30.1155 0.0173556H30.1151L30.1147 0.0170898ZM22.8373 44.2576C9.93991 45.1415 0.44873 48.1238 0.44873 51.6685C0.44873 55.9095 14.0279 59.3471 30.7787 59.3471C47.5296 59.3471 61.1086 55.9096 61.1086 51.6687C61.1086 48.1348 51.6762 45.1603 38.8399 44.2662L38.7529 45.5851C46.7699 46.3892 52.4424 48.3683 52.4424 50.6843C52.4424 53.7137 42.7429 56.1692 30.7781 56.1692C18.8132 56.1692 9.11368 53.7134 9.11368 50.6844C9.11368 48.3558 14.8485 46.3677 22.9355 45.572L22.8372 44.2579L22.8373 44.2576Z" fill="url(#paint0_linear_5327_782)"/>
<defs>
<linearGradient id="paint0_linear_5327_782" x1="30.7957" y1="0.0170898" x2="30.7957" y2="59.3471" gradientUnits="userSpaceOnUse">
<stop stop-color="#7882F2"/>
<stop offset="1" stop-color="#6DA5E9"/>
</linearGradient>
</defs>
</svg>
