<svg width="285" height="224" viewBox="0 0 285 224" fill="none" xmlns="http://www.w3.org/2000/svg">
<rect width="285" height="224" rx="10" fill="url(#paint0_linear_1_32)"/>
<rect x="0.5" y="0.5" width="284" height="223" rx="9.5" stroke="white" stroke-opacity="0.15"/>
<line x1="17.75" y1="53.9696" x2="18.1945" y2="181.997" stroke="white" stroke-opacity="0.75" stroke-width="1.5"/>
<line x1="236.444" y1="182.75" x2="17.4443" y2="182.75" stroke="white" stroke-opacity="0.75" stroke-width="1.5"/>
<path d="M17.667 28.2476C18.4363 28.9834 18.8209 29.9031 18.8209 31.0068C18.8209 32.1104 18.4363 33.0357 17.667 33.7827C16.8978 34.5184 15.9112 34.8863 14.7072 34.8863H12.8845V39H10.928V27.1272H14.7072C15.9112 27.1272 16.8978 27.5007 17.667 28.2476ZM16.2958 32.4783C16.6971 32.0881 16.8978 31.5976 16.8978 31.0068C16.8978 30.4159 16.6971 29.931 16.2958 29.5519C15.9056 29.1618 15.3705 28.9667 14.6905 28.9667H12.8845V33.0469H14.6905C15.3705 33.0469 15.9056 32.8574 16.2958 32.4783ZM20.4108 39V30.6389H22.2502V32.1272C22.4063 31.6589 22.6906 31.2799 23.1031 30.9901C23.5267 30.7002 23.9782 30.5553 24.4576 30.5553C24.7474 30.5553 24.9871 30.5776 25.1766 30.6222V32.5118C24.9091 32.4114 24.6025 32.3613 24.2569 32.3613C23.6995 32.3613 23.2257 32.5898 22.8355 33.0469C22.4453 33.4928 22.2502 34.1171 22.2502 34.9198V39H20.4108ZM27.683 28.8162C27.3485 28.8162 27.0587 28.6991 26.8134 28.465C26.5682 28.2197 26.4455 27.9243 26.4455 27.5787C26.4455 27.2443 26.5682 26.96 26.8134 26.7259C27.0587 26.4806 27.3485 26.358 27.683 26.358C28.0286 26.358 28.3184 26.4806 28.5525 26.7259C28.7867 26.96 28.9037 27.2443 28.9037 27.5787C28.9037 27.9243 28.7867 28.2197 28.5525 28.465C28.3184 28.6991 28.0286 28.8162 27.683 28.8162ZM26.7633 39V30.6389H28.6027V39H26.7633ZM34.8871 39.1672C33.6274 39.1672 32.5739 38.7547 31.7266 37.9298C30.8905 37.0937 30.4725 36.0569 30.4725 34.8194C30.4725 33.582 30.8905 32.5508 31.7266 31.7258C32.5739 30.8897 33.6274 30.4717 34.8871 30.4717C35.7455 30.4717 36.5148 30.6779 37.1948 31.0904C37.886 31.5029 38.4155 32.0659 38.7834 32.7793L37.1781 33.6489C36.9663 33.203 36.6597 32.8462 36.2584 32.5787C35.857 32.3111 35.4 32.1773 34.8871 32.1773C34.1514 32.1773 33.5438 32.4337 33.0644 32.9466C32.585 33.4482 32.3454 34.0725 32.3454 34.8194C32.3454 35.5664 32.585 36.1962 33.0644 36.7091C33.5438 37.2107 34.1514 37.4616 34.8871 37.4616C35.4 37.4616 35.857 37.3278 36.2584 37.0602C36.6597 36.7927 36.9663 36.4359 37.1781 35.99L38.7834 36.8596C38.4155 37.573 37.886 38.136 37.1948 38.5485C36.5148 38.961 35.7455 39.1672 34.8871 39.1672ZM44.2436 39.1672C42.9727 39.1672 41.9248 38.7603 41.0998 37.9465C40.286 37.1327 39.8791 36.0903 39.8791 34.8194C39.8791 33.582 40.2916 32.5508 41.1166 31.7258C41.9415 30.8897 42.9839 30.4717 44.2436 30.4717C45.403 30.4717 46.3618 30.8396 47.1198 31.5753C47.8891 32.3111 48.2737 33.3256 48.2737 34.6188C48.2737 34.8417 48.2681 35.0424 48.2569 35.2208H41.6851C41.7297 35.9008 41.9917 36.4526 42.4711 36.8763C42.9504 37.2888 43.5469 37.495 44.2603 37.495C45.3306 37.495 46.1276 37.0714 46.6516 36.2241L48.0563 37.2274C47.2536 38.5206 45.9827 39.1672 44.2436 39.1672ZM41.7687 33.883H46.4175C46.3172 33.3033 46.0552 32.8518 45.6316 32.5285C45.2191 32.1941 44.7341 32.0268 44.1767 32.0268C43.597 32.0268 43.0786 32.1885 42.6216 32.5118C42.1756 32.8351 41.8914 33.2921 41.7687 33.883ZM60.9897 37.9131C60.1536 38.7492 59.1169 39.1672 57.8794 39.1672C56.642 39.1672 55.5996 38.7492 54.7524 37.9131C53.9162 37.0658 53.4982 36.0346 53.4982 34.8194C53.4982 33.6043 53.9162 32.5787 54.7524 31.7426C55.5996 30.8953 56.642 30.4717 57.8794 30.4717C59.1169 30.4717 60.1536 30.8953 60.9897 31.7426C61.837 32.5787 62.2606 33.6043 62.2606 34.8194C62.2606 36.0346 61.837 37.0658 60.9897 37.9131ZM57.8794 37.4616C58.604 37.4616 59.2005 37.2107 59.6687 36.7091C60.1481 36.1962 60.3877 35.5664 60.3877 34.8194C60.3877 34.0725 60.1481 33.4482 59.6687 32.9466C59.2005 32.4337 58.604 32.1773 57.8794 32.1773C57.1436 32.1773 56.5361 32.4337 56.0567 32.9466C55.5885 33.4482 55.3544 34.0725 55.3544 34.8194C55.3544 35.5664 55.5885 36.1962 56.0567 36.7091C56.5361 37.2107 57.1436 37.4616 57.8794 37.4616ZM64.7496 39V32.2777H63.0105V30.6389H64.7496V29.2342C64.7496 28.3312 65.0172 27.6289 65.5523 27.1272C66.0874 26.6144 66.773 26.358 67.6091 26.358C68.1219 26.358 68.579 26.4249 68.9803 26.5587V28.1974C68.7239 28.086 68.3951 28.0302 67.9937 28.0302C67.5032 28.0302 67.1465 28.1417 66.9235 28.3647C66.7006 28.5765 66.5891 28.9388 66.5891 29.4516V30.6389H68.9803V32.2777H66.5891V39H64.7496ZM76.6167 39.1672C75.8474 39.1672 75.1674 39.0223 74.5765 38.7324C73.9857 38.4314 73.5453 37.9855 73.2555 37.3947L74.61 36.4248C74.7772 36.7815 75.0448 37.0658 75.4127 37.2776C75.7805 37.4783 76.1819 37.5786 76.6167 37.5786C76.9622 37.5786 77.2465 37.5006 77.4695 37.3445C77.7036 37.1884 77.8207 36.971 77.8207 36.6923C77.8207 36.4471 77.7259 36.2464 77.5364 36.0903C77.358 35.9343 77.0236 35.7782 76.533 35.6221L75.7973 35.4214C74.3146 35.0201 73.5844 34.1673 73.6067 32.8629C73.6067 32.1383 73.8909 31.5586 74.4595 31.1238C75.028 30.6891 75.7415 30.4717 76.5999 30.4717C77.8931 30.4717 78.8351 30.9455 79.426 31.8931L78.1551 32.8629C77.7315 32.2944 77.2019 32.0101 76.5665 32.0101C76.2655 32.0101 76.0035 32.0826 75.7805 32.2275C75.5576 32.3613 75.4461 32.5508 75.4461 32.7961C75.4461 33.019 75.5186 33.2085 75.6635 33.3646C75.8084 33.5207 76.0704 33.66 76.4494 33.7827L77.3023 34.0335C78.0826 34.2676 78.6679 34.5853 79.0581 34.9867C79.4483 35.3769 79.6434 35.9064 79.6434 36.5753C79.6434 37.3668 79.3591 37.9967 78.7905 38.4649C78.222 38.9331 77.4974 39.1672 76.6167 39.1672ZM85.0658 39.0836C84.2186 39.0836 83.5274 38.8495 82.9923 38.3813C82.4683 37.9019 82.2063 37.2107 82.2063 36.3077V32.2777H80.4672V30.6389H82.2063V28.3145H84.0458V30.6389H86.437V32.2777H84.0458V36.0067C84.0458 36.5195 84.1572 36.8874 84.3802 37.1104C84.6032 37.3222 84.9599 37.4281 85.4504 37.4281C85.8518 37.4281 86.1806 37.3724 86.437 37.2609V38.8997C86.0357 39.0223 85.5786 39.0836 85.0658 39.0836ZM88.3989 39V27.1272H95.5393V29.0001H90.3554V32.0436H94.536V33.9164H90.3554V37.1271H95.5393V39H88.3989ZM100.096 39V29.0001H96.6517V27.1272H105.514V29.0001H102.053V39H100.096ZM107.277 39V27.1272H109.233V32.0436H115.103V27.1272H117.059V39H115.103V33.8997H109.233V39H107.277Z" fill="white" fill-opacity="0.5"/>
<path d="M244.14 187V177H240.695V175.127H249.558V177H246.096V187H244.14ZM251.924 176.816C251.59 176.816 251.3 176.699 251.055 176.465C250.809 176.22 250.687 175.924 250.687 175.579C250.687 175.244 250.809 174.96 251.055 174.726C251.3 174.481 251.59 174.358 251.924 174.358C252.27 174.358 252.56 174.481 252.794 174.726C253.028 174.96 253.145 175.244 253.145 175.579C253.145 175.924 253.028 176.22 252.794 176.465C252.56 176.699 252.27 176.816 251.924 176.816ZM251.005 187V178.639H252.844V187H251.005ZM265.968 187V182.301C265.968 181.621 265.84 181.091 265.583 180.712C265.338 180.333 264.97 180.144 264.48 180.144C263.889 180.144 263.415 180.372 263.058 180.83C262.701 181.287 262.512 181.928 262.49 182.753V187H260.65V182.301C260.65 181.621 260.522 181.091 260.266 180.712C260.02 180.333 259.652 180.144 259.162 180.144C258.549 180.144 258.058 180.384 257.69 180.863C257.334 181.342 257.155 182.017 257.155 182.886V187H255.316V178.639H257.155V179.776C257.668 178.906 258.46 178.472 259.53 178.472C260.79 178.472 261.654 179.023 262.122 180.127C262.356 179.603 262.713 179.196 263.192 178.906C263.682 178.617 264.218 178.472 264.797 178.472C265.734 178.472 266.47 178.789 267.005 179.425C267.54 180.06 267.807 180.919 267.807 182V187H265.968ZM273.939 187.167C272.668 187.167 271.62 186.76 270.795 185.947C269.982 185.133 269.575 184.09 269.575 182.819C269.575 181.582 269.987 180.551 270.812 179.726C271.637 178.89 272.68 178.472 273.939 178.472C275.099 178.472 276.057 178.84 276.815 179.575C277.585 180.311 277.969 181.326 277.969 182.619C277.969 182.842 277.964 183.042 277.953 183.221H271.381C271.425 183.901 271.687 184.453 272.167 184.876C272.646 185.289 273.242 185.495 273.956 185.495C275.026 185.495 275.823 185.071 276.347 184.224L277.752 185.227C276.949 186.521 275.678 187.167 273.939 187.167ZM271.464 181.883H276.113C276.013 181.303 275.751 180.852 275.327 180.528C274.915 180.194 274.43 180.027 273.872 180.027C273.293 180.027 272.774 180.188 272.317 180.512C271.871 180.835 271.587 181.292 271.464 181.883Z" fill="white" fill-opacity="0.5"/>
<path d="M20.4443 138.198C22.5194 141.518 25.463 134.877 25.7066 135.973C26.8839 141.271 30.755 132.348 32.1697 135.02C34.0457 138.563 35.7639 130.091 36.1605 128.663C37.2094 124.887 38.0944 120.919 38.8799 117.078C39.8896 112.142 39.9228 106.727 41.2462 101.963C42.463 97.5823 41.8065 93.1713 43.4712 88.8247C43.8566 87.8183 46.014 81.3637 46.014 82.6088C46.014 84.5984 46.5439 86.9814 46.9676 88.9306C47.8577 93.0249 48.8948 96.6945 50.3228 100.55C50.8343 101.931 50.6044 103.66 51.4882 101.892C51.9168 101.035 56.0829 95.1583 56.1501 95.3937C56.2454 95.7272 56.1141 99.5786 56.6799 98.0072C56.8604 97.5057 58.6051 92.997 58.7283 94.4754C58.9801 97.497 61.0573 94.5252 61.9068 93.3453C64.7629 89.3784 66.6693 85.2982 69.1469 81.1255C71.01 77.9876 69.5354 80.4648 69.5354 82.2557C69.5354 86.2078 72.4238 79.9399 72.8552 79.0771C74.0947 76.5981 75.3217 74.1416 76.8107 71.8017C77.1336 71.2944 77.4708 68.8568 77.8349 70.495C78.5298 73.622 81.7981 76.3884 83.3797 79.0771C85.1949 82.163 86.212 73.6463 87.6531 76.8168C88.5016 78.6835 88.7749 75.6522 89.7368 75.5454C90.2595 75.4873 89.7595 78.3832 91.2908 77.3112C92.6329 76.3718 94.2513 84.6494 94.3634 85.4342C94.5591 86.804 94.873 88.6406 95.4582 89.8842C95.6404 90.2714 96.1803 88.2738 96.8709 87.6239C98.3499 86.2318 97.0168 95.9495 100.367 89.2485C101.539 86.9051 101.802 88.4447 101.957 90.3786C102.05 91.5499 104.05 87.7906 104.641 87.3413C106.466 85.954 106.023 86.7187 106.76 88.6128C107.075 89.4235 108.904 94.6639 109.62 92.9921C110.95 89.8902 113.429 87.4155 114.812 84.3041C115.519 82.7124 117.849 75.3348 117.849 80.4898C117.849 84.5013 118.306 88.4478 118.803 92.427C119.334 96.6722 118.945 101.194 120.11 105.353C121.021 108.609 123.337 103.21 124.065 102.104C125.625 99.7349 125.077 104.685 126.891 101.327C127.808 99.6283 129.154 95.9368 130.846 94.9699C131.894 94.3709 131.902 90.3518 132.153 89.2485C132.282 88.6815 133.537 83.2512 133.601 83.3152C134.262 83.9763 135.182 88.2463 135.649 89.3897C136.044 90.3549 137.034 94.2635 138.475 94.2635C139.044 94.2635 139.45 91.0086 140.099 92.1445C140.668 93.14 140.856 94.149 142.006 93.0627C144.122 91.0649 144.241 94.678 145.326 96.2413C147.453 99.3033 147.092 101.173 147.092 105.071C147.092 106.681 148.11 112.945 148.222 112.77C149.252 111.168 151.294 122.244 154.085 117.22C155.062 115.46 155.151 113.434 155.851 116.584C156.228 118.28 157.004 110.307 157.523 111.993C158.102 113.874 157.643 118.225 159.324 115.984C161.81 112.669 163.359 118.608 164.163 117.22C166.305 113.52 168.706 117.655 168.706 113.194C168.706 112.4 171.433 106.003 172.379 103.375C172.779 102.264 172.521 105.807 172.521 106.413C172.521 109.97 173.455 106.288 174.428 105.177C176.322 103.011 177.477 100.09 178.383 97.3715C180.026 92.4426 179.311 97.0749 180.467 99.773C181.346 101.824 182.158 103.854 182.974 105.918C184.147 108.884 183.777 108.062 185.235 106.695C185.721 106.24 186.919 109.336 187.142 109.838C187.534 110.72 189.064 108.123 189.367 107.719C190.598 106.078 191.334 107.98 191.733 109.097C192.34 110.795 194.152 111.409 194.629 112.417C195.617 114.502 195.222 127.01 196.995 125.237C197.106 125.126 201.12 132.477 202.399 132.477C203.609 132.477 204.543 131.197 205.825 132.194C206.584 132.785 207.14 135.062 207.485 136.009C208.191 137.951 210.742 147.113 212.429 141.377C213.871 136.473 214.161 141.732 216.067 143.849" stroke="white" stroke-width="2.38889" stroke-linecap="round"/>
<rect x="150.444" y="124" width="12" height="53" rx="2" fill="#D9D9D9" fill-opacity="0.2"/>
<rect x="173.444" y="115" width="12" height="62" rx="2" fill="#D9D9D9" fill-opacity="0.2"/>
<rect x="208.444" y="149" width="12" height="28" rx="2" fill="#D9D9D9" fill-opacity="0.2"/>
<rect x="190.444" y="137" width="12" height="40" rx="2" fill="#D9D9D9" fill-opacity="0.2"/>
<rect x="129.444" y="105" width="12" height="72" rx="2" fill="#D9D9D9" fill-opacity="0.2"/>
<rect x="112.444" y="118" width="12" height="59" rx="2" fill="#D9D9D9" fill-opacity="0.2"/>
<rect x="87" y="198" width="12" height="37" rx="2" transform="rotate(90 87 198)" fill="#D9D9D9" fill-opacity="0.2"/>
<path d="M95.3834 209V199.06H101.165V200.292H96.6854V203.302H100.227V204.534H96.6854V209H95.3834ZM104.99 209.14C104.019 209.14 103.202 208.785 102.54 208.076C101.886 207.367 101.56 206.508 101.56 205.5C101.56 204.492 101.886 203.633 102.54 202.924C103.202 202.215 104.019 201.86 104.99 201.86C105.503 201.86 105.979 201.977 106.418 202.21C106.866 202.434 107.211 202.723 107.454 203.078V202H108.658V209H107.454V207.922C107.211 208.277 106.866 208.571 106.418 208.804C105.979 209.028 105.503 209.14 104.99 209.14ZM105.172 208.034C105.862 208.034 106.432 207.791 106.88 207.306C107.328 206.821 107.552 206.219 107.552 205.5C107.552 204.781 107.328 204.179 106.88 203.694C106.432 203.209 105.862 202.966 105.172 202.966C104.472 202.966 103.898 203.209 103.45 203.694C103.002 204.179 102.778 204.781 102.778 205.5C102.778 206.219 103.002 206.821 103.45 207.306C103.898 207.791 104.472 208.034 105.172 208.034ZM110.924 209V202H112.128V203.358C112.259 202.929 112.511 202.583 112.884 202.322C113.267 202.061 113.668 201.93 114.088 201.93C114.293 201.93 114.475 201.949 114.634 201.986V203.232C114.466 203.157 114.247 203.12 113.976 203.12C113.491 203.12 113.061 203.33 112.688 203.75C112.315 204.17 112.128 204.763 112.128 205.528V209H110.924ZM125.067 209V204.884C125.067 204.305 124.946 203.843 124.703 203.498C124.47 203.143 124.129 202.966 123.681 202.966C123.121 202.966 122.664 203.185 122.309 203.624C121.964 204.063 121.782 204.66 121.763 205.416V209H120.559V204.884C120.559 204.296 120.438 203.829 120.195 203.484C119.962 203.139 119.626 202.966 119.187 202.966C118.608 202.966 118.142 203.199 117.787 203.666C117.432 204.123 117.255 204.744 117.255 205.528V209H116.051V202H117.255V203.078C117.703 202.266 118.408 201.86 119.369 201.86C120.433 201.86 121.152 202.359 121.525 203.358C121.712 202.901 122.01 202.537 122.421 202.266C122.832 201.995 123.298 201.86 123.821 201.86C124.577 201.86 125.174 202.117 125.613 202.63C126.052 203.143 126.271 203.834 126.271 204.702V209H125.067ZM131.518 209.14C130.444 209.14 129.572 208.795 128.9 208.104C128.228 207.413 127.892 206.545 127.892 205.5C127.892 204.464 128.232 203.601 128.914 202.91C129.595 202.21 130.468 201.86 131.532 201.86C132.474 201.86 133.263 202.177 133.898 202.812C134.542 203.437 134.864 204.291 134.864 205.374C134.864 205.514 134.859 205.635 134.85 205.738H129.11C129.128 206.391 129.362 206.937 129.81 207.376C130.267 207.815 130.841 208.034 131.532 208.034C132.512 208.034 133.24 207.628 133.716 206.816L134.668 207.474C133.986 208.585 132.936 209.14 131.518 209.14ZM129.194 204.758H133.632C133.538 204.198 133.291 203.755 132.89 203.428C132.498 203.092 132.031 202.924 131.49 202.924C130.939 202.924 130.444 203.092 130.006 203.428C129.576 203.755 129.306 204.198 129.194 204.758ZM139.456 209.14C138.486 209.14 137.669 208.785 137.006 208.076C136.353 207.367 136.026 206.508 136.026 205.5C136.026 204.492 136.353 203.633 137.006 202.924C137.669 202.215 138.486 201.86 139.456 201.86C139.97 201.86 140.446 201.977 140.884 202.21C141.332 202.434 141.678 202.723 141.92 203.078V198.5H143.124V209H141.92V207.922C141.678 208.277 141.332 208.571 140.884 208.804C140.446 209.028 139.97 209.14 139.456 209.14ZM139.638 208.034C140.329 208.034 140.898 207.791 141.346 207.306C141.794 206.821 142.018 206.219 142.018 205.5C142.018 204.781 141.794 204.179 141.346 203.694C140.898 203.209 140.329 202.966 139.638 202.966C138.938 202.966 138.364 203.209 137.916 203.694C137.468 204.179 137.244 204.781 137.244 205.5C137.244 206.219 137.468 206.821 137.916 207.306C138.364 207.791 138.938 208.034 139.638 208.034ZM154.458 209L152.722 203.974L151 209H149.936L147.556 202H148.816L150.51 207.11L152.26 202H153.184L154.934 207.11L156.628 202H157.902L155.522 209H154.458ZM160.417 199.886C160.259 200.045 160.058 200.124 159.815 200.124C159.573 200.124 159.367 200.045 159.199 199.886C159.031 199.718 158.947 199.513 158.947 199.27C158.947 199.037 159.031 198.836 159.199 198.668C159.367 198.5 159.573 198.416 159.815 198.416C160.058 198.416 160.259 198.5 160.417 198.668C160.576 198.836 160.655 199.037 160.655 199.27C160.655 199.513 160.576 199.718 160.417 199.886ZM159.199 209V202H160.403V209H159.199ZM165.402 209.07C164.758 209.07 164.24 208.888 163.848 208.524C163.456 208.16 163.26 207.628 163.26 206.928V203.106H161.776V202H163.26V200.054H164.464V202H166.48V203.106H164.464V206.774C164.464 207.213 164.557 207.521 164.744 207.698C164.93 207.875 165.224 207.964 165.626 207.964C165.98 207.964 166.265 207.917 166.48 207.824V208.902C166.144 209.014 165.784 209.07 165.402 209.07ZM169.222 209H168.018V198.5H169.222V203.078C169.698 202.266 170.44 201.86 171.448 201.86C172.241 201.86 172.88 202.117 173.366 202.63C173.851 203.143 174.094 203.829 174.094 204.688V209H172.904V204.87C172.904 204.282 172.754 203.82 172.456 203.484C172.157 203.139 171.756 202.966 171.252 202.966C170.673 202.966 170.188 203.195 169.796 203.652C169.413 204.109 169.222 204.735 169.222 205.528V209ZM188.543 209H186.625L181.781 202.854V209H179.555V199.06H181.473L186.303 205.206V199.06H188.543V209ZM193.163 206.13C193.732 206.718 194.418 207.012 195.221 207.012C196.023 207.012 196.705 206.718 197.265 206.13C197.825 205.542 198.105 204.842 198.105 204.03C198.105 203.218 197.825 202.518 197.265 201.93C196.705 201.342 196.023 201.048 195.221 201.048C194.418 201.048 193.732 201.342 193.163 201.93C192.603 202.518 192.323 203.218 192.323 204.03C192.323 204.842 192.603 205.542 193.163 206.13ZM198.847 207.656C197.848 208.664 196.639 209.168 195.221 209.168C193.802 209.168 192.589 208.669 191.581 207.67C190.582 206.662 190.083 205.449 190.083 204.03C190.083 202.611 190.582 201.403 191.581 200.404C192.589 199.396 193.802 198.892 195.221 198.892C196.639 198.892 197.848 199.396 198.847 200.404C199.855 201.412 200.359 202.621 200.359 204.03C200.359 205.439 199.855 206.648 198.847 207.656ZM203.735 209V204.814L200.109 199.06H202.699L204.841 202.644L207.011 199.06H209.601L205.975 204.828V209H203.735ZM208.419 209L212.675 199.06H214.691L218.947 209H216.623L215.741 206.9H211.625L210.743 209H208.419ZM213.683 201.986L212.423 204.968H214.929L213.683 201.986Z" fill="white"/>
<rect x="27.4443" y="141" width="12" height="36" rx="2" fill="#D9D9D9" fill-opacity="0.2"/>
<rect x="27.4443" y="149" width="12" height="28" rx="2" fill="url(#paint1_linear_1_32)"/>
<rect x="78" y="198" width="12" height="28" rx="2" transform="rotate(90 78 198)" fill="url(#paint2_linear_1_32)"/>
<rect x="47.4443" y="121" width="12" height="56" rx="2" fill="url(#paint3_linear_1_32)"/>
<rect x="72.4443" y="101" width="12" height="76" rx="2" fill="url(#paint4_linear_1_32)"/>
<rect x="91.4443" y="116" width="12" height="61" rx="2" fill="url(#paint5_linear_1_32)"/>
<rect x="112.444" y="132" width="12" height="45" rx="2" fill="url(#paint6_linear_1_32)"/>
<rect x="129.444" y="119" width="12" height="58" rx="2" fill="url(#paint7_linear_1_32)"/>
<rect x="150.444" y="135" width="12" height="42" rx="2" fill="url(#paint8_linear_1_32)"/>
<rect x="173.444" y="130" width="12" height="47" rx="2" fill="url(#paint9_linear_1_32)"/>
<rect x="190.444" y="148" width="12" height="29" rx="2" fill="url(#paint10_linear_1_32)"/>
<rect x="208.444" y="159" width="12" height="18" rx="2" fill="url(#paint11_linear_1_32)"/>
<rect x="72.4443" y="90" width="12" height="87" rx="2" fill="#D9D9D9" fill-opacity="0.2"/>
<rect x="47.4443" y="109" width="12" height="68" rx="2" fill="#D9D9D9" fill-opacity="0.2"/>
<rect x="91.4443" y="100" width="12" height="77" rx="2" fill="#D9D9D9" fill-opacity="0.2"/>
<defs>
<linearGradient id="paint0_linear_1_32" x1="142.5" y1="0" x2="142.5" y2="224" gradientUnits="userSpaceOnUse">
<stop stop-color="#7D6FF6" stop-opacity="0.16"/>
<stop offset="1" stop-color="#58E1D9" stop-opacity="0.16"/>
</linearGradient>
<linearGradient id="paint1_linear_1_32" x1="33.4443" y1="149" x2="33.4443" y2="177" gradientUnits="userSpaceOnUse">
<stop stop-color="#7D6FF6"/>
<stop offset="1" stop-color="#58E1D9"/>
</linearGradient>
<linearGradient id="paint2_linear_1_32" x1="84" y1="198" x2="84" y2="226" gradientUnits="userSpaceOnUse">
<stop stop-color="#7D6FF6"/>
<stop offset="1" stop-color="#58E1D9"/>
</linearGradient>
<linearGradient id="paint3_linear_1_32" x1="53.4443" y1="121" x2="53.4443" y2="177" gradientUnits="userSpaceOnUse">
<stop stop-color="#7D6FF6"/>
<stop offset="1" stop-color="#58E1D9"/>
</linearGradient>
<linearGradient id="paint4_linear_1_32" x1="78.4443" y1="101" x2="78.4443" y2="177" gradientUnits="userSpaceOnUse">
<stop stop-color="#7D6FF6"/>
<stop offset="1" stop-color="#58E1D9"/>
</linearGradient>
<linearGradient id="paint5_linear_1_32" x1="97.4443" y1="116" x2="97.4443" y2="177" gradientUnits="userSpaceOnUse">
<stop stop-color="#7D6FF6"/>
<stop offset="1" stop-color="#58E1D9"/>
</linearGradient>
<linearGradient id="paint6_linear_1_32" x1="118.444" y1="132" x2="118.444" y2="177" gradientUnits="userSpaceOnUse">
<stop stop-color="#7D6FF6"/>
<stop offset="1" stop-color="#58E1D9"/>
</linearGradient>
<linearGradient id="paint7_linear_1_32" x1="135.444" y1="119" x2="135.444" y2="177" gradientUnits="userSpaceOnUse">
<stop stop-color="#7D6FF6"/>
<stop offset="1" stop-color="#58E1D9"/>
</linearGradient>
<linearGradient id="paint8_linear_1_32" x1="156.444" y1="135" x2="156.444" y2="177" gradientUnits="userSpaceOnUse">
<stop stop-color="#7D6FF6"/>
<stop offset="1" stop-color="#58E1D9"/>
</linearGradient>
<linearGradient id="paint9_linear_1_32" x1="179.444" y1="130" x2="179.444" y2="177" gradientUnits="userSpaceOnUse">
<stop stop-color="#7D6FF6"/>
<stop offset="1" stop-color="#58E1D9"/>
</linearGradient>
<linearGradient id="paint10_linear_1_32" x1="196.444" y1="148" x2="196.444" y2="177" gradientUnits="userSpaceOnUse">
<stop stop-color="#7D6FF6"/>
<stop offset="1" stop-color="#58E1D9"/>
</linearGradient>
<linearGradient id="paint11_linear_1_32" x1="214.444" y1="159" x2="214.444" y2="177" gradientUnits="userSpaceOnUse">
<stop stop-color="#7D6FF6"/>
<stop offset="1" stop-color="#58E1D9"/>
</linearGradient>
</defs>
</svg>
