<svg width="672" height="183" viewBox="0 0 672 183" fill="none" xmlns="http://www.w3.org/2000/svg">
<path d="M60.2557 72.3242V46.3063H65.5692V67.2672H76.7093V72.3242H60.2557ZM81.6967 72.3242V51.3633H74.7708V46.3063H94.046V51.3633H87.0469V72.3242H81.6967ZM105.676 72.3242L94.9387 46.3063H100.692L108.058 64.3723L115.313 46.3063H121.176L110.403 72.3242H105.676Z" fill="white"/>
<rect x="216.039" y="1.81038" width="194.884" height="180.226" rx="2.49852" stroke="white" stroke-width="1.66568"/>
<rect x="216.039" y="103.084" width="194.884" height="78.9531" rx="2.49852" fill="#8E75D8" stroke="white" stroke-width="1.66568"/>
<path d="M22.1628 114.962V105.877C22.1628 104.598 21.883 103.569 21.3233 102.789C20.7836 102.01 20.0041 101.62 18.9847 101.62C17.6455 101.62 16.5661 102.16 15.7466 103.239C14.9471 104.298 14.5473 105.717 14.5473 107.496V114.962H12.4486V105.877C12.4486 104.598 12.1688 103.569 11.6091 102.789C11.0694 102.01 10.2999 101.62 9.30045 101.62C7.98124 101.62 6.90188 102.16 6.06238 103.239C5.24286 104.298 4.83311 105.717 4.83311 107.496V114.962H2.73435V99.9708H4.83311V102.489C5.27285 101.61 5.90247 100.92 6.72199 100.421C7.5415 99.9208 8.47095 99.671 9.51033 99.671C10.6297 99.671 11.5891 99.9708 12.3886 100.57C13.2081 101.17 13.7978 102 14.1576 103.059C14.5373 102.02 15.157 101.2 16.0165 100.6C16.8959 99.9808 17.9353 99.671 19.1346 99.671C20.6937 99.671 21.933 100.221 22.8524 101.32C23.7919 102.399 24.2616 103.819 24.2616 105.577V114.962H22.1628ZM35.38 115.262C33.2813 115.262 31.5123 114.502 30.0732 112.983C28.6341 111.464 27.9145 109.625 27.9145 107.466C27.9145 105.308 28.6341 103.469 30.0732 101.95C31.5123 100.431 33.2813 99.671 35.38 99.671C36.5194 99.671 37.5887 99.9308 38.5881 100.451C39.6075 100.97 40.3871 101.65 40.9268 102.489V99.9708H43.0255V114.962H40.9268V112.443C40.3871 113.283 39.6075 113.963 38.5881 114.482C37.5887 115.002 36.5194 115.262 35.38 115.262ZM31.6023 111.634C32.6417 112.753 33.9709 113.313 35.5899 113.313C37.209 113.313 38.5282 112.753 39.5476 111.634C40.587 110.495 41.1066 109.105 41.1066 107.466C41.1066 105.827 40.587 104.448 39.5476 103.329C38.5282 102.189 37.209 101.62 35.5899 101.62C33.9709 101.62 32.6417 102.189 31.6023 103.329C30.5829 104.448 30.0732 105.827 30.0732 107.466C30.0732 109.105 30.5829 110.495 31.6023 111.634ZM48.1761 114.962V99.9708H50.2749V102.489C51.2943 100.61 52.9333 99.671 55.192 99.671C56.851 99.671 58.2002 100.201 59.2396 101.26C60.2989 102.319 60.8286 103.759 60.8286 105.577V114.962H58.7299V105.877C58.7299 104.578 58.3801 103.549 57.6805 102.789C57.0009 102.01 56.0914 101.62 54.9521 101.62C53.5929 101.62 52.4736 102.15 51.5941 103.209C50.7146 104.248 50.2749 105.677 50.2749 107.496V114.962H48.1761ZM71.9501 115.262C69.8514 115.262 68.0824 114.502 66.6433 112.983C65.2041 111.464 64.4846 109.625 64.4846 107.466C64.4846 105.308 65.2041 103.469 66.6433 101.95C68.0824 100.431 69.8514 99.671 71.9501 99.671C73.0895 99.671 74.1588 99.9308 75.1582 100.451C76.1776 100.97 76.9572 101.65 77.4968 102.489V99.9708H79.5956V114.962H77.4968V112.443C76.9572 113.283 76.1776 113.963 75.1582 114.482C74.1588 115.002 73.0895 115.262 71.9501 115.262ZM68.1724 111.634C69.2118 112.753 70.541 113.313 72.16 113.313C73.779 113.313 75.0983 112.753 76.1177 111.634C77.157 110.495 77.6767 109.105 77.6767 107.466C77.6767 105.827 77.157 104.448 76.1177 103.329C75.0983 102.189 73.779 101.62 72.16 101.62C70.541 101.62 69.2118 102.189 68.1724 103.329C67.153 104.448 66.6433 105.827 66.6433 107.466C66.6433 109.105 67.153 110.495 68.1724 111.634ZM87.1748 111.394C88.1942 112.473 89.5134 113.013 91.1324 113.013C92.7515 113.013 94.0607 112.473 95.0601 111.394C96.0795 110.315 96.5892 108.955 96.5892 107.316C96.5892 105.677 96.0795 104.318 95.0601 103.239C94.0607 102.16 92.7515 101.62 91.1324 101.62C89.5134 101.62 88.1942 102.16 87.1748 103.239C86.1754 104.318 85.6757 105.677 85.6757 107.316C85.6757 108.955 86.1754 110.315 87.1748 111.394ZM91.1024 121.528C89.4834 121.528 88.0542 121.218 86.815 120.599C85.5757 119.979 84.6463 119.199 84.0266 118.26L85.6757 116.851C86.9749 118.67 88.7838 119.579 91.1024 119.579C92.5416 119.579 93.7808 119.119 94.8202 118.2C95.8796 117.281 96.4093 115.901 96.4093 114.062V112.144C95.8496 112.983 95.0801 113.663 94.1007 114.182C93.1212 114.702 92.0619 114.962 90.9225 114.962C88.8038 114.962 87.0349 114.232 85.6157 112.773C84.2165 111.294 83.5169 109.475 83.5169 107.316C83.5169 105.158 84.2165 103.349 85.6157 101.89C87.0349 100.411 88.8038 99.671 90.9225 99.671C92.0619 99.671 93.1212 99.9308 94.1007 100.451C95.0801 100.97 95.8496 101.65 96.4093 102.489V99.9708H98.508V114.182C98.508 116.541 97.8184 118.35 96.4393 119.609C95.0601 120.888 93.2811 121.528 91.1024 121.528ZM110.137 115.262C107.838 115.262 105.979 114.522 104.56 113.043C103.141 111.544 102.431 109.685 102.431 107.466C102.431 105.268 103.161 103.419 104.62 101.92C106.079 100.421 107.938 99.671 110.197 99.671C112.216 99.671 113.895 100.351 115.234 101.71C116.573 103.069 117.243 104.918 117.243 107.256V107.826H104.59C104.59 109.385 105.11 110.694 106.149 111.754C107.189 112.793 108.518 113.313 110.137 113.313C111.336 113.313 112.316 113.083 113.075 112.623C113.855 112.144 114.524 111.434 115.084 110.495L116.793 111.604C115.374 114.042 113.155 115.262 110.137 115.262ZM104.77 105.967H115.054C114.854 104.628 114.304 103.569 113.405 102.789C112.506 102.01 111.406 101.62 110.107 101.62C108.808 101.62 107.648 102.02 106.629 102.819C105.63 103.599 105.01 104.648 104.77 105.967ZM127.318 115.262C125.219 115.262 123.45 114.502 122.011 112.983C120.572 111.464 119.852 109.625 119.852 107.466C119.852 105.308 120.572 103.469 122.011 101.95C123.45 100.431 125.219 99.671 127.318 99.671C128.457 99.671 129.526 99.9308 130.526 100.451C131.545 100.97 132.325 101.65 132.864 102.489V92.4753H134.963V114.962H132.864V112.443C132.325 113.283 131.545 113.963 130.526 114.482C129.526 115.002 128.457 115.262 127.318 115.262ZM123.54 111.634C124.579 112.753 125.908 113.313 127.528 113.313C129.147 113.313 130.466 112.753 131.485 111.634C132.525 110.495 133.044 109.105 133.044 107.466C133.044 105.827 132.525 104.448 131.485 103.329C130.466 102.189 129.147 101.62 127.528 101.62C125.908 101.62 124.579 102.189 123.54 103.329C122.521 104.448 122.011 105.827 122.011 107.466C122.011 109.105 122.521 110.495 123.54 111.634ZM155.108 115.262C153.969 115.262 152.89 115.002 151.87 114.482C150.871 113.963 150.101 113.283 149.562 112.443V114.962H147.463V92.4753H149.562V102.489C150.101 101.65 150.871 100.97 151.87 100.451C152.89 99.9308 153.969 99.671 155.108 99.671C157.207 99.671 158.976 100.431 160.415 101.95C161.854 103.469 162.574 105.308 162.574 107.466C162.574 109.625 161.854 111.464 160.415 112.983C158.976 114.502 157.207 115.262 155.108 115.262ZM150.911 111.634C151.95 112.753 153.279 113.313 154.898 113.313C156.518 113.313 157.837 112.753 158.856 111.634C159.896 110.495 160.415 109.105 160.415 107.466C160.415 105.827 159.896 104.448 158.856 103.329C157.837 102.189 156.518 101.62 154.898 101.62C153.279 101.62 151.95 102.189 150.911 103.329C149.891 104.448 149.382 105.827 149.382 107.466C149.382 109.105 149.891 110.495 150.911 111.634ZM169.679 121.228H167.31L170.608 114.212L163.952 99.9708H166.291L171.778 111.874L177.264 99.9708H179.633L169.679 121.228ZM49.7681 152.962V149.694L59.5423 136.232H49.918V131.675H66.0185V134.943L56.2143 148.405H66.1984V152.962H49.7681ZM83.0177 152.962L74.3528 143.428V152.962H69.6156V131.675H74.3528V140.579L81.5785 131.675H87.4251L79.03 141.898L89.134 152.962H83.0177ZM90.609 131.675H94.9564L101.583 140.849L108.269 131.675H112.616V152.962H107.819V139.86L101.612 148.435L95.3762 139.83V152.962H90.609V131.675ZM117.107 152.962V131.675H121.874V148.405H130.689V152.962H117.107Z" fill="white"/>
<path d="M291.938 150.233V136.042H296.615C298.654 136.042 300.38 136.728 301.792 138.101C303.205 139.473 303.911 141.152 303.911 143.138C303.911 145.123 303.205 146.802 301.792 148.175C300.38 149.547 298.654 150.233 296.615 150.233H291.938ZM294.836 147.575H296.615C297.908 147.575 298.961 147.149 299.773 146.296C300.586 145.443 300.993 144.39 300.993 143.138C300.993 141.885 300.586 140.832 299.773 139.979C298.961 139.127 297.908 138.7 296.615 138.7H294.836V147.575ZM310.643 150.453C309.124 150.453 307.858 149.974 306.846 149.014C305.846 148.055 305.347 146.795 305.347 145.236C305.347 143.744 305.846 142.505 306.846 141.519C307.845 140.519 309.098 140.019 310.603 140.019C311.989 140.019 313.155 140.453 314.101 141.319C315.047 142.172 315.52 143.377 315.52 144.937C315.52 145.376 315.507 145.689 315.481 145.876H308.005C308.085 146.529 308.371 147.042 308.864 147.415C309.371 147.775 309.97 147.955 310.663 147.955C311.836 147.955 312.696 147.535 313.242 146.695L315.281 148.215C314.255 149.707 312.709 150.453 310.643 150.453ZM308.105 144.017H312.782C312.662 143.444 312.389 143.011 311.963 142.718C311.55 142.425 311.07 142.278 310.523 142.278C309.964 142.278 309.451 142.425 308.984 142.718C308.518 143.011 308.225 143.444 308.105 144.017ZM323.178 150.453C322.539 150.453 321.959 150.32 321.439 150.054C320.92 149.787 320.533 149.474 320.28 149.114V150.233H317.542V135.242H320.28V141.359C320.533 140.999 320.92 140.686 321.439 140.419C321.959 140.153 322.539 140.019 323.178 140.019C324.498 140.019 325.61 140.532 326.516 141.559C327.423 142.585 327.876 143.811 327.876 145.236C327.876 146.662 327.423 147.888 326.516 148.914C325.61 149.94 324.498 150.453 323.178 150.453ZM320.74 147.195C321.206 147.702 321.819 147.955 322.579 147.955C323.338 147.955 323.945 147.702 324.398 147.195C324.864 146.689 325.097 146.036 325.097 145.236C325.097 144.437 324.864 143.784 324.398 143.278C323.945 142.771 323.338 142.518 322.579 142.518C321.819 142.518 321.206 142.771 320.74 143.278C320.287 143.784 320.06 144.437 320.06 145.236C320.06 146.036 320.287 146.689 320.74 147.195ZM334.52 150.353C333.401 150.353 332.481 150.047 331.762 149.434C331.056 148.808 330.702 147.908 330.702 146.735V142.638H328.684V140.239H330.702V137.461H333.441V140.239H336.259V142.638H333.441V146.196C333.441 146.809 333.574 147.249 333.841 147.515C334.107 147.768 334.54 147.895 335.14 147.895C335.566 147.895 335.939 147.835 336.259 147.715V150.133C335.779 150.28 335.2 150.353 334.52 150.353Z" fill="white"/>
<path d="M513.707 143.707C514.097 143.316 514.097 142.684 513.707 142.293L507.347 135.933C506.956 135.543 506.323 135.543 505.933 135.933C505.543 136.323 505.543 136.956 505.933 137.347L511.587 143L505.933 148.653C505.543 149.044 505.543 149.677 505.933 150.067C506.323 150.457 506.956 150.457 507.347 150.067L513.707 143.707ZM444 143.999H513V142.001H444V143.999Z" fill="white"/>
<path d="M561.998 144.725C563.45 144.725 564.628 143.546 564.628 142.091C564.628 140.637 563.45 139.457 561.998 139.457C560.546 139.457 559.369 140.637 559.369 142.091C559.369 143.546 560.546 144.725 561.998 144.725Z" fill="#F1F5FF"/>
<path d="M610.946 144.725C612.398 144.725 613.575 143.546 613.575 142.091C613.575 140.637 612.398 139.457 610.946 139.457C609.494 139.457 608.317 140.637 608.317 142.091C608.317 143.546 609.494 144.725 610.946 144.725Z" fill="#F1F5FF"/>
<path d="M569.165 127.391C570.617 127.391 571.795 126.211 571.795 124.757C571.795 123.302 570.617 122.123 569.165 122.123C567.713 122.123 566.536 123.302 566.536 124.757C566.536 126.211 567.713 127.391 569.165 127.391Z" fill="#F1F5FF"/>
<path d="M603.777 162.062C605.23 162.062 606.407 160.883 606.407 159.428C606.407 157.973 605.23 156.794 603.777 156.794C602.325 156.794 601.148 157.973 601.148 159.428C601.148 160.883 602.325 162.062 603.777 162.062Z" fill="#F1F5FF"/>
<path d="M586.472 120.209C587.924 120.209 589.102 119.03 589.102 117.575C589.102 116.121 587.924 114.941 586.472 114.941C585.02 114.941 583.843 116.121 583.843 117.575C583.843 119.03 585.02 120.209 586.472 120.209Z" fill="#F1F5FF"/>
<path d="M586.472 169.243C587.924 169.243 589.102 168.064 589.102 166.61C589.102 165.155 587.924 163.976 586.472 163.976C585.02 163.976 583.843 165.155 583.843 166.61C583.843 168.064 585.02 169.243 586.472 169.243Z" fill="#F1F5FF"/>
<path d="M586.482 120.209C587.934 120.209 589.111 119.03 589.111 117.575C589.111 116.121 587.934 114.941 586.482 114.941C585.03 114.941 583.852 116.121 583.852 117.575C583.852 119.03 585.03 120.209 586.482 120.209Z" fill="#F1F5FF"/>
<path d="M586.482 169.243C587.934 169.243 589.111 168.064 589.111 166.61C589.111 165.155 587.934 163.976 586.482 163.976C585.03 163.976 583.852 165.155 583.852 166.61C583.852 168.064 585.03 169.243 586.482 169.243Z" fill="#F1F5FF"/>
<path d="M604.379 128.007C605.831 128.007 607.009 126.828 607.009 125.374C607.009 123.919 605.831 122.74 604.379 122.74C602.927 122.74 601.75 123.919 601.75 125.374C601.75 126.828 602.927 128.007 604.379 128.007Z" fill="#F1F5FF"/>
<path d="M568.584 161.445C570.036 161.445 571.213 160.266 571.213 158.811C571.213 157.357 570.036 156.177 568.584 156.177C567.132 156.177 565.954 157.357 565.954 158.811C565.954 160.266 567.132 161.445 568.584 161.445Z" fill="#F1F5FF"/>
<path d="M550.989 131.033V153.15H548.403L535.154 136.658V153.152H532.001V131.035H534.587L547.835 147.53V131.035H550.989V131.033Z" fill="#F1F5FF"/>
<path d="M574.976 142.094C574.976 135.762 579.849 131.035 586.478 131.035C593.107 131.035 597.917 135.73 597.917 142.094C597.917 148.457 593.045 153.152 586.478 153.152C579.911 153.152 574.976 148.425 574.976 142.094ZM594.835 142.094C594.835 137.305 591.259 133.784 586.478 133.784C581.697 133.784 578.058 137.305 578.058 142.094C578.058 146.883 581.635 150.403 586.478 150.403C591.321 150.403 594.835 146.883 594.835 142.094Z" fill="#7D6FF6"/>
<path d="M629.469 145.506V153.152H626.346V145.444L617.577 131.035H620.951L628.017 142.695L635.114 131.035H638.238L629.469 145.506Z" fill="#F1F5FF"/>
<path d="M665.952 147.622H654.218L651.789 153.152H648.539L658.537 131.035H661.661L671.691 153.152H668.379L665.95 147.622H665.952ZM664.849 145.094L660.086 134.256L655.324 145.094H664.849Z" fill="#F1F5FF"/>
</svg>
