<svg width="1256" height="362" viewBox="0 0 1256 362" fill="none" xmlns="http://www.w3.org/2000/svg">
<rect width="1256" height="362" rx="10" fill="url(#paint0_linear_1_2)"/>
<rect x="0.5" y="0.5" width="1255" height="361" rx="9.5" stroke="white" stroke-opacity="0.15"/>
<line x1="84.75" y1="117" x2="84.75" y2="281" stroke="white" stroke-opacity="0.75" stroke-width="1.5"/>
<line x1="1175" y1="281.75" x2="85" y2="281.75" stroke="white" stroke-opacity="0.75" stroke-width="1.5"/>
<path d="M73.1939 97.2476C73.9631 97.9834 74.3477 98.9031 74.3477 100.007C74.3477 101.11 73.9631 102.036 73.1939 102.783C72.4246 103.518 71.438 103.886 70.234 103.886H68.4113V108H66.4548V96.1272H70.234C71.438 96.1272 72.4246 96.5007 73.1939 97.2476ZM71.8226 101.478C72.224 101.088 72.4246 100.598 72.4246 100.007C72.4246 99.4159 72.224 98.931 71.8226 98.5519C71.4325 98.1618 70.8973 97.9667 70.2173 97.9667H68.4113V102.047H70.2173C70.8973 102.047 71.4325 101.857 71.8226 101.478ZM75.9376 108V99.6389H77.7771V101.127C77.9331 100.659 78.2174 100.28 78.6299 99.9901C79.0535 99.7002 79.505 99.5553 79.9844 99.5553C80.2742 99.5553 80.5139 99.5776 80.7034 99.6222V101.512C80.4359 101.411 80.1293 101.361 79.7837 101.361C79.2263 101.361 78.7525 101.59 78.3623 102.047C77.9722 102.493 77.7771 103.117 77.7771 103.92V108H75.9376ZM83.2098 97.8162C82.8754 97.8162 82.5855 97.6991 82.3403 97.465C82.095 97.2197 81.9724 96.9243 81.9724 96.5787C81.9724 96.2443 82.095 95.96 82.3403 95.7259C82.5855 95.4806 82.8754 95.358 83.2098 95.358C83.5554 95.358 83.8453 95.4806 84.0794 95.7259C84.3135 95.96 84.4305 96.2443 84.4305 96.5787C84.4305 96.9243 84.3135 97.2197 84.0794 97.465C83.8453 97.6991 83.5554 97.8162 83.2098 97.8162ZM82.2901 108V99.6389H84.1295V108H82.2901ZM90.414 108.167C89.1542 108.167 88.1007 107.755 87.2535 106.93C86.4174 106.094 85.9993 105.057 85.9993 103.819C85.9993 102.582 86.4174 101.551 87.2535 100.726C88.1007 99.8897 89.1542 99.4717 90.414 99.4717C91.2724 99.4717 92.0416 99.6779 92.7216 100.09C93.4128 100.503 93.9424 101.066 94.3102 101.779L92.7049 102.649C92.4931 102.203 92.1865 101.846 91.7852 101.579C91.3839 101.311 90.9268 101.177 90.414 101.177C89.6782 101.177 89.0706 101.434 88.5912 101.947C88.1119 102.448 87.8722 103.073 87.8722 103.819C87.8722 104.566 88.1119 105.196 88.5912 105.709C89.0706 106.211 89.6782 106.462 90.414 106.462C90.9268 106.462 91.3839 106.328 91.7852 106.06C92.1865 105.793 92.4931 105.436 92.7049 104.99L94.3102 105.86C93.9424 106.573 93.4128 107.136 92.7216 107.549C92.0416 107.961 91.2724 108.167 90.414 108.167ZM99.7704 108.167C98.4995 108.167 97.4516 107.76 96.6267 106.947C95.8128 106.133 95.4059 105.09 95.4059 103.819C95.4059 102.582 95.8184 101.551 96.6434 100.726C97.4683 99.8897 98.5107 99.4717 99.7704 99.4717C100.93 99.4717 101.889 99.8396 102.647 100.575C103.416 101.311 103.8 102.326 103.8 103.619C103.8 103.842 103.795 104.042 103.784 104.221H97.2119C97.2565 104.901 97.5185 105.453 97.9979 105.876C98.4773 106.289 99.0737 106.495 99.7872 106.495C100.857 106.495 101.654 106.071 102.178 105.224L103.583 106.227C102.78 107.521 101.51 108.167 99.7704 108.167ZM97.2955 102.883H101.944C101.844 102.303 101.582 101.852 101.158 101.528C100.746 101.194 100.261 101.027 99.7035 101.027C99.1238 101.027 98.6055 101.188 98.1484 101.512C97.7025 101.835 97.4182 102.292 97.2955 102.883Z" fill="white" fill-opacity="0.5"/>
<path d="M1123.96 307.222V297.222H1120.52V295.349H1129.38V297.222H1125.92V307.222H1123.96ZM1131.75 297.038C1131.41 297.038 1131.12 296.921 1130.88 296.687C1130.63 296.442 1130.51 296.146 1130.51 295.801C1130.51 295.466 1130.63 295.182 1130.88 294.948C1131.12 294.703 1131.41 294.58 1131.75 294.58C1132.09 294.58 1132.38 294.703 1132.62 294.948C1132.85 295.182 1132.97 295.466 1132.97 295.801C1132.97 296.146 1132.85 296.442 1132.62 296.687C1132.38 296.921 1132.09 297.038 1131.75 297.038ZM1130.83 307.222V298.861H1132.67V307.222H1130.83ZM1145.79 307.222V302.523C1145.79 301.843 1145.66 301.314 1145.41 300.935C1145.16 300.556 1144.79 300.366 1144.3 300.366C1143.71 300.366 1143.24 300.595 1142.88 301.052C1142.52 301.509 1142.34 302.15 1142.31 302.975V307.222H1140.47V302.523C1140.47 301.843 1140.35 301.314 1140.09 300.935C1139.84 300.556 1139.48 300.366 1138.99 300.366C1138.37 300.366 1137.88 300.606 1137.51 301.085C1137.16 301.564 1136.98 302.239 1136.98 303.109V307.222H1135.14V298.861H1136.98V299.998C1137.49 299.129 1138.28 298.694 1139.35 298.694C1140.61 298.694 1141.48 299.246 1141.94 300.349C1142.18 299.825 1142.54 299.418 1143.02 299.129C1143.51 298.839 1144.04 298.694 1144.62 298.694C1145.56 298.694 1146.29 299.012 1146.83 299.647C1147.36 300.282 1147.63 301.141 1147.63 302.222V307.222H1145.79ZM1153.76 307.389C1152.49 307.389 1151.44 306.982 1150.62 306.169C1149.8 305.355 1149.4 304.313 1149.4 303.042C1149.4 301.804 1149.81 300.773 1150.64 299.948C1151.46 299.112 1152.5 298.694 1153.76 298.694C1154.92 298.694 1155.88 299.062 1156.64 299.798C1157.41 300.533 1157.79 301.548 1157.79 302.841C1157.79 303.064 1157.79 303.265 1157.78 303.443H1151.2C1151.25 304.123 1151.51 304.675 1151.99 305.098C1152.47 305.511 1153.07 305.717 1153.78 305.717C1154.85 305.717 1155.65 305.294 1156.17 304.446L1157.58 305.45C1156.77 306.743 1155.5 307.389 1153.76 307.389ZM1151.29 302.105H1155.94C1155.84 301.525 1155.57 301.074 1155.15 300.751C1154.74 300.416 1154.25 300.249 1153.7 300.249C1153.12 300.249 1152.6 300.411 1152.14 300.734C1151.69 301.057 1151.41 301.514 1151.29 302.105Z" fill="white" fill-opacity="0.5"/>
<path d="M105 266H108.54L110.664 261.494H113.849H119.513L121.991 264.498L123.407 259.491L128.008 261.494H130.132H135.088H138.274V256.487L143.229 266L148.539 264.498V261.494H155.973L158.096 266L163.76 264.498L165.176 261.494L171.548 264.498L176.149 266L178.981 264.498L181.813 261.494H188.184H192.432L197.034 264.498L200.574 261.494L202.343 259.491H206.591H209.423H214.379L215.087 254.984V250.979C216.03 249.644 218.06 247.774 218.626 250.979C219.193 254.183 219.57 256.653 219.688 257.488L222.166 250.979C222.874 250.979 224.715 250.979 226.414 250.979C228.113 250.979 229.954 254.651 230.662 256.487C231.133 255.986 232.29 254.583 233.139 252.981C233.989 251.379 237.033 250.979 238.449 250.979L242.697 248.475L244.467 252.981L246.944 248.475V245.971H249.776H252.254V239.462L254.024 234.455C254.26 233.12 254.873 230.049 255.44 228.447C256.006 226.844 257.092 223.773 257.564 222.438L258.98 218.433L261.811 228.447V236.458L264.643 222.438L266.059 220.435L268.183 216.43C268.183 215.095 268.183 212.825 268.183 214.427C268.183 216.029 270.071 221.771 271.015 224.442V231.451L272.431 218.433L273.847 211.423L275.616 222.438L277.032 214.427L280.218 218.433L282.696 200.408L285.882 203.412V206.416V195.901H289.068L290.483 192.897L293.315 197.403L297.563 185.386L300.395 200.408V208.419V214.427L303.227 206.416L305.35 216.43V208.419L307.828 203.412L308.536 209.921L313.846 192.897L315.97 195.901L317.74 190.393L320.571 197.403L324.465 192.897L328.713 204.413L331.545 195.901L337.208 181.381L340.04 186.889L342.872 178.377L345.35 172.869L347.474 161.853L349.951 183.384L351.721 170.866L354.199 156.846L354.907 178.377L356.677 170.866V163.856L359.509 154.343L360.925 148.334L363.049 141.324L364.11 134.314V125.802L366.942 117.29L367.65 111.282L368.358 106.775L369.066 98.7641L370.482 87.7486C371.072 83.4091 372.252 74.9305 372.252 75.7316C372.252 76.5328 372.252 90.7527 372.252 97.7625L374.022 87.7486V106.775L375.084 101.267L376.854 120.795L377.916 129.307L378.624 136.317V142.826L379.685 146.331V156.846C379.685 160.017 379.685 166.56 379.685 167.361C379.685 168.162 378.506 177.041 377.916 181.381L380.747 175.873L382.871 195.901L381.809 172.869L382.871 161.853L385.349 148.334L388.535 175.873L392.075 148.334L393.49 156.846C394.316 152.673 395.968 144.729 395.968 146.331C395.968 148.334 397.03 170.365 397.384 168.863C397.667 167.661 398.21 163.689 398.446 161.853C399.154 166.193 400.641 174.471 400.924 172.869C401.207 171.266 402.694 162.854 403.402 158.849L406.588 172.869L408.004 178.377L408.711 185.386C409.301 188.224 410.481 194.098 410.481 194.9C410.481 195.701 411.189 187.556 411.543 183.384C412.369 187.89 414.021 196.703 414.021 195.901C414.021 195.1 416.145 182.215 417.207 175.873C417.679 178.21 418.694 182.583 418.977 181.381C419.26 180.179 420.511 175.205 421.101 172.869L423.224 167.361L426.056 179.878L429.596 185.386L433.49 191.395L437.384 197.403V186.889L440.923 178.377L441.985 174.371L442.693 170.866L446.233 162.854L447.295 156.846L449.419 153.341L450.835 148.334L452.605 139.321L454.02 131.811L458.622 125.802L456.498 134.314L461.808 125.802C462.162 129.307 462.941 136.317 463.224 136.317C463.507 136.317 464.994 129.307 465.702 125.802L471.365 131.811L473.843 125.802L474.905 117.29V105.774L477.029 98.7641L478.799 92.7555L480.923 107.777C480.923 117.624 480.923 137.118 480.923 136.317C480.923 135.516 482.574 123.299 483.4 117.29L484.816 125.802L489.418 106.775L491.542 119.794L493.312 136.317C493.784 141.825 494.728 152.54 494.728 151.338C494.728 149.836 496.498 132.312 496.852 134.314C497.205 136.317 497.559 144.829 498.267 143.828C498.834 143.026 499.919 138.487 500.391 136.317L502.515 131.811L504.285 123.299L505.347 117.29L509.949 111.282L512.78 114.286L514.196 109.279L515.612 99.7654L516.674 95.7597L519.152 102.77L521.276 91.2533V78.7357L523.046 86.747L526.232 80.2378C526.232 83.7427 526.373 90.5524 526.939 89.7512C527.506 88.9501 529.299 80.071 530.125 75.7316L533.665 66.218L538.267 55.2025C538.975 54.2011 540.391 52.3985 540.391 53.1996C540.391 54.2011 543.576 60.7101 543.93 62.2122C544.214 63.4139 545.464 71.7259 546.054 75.7316L547.47 86.747L550.302 73.2278C551.01 79.5701 552.497 91.1533 552.78 86.747C553.134 81.2391 554.196 68.2207 554.196 69.2221C554.196 70.2235 555.612 92.7555 555.966 89.7512C556.249 87.3478 558.207 65.7173 559.151 55.2025C559.977 72.0595 561.7 105.473 561.983 104.272C562.337 102.77 565.169 67.2193 565.169 70.2235C565.169 72.6269 567.057 86.2462 568.001 92.7555C569.653 90.7526 572.886 87.3478 572.602 89.7512C572.248 92.7555 569.771 104.772 571.894 102.269C573.594 100.266 577.322 93.0893 578.974 89.7512L582.16 84.744L585.346 106.775L591.009 98.7641L594.903 137.819L599.859 123.299L604.46 128.306L605.876 136.317L609.062 174.371L610.832 162.854L615.433 155.344L619.327 146.832L621.097 136.317L624.637 128.306C624.873 134.314 625.557 145.83 626.407 143.828C627.469 141.324 629.593 129.307 629.947 131.811C630.23 133.814 632.66 146.999 633.84 153.341L636.318 161.853L637.734 167.861L639.504 151.338L643.044 139.321L646.229 155.344L648.707 161.853C648.943 158.348 649.557 151.739 650.123 153.341C650.69 154.943 651.775 157.346 652.247 158.348L655.787 153.341L658.265 143.828L662.158 137.819L664.99 131.811L666.76 125.802L668.176 119.794L673.132 114.286L676.671 128.306C677.143 126.637 678.087 123.8 678.087 125.802C678.087 127.805 679.975 133.646 680.919 136.317L684.459 134.815L685.875 140.322L689.414 131.811L693.308 143.828L694.37 139.321L697.556 149.335L701.804 143.828L702.512 151.839L704.989 158.348L707.467 167.861V174.371L709.237 182.883V192.396L712.777 182.883L715.609 187.389L718.087 185.887L722.334 193.898L725.874 187.389L727.998 195.4L731.892 192.396L734.723 197.403L735.785 203.412C736.257 205.748 737.272 211.022 737.555 213.426C737.838 215.829 738.381 220.436 738.617 222.438L742.865 233.955L744.635 227.946L747.113 224.441L748.882 222.438L755.608 232.452L760.21 222.438C762.334 226.444 766.581 234.055 766.581 232.452C766.581 230.85 770.593 213.092 772.599 204.413L777.909 213.426L779.678 198.905L784.634 204.413L788.882 198.905L790.652 195.4L793.837 188.39L797.377 189.392L799.855 200.407L801.979 207.918L804.457 201.909L806.227 210.421L811.89 205.915L815.43 204.413L820.032 200.407L821.094 195.4L824.279 207.918L826.757 213.426L828.527 217.932L831.005 220.936L833.129 216.43L837.023 217.932L840.916 216.43L844.102 217.932H848.35L849.766 220.936L852.243 219.434H858.261L860.385 216.43L862.509 208.919L864.279 204.413H867.818H869.588H873.836V212.424L875.606 225.943L877.376 220.936L881.27 223.94H884.455L886.579 228.447L889.765 223.94L897.552 220.936L905.34 219.434H908.172L909.942 222.438H917.021L921.623 223.94L930.472 222.438L931.888 219.434L935.428 212.424L938.26 205.915L943.569 203.412L947.817 204.413L952.065 205.915L954.189 203.412L956.312 200.407C957.138 201.075 958.932 202.61 959.498 203.412C960.065 204.213 962.566 208.752 963.746 210.922L965.162 204.413L967.64 200.407L973.303 201.909C975.191 202.744 979.109 204.413 979.675 204.413C980.383 204.413 983.569 203.912 984.277 205.915C984.843 207.517 985.22 210.922 985.338 212.424L988.878 204.413L991.71 197.403H998.436H1004.45L1007.99 194.399L1011.53 189.392L1013.66 190.393L1018.97 182.883L1020.03 180.88C1020.74 182.048 1022.51 184.985 1023.92 187.389C1025.69 190.393 1028.17 194.399 1028.88 194.399C1029.44 194.399 1031.71 191.728 1032.77 190.393L1039.85 193.397C1039.85 190.727 1039.85 185.787 1039.85 187.389C1039.85 188.991 1042.92 192.062 1044.45 193.397L1051.18 194.399L1057.9 193.397L1062.51 190.393C1063.64 190.393 1069.11 192.396 1071.71 193.397C1072.3 194.232 1073.62 196.201 1074.19 197.403C1074.89 198.905 1076.31 203.412 1077.73 201.909C1078.86 200.708 1081.27 196.402 1082.33 194.399C1082.33 193.064 1082.54 190.393 1083.39 190.393C1084.24 190.393 1089.17 190.393 1091.53 190.393H1097.9C1099.55 190.393 1103.14 190.393 1104.27 190.393C1105.41 190.393 1109.23 190.393 1111 190.393" stroke="white"/>
<path d="M28.61 274V262.75H26.144L27.404 261.22H30.158V274H28.61ZM37.4515 274.18C36.1195 274.18 35.0335 273.736 34.1935 272.848C33.3535 271.948 32.9335 270.79 32.9335 269.374V265.81C32.9335 264.394 33.3535 263.242 34.1935 262.354C35.0455 261.454 36.1315 261.004 37.4515 261.004C38.7715 261.004 39.8575 261.454 40.7095 262.354C41.5615 263.254 41.9875 264.406 41.9875 265.81V269.374C41.9875 270.79 41.5615 271.948 40.7095 272.848C39.8575 273.736 38.7715 274.18 37.4515 274.18ZM37.4515 272.668C38.3395 272.668 39.0595 272.374 39.6115 271.786C40.1635 271.198 40.4395 270.394 40.4395 269.374V265.81C40.4395 264.79 40.1635 263.986 39.6115 263.398C39.0595 262.81 38.3395 262.516 37.4515 262.516C36.5755 262.516 35.8615 262.81 35.3095 263.398C34.7575 263.986 34.4815 264.79 34.4815 265.81V269.374C34.4815 270.394 34.7575 271.198 35.3095 271.786C35.8615 272.374 36.5755 272.668 37.4515 272.668ZM48.6664 274.18C47.3344 274.18 46.2484 273.736 45.4084 272.848C44.5684 271.948 44.1484 270.79 44.1484 269.374V265.81C44.1484 264.394 44.5684 263.242 45.4084 262.354C46.2604 261.454 47.3464 261.004 48.6664 261.004C49.9864 261.004 51.0724 261.454 51.9244 262.354C52.7764 263.254 53.2024 264.406 53.2024 265.81V269.374C53.2024 270.79 52.7764 271.948 51.9244 272.848C51.0724 273.736 49.9864 274.18 48.6664 274.18ZM48.6664 272.668C49.5544 272.668 50.2744 272.374 50.8264 271.786C51.3784 271.198 51.6544 270.394 51.6544 269.374V265.81C51.6544 264.79 51.3784 263.986 50.8264 263.398C50.2744 262.81 49.5544 262.516 48.6664 262.516C47.7904 262.516 47.0764 262.81 46.5244 263.398C45.9724 263.986 45.6964 264.79 45.6964 265.81V269.374C45.6964 270.394 45.9724 271.198 46.5244 271.786C47.0764 272.374 47.7904 272.668 48.6664 272.668ZM59.8812 274.18C58.5492 274.18 57.4632 273.736 56.6232 272.848C55.7832 271.948 55.3632 270.79 55.3632 269.374V265.81C55.3632 264.394 55.7832 263.242 56.6232 262.354C57.4752 261.454 58.5612 261.004 59.8812 261.004C61.2012 261.004 62.2872 261.454 63.1392 262.354C63.9912 263.254 64.4172 264.406 64.4172 265.81V269.374C64.4172 270.79 63.9912 271.948 63.1392 272.848C62.2872 273.736 61.2012 274.18 59.8812 274.18ZM59.8812 272.668C60.7692 272.668 61.4892 272.374 62.0412 271.786C62.5932 271.198 62.8692 270.394 62.8692 269.374V265.81C62.8692 264.79 62.5932 263.986 62.0412 263.398C61.4892 262.81 60.7692 262.516 59.8812 262.516C59.0052 262.516 58.2912 262.81 57.7392 263.398C57.1872 263.986 56.9112 264.79 56.9112 265.81V269.374C56.9112 270.394 57.1872 271.198 57.7392 271.786C58.2912 272.374 59.0052 272.668 59.8812 272.668Z" fill="white"/>
<path d="M112.162 315.506V317H103.882V316.388C103.882 315.944 103.948 315.524 104.08 315.128C104.224 314.72 104.38 314.378 104.548 314.102C104.716 313.826 104.98 313.52 105.34 313.184C105.7 312.836 105.982 312.584 106.186 312.428C106.39 312.26 106.732 312.008 107.212 311.672C107.692 311.324 108.01 311.096 108.166 310.988C109.018 310.364 109.606 309.842 109.93 309.422C110.266 308.99 110.434 308.426 110.434 307.73C110.434 307.058 110.218 306.524 109.786 306.128C109.354 305.72 108.79 305.516 108.094 305.516C107.362 305.516 106.738 305.738 106.222 306.182C105.706 306.626 105.448 307.244 105.448 308.036H103.864C103.864 306.836 104.26 305.864 105.052 305.12C105.856 304.376 106.864 304.004 108.076 304.004C109.204 304.004 110.14 304.328 110.884 304.976C111.64 305.624 112.018 306.548 112.018 307.748C112.018 308.66 111.796 309.44 111.352 310.088C110.908 310.724 110.146 311.432 109.066 312.212C108.862 312.356 108.574 312.56 108.202 312.824C107.83 313.076 107.542 313.28 107.338 313.436C107.134 313.592 106.906 313.784 106.654 314.012C106.414 314.228 106.222 314.462 106.078 314.714C105.946 314.954 105.85 315.218 105.79 315.506H112.162ZM118.635 317.18C117.303 317.18 116.217 316.736 115.377 315.848C114.537 314.948 114.117 313.79 114.117 312.374V308.81C114.117 307.394 114.537 306.242 115.377 305.354C116.229 304.454 117.315 304.004 118.635 304.004C119.955 304.004 121.041 304.454 121.893 305.354C122.745 306.254 123.171 307.406 123.171 308.81V312.374C123.171 313.79 122.745 314.948 121.893 315.848C121.041 316.736 119.955 317.18 118.635 317.18ZM118.635 315.668C119.523 315.668 120.243 315.374 120.795 314.786C121.347 314.198 121.623 313.394 121.623 312.374V308.81C121.623 307.79 121.347 306.986 120.795 306.398C120.243 305.81 119.523 305.516 118.635 305.516C117.759 305.516 117.045 305.81 116.493 306.398C115.941 306.986 115.665 307.79 115.665 308.81V312.374C115.665 313.394 115.941 314.198 116.493 314.786C117.045 315.374 117.759 315.668 118.635 315.668ZM133.414 315.506V317H125.134V316.388C125.134 315.944 125.2 315.524 125.332 315.128C125.476 314.72 125.632 314.378 125.8 314.102C125.968 313.826 126.232 313.52 126.592 313.184C126.952 312.836 127.234 312.584 127.438 312.428C127.642 312.26 127.984 312.008 128.464 311.672C128.944 311.324 129.262 311.096 129.418 310.988C130.27 310.364 130.858 309.842 131.182 309.422C131.518 308.99 131.686 308.426 131.686 307.73C131.686 307.058 131.47 306.524 131.038 306.128C130.606 305.72 130.042 305.516 129.346 305.516C128.614 305.516 127.99 305.738 127.474 306.182C126.958 306.626 126.7 307.244 126.7 308.036H125.116C125.116 306.836 125.512 305.864 126.304 305.12C127.108 304.376 128.116 304.004 129.328 304.004C130.456 304.004 131.392 304.328 132.136 304.976C132.892 305.624 133.27 306.548 133.27 307.748C133.27 308.66 133.048 309.44 132.604 310.088C132.16 310.724 131.398 311.432 130.318 312.212C130.114 312.356 129.826 312.56 129.454 312.824C129.082 313.076 128.794 313.28 128.59 313.436C128.386 313.592 128.158 313.784 127.906 314.012C127.666 314.228 127.474 314.462 127.33 314.714C127.198 314.954 127.102 315.218 127.042 315.506H133.414ZM139.887 317.18C138.555 317.18 137.469 316.736 136.629 315.848C135.789 314.948 135.369 313.79 135.369 312.374V308.81C135.369 307.394 135.789 306.242 136.629 305.354C137.481 304.454 138.567 304.004 139.887 304.004C141.207 304.004 142.293 304.454 143.145 305.354C143.997 306.254 144.423 307.406 144.423 308.81V312.374C144.423 313.79 143.997 314.948 143.145 315.848C142.293 316.736 141.207 317.18 139.887 317.18ZM139.887 315.668C140.775 315.668 141.495 315.374 142.047 314.786C142.599 314.198 142.875 313.394 142.875 312.374V308.81C142.875 307.79 142.599 306.986 142.047 306.398C141.495 305.81 140.775 305.516 139.887 305.516C139.011 305.516 138.297 305.81 137.745 306.398C137.193 306.986 136.917 307.79 136.917 308.81V312.374C136.917 313.394 137.193 314.198 137.745 314.786C138.297 315.374 139.011 315.668 139.887 315.668ZM146.674 312.734V311.186H151.264V312.734H146.674ZM158.045 317.18C156.713 317.18 155.627 316.736 154.787 315.848C153.947 314.948 153.527 313.79 153.527 312.374V308.81C153.527 307.394 153.947 306.242 154.787 305.354C155.639 304.454 156.725 304.004 158.045 304.004C159.365 304.004 160.451 304.454 161.303 305.354C162.155 306.254 162.581 307.406 162.581 308.81V312.374C162.581 313.79 162.155 314.948 161.303 315.848C160.451 316.736 159.365 317.18 158.045 317.18ZM158.045 315.668C158.933 315.668 159.653 315.374 160.205 314.786C160.757 314.198 161.033 313.394 161.033 312.374V308.81C161.033 307.79 160.757 306.986 160.205 306.398C159.653 305.81 158.933 305.516 158.045 305.516C157.169 305.516 156.455 305.81 155.903 306.398C155.351 306.986 155.075 307.79 155.075 308.81V312.374C155.075 313.394 155.351 314.198 155.903 314.786C156.455 315.374 157.169 315.668 158.045 315.668ZM164.994 317L168.936 312.356C168.804 312.368 168.636 312.374 168.432 312.374C167.364 312.374 166.428 311.966 165.624 311.15C164.832 310.334 164.436 309.374 164.436 308.27C164.436 307.07 164.844 306.062 165.66 305.246C166.488 304.418 167.52 304.004 168.756 304.004C169.992 304.004 171.024 304.412 171.852 305.228C172.68 306.044 173.094 307.04 173.094 308.216C173.094 308.84 172.968 309.404 172.716 309.908C172.476 310.4 172.122 310.922 171.654 311.474L166.974 317H164.994ZM166.794 310.214C167.322 310.742 167.976 311.006 168.756 311.006C169.536 311.006 170.19 310.742 170.718 310.214C171.246 309.674 171.51 309.02 171.51 308.252C171.51 307.484 171.246 306.836 170.718 306.308C170.19 305.768 169.536 305.498 168.756 305.498C167.976 305.498 167.322 305.768 166.794 306.308C166.278 306.836 166.02 307.484 166.02 308.252C166.02 309.02 166.278 309.674 166.794 310.214Z" fill="white"/>
<path d="M214.162 315.506V317H205.882V316.388C205.882 315.944 205.948 315.524 206.08 315.128C206.224 314.72 206.38 314.378 206.548 314.102C206.716 313.826 206.98 313.52 207.34 313.184C207.7 312.836 207.982 312.584 208.186 312.428C208.39 312.26 208.732 312.008 209.212 311.672C209.692 311.324 210.01 311.096 210.166 310.988C211.018 310.364 211.606 309.842 211.93 309.422C212.266 308.99 212.434 308.426 212.434 307.73C212.434 307.058 212.218 306.524 211.786 306.128C211.354 305.72 210.79 305.516 210.094 305.516C209.362 305.516 208.738 305.738 208.222 306.182C207.706 306.626 207.448 307.244 207.448 308.036H205.864C205.864 306.836 206.26 305.864 207.052 305.12C207.856 304.376 208.864 304.004 210.076 304.004C211.204 304.004 212.14 304.328 212.884 304.976C213.64 305.624 214.018 306.548 214.018 307.748C214.018 308.66 213.796 309.44 213.352 310.088C212.908 310.724 212.146 311.432 211.066 312.212C210.862 312.356 210.574 312.56 210.202 312.824C209.83 313.076 209.542 313.28 209.338 313.436C209.134 313.592 208.906 313.784 208.654 314.012C208.414 314.228 208.222 314.462 208.078 314.714C207.946 314.954 207.85 315.218 207.79 315.506H214.162ZM220.635 317.18C219.303 317.18 218.217 316.736 217.377 315.848C216.537 314.948 216.117 313.79 216.117 312.374V308.81C216.117 307.394 216.537 306.242 217.377 305.354C218.229 304.454 219.315 304.004 220.635 304.004C221.955 304.004 223.041 304.454 223.893 305.354C224.745 306.254 225.171 307.406 225.171 308.81V312.374C225.171 313.79 224.745 314.948 223.893 315.848C223.041 316.736 221.955 317.18 220.635 317.18ZM220.635 315.668C221.523 315.668 222.243 315.374 222.795 314.786C223.347 314.198 223.623 313.394 223.623 312.374V308.81C223.623 307.79 223.347 306.986 222.795 306.398C222.243 305.81 221.523 305.516 220.635 305.516C219.759 305.516 219.045 305.81 218.493 306.398C217.941 306.986 217.665 307.79 217.665 308.81V312.374C217.665 313.394 217.941 314.198 218.493 314.786C219.045 315.374 219.759 315.668 220.635 315.668ZM235.414 315.506V317H227.134V316.388C227.134 315.944 227.2 315.524 227.332 315.128C227.476 314.72 227.632 314.378 227.8 314.102C227.968 313.826 228.232 313.52 228.592 313.184C228.952 312.836 229.234 312.584 229.438 312.428C229.642 312.26 229.984 312.008 230.464 311.672C230.944 311.324 231.262 311.096 231.418 310.988C232.27 310.364 232.858 309.842 233.182 309.422C233.518 308.99 233.686 308.426 233.686 307.73C233.686 307.058 233.47 306.524 233.038 306.128C232.606 305.72 232.042 305.516 231.346 305.516C230.614 305.516 229.99 305.738 229.474 306.182C228.958 306.626 228.7 307.244 228.7 308.036H227.116C227.116 306.836 227.512 305.864 228.304 305.12C229.108 304.376 230.116 304.004 231.328 304.004C232.456 304.004 233.392 304.328 234.136 304.976C234.892 305.624 235.27 306.548 235.27 307.748C235.27 308.66 235.048 309.44 234.604 310.088C234.16 310.724 233.398 311.432 232.318 312.212C232.114 312.356 231.826 312.56 231.454 312.824C231.082 313.076 230.794 313.28 230.59 313.436C230.386 313.592 230.158 313.784 229.906 314.012C229.666 314.228 229.474 314.462 229.33 314.714C229.198 314.954 229.102 315.218 229.042 315.506H235.414ZM238.899 317V305.75H236.433L237.693 304.22H240.447V317H238.899ZM243.313 312.734V311.186H247.903V312.734H243.313ZM254.684 317.18C253.352 317.18 252.266 316.736 251.426 315.848C250.586 314.948 250.166 313.79 250.166 312.374V308.81C250.166 307.394 250.586 306.242 251.426 305.354C252.278 304.454 253.364 304.004 254.684 304.004C256.004 304.004 257.09 304.454 257.942 305.354C258.794 306.254 259.22 307.406 259.22 308.81V312.374C259.22 313.79 258.794 314.948 257.942 315.848C257.09 316.736 256.004 317.18 254.684 317.18ZM254.684 315.668C255.572 315.668 256.292 315.374 256.844 314.786C257.396 314.198 257.672 313.394 257.672 312.374V308.81C257.672 307.79 257.396 306.986 256.844 306.398C256.292 305.81 255.572 305.516 254.684 305.516C253.808 305.516 253.094 305.81 252.542 306.398C251.99 306.986 251.714 307.79 251.714 308.81V312.374C251.714 313.394 251.99 314.198 252.542 314.786C253.094 315.374 253.808 315.668 254.684 315.668ZM262.911 317V305.75H260.445L261.705 304.22H264.459V317H262.911Z" fill="white"/>
<path d="M316.162 315.506V317H307.882V316.388C307.882 315.944 307.948 315.524 308.08 315.128C308.224 314.72 308.38 314.378 308.548 314.102C308.716 313.826 308.98 313.52 309.34 313.184C309.7 312.836 309.982 312.584 310.186 312.428C310.39 312.26 310.732 312.008 311.212 311.672C311.692 311.324 312.01 311.096 312.166 310.988C313.018 310.364 313.606 309.842 313.93 309.422C314.266 308.99 314.434 308.426 314.434 307.73C314.434 307.058 314.218 306.524 313.786 306.128C313.354 305.72 312.79 305.516 312.094 305.516C311.362 305.516 310.738 305.738 310.222 306.182C309.706 306.626 309.448 307.244 309.448 308.036H307.864C307.864 306.836 308.26 305.864 309.052 305.12C309.856 304.376 310.864 304.004 312.076 304.004C313.204 304.004 314.14 304.328 314.884 304.976C315.64 305.624 316.018 306.548 316.018 307.748C316.018 308.66 315.796 309.44 315.352 310.088C314.908 310.724 314.146 311.432 313.066 312.212C312.862 312.356 312.574 312.56 312.202 312.824C311.83 313.076 311.542 313.28 311.338 313.436C311.134 313.592 310.906 313.784 310.654 314.012C310.414 314.228 310.222 314.462 310.078 314.714C309.946 314.954 309.85 315.218 309.79 315.506H316.162ZM322.635 317.18C321.303 317.18 320.217 316.736 319.377 315.848C318.537 314.948 318.117 313.79 318.117 312.374V308.81C318.117 307.394 318.537 306.242 319.377 305.354C320.229 304.454 321.315 304.004 322.635 304.004C323.955 304.004 325.041 304.454 325.893 305.354C326.745 306.254 327.171 307.406 327.171 308.81V312.374C327.171 313.79 326.745 314.948 325.893 315.848C325.041 316.736 323.955 317.18 322.635 317.18ZM322.635 315.668C323.523 315.668 324.243 315.374 324.795 314.786C325.347 314.198 325.623 313.394 325.623 312.374V308.81C325.623 307.79 325.347 306.986 324.795 306.398C324.243 305.81 323.523 305.516 322.635 305.516C321.759 305.516 321.045 305.81 320.493 306.398C319.941 306.986 319.665 307.79 319.665 308.81V312.374C319.665 313.394 319.941 314.198 320.493 314.786C321.045 315.374 321.759 315.668 322.635 315.668ZM337.414 315.506V317H329.134V316.388C329.134 315.944 329.2 315.524 329.332 315.128C329.476 314.72 329.632 314.378 329.8 314.102C329.968 313.826 330.232 313.52 330.592 313.184C330.952 312.836 331.234 312.584 331.438 312.428C331.642 312.26 331.984 312.008 332.464 311.672C332.944 311.324 333.262 311.096 333.418 310.988C334.27 310.364 334.858 309.842 335.182 309.422C335.518 308.99 335.686 308.426 335.686 307.73C335.686 307.058 335.47 306.524 335.038 306.128C334.606 305.72 334.042 305.516 333.346 305.516C332.614 305.516 331.99 305.738 331.474 306.182C330.958 306.626 330.7 307.244 330.7 308.036H329.116C329.116 306.836 329.512 305.864 330.304 305.12C331.108 304.376 332.116 304.004 333.328 304.004C334.456 304.004 335.392 304.328 336.136 304.976C336.892 305.624 337.27 306.548 337.27 307.748C337.27 308.66 337.048 309.44 336.604 310.088C336.16 310.724 335.398 311.432 334.318 312.212C334.114 312.356 333.826 312.56 333.454 312.824C333.082 313.076 332.794 313.28 332.59 313.436C332.386 313.592 332.158 313.784 331.906 314.012C331.666 314.228 331.474 314.462 331.33 314.714C331.198 314.954 331.102 315.218 331.042 315.506H337.414ZM340.899 317V305.75H338.433L339.693 304.22H342.447V317H340.899ZM345.313 312.734V311.186H349.903V312.734H345.313ZM356.684 317.18C355.352 317.18 354.266 316.736 353.426 315.848C352.586 314.948 352.166 313.79 352.166 312.374V308.81C352.166 307.394 352.586 306.242 353.426 305.354C354.278 304.454 355.364 304.004 356.684 304.004C358.004 304.004 359.09 304.454 359.942 305.354C360.794 306.254 361.22 307.406 361.22 308.81V312.374C361.22 313.79 360.794 314.948 359.942 315.848C359.09 316.736 358.004 317.18 356.684 317.18ZM356.684 315.668C357.572 315.668 358.292 315.374 358.844 314.786C359.396 314.198 359.672 313.394 359.672 312.374V308.81C359.672 307.79 359.396 306.986 358.844 306.398C358.292 305.81 357.572 305.516 356.684 305.516C355.808 305.516 355.094 305.81 354.542 306.398C353.99 306.986 353.714 307.79 353.714 308.81V312.374C353.714 313.394 353.99 314.198 354.542 314.786C355.094 315.374 355.808 315.668 356.684 315.668ZM367.233 317.18C366.081 317.18 365.085 316.82 364.245 316.1C363.405 315.38 362.973 314.528 362.949 313.544H364.533C364.677 314.168 364.995 314.678 365.487 315.074C365.979 315.47 366.561 315.668 367.233 315.668C368.013 315.668 368.667 315.404 369.195 314.876C369.723 314.348 369.987 313.7 369.987 312.932C369.987 312.152 369.735 311.498 369.231 310.97C368.727 310.442 368.085 310.178 367.305 310.178C366.237 310.178 365.433 310.61 364.893 311.474L363.417 311.042L364.731 304.22H370.707V305.732H365.973L365.271 309.386C365.895 308.942 366.639 308.72 367.503 308.72C368.691 308.72 369.663 309.14 370.419 309.98C371.187 310.808 371.571 311.858 371.571 313.13C371.571 314.258 371.157 315.218 370.329 316.01C369.501 316.79 368.469 317.18 367.233 317.18Z" fill="white"/>
<path d="M418.162 315.506V317H409.882V316.388C409.882 315.944 409.948 315.524 410.08 315.128C410.224 314.72 410.38 314.378 410.548 314.102C410.716 313.826 410.98 313.52 411.34 313.184C411.7 312.836 411.982 312.584 412.186 312.428C412.39 312.26 412.732 312.008 413.212 311.672C413.692 311.324 414.01 311.096 414.166 310.988C415.018 310.364 415.606 309.842 415.93 309.422C416.266 308.99 416.434 308.426 416.434 307.73C416.434 307.058 416.218 306.524 415.786 306.128C415.354 305.72 414.79 305.516 414.094 305.516C413.362 305.516 412.738 305.738 412.222 306.182C411.706 306.626 411.448 307.244 411.448 308.036H409.864C409.864 306.836 410.26 305.864 411.052 305.12C411.856 304.376 412.864 304.004 414.076 304.004C415.204 304.004 416.14 304.328 416.884 304.976C417.64 305.624 418.018 306.548 418.018 307.748C418.018 308.66 417.796 309.44 417.352 310.088C416.908 310.724 416.146 311.432 415.066 312.212C414.862 312.356 414.574 312.56 414.202 312.824C413.83 313.076 413.542 313.28 413.338 313.436C413.134 313.592 412.906 313.784 412.654 314.012C412.414 314.228 412.222 314.462 412.078 314.714C411.946 314.954 411.85 315.218 411.79 315.506H418.162ZM424.635 317.18C423.303 317.18 422.217 316.736 421.377 315.848C420.537 314.948 420.117 313.79 420.117 312.374V308.81C420.117 307.394 420.537 306.242 421.377 305.354C422.229 304.454 423.315 304.004 424.635 304.004C425.955 304.004 427.041 304.454 427.893 305.354C428.745 306.254 429.171 307.406 429.171 308.81V312.374C429.171 313.79 428.745 314.948 427.893 315.848C427.041 316.736 425.955 317.18 424.635 317.18ZM424.635 315.668C425.523 315.668 426.243 315.374 426.795 314.786C427.347 314.198 427.623 313.394 427.623 312.374V308.81C427.623 307.79 427.347 306.986 426.795 306.398C426.243 305.81 425.523 305.516 424.635 305.516C423.759 305.516 423.045 305.81 422.493 306.398C421.941 306.986 421.665 307.79 421.665 308.81V312.374C421.665 313.394 421.941 314.198 422.493 314.786C423.045 315.374 423.759 315.668 424.635 315.668ZM439.414 315.506V317H431.134V316.388C431.134 315.944 431.2 315.524 431.332 315.128C431.476 314.72 431.632 314.378 431.8 314.102C431.968 313.826 432.232 313.52 432.592 313.184C432.952 312.836 433.234 312.584 433.438 312.428C433.642 312.26 433.984 312.008 434.464 311.672C434.944 311.324 435.262 311.096 435.418 310.988C436.27 310.364 436.858 309.842 437.182 309.422C437.518 308.99 437.686 308.426 437.686 307.73C437.686 307.058 437.47 306.524 437.038 306.128C436.606 305.72 436.042 305.516 435.346 305.516C434.614 305.516 433.99 305.738 433.474 306.182C432.958 306.626 432.7 307.244 432.7 308.036H431.116C431.116 306.836 431.512 305.864 432.304 305.12C433.108 304.376 434.116 304.004 435.328 304.004C436.456 304.004 437.392 304.328 438.136 304.976C438.892 305.624 439.27 306.548 439.27 307.748C439.27 308.66 439.048 309.44 438.604 310.088C438.16 310.724 437.398 311.432 436.318 312.212C436.114 312.356 435.826 312.56 435.454 312.824C435.082 313.076 434.794 313.28 434.59 313.436C434.386 313.592 434.158 313.784 433.906 314.012C433.666 314.228 433.474 314.462 433.33 314.714C433.198 314.954 433.102 315.218 433.042 315.506H439.414ZM442.899 317V305.75H440.433L441.693 304.22H444.447V317H442.899ZM447.313 312.734V311.186H451.903V312.734H447.313ZM458.684 317.18C457.352 317.18 456.266 316.736 455.426 315.848C454.586 314.948 454.166 313.79 454.166 312.374V308.81C454.166 307.394 454.586 306.242 455.426 305.354C456.278 304.454 457.364 304.004 458.684 304.004C460.004 304.004 461.09 304.454 461.942 305.354C462.794 306.254 463.22 307.406 463.22 308.81V312.374C463.22 313.79 462.794 314.948 461.942 315.848C461.09 316.736 460.004 317.18 458.684 317.18ZM458.684 315.668C459.572 315.668 460.292 315.374 460.844 314.786C461.396 314.198 461.672 313.394 461.672 312.374V308.81C461.672 307.79 461.396 306.986 460.844 306.398C460.292 305.81 459.572 305.516 458.684 305.516C457.808 305.516 457.094 305.81 456.542 306.398C455.99 306.986 455.714 307.79 455.714 308.81V312.374C455.714 313.394 455.99 314.198 456.542 314.786C457.094 315.374 457.808 315.668 458.684 315.668ZM465.633 317L469.575 312.356C469.443 312.368 469.275 312.374 469.071 312.374C468.003 312.374 467.067 311.966 466.263 311.15C465.471 310.334 465.075 309.374 465.075 308.27C465.075 307.07 465.483 306.062 466.299 305.246C467.127 304.418 468.159 304.004 469.395 304.004C470.631 304.004 471.663 304.412 472.491 305.228C473.319 306.044 473.733 307.04 473.733 308.216C473.733 308.84 473.607 309.404 473.355 309.908C473.115 310.4 472.761 310.922 472.293 311.474L467.613 317H465.633ZM467.433 310.214C467.961 310.742 468.615 311.006 469.395 311.006C470.175 311.006 470.829 310.742 471.357 310.214C471.885 309.674 472.149 309.02 472.149 308.252C472.149 307.484 471.885 306.836 471.357 306.308C470.829 305.768 470.175 305.498 469.395 305.498C468.615 305.498 467.961 305.768 467.433 306.308C466.917 306.836 466.659 307.484 466.659 308.252C466.659 309.02 466.917 309.674 467.433 310.214Z" fill="white"/>
<path d="M520.162 315.506V317H511.882V316.388C511.882 315.944 511.948 315.524 512.08 315.128C512.224 314.72 512.38 314.378 512.548 314.102C512.716 313.826 512.98 313.52 513.34 313.184C513.7 312.836 513.982 312.584 514.186 312.428C514.39 312.26 514.732 312.008 515.212 311.672C515.692 311.324 516.01 311.096 516.166 310.988C517.018 310.364 517.606 309.842 517.93 309.422C518.266 308.99 518.434 308.426 518.434 307.73C518.434 307.058 518.218 306.524 517.786 306.128C517.354 305.72 516.79 305.516 516.094 305.516C515.362 305.516 514.738 305.738 514.222 306.182C513.706 306.626 513.448 307.244 513.448 308.036H511.864C511.864 306.836 512.26 305.864 513.052 305.12C513.856 304.376 514.864 304.004 516.076 304.004C517.204 304.004 518.14 304.328 518.884 304.976C519.64 305.624 520.018 306.548 520.018 307.748C520.018 308.66 519.796 309.44 519.352 310.088C518.908 310.724 518.146 311.432 517.066 312.212C516.862 312.356 516.574 312.56 516.202 312.824C515.83 313.076 515.542 313.28 515.338 313.436C515.134 313.592 514.906 313.784 514.654 314.012C514.414 314.228 514.222 314.462 514.078 314.714C513.946 314.954 513.85 315.218 513.79 315.506H520.162ZM526.635 317.18C525.303 317.18 524.217 316.736 523.377 315.848C522.537 314.948 522.117 313.79 522.117 312.374V308.81C522.117 307.394 522.537 306.242 523.377 305.354C524.229 304.454 525.315 304.004 526.635 304.004C527.955 304.004 529.041 304.454 529.893 305.354C530.745 306.254 531.171 307.406 531.171 308.81V312.374C531.171 313.79 530.745 314.948 529.893 315.848C529.041 316.736 527.955 317.18 526.635 317.18ZM526.635 315.668C527.523 315.668 528.243 315.374 528.795 314.786C529.347 314.198 529.623 313.394 529.623 312.374V308.81C529.623 307.79 529.347 306.986 528.795 306.398C528.243 305.81 527.523 305.516 526.635 305.516C525.759 305.516 525.045 305.81 524.493 306.398C523.941 306.986 523.665 307.79 523.665 308.81V312.374C523.665 313.394 523.941 314.198 524.493 314.786C525.045 315.374 525.759 315.668 526.635 315.668ZM541.414 315.506V317H533.134V316.388C533.134 315.944 533.2 315.524 533.332 315.128C533.476 314.72 533.632 314.378 533.8 314.102C533.968 313.826 534.232 313.52 534.592 313.184C534.952 312.836 535.234 312.584 535.438 312.428C535.642 312.26 535.984 312.008 536.464 311.672C536.944 311.324 537.262 311.096 537.418 310.988C538.27 310.364 538.858 309.842 539.182 309.422C539.518 308.99 539.686 308.426 539.686 307.73C539.686 307.058 539.47 306.524 539.038 306.128C538.606 305.72 538.042 305.516 537.346 305.516C536.614 305.516 535.99 305.738 535.474 306.182C534.958 306.626 534.7 307.244 534.7 308.036H533.116C533.116 306.836 533.512 305.864 534.304 305.12C535.108 304.376 536.116 304.004 537.328 304.004C538.456 304.004 539.392 304.328 540.136 304.976C540.892 305.624 541.27 306.548 541.27 307.748C541.27 308.66 541.048 309.44 540.604 310.088C540.16 310.724 539.398 311.432 538.318 312.212C538.114 312.356 537.826 312.56 537.454 312.824C537.082 313.076 536.794 313.28 536.59 313.436C536.386 313.592 536.158 313.784 535.906 314.012C535.666 314.228 535.474 314.462 535.33 314.714C535.198 314.954 535.102 315.218 535.042 315.506H541.414ZM551.451 315.506V317H543.171V316.388C543.171 315.944 543.237 315.524 543.369 315.128C543.513 314.72 543.669 314.378 543.837 314.102C544.005 313.826 544.269 313.52 544.629 313.184C544.989 312.836 545.271 312.584 545.475 312.428C545.679 312.26 546.021 312.008 546.501 311.672C546.981 311.324 547.299 311.096 547.455 310.988C548.307 310.364 548.895 309.842 549.219 309.422C549.555 308.99 549.723 308.426 549.723 307.73C549.723 307.058 549.507 306.524 549.075 306.128C548.643 305.72 548.079 305.516 547.383 305.516C546.651 305.516 546.027 305.738 545.511 306.182C544.995 306.626 544.737 307.244 544.737 308.036H543.153C543.153 306.836 543.549 305.864 544.341 305.12C545.145 304.376 546.153 304.004 547.365 304.004C548.493 304.004 549.429 304.328 550.173 304.976C550.929 305.624 551.307 306.548 551.307 307.748C551.307 308.66 551.085 309.44 550.641 310.088C550.197 310.724 549.435 311.432 548.355 312.212C548.151 312.356 547.863 312.56 547.491 312.824C547.119 313.076 546.831 313.28 546.627 313.436C546.423 313.592 546.195 313.784 545.943 314.012C545.703 314.228 545.511 314.462 545.367 314.714C545.235 314.954 545.139 315.218 545.079 315.506H551.451ZM553.109 312.734V311.186H557.699V312.734H553.109ZM564.481 317.18C563.149 317.18 562.063 316.736 561.223 315.848C560.383 314.948 559.963 313.79 559.963 312.374V308.81C559.963 307.394 560.383 306.242 561.223 305.354C562.075 304.454 563.161 304.004 564.481 304.004C565.801 304.004 566.887 304.454 567.739 305.354C568.591 306.254 569.017 307.406 569.017 308.81V312.374C569.017 313.79 568.591 314.948 567.739 315.848C566.887 316.736 565.801 317.18 564.481 317.18ZM564.481 315.668C565.369 315.668 566.089 315.374 566.641 314.786C567.193 314.198 567.469 313.394 567.469 312.374V308.81C567.469 307.79 567.193 306.986 566.641 306.398C566.089 305.81 565.369 305.516 564.481 305.516C563.605 305.516 562.891 305.81 562.339 306.398C561.787 306.986 561.511 307.79 561.511 308.81V312.374C561.511 313.394 561.787 314.198 562.339 314.786C562.891 315.374 563.605 315.668 564.481 315.668ZM572.708 317V305.75H570.242L571.502 304.22H574.256V317H572.708Z" fill="white"/>
<path d="M622.162 315.506V317H613.882V316.388C613.882 315.944 613.948 315.524 614.08 315.128C614.224 314.72 614.38 314.378 614.548 314.102C614.716 313.826 614.98 313.52 615.34 313.184C615.7 312.836 615.982 312.584 616.186 312.428C616.39 312.26 616.732 312.008 617.212 311.672C617.692 311.324 618.01 311.096 618.166 310.988C619.018 310.364 619.606 309.842 619.93 309.422C620.266 308.99 620.434 308.426 620.434 307.73C620.434 307.058 620.218 306.524 619.786 306.128C619.354 305.72 618.79 305.516 618.094 305.516C617.362 305.516 616.738 305.738 616.222 306.182C615.706 306.626 615.448 307.244 615.448 308.036H613.864C613.864 306.836 614.26 305.864 615.052 305.12C615.856 304.376 616.864 304.004 618.076 304.004C619.204 304.004 620.14 304.328 620.884 304.976C621.64 305.624 622.018 306.548 622.018 307.748C622.018 308.66 621.796 309.44 621.352 310.088C620.908 310.724 620.146 311.432 619.066 312.212C618.862 312.356 618.574 312.56 618.202 312.824C617.83 313.076 617.542 313.28 617.338 313.436C617.134 313.592 616.906 313.784 616.654 314.012C616.414 314.228 616.222 314.462 616.078 314.714C615.946 314.954 615.85 315.218 615.79 315.506H622.162ZM628.635 317.18C627.303 317.18 626.217 316.736 625.377 315.848C624.537 314.948 624.117 313.79 624.117 312.374V308.81C624.117 307.394 624.537 306.242 625.377 305.354C626.229 304.454 627.315 304.004 628.635 304.004C629.955 304.004 631.041 304.454 631.893 305.354C632.745 306.254 633.171 307.406 633.171 308.81V312.374C633.171 313.79 632.745 314.948 631.893 315.848C631.041 316.736 629.955 317.18 628.635 317.18ZM628.635 315.668C629.523 315.668 630.243 315.374 630.795 314.786C631.347 314.198 631.623 313.394 631.623 312.374V308.81C631.623 307.79 631.347 306.986 630.795 306.398C630.243 305.81 629.523 305.516 628.635 305.516C627.759 305.516 627.045 305.81 626.493 306.398C625.941 306.986 625.665 307.79 625.665 308.81V312.374C625.665 313.394 625.941 314.198 626.493 314.786C627.045 315.374 627.759 315.668 628.635 315.668ZM643.414 315.506V317H635.134V316.388C635.134 315.944 635.2 315.524 635.332 315.128C635.476 314.72 635.632 314.378 635.8 314.102C635.968 313.826 636.232 313.52 636.592 313.184C636.952 312.836 637.234 312.584 637.438 312.428C637.642 312.26 637.984 312.008 638.464 311.672C638.944 311.324 639.262 311.096 639.418 310.988C640.27 310.364 640.858 309.842 641.182 309.422C641.518 308.99 641.686 308.426 641.686 307.73C641.686 307.058 641.47 306.524 641.038 306.128C640.606 305.72 640.042 305.516 639.346 305.516C638.614 305.516 637.99 305.738 637.474 306.182C636.958 306.626 636.7 307.244 636.7 308.036H635.116C635.116 306.836 635.512 305.864 636.304 305.12C637.108 304.376 638.116 304.004 639.328 304.004C640.456 304.004 641.392 304.328 642.136 304.976C642.892 305.624 643.27 306.548 643.27 307.748C643.27 308.66 643.048 309.44 642.604 310.088C642.16 310.724 641.398 311.432 640.318 312.212C640.114 312.356 639.826 312.56 639.454 312.824C639.082 313.076 638.794 313.28 638.59 313.436C638.386 313.592 638.158 313.784 637.906 314.012C637.666 314.228 637.474 314.462 637.33 314.714C637.198 314.954 637.102 315.218 637.042 315.506H643.414ZM653.451 315.506V317H645.171V316.388C645.171 315.944 645.237 315.524 645.369 315.128C645.513 314.72 645.669 314.378 645.837 314.102C646.005 313.826 646.269 313.52 646.629 313.184C646.989 312.836 647.271 312.584 647.475 312.428C647.679 312.26 648.021 312.008 648.501 311.672C648.981 311.324 649.299 311.096 649.455 310.988C650.307 310.364 650.895 309.842 651.219 309.422C651.555 308.99 651.723 308.426 651.723 307.73C651.723 307.058 651.507 306.524 651.075 306.128C650.643 305.72 650.079 305.516 649.383 305.516C648.651 305.516 648.027 305.738 647.511 306.182C646.995 306.626 646.737 307.244 646.737 308.036H645.153C645.153 306.836 645.549 305.864 646.341 305.12C647.145 304.376 648.153 304.004 649.365 304.004C650.493 304.004 651.429 304.328 652.173 304.976C652.929 305.624 653.307 306.548 653.307 307.748C653.307 308.66 653.085 309.44 652.641 310.088C652.197 310.724 651.435 311.432 650.355 312.212C650.151 312.356 649.863 312.56 649.491 312.824C649.119 313.076 648.831 313.28 648.627 313.436C648.423 313.592 648.195 313.784 647.943 314.012C647.703 314.228 647.511 314.462 647.367 314.714C647.235 314.954 647.139 315.218 647.079 315.506H653.451ZM655.109 312.734V311.186H659.699V312.734H655.109ZM666.481 317.18C665.149 317.18 664.063 316.736 663.223 315.848C662.383 314.948 661.963 313.79 661.963 312.374V308.81C661.963 307.394 662.383 306.242 663.223 305.354C664.075 304.454 665.161 304.004 666.481 304.004C667.801 304.004 668.887 304.454 669.739 305.354C670.591 306.254 671.017 307.406 671.017 308.81V312.374C671.017 313.79 670.591 314.948 669.739 315.848C668.887 316.736 667.801 317.18 666.481 317.18ZM666.481 315.668C667.369 315.668 668.089 315.374 668.641 314.786C669.193 314.198 669.469 313.394 669.469 312.374V308.81C669.469 307.79 669.193 306.986 668.641 306.398C668.089 305.81 667.369 305.516 666.481 305.516C665.605 305.516 664.891 305.81 664.339 306.398C663.787 306.986 663.511 307.79 663.511 308.81V312.374C663.511 313.394 663.787 314.198 664.339 314.786C664.891 315.374 665.605 315.668 666.481 315.668ZM677.03 317.18C675.878 317.18 674.882 316.82 674.042 316.1C673.202 315.38 672.77 314.528 672.746 313.544H674.33C674.474 314.168 674.792 314.678 675.284 315.074C675.776 315.47 676.358 315.668 677.03 315.668C677.81 315.668 678.464 315.404 678.992 314.876C679.52 314.348 679.784 313.7 679.784 312.932C679.784 312.152 679.532 311.498 679.028 310.97C678.524 310.442 677.882 310.178 677.102 310.178C676.034 310.178 675.23 310.61 674.69 311.474L673.214 311.042L674.528 304.22H680.504V305.732H675.77L675.068 309.386C675.692 308.942 676.436 308.72 677.3 308.72C678.488 308.72 679.46 309.14 680.216 309.98C680.984 310.808 681.368 311.858 681.368 313.13C681.368 314.258 680.954 315.218 680.126 316.01C679.298 316.79 678.266 317.18 677.03 317.18Z" fill="white"/>
<path d="M724.162 315.506V317H715.882V316.388C715.882 315.944 715.948 315.524 716.08 315.128C716.224 314.72 716.38 314.378 716.548 314.102C716.716 313.826 716.98 313.52 717.34 313.184C717.7 312.836 717.982 312.584 718.186 312.428C718.39 312.26 718.732 312.008 719.212 311.672C719.692 311.324 720.01 311.096 720.166 310.988C721.018 310.364 721.606 309.842 721.93 309.422C722.266 308.99 722.434 308.426 722.434 307.73C722.434 307.058 722.218 306.524 721.786 306.128C721.354 305.72 720.79 305.516 720.094 305.516C719.362 305.516 718.738 305.738 718.222 306.182C717.706 306.626 717.448 307.244 717.448 308.036H715.864C715.864 306.836 716.26 305.864 717.052 305.12C717.856 304.376 718.864 304.004 720.076 304.004C721.204 304.004 722.14 304.328 722.884 304.976C723.64 305.624 724.018 306.548 724.018 307.748C724.018 308.66 723.796 309.44 723.352 310.088C722.908 310.724 722.146 311.432 721.066 312.212C720.862 312.356 720.574 312.56 720.202 312.824C719.83 313.076 719.542 313.28 719.338 313.436C719.134 313.592 718.906 313.784 718.654 314.012C718.414 314.228 718.222 314.462 718.078 314.714C717.946 314.954 717.85 315.218 717.79 315.506H724.162ZM730.635 317.18C729.303 317.18 728.217 316.736 727.377 315.848C726.537 314.948 726.117 313.79 726.117 312.374V308.81C726.117 307.394 726.537 306.242 727.377 305.354C728.229 304.454 729.315 304.004 730.635 304.004C731.955 304.004 733.041 304.454 733.893 305.354C734.745 306.254 735.171 307.406 735.171 308.81V312.374C735.171 313.79 734.745 314.948 733.893 315.848C733.041 316.736 731.955 317.18 730.635 317.18ZM730.635 315.668C731.523 315.668 732.243 315.374 732.795 314.786C733.347 314.198 733.623 313.394 733.623 312.374V308.81C733.623 307.79 733.347 306.986 732.795 306.398C732.243 305.81 731.523 305.516 730.635 305.516C729.759 305.516 729.045 305.81 728.493 306.398C727.941 306.986 727.665 307.79 727.665 308.81V312.374C727.665 313.394 727.941 314.198 728.493 314.786C729.045 315.374 729.759 315.668 730.635 315.668ZM745.414 315.506V317H737.134V316.388C737.134 315.944 737.2 315.524 737.332 315.128C737.476 314.72 737.632 314.378 737.8 314.102C737.968 313.826 738.232 313.52 738.592 313.184C738.952 312.836 739.234 312.584 739.438 312.428C739.642 312.26 739.984 312.008 740.464 311.672C740.944 311.324 741.262 311.096 741.418 310.988C742.27 310.364 742.858 309.842 743.182 309.422C743.518 308.99 743.686 308.426 743.686 307.73C743.686 307.058 743.47 306.524 743.038 306.128C742.606 305.72 742.042 305.516 741.346 305.516C740.614 305.516 739.99 305.738 739.474 306.182C738.958 306.626 738.7 307.244 738.7 308.036H737.116C737.116 306.836 737.512 305.864 738.304 305.12C739.108 304.376 740.116 304.004 741.328 304.004C742.456 304.004 743.392 304.328 744.136 304.976C744.892 305.624 745.27 306.548 745.27 307.748C745.27 308.66 745.048 309.44 744.604 310.088C744.16 310.724 743.398 311.432 742.318 312.212C742.114 312.356 741.826 312.56 741.454 312.824C741.082 313.076 740.794 313.28 740.59 313.436C740.386 313.592 740.158 313.784 739.906 314.012C739.666 314.228 739.474 314.462 739.33 314.714C739.198 314.954 739.102 315.218 739.042 315.506H745.414ZM755.451 315.506V317H747.171V316.388C747.171 315.944 747.237 315.524 747.369 315.128C747.513 314.72 747.669 314.378 747.837 314.102C748.005 313.826 748.269 313.52 748.629 313.184C748.989 312.836 749.271 312.584 749.475 312.428C749.679 312.26 750.021 312.008 750.501 311.672C750.981 311.324 751.299 311.096 751.455 310.988C752.307 310.364 752.895 309.842 753.219 309.422C753.555 308.99 753.723 308.426 753.723 307.73C753.723 307.058 753.507 306.524 753.075 306.128C752.643 305.72 752.079 305.516 751.383 305.516C750.651 305.516 750.027 305.738 749.511 306.182C748.995 306.626 748.737 307.244 748.737 308.036H747.153C747.153 306.836 747.549 305.864 748.341 305.12C749.145 304.376 750.153 304.004 751.365 304.004C752.493 304.004 753.429 304.328 754.173 304.976C754.929 305.624 755.307 306.548 755.307 307.748C755.307 308.66 755.085 309.44 754.641 310.088C754.197 310.724 753.435 311.432 752.355 312.212C752.151 312.356 751.863 312.56 751.491 312.824C751.119 313.076 750.831 313.28 750.627 313.436C750.423 313.592 750.195 313.784 749.943 314.012C749.703 314.228 749.511 314.462 749.367 314.714C749.235 314.954 749.139 315.218 749.079 315.506H755.451ZM757.109 312.734V311.186H761.699V312.734H757.109ZM768.481 317.18C767.149 317.18 766.063 316.736 765.223 315.848C764.383 314.948 763.963 313.79 763.963 312.374V308.81C763.963 307.394 764.383 306.242 765.223 305.354C766.075 304.454 767.161 304.004 768.481 304.004C769.801 304.004 770.887 304.454 771.739 305.354C772.591 306.254 773.017 307.406 773.017 308.81V312.374C773.017 313.79 772.591 314.948 771.739 315.848C770.887 316.736 769.801 317.18 768.481 317.18ZM768.481 315.668C769.369 315.668 770.089 315.374 770.641 314.786C771.193 314.198 771.469 313.394 771.469 312.374V308.81C771.469 307.79 771.193 306.986 770.641 306.398C770.089 305.81 769.369 305.516 768.481 305.516C767.605 305.516 766.891 305.81 766.339 306.398C765.787 306.986 765.511 307.79 765.511 308.81V312.374C765.511 313.394 765.787 314.198 766.339 314.786C766.891 315.374 767.605 315.668 768.481 315.668ZM775.43 317L779.372 312.356C779.24 312.368 779.072 312.374 778.868 312.374C777.8 312.374 776.864 311.966 776.06 311.15C775.268 310.334 774.872 309.374 774.872 308.27C774.872 307.07 775.28 306.062 776.096 305.246C776.924 304.418 777.956 304.004 779.192 304.004C780.428 304.004 781.46 304.412 782.288 305.228C783.116 306.044 783.53 307.04 783.53 308.216C783.53 308.84 783.404 309.404 783.152 309.908C782.912 310.4 782.558 310.922 782.09 311.474L777.41 317H775.43ZM777.23 310.214C777.758 310.742 778.412 311.006 779.192 311.006C779.972 311.006 780.626 310.742 781.154 310.214C781.682 309.674 781.946 309.02 781.946 308.252C781.946 307.484 781.682 306.836 781.154 306.308C780.626 305.768 779.972 305.498 779.192 305.498C778.412 305.498 777.758 305.768 777.23 306.308C776.714 306.836 776.456 307.484 776.456 308.252C776.456 309.02 776.714 309.674 777.23 310.214Z" fill="white"/>
<path d="M826.162 315.506V317H817.882V316.388C817.882 315.944 817.948 315.524 818.08 315.128C818.224 314.72 818.38 314.378 818.548 314.102C818.716 313.826 818.98 313.52 819.34 313.184C819.7 312.836 819.982 312.584 820.186 312.428C820.39 312.26 820.732 312.008 821.212 311.672C821.692 311.324 822.01 311.096 822.166 310.988C823.018 310.364 823.606 309.842 823.93 309.422C824.266 308.99 824.434 308.426 824.434 307.73C824.434 307.058 824.218 306.524 823.786 306.128C823.354 305.72 822.79 305.516 822.094 305.516C821.362 305.516 820.738 305.738 820.222 306.182C819.706 306.626 819.448 307.244 819.448 308.036H817.864C817.864 306.836 818.26 305.864 819.052 305.12C819.856 304.376 820.864 304.004 822.076 304.004C823.204 304.004 824.14 304.328 824.884 304.976C825.64 305.624 826.018 306.548 826.018 307.748C826.018 308.66 825.796 309.44 825.352 310.088C824.908 310.724 824.146 311.432 823.066 312.212C822.862 312.356 822.574 312.56 822.202 312.824C821.83 313.076 821.542 313.28 821.338 313.436C821.134 313.592 820.906 313.784 820.654 314.012C820.414 314.228 820.222 314.462 820.078 314.714C819.946 314.954 819.85 315.218 819.79 315.506H826.162ZM832.635 317.18C831.303 317.18 830.217 316.736 829.377 315.848C828.537 314.948 828.117 313.79 828.117 312.374V308.81C828.117 307.394 828.537 306.242 829.377 305.354C830.229 304.454 831.315 304.004 832.635 304.004C833.955 304.004 835.041 304.454 835.893 305.354C836.745 306.254 837.171 307.406 837.171 308.81V312.374C837.171 313.79 836.745 314.948 835.893 315.848C835.041 316.736 833.955 317.18 832.635 317.18ZM832.635 315.668C833.523 315.668 834.243 315.374 834.795 314.786C835.347 314.198 835.623 313.394 835.623 312.374V308.81C835.623 307.79 835.347 306.986 834.795 306.398C834.243 305.81 833.523 305.516 832.635 305.516C831.759 305.516 831.045 305.81 830.493 306.398C829.941 306.986 829.665 307.79 829.665 308.81V312.374C829.665 313.394 829.941 314.198 830.493 314.786C831.045 315.374 831.759 315.668 832.635 315.668ZM847.414 315.506V317H839.134V316.388C839.134 315.944 839.2 315.524 839.332 315.128C839.476 314.72 839.632 314.378 839.8 314.102C839.968 313.826 840.232 313.52 840.592 313.184C840.952 312.836 841.234 312.584 841.438 312.428C841.642 312.26 841.984 312.008 842.464 311.672C842.944 311.324 843.262 311.096 843.418 310.988C844.27 310.364 844.858 309.842 845.182 309.422C845.518 308.99 845.686 308.426 845.686 307.73C845.686 307.058 845.47 306.524 845.038 306.128C844.606 305.72 844.042 305.516 843.346 305.516C842.614 305.516 841.99 305.738 841.474 306.182C840.958 306.626 840.7 307.244 840.7 308.036H839.116C839.116 306.836 839.512 305.864 840.304 305.12C841.108 304.376 842.116 304.004 843.328 304.004C844.456 304.004 845.392 304.328 846.136 304.976C846.892 305.624 847.27 306.548 847.27 307.748C847.27 308.66 847.048 309.44 846.604 310.088C846.16 310.724 845.398 311.432 844.318 312.212C844.114 312.356 843.826 312.56 843.454 312.824C843.082 313.076 842.794 313.28 842.59 313.436C842.386 313.592 842.158 313.784 841.906 314.012C841.666 314.228 841.474 314.462 841.33 314.714C841.198 314.954 841.102 315.218 841.042 315.506H847.414ZM853.635 317.18C852.363 317.18 851.283 316.796 850.395 316.028C849.519 315.248 849.081 314.276 849.081 313.112H850.647C850.695 313.868 851.001 314.486 851.565 314.966C852.129 315.434 852.819 315.668 853.635 315.668C854.379 315.668 854.997 315.464 855.489 315.056C855.981 314.648 856.227 314.084 856.227 313.364C856.227 312.596 855.975 312.02 855.471 311.636C854.979 311.252 854.301 311.06 853.437 311.06H852.483V309.638H853.509C854.193 309.638 854.751 309.446 855.183 309.062C855.627 308.678 855.855 308.18 855.867 307.568C855.867 306.968 855.645 306.476 855.201 306.092C854.769 305.708 854.223 305.516 853.563 305.516C852.807 305.516 852.171 305.738 851.655 306.182C851.139 306.626 850.881 307.244 850.881 308.036H849.297C849.297 306.812 849.705 305.834 850.521 305.102C851.337 304.37 852.351 304.004 853.563 304.004C854.679 304.004 855.603 304.328 856.335 304.976C857.079 305.612 857.451 306.458 857.451 307.514C857.439 308.126 857.271 308.678 856.947 309.17C856.635 309.662 856.227 310.04 855.723 310.304C856.371 310.568 856.881 310.976 857.253 311.528C857.625 312.068 857.811 312.698 857.811 313.418C857.811 314.534 857.421 315.44 856.641 316.136C855.861 316.832 854.859 317.18 853.635 317.18ZM859.9 312.734V311.186H864.49V312.734H859.9ZM871.272 317.18C869.94 317.18 868.854 316.736 868.014 315.848C867.174 314.948 866.754 313.79 866.754 312.374V308.81C866.754 307.394 867.174 306.242 868.014 305.354C868.866 304.454 869.952 304.004 871.272 304.004C872.592 304.004 873.678 304.454 874.53 305.354C875.382 306.254 875.808 307.406 875.808 308.81V312.374C875.808 313.79 875.382 314.948 874.53 315.848C873.678 316.736 872.592 317.18 871.272 317.18ZM871.272 315.668C872.16 315.668 872.88 315.374 873.432 314.786C873.984 314.198 874.26 313.394 874.26 312.374V308.81C874.26 307.79 873.984 306.986 873.432 306.398C872.88 305.81 872.16 305.516 871.272 305.516C870.396 305.516 869.682 305.81 869.13 306.398C868.578 306.986 868.302 307.79 868.302 308.81V312.374C868.302 313.394 868.578 314.198 869.13 314.786C869.682 315.374 870.396 315.668 871.272 315.668ZM879.499 317V305.75H877.033L878.293 304.22H881.047V317H879.499Z" fill="white"/>
<path d="M928.162 315.506V317H919.882V316.388C919.882 315.944 919.948 315.524 920.08 315.128C920.224 314.72 920.38 314.378 920.548 314.102C920.716 313.826 920.98 313.52 921.34 313.184C921.7 312.836 921.982 312.584 922.186 312.428C922.39 312.26 922.732 312.008 923.212 311.672C923.692 311.324 924.01 311.096 924.166 310.988C925.018 310.364 925.606 309.842 925.93 309.422C926.266 308.99 926.434 308.426 926.434 307.73C926.434 307.058 926.218 306.524 925.786 306.128C925.354 305.72 924.79 305.516 924.094 305.516C923.362 305.516 922.738 305.738 922.222 306.182C921.706 306.626 921.448 307.244 921.448 308.036H919.864C919.864 306.836 920.26 305.864 921.052 305.12C921.856 304.376 922.864 304.004 924.076 304.004C925.204 304.004 926.14 304.328 926.884 304.976C927.64 305.624 928.018 306.548 928.018 307.748C928.018 308.66 927.796 309.44 927.352 310.088C926.908 310.724 926.146 311.432 925.066 312.212C924.862 312.356 924.574 312.56 924.202 312.824C923.83 313.076 923.542 313.28 923.338 313.436C923.134 313.592 922.906 313.784 922.654 314.012C922.414 314.228 922.222 314.462 922.078 314.714C921.946 314.954 921.85 315.218 921.79 315.506H928.162ZM934.635 317.18C933.303 317.18 932.217 316.736 931.377 315.848C930.537 314.948 930.117 313.79 930.117 312.374V308.81C930.117 307.394 930.537 306.242 931.377 305.354C932.229 304.454 933.315 304.004 934.635 304.004C935.955 304.004 937.041 304.454 937.893 305.354C938.745 306.254 939.171 307.406 939.171 308.81V312.374C939.171 313.79 938.745 314.948 937.893 315.848C937.041 316.736 935.955 317.18 934.635 317.18ZM934.635 315.668C935.523 315.668 936.243 315.374 936.795 314.786C937.347 314.198 937.623 313.394 937.623 312.374V308.81C937.623 307.79 937.347 306.986 936.795 306.398C936.243 305.81 935.523 305.516 934.635 305.516C933.759 305.516 933.045 305.81 932.493 306.398C931.941 306.986 931.665 307.79 931.665 308.81V312.374C931.665 313.394 931.941 314.198 932.493 314.786C933.045 315.374 933.759 315.668 934.635 315.668ZM949.414 315.506V317H941.134V316.388C941.134 315.944 941.2 315.524 941.332 315.128C941.476 314.72 941.632 314.378 941.8 314.102C941.968 313.826 942.232 313.52 942.592 313.184C942.952 312.836 943.234 312.584 943.438 312.428C943.642 312.26 943.984 312.008 944.464 311.672C944.944 311.324 945.262 311.096 945.418 310.988C946.27 310.364 946.858 309.842 947.182 309.422C947.518 308.99 947.686 308.426 947.686 307.73C947.686 307.058 947.47 306.524 947.038 306.128C946.606 305.72 946.042 305.516 945.346 305.516C944.614 305.516 943.99 305.738 943.474 306.182C942.958 306.626 942.7 307.244 942.7 308.036H941.116C941.116 306.836 941.512 305.864 942.304 305.12C943.108 304.376 944.116 304.004 945.328 304.004C946.456 304.004 947.392 304.328 948.136 304.976C948.892 305.624 949.27 306.548 949.27 307.748C949.27 308.66 949.048 309.44 948.604 310.088C948.16 310.724 947.398 311.432 946.318 312.212C946.114 312.356 945.826 312.56 945.454 312.824C945.082 313.076 944.794 313.28 944.59 313.436C944.386 313.592 944.158 313.784 943.906 314.012C943.666 314.228 943.474 314.462 943.33 314.714C943.198 314.954 943.102 315.218 943.042 315.506H949.414ZM955.635 317.18C954.363 317.18 953.283 316.796 952.395 316.028C951.519 315.248 951.081 314.276 951.081 313.112H952.647C952.695 313.868 953.001 314.486 953.565 314.966C954.129 315.434 954.819 315.668 955.635 315.668C956.379 315.668 956.997 315.464 957.489 315.056C957.981 314.648 958.227 314.084 958.227 313.364C958.227 312.596 957.975 312.02 957.471 311.636C956.979 311.252 956.301 311.06 955.437 311.06H954.483V309.638H955.509C956.193 309.638 956.751 309.446 957.183 309.062C957.627 308.678 957.855 308.18 957.867 307.568C957.867 306.968 957.645 306.476 957.201 306.092C956.769 305.708 956.223 305.516 955.563 305.516C954.807 305.516 954.171 305.738 953.655 306.182C953.139 306.626 952.881 307.244 952.881 308.036H951.297C951.297 306.812 951.705 305.834 952.521 305.102C953.337 304.37 954.351 304.004 955.563 304.004C956.679 304.004 957.603 304.328 958.335 304.976C959.079 305.612 959.451 306.458 959.451 307.514C959.439 308.126 959.271 308.678 958.947 309.17C958.635 309.662 958.227 310.04 957.723 310.304C958.371 310.568 958.881 310.976 959.253 311.528C959.625 312.068 959.811 312.698 959.811 313.418C959.811 314.534 959.421 315.44 958.641 316.136C957.861 316.832 956.859 317.18 955.635 317.18ZM961.9 312.734V311.186H966.49V312.734H961.9ZM973.272 317.18C971.94 317.18 970.854 316.736 970.014 315.848C969.174 314.948 968.754 313.79 968.754 312.374V308.81C968.754 307.394 969.174 306.242 970.014 305.354C970.866 304.454 971.952 304.004 973.272 304.004C974.592 304.004 975.678 304.454 976.53 305.354C977.382 306.254 977.808 307.406 977.808 308.81V312.374C977.808 313.79 977.382 314.948 976.53 315.848C975.678 316.736 974.592 317.18 973.272 317.18ZM973.272 315.668C974.16 315.668 974.88 315.374 975.432 314.786C975.984 314.198 976.26 313.394 976.26 312.374V308.81C976.26 307.79 975.984 306.986 975.432 306.398C974.88 305.81 974.16 305.516 973.272 305.516C972.396 305.516 971.682 305.81 971.13 306.398C970.578 306.986 970.302 307.79 970.302 308.81V312.374C970.302 313.394 970.578 314.198 971.13 314.786C971.682 315.374 972.396 315.668 973.272 315.668ZM983.821 317.18C982.669 317.18 981.673 316.82 980.833 316.1C979.993 315.38 979.561 314.528 979.537 313.544H981.121C981.265 314.168 981.583 314.678 982.075 315.074C982.567 315.47 983.149 315.668 983.821 315.668C984.601 315.668 985.255 315.404 985.783 314.876C986.311 314.348 986.575 313.7 986.575 312.932C986.575 312.152 986.323 311.498 985.819 310.97C985.315 310.442 984.673 310.178 983.893 310.178C982.825 310.178 982.021 310.61 981.481 311.474L980.005 311.042L981.319 304.22H987.295V305.732H982.561L981.859 309.386C982.483 308.942 983.227 308.72 984.091 308.72C985.279 308.72 986.251 309.14 987.007 309.98C987.775 310.808 988.159 311.858 988.159 313.13C988.159 314.258 987.745 315.218 986.917 316.01C986.089 316.79 985.057 317.18 983.821 317.18Z" fill="white"/>
<path d="M1030.16 315.506V317H1021.88V316.388C1021.88 315.944 1021.95 315.524 1022.08 315.128C1022.22 314.72 1022.38 314.378 1022.55 314.102C1022.72 313.826 1022.98 313.52 1023.34 313.184C1023.7 312.836 1023.98 312.584 1024.19 312.428C1024.39 312.26 1024.73 312.008 1025.21 311.672C1025.69 311.324 1026.01 311.096 1026.17 310.988C1027.02 310.364 1027.61 309.842 1027.93 309.422C1028.27 308.99 1028.43 308.426 1028.43 307.73C1028.43 307.058 1028.22 306.524 1027.79 306.128C1027.35 305.72 1026.79 305.516 1026.09 305.516C1025.36 305.516 1024.74 305.738 1024.22 306.182C1023.71 306.626 1023.45 307.244 1023.45 308.036H1021.86C1021.86 306.836 1022.26 305.864 1023.05 305.12C1023.86 304.376 1024.86 304.004 1026.08 304.004C1027.2 304.004 1028.14 304.328 1028.88 304.976C1029.64 305.624 1030.02 306.548 1030.02 307.748C1030.02 308.66 1029.8 309.44 1029.35 310.088C1028.91 310.724 1028.15 311.432 1027.07 312.212C1026.86 312.356 1026.57 312.56 1026.2 312.824C1025.83 313.076 1025.54 313.28 1025.34 313.436C1025.13 313.592 1024.91 313.784 1024.65 314.012C1024.41 314.228 1024.22 314.462 1024.08 314.714C1023.95 314.954 1023.85 315.218 1023.79 315.506H1030.16ZM1036.64 317.18C1035.3 317.18 1034.22 316.736 1033.38 315.848C1032.54 314.948 1032.12 313.79 1032.12 312.374V308.81C1032.12 307.394 1032.54 306.242 1033.38 305.354C1034.23 304.454 1035.32 304.004 1036.64 304.004C1037.96 304.004 1039.04 304.454 1039.89 305.354C1040.75 306.254 1041.17 307.406 1041.17 308.81V312.374C1041.17 313.79 1040.75 314.948 1039.89 315.848C1039.04 316.736 1037.96 317.18 1036.64 317.18ZM1036.64 315.668C1037.52 315.668 1038.24 315.374 1038.8 314.786C1039.35 314.198 1039.62 313.394 1039.62 312.374V308.81C1039.62 307.79 1039.35 306.986 1038.8 306.398C1038.24 305.81 1037.52 305.516 1036.64 305.516C1035.76 305.516 1035.05 305.81 1034.49 306.398C1033.94 306.986 1033.67 307.79 1033.67 308.81V312.374C1033.67 313.394 1033.94 314.198 1034.49 314.786C1035.05 315.374 1035.76 315.668 1036.64 315.668ZM1051.41 315.506V317H1043.13V316.388C1043.13 315.944 1043.2 315.524 1043.33 315.128C1043.48 314.72 1043.63 314.378 1043.8 314.102C1043.97 313.826 1044.23 313.52 1044.59 313.184C1044.95 312.836 1045.23 312.584 1045.44 312.428C1045.64 312.26 1045.98 312.008 1046.46 311.672C1046.94 311.324 1047.26 311.096 1047.42 310.988C1048.27 310.364 1048.86 309.842 1049.18 309.422C1049.52 308.99 1049.69 308.426 1049.69 307.73C1049.69 307.058 1049.47 306.524 1049.04 306.128C1048.61 305.72 1048.04 305.516 1047.35 305.516C1046.61 305.516 1045.99 305.738 1045.47 306.182C1044.96 306.626 1044.7 307.244 1044.7 308.036H1043.12C1043.12 306.836 1043.51 305.864 1044.3 305.12C1045.11 304.376 1046.12 304.004 1047.33 304.004C1048.46 304.004 1049.39 304.328 1050.14 304.976C1050.89 305.624 1051.27 306.548 1051.27 307.748C1051.27 308.66 1051.05 309.44 1050.6 310.088C1050.16 310.724 1049.4 311.432 1048.32 312.212C1048.11 312.356 1047.83 312.56 1047.45 312.824C1047.08 313.076 1046.79 313.28 1046.59 313.436C1046.39 313.592 1046.16 313.784 1045.91 314.012C1045.67 314.228 1045.47 314.462 1045.33 314.714C1045.2 314.954 1045.1 315.218 1045.04 315.506H1051.41ZM1057.64 317.18C1056.36 317.18 1055.28 316.796 1054.4 316.028C1053.52 315.248 1053.08 314.276 1053.08 313.112H1054.65C1054.7 313.868 1055 314.486 1055.57 314.966C1056.13 315.434 1056.82 315.668 1057.64 315.668C1058.38 315.668 1059 315.464 1059.49 315.056C1059.98 314.648 1060.23 314.084 1060.23 313.364C1060.23 312.596 1059.98 312.02 1059.47 311.636C1058.98 311.252 1058.3 311.06 1057.44 311.06H1056.48V309.638H1057.51C1058.19 309.638 1058.75 309.446 1059.18 309.062C1059.63 308.678 1059.86 308.18 1059.87 307.568C1059.87 306.968 1059.65 306.476 1059.2 306.092C1058.77 305.708 1058.22 305.516 1057.56 305.516C1056.81 305.516 1056.17 305.738 1055.66 306.182C1055.14 306.626 1054.88 307.244 1054.88 308.036H1053.3C1053.3 306.812 1053.71 305.834 1054.52 305.102C1055.34 304.37 1056.35 304.004 1057.56 304.004C1058.68 304.004 1059.6 304.328 1060.34 304.976C1061.08 305.612 1061.45 306.458 1061.45 307.514C1061.44 308.126 1061.27 308.678 1060.95 309.17C1060.64 309.662 1060.23 310.04 1059.72 310.304C1060.37 310.568 1060.88 310.976 1061.25 311.528C1061.63 312.068 1061.81 312.698 1061.81 313.418C1061.81 314.534 1061.42 315.44 1060.64 316.136C1059.86 316.832 1058.86 317.18 1057.64 317.18ZM1063.9 312.734V311.186H1068.49V312.734H1063.9ZM1075.27 317.18C1073.94 317.18 1072.85 316.736 1072.01 315.848C1071.17 314.948 1070.75 313.79 1070.75 312.374V308.81C1070.75 307.394 1071.17 306.242 1072.01 305.354C1072.87 304.454 1073.95 304.004 1075.27 304.004C1076.59 304.004 1077.68 304.454 1078.53 305.354C1079.38 306.254 1079.81 307.406 1079.81 308.81V312.374C1079.81 313.79 1079.38 314.948 1078.53 315.848C1077.68 316.736 1076.59 317.18 1075.27 317.18ZM1075.27 315.668C1076.16 315.668 1076.88 315.374 1077.43 314.786C1077.98 314.198 1078.26 313.394 1078.26 312.374V308.81C1078.26 307.79 1077.98 306.986 1077.43 306.398C1076.88 305.81 1076.16 305.516 1075.27 305.516C1074.4 305.516 1073.68 305.81 1073.13 306.398C1072.58 306.986 1072.3 307.79 1072.3 308.81V312.374C1072.3 313.394 1072.58 314.198 1073.13 314.786C1073.68 315.374 1074.4 315.668 1075.27 315.668ZM1082.22 317L1086.16 312.356C1086.03 312.368 1085.86 312.374 1085.66 312.374C1084.59 312.374 1083.65 311.966 1082.85 311.15C1082.06 310.334 1081.66 309.374 1081.66 308.27C1081.66 307.07 1082.07 306.062 1082.89 305.246C1083.71 304.418 1084.75 304.004 1085.98 304.004C1087.22 304.004 1088.25 304.412 1089.08 305.228C1089.91 306.044 1090.32 307.04 1090.32 308.216C1090.32 308.84 1090.19 309.404 1089.94 309.908C1089.7 310.4 1089.35 310.922 1088.88 311.474L1084.2 317H1082.22ZM1084.02 310.214C1084.55 310.742 1085.2 311.006 1085.98 311.006C1086.76 311.006 1087.42 310.742 1087.94 310.214C1088.47 309.674 1088.74 309.02 1088.74 308.252C1088.74 307.484 1088.47 306.836 1087.94 306.308C1087.42 305.768 1086.76 305.498 1085.98 305.498C1085.2 305.498 1084.55 305.768 1084.02 306.308C1083.5 306.836 1083.25 307.484 1083.25 308.252C1083.25 309.02 1083.5 309.674 1084.02 310.214Z" fill="white"/>
<path d="M35.162 238.506V240H26.882V239.388C26.882 238.944 26.948 238.524 27.08 238.128C27.224 237.72 27.38 237.378 27.548 237.102C27.716 236.826 27.98 236.52 28.34 236.184C28.7 235.836 28.982 235.584 29.186 235.428C29.39 235.26 29.732 235.008 30.212 234.672C30.692 234.324 31.01 234.096 31.166 233.988C32.018 233.364 32.606 232.842 32.93 232.422C33.266 231.99 33.434 231.426 33.434 230.73C33.434 230.058 33.218 229.524 32.786 229.128C32.354 228.72 31.79 228.516 31.094 228.516C30.362 228.516 29.738 228.738 29.222 229.182C28.706 229.626 28.448 230.244 28.448 231.036H26.864C26.864 229.836 27.26 228.864 28.052 228.12C28.856 227.376 29.864 227.004 31.076 227.004C32.204 227.004 33.14 227.328 33.884 227.976C34.64 228.624 35.018 229.548 35.018 230.748C35.018 231.66 34.796 232.44 34.352 233.088C33.908 233.724 33.146 234.432 32.066 235.212C31.862 235.356 31.574 235.56 31.202 235.824C30.83 236.076 30.542 236.28 30.338 236.436C30.134 236.592 29.906 236.784 29.654 237.012C29.414 237.228 29.222 237.462 29.078 237.714C28.946 237.954 28.85 238.218 28.79 238.506H35.162ZM41.6351 240.18C40.3031 240.18 39.2171 239.736 38.3771 238.848C37.5371 237.948 37.1171 236.79 37.1171 235.374V231.81C37.1171 230.394 37.5371 229.242 38.3771 228.354C39.2291 227.454 40.3151 227.004 41.6351 227.004C42.9551 227.004 44.0411 227.454 44.8931 228.354C45.7451 229.254 46.1711 230.406 46.1711 231.81V235.374C46.1711 236.79 45.7451 237.948 44.8931 238.848C44.0411 239.736 42.9551 240.18 41.6351 240.18ZM41.6351 238.668C42.5231 238.668 43.2431 238.374 43.7951 237.786C44.3471 237.198 44.6231 236.394 44.6231 235.374V231.81C44.6231 230.79 44.3471 229.986 43.7951 229.398C43.2431 228.81 42.5231 228.516 41.6351 228.516C40.7591 228.516 40.0451 228.81 39.4931 229.398C38.9411 229.986 38.6651 230.79 38.6651 231.81V235.374C38.6651 236.394 38.9411 237.198 39.4931 237.786C40.0451 238.374 40.7591 238.668 41.6351 238.668ZM52.85 240.18C51.518 240.18 50.432 239.736 49.592 238.848C48.752 237.948 48.332 236.79 48.332 235.374V231.81C48.332 230.394 48.752 229.242 49.592 228.354C50.444 227.454 51.53 227.004 52.85 227.004C54.17 227.004 55.256 227.454 56.108 228.354C56.96 229.254 57.386 230.406 57.386 231.81V235.374C57.386 236.79 56.96 237.948 56.108 238.848C55.256 239.736 54.17 240.18 52.85 240.18ZM52.85 238.668C53.738 238.668 54.458 238.374 55.01 237.786C55.562 237.198 55.838 236.394 55.838 235.374V231.81C55.838 230.79 55.562 229.986 55.01 229.398C54.458 228.81 53.738 228.516 52.85 228.516C51.974 228.516 51.26 228.81 50.708 229.398C50.156 229.986 49.88 230.79 49.88 231.81V235.374C49.88 236.394 50.156 237.198 50.708 237.786C51.26 238.374 51.974 238.668 52.85 238.668ZM64.0648 240.18C62.7328 240.18 61.6468 239.736 60.8068 238.848C59.9668 237.948 59.5468 236.79 59.5468 235.374V231.81C59.5468 230.394 59.9668 229.242 60.8068 228.354C61.6588 227.454 62.7448 227.004 64.0648 227.004C65.3848 227.004 66.4708 227.454 67.3228 228.354C68.1748 229.254 68.6008 230.406 68.6008 231.81V235.374C68.6008 236.79 68.1748 237.948 67.3228 238.848C66.4708 239.736 65.3848 240.18 64.0648 240.18ZM64.0648 238.668C64.9528 238.668 65.6728 238.374 66.2248 237.786C66.7768 237.198 67.0528 236.394 67.0528 235.374V231.81C67.0528 230.79 66.7768 229.986 66.2248 229.398C65.6728 228.81 64.9528 228.516 64.0648 228.516C63.1888 228.516 62.4748 228.81 61.9228 229.398C61.3708 229.986 61.0948 230.79 61.0948 231.81V235.374C61.0948 236.394 61.3708 237.198 61.9228 237.786C62.4748 238.374 63.1888 238.668 64.0648 238.668Z" fill="white"/>
<path d="M30.932 138.18C29.78 138.18 28.784 137.82 27.944 137.1C27.104 136.38 26.672 135.528 26.648 134.544H28.232C28.376 135.168 28.694 135.678 29.186 136.074C29.678 136.47 30.26 136.668 30.932 136.668C31.712 136.668 32.366 136.404 32.894 135.876C33.422 135.348 33.686 134.7 33.686 133.932C33.686 133.152 33.434 132.498 32.93 131.97C32.426 131.442 31.784 131.178 31.004 131.178C29.936 131.178 29.132 131.61 28.592 132.474L27.116 132.042L28.43 125.22H34.406V126.732H29.672L28.97 130.386C29.594 129.942 30.338 129.72 31.202 129.72C32.39 129.72 33.362 130.14 34.118 130.98C34.886 131.808 35.27 132.858 35.27 134.13C35.27 135.258 34.856 136.218 34.028 137.01C33.2 137.79 32.168 138.18 30.932 138.18ZM41.5824 138.18C40.2504 138.18 39.1644 137.736 38.3244 136.848C37.4844 135.948 37.0644 134.79 37.0644 133.374V129.81C37.0644 128.394 37.4844 127.242 38.3244 126.354C39.1764 125.454 40.2624 125.004 41.5824 125.004C42.9024 125.004 43.9884 125.454 44.8404 126.354C45.6924 127.254 46.1184 128.406 46.1184 129.81V133.374C46.1184 134.79 45.6924 135.948 44.8404 136.848C43.9884 137.736 42.9024 138.18 41.5824 138.18ZM41.5824 136.668C42.4704 136.668 43.1904 136.374 43.7424 135.786C44.2944 135.198 44.5704 134.394 44.5704 133.374V129.81C44.5704 128.79 44.2944 127.986 43.7424 127.398C43.1904 126.81 42.4704 126.516 41.5824 126.516C40.7064 126.516 39.9924 126.81 39.4404 127.398C38.8884 127.986 38.6124 128.79 38.6124 129.81V133.374C38.6124 134.394 38.8884 135.198 39.4404 135.786C39.9924 136.374 40.7064 136.668 41.5824 136.668ZM52.7972 138.18C51.4652 138.18 50.3792 137.736 49.5392 136.848C48.6992 135.948 48.2792 134.79 48.2792 133.374V129.81C48.2792 128.394 48.6992 127.242 49.5392 126.354C50.3912 125.454 51.4772 125.004 52.7972 125.004C54.1172 125.004 55.2032 125.454 56.0552 126.354C56.9072 127.254 57.3332 128.406 57.3332 129.81V133.374C57.3332 134.79 56.9072 135.948 56.0552 136.848C55.2032 137.736 54.1172 138.18 52.7972 138.18ZM52.7972 136.668C53.6852 136.668 54.4052 136.374 54.9572 135.786C55.5092 135.198 55.7852 134.394 55.7852 133.374V129.81C55.7852 128.79 55.5092 127.986 54.9572 127.398C54.4052 126.81 53.6852 126.516 52.7972 126.516C51.9212 126.516 51.2072 126.81 50.6552 127.398C50.1032 127.986 49.8272 128.79 49.8272 129.81V133.374C49.8272 134.394 50.1032 135.198 50.6552 135.786C51.2072 136.374 51.9212 136.668 52.7972 136.668ZM64.0121 138.18C62.6801 138.18 61.5941 137.736 60.7541 136.848C59.9141 135.948 59.4941 134.79 59.4941 133.374V129.81C59.4941 128.394 59.9141 127.242 60.7541 126.354C61.6061 125.454 62.6921 125.004 64.0121 125.004C65.3321 125.004 66.4181 125.454 67.2701 126.354C68.1221 127.254 68.5481 128.406 68.5481 129.81V133.374C68.5481 134.79 68.1221 135.948 67.2701 136.848C66.4181 137.736 65.3321 138.18 64.0121 138.18ZM64.0121 136.668C64.9001 136.668 65.6201 136.374 66.1721 135.786C66.7241 135.198 67.0001 134.394 67.0001 133.374V129.81C67.0001 128.79 66.7241 127.986 66.1721 127.398C65.6201 126.81 64.9001 126.516 64.0121 126.516C63.1361 126.516 62.4221 126.81 61.8701 127.398C61.3181 127.986 61.0421 128.79 61.0421 129.81V133.374C61.0421 134.394 61.3181 135.198 61.8701 135.786C62.4221 136.374 63.1361 136.668 64.0121 136.668Z" fill="white"/>
<path d="M33.11 172V168.526H26.306V167.284L33.308 159.22H34.658V167.068H36.422V168.526H34.658V172H33.11ZM28.322 167.068H33.11V161.56L28.322 167.068ZM42.7074 172.18C41.3754 172.18 40.2894 171.736 39.4494 170.848C38.6094 169.948 38.1894 168.79 38.1894 167.374V163.81C38.1894 162.394 38.6094 161.242 39.4494 160.354C40.3014 159.454 41.3874 159.004 42.7074 159.004C44.0274 159.004 45.1134 159.454 45.9654 160.354C46.8174 161.254 47.2434 162.406 47.2434 163.81V167.374C47.2434 168.79 46.8174 169.948 45.9654 170.848C45.1134 171.736 44.0274 172.18 42.7074 172.18ZM42.7074 170.668C43.5954 170.668 44.3154 170.374 44.8674 169.786C45.4194 169.198 45.6954 168.394 45.6954 167.374V163.81C45.6954 162.79 45.4194 161.986 44.8674 161.398C44.3154 160.81 43.5954 160.516 42.7074 160.516C41.8314 160.516 41.1174 160.81 40.5654 161.398C40.0134 161.986 39.7374 162.79 39.7374 163.81V167.374C39.7374 168.394 40.0134 169.198 40.5654 169.786C41.1174 170.374 41.8314 170.668 42.7074 170.668ZM53.9222 172.18C52.5902 172.18 51.5042 171.736 50.6642 170.848C49.8242 169.948 49.4042 168.79 49.4042 167.374V163.81C49.4042 162.394 49.8242 161.242 50.6642 160.354C51.5162 159.454 52.6022 159.004 53.9222 159.004C55.2422 159.004 56.3282 159.454 57.1802 160.354C58.0322 161.254 58.4582 162.406 58.4582 163.81V167.374C58.4582 168.79 58.0322 169.948 57.1802 170.848C56.3282 171.736 55.2422 172.18 53.9222 172.18ZM53.9222 170.668C54.8102 170.668 55.5302 170.374 56.0822 169.786C56.6342 169.198 56.9102 168.394 56.9102 167.374V163.81C56.9102 162.79 56.6342 161.986 56.0822 161.398C55.5302 160.81 54.8102 160.516 53.9222 160.516C53.0462 160.516 52.3322 160.81 51.7802 161.398C51.2282 161.986 50.9522 162.79 50.9522 163.81V167.374C50.9522 168.394 51.2282 169.198 51.7802 169.786C52.3322 170.374 53.0462 170.668 53.9222 170.668ZM65.1371 172.18C63.8051 172.18 62.7191 171.736 61.8791 170.848C61.0391 169.948 60.6191 168.79 60.6191 167.374V163.81C60.6191 162.394 61.0391 161.242 61.8791 160.354C62.7311 159.454 63.8171 159.004 65.1371 159.004C66.4571 159.004 67.5431 159.454 68.3951 160.354C69.2471 161.254 69.6731 162.406 69.6731 163.81V167.374C69.6731 168.79 69.2471 169.948 68.3951 170.848C67.5431 171.736 66.4571 172.18 65.1371 172.18ZM65.1371 170.668C66.0251 170.668 66.7451 170.374 67.2971 169.786C67.8491 169.198 68.1251 168.394 68.1251 167.374V163.81C68.1251 162.79 67.8491 161.986 67.2971 161.398C66.7451 160.81 66.0251 160.516 65.1371 160.516C64.2611 160.516 63.5471 160.81 62.9951 161.398C62.4431 161.986 62.1671 162.79 62.1671 163.81V167.374C62.1671 168.394 62.4431 169.198 62.9951 169.786C63.5471 170.374 64.2611 170.668 65.1371 170.668Z" fill="white"/>
<path d="M31.346 206.18C30.074 206.18 28.994 205.796 28.106 205.028C27.23 204.248 26.792 203.276 26.792 202.112H28.358C28.406 202.868 28.712 203.486 29.276 203.966C29.84 204.434 30.53 204.668 31.346 204.668C32.09 204.668 32.708 204.464 33.2 204.056C33.692 203.648 33.938 203.084 33.938 202.364C33.938 201.596 33.686 201.02 33.182 200.636C32.69 200.252 32.012 200.06 31.148 200.06H30.194V198.638H31.22C31.904 198.638 32.462 198.446 32.894 198.062C33.338 197.678 33.566 197.18 33.578 196.568C33.578 195.968 33.356 195.476 32.912 195.092C32.48 194.708 31.934 194.516 31.274 194.516C30.518 194.516 29.882 194.738 29.366 195.182C28.85 195.626 28.592 196.244 28.592 197.036H27.008C27.008 195.812 27.416 194.834 28.232 194.102C29.048 193.37 30.062 193.004 31.274 193.004C32.39 193.004 33.314 193.328 34.046 193.976C34.79 194.612 35.162 195.458 35.162 196.514C35.15 197.126 34.982 197.678 34.658 198.17C34.346 198.662 33.938 199.04 33.434 199.304C34.082 199.568 34.592 199.976 34.964 200.528C35.336 201.068 35.522 201.698 35.522 202.418C35.522 203.534 35.132 204.44 34.352 205.136C33.572 205.832 32.57 206.18 31.346 206.18ZM42.0394 206.18C40.7074 206.18 39.6214 205.736 38.7814 204.848C37.9414 203.948 37.5214 202.79 37.5214 201.374V197.81C37.5214 196.394 37.9414 195.242 38.7814 194.354C39.6334 193.454 40.7194 193.004 42.0394 193.004C43.3594 193.004 44.4454 193.454 45.2974 194.354C46.1494 195.254 46.5754 196.406 46.5754 197.81V201.374C46.5754 202.79 46.1494 203.948 45.2974 204.848C44.4454 205.736 43.3594 206.18 42.0394 206.18ZM42.0394 204.668C42.9274 204.668 43.6474 204.374 44.1994 203.786C44.7514 203.198 45.0274 202.394 45.0274 201.374V197.81C45.0274 196.79 44.7514 195.986 44.1994 195.398C43.6474 194.81 42.9274 194.516 42.0394 194.516C41.1634 194.516 40.4494 194.81 39.8974 195.398C39.3454 195.986 39.0694 196.79 39.0694 197.81V201.374C39.0694 202.394 39.3454 203.198 39.8974 203.786C40.4494 204.374 41.1634 204.668 42.0394 204.668ZM53.2543 206.18C51.9223 206.18 50.8363 205.736 49.9963 204.848C49.1563 203.948 48.7363 202.79 48.7363 201.374V197.81C48.7363 196.394 49.1563 195.242 49.9963 194.354C50.8483 193.454 51.9343 193.004 53.2543 193.004C54.5743 193.004 55.6603 193.454 56.5123 194.354C57.3643 195.254 57.7903 196.406 57.7903 197.81V201.374C57.7903 202.79 57.3643 203.948 56.5123 204.848C55.6603 205.736 54.5743 206.18 53.2543 206.18ZM53.2543 204.668C54.1423 204.668 54.8623 204.374 55.4143 203.786C55.9663 203.198 56.2423 202.394 56.2423 201.374V197.81C56.2423 196.79 55.9663 195.986 55.4143 195.398C54.8623 194.81 54.1423 194.516 53.2543 194.516C52.3783 194.516 51.6643 194.81 51.1123 195.398C50.5603 195.986 50.2843 196.79 50.2843 197.81V201.374C50.2843 202.394 50.5603 203.198 51.1123 203.786C51.6643 204.374 52.3783 204.668 53.2543 204.668ZM64.4691 206.18C63.1371 206.18 62.0511 205.736 61.2111 204.848C60.3711 203.948 59.9511 202.79 59.9511 201.374V197.81C59.9511 196.394 60.3711 195.242 61.2111 194.354C62.0631 193.454 63.1491 193.004 64.4691 193.004C65.7891 193.004 66.8751 193.454 67.7271 194.354C68.5791 195.254 69.0051 196.406 69.0051 197.81V201.374C69.0051 202.79 68.5791 203.948 67.7271 204.848C66.8751 205.736 65.7891 206.18 64.4691 206.18ZM64.4691 204.668C65.3571 204.668 66.0771 204.374 66.6291 203.786C67.1811 203.198 67.4571 202.394 67.4571 201.374V197.81C67.4571 196.79 67.1811 195.986 66.6291 195.398C66.0771 194.81 65.3571 194.516 64.4691 194.516C63.5931 194.516 62.8791 194.81 62.3271 195.398C61.7751 195.986 61.4991 196.79 61.4991 197.81V201.374C61.4991 202.394 61.7751 203.198 62.3271 203.786C62.8791 204.374 63.5931 204.668 64.4691 204.668Z" fill="white"/>
<defs>
<linearGradient id="paint0_linear_1_2" x1="628" y1="0" x2="628" y2="362" gradientUnits="userSpaceOnUse">
<stop stop-color="#7D6FF6" stop-opacity="0.16"/>
<stop offset="1" stop-color="#58E1D9" stop-opacity="0.16"/>
</linearGradient>
</defs>
</svg>
