<svg width="1256" height="362" viewBox="0 0 1256 362" fill="none" xmlns="http://www.w3.org/2000/svg">
<rect width="1256" height="362" rx="10" fill="url(#paint0_linear_2_746)"/>
<rect x="0.5" y="0.5" width="1255" height="361" rx="9.5" stroke="white" stroke-opacity="0.15"/>
<line x1="84.75" y1="38" x2="84.75" y2="281" stroke="white" stroke-opacity="0.75" stroke-width="1.5"/>
<line x1="1175" y1="281.75" x2="85" y2="281.75" stroke="white" stroke-opacity="0.75" stroke-width="1.5"/>
<path d="M1123.96 307.222V297.222H1120.52V295.349H1129.38V297.222H1125.92V307.222H1123.96ZM1131.75 297.038C1131.41 297.038 1131.12 296.921 1130.88 296.687C1130.63 296.442 1130.51 296.146 1130.51 295.801C1130.51 295.466 1130.63 295.182 1130.88 294.948C1131.12 294.703 1131.41 294.58 1131.75 294.58C1132.09 294.58 1132.38 294.703 1132.62 294.948C1132.85 295.182 1132.97 295.466 1132.97 295.801C1132.97 296.146 1132.85 296.442 1132.62 296.687C1132.38 296.921 1132.09 297.038 1131.75 297.038ZM1130.83 307.222V298.861H1132.67V307.222H1130.83ZM1145.79 307.222V302.523C1145.79 301.843 1145.66 301.314 1145.41 300.935C1145.16 300.556 1144.79 300.366 1144.3 300.366C1143.71 300.366 1143.24 300.595 1142.88 301.052C1142.52 301.509 1142.34 302.15 1142.31 302.975V307.222H1140.47V302.523C1140.47 301.843 1140.35 301.314 1140.09 300.935C1139.84 300.556 1139.48 300.366 1138.99 300.366C1138.37 300.366 1137.88 300.606 1137.51 301.085C1137.16 301.564 1136.98 302.239 1136.98 303.109V307.222H1135.14V298.861H1136.98V299.998C1137.49 299.129 1138.28 298.694 1139.35 298.694C1140.61 298.694 1141.48 299.246 1141.94 300.349C1142.18 299.825 1142.54 299.418 1143.02 299.129C1143.51 298.839 1144.04 298.694 1144.62 298.694C1145.56 298.694 1146.29 299.012 1146.83 299.647C1147.36 300.282 1147.63 301.141 1147.63 302.222V307.222H1145.79ZM1153.76 307.389C1152.49 307.389 1151.44 306.982 1150.62 306.169C1149.8 305.355 1149.4 304.313 1149.4 303.042C1149.4 301.804 1149.81 300.773 1150.64 299.948C1151.46 299.112 1152.5 298.694 1153.76 298.694C1154.92 298.694 1155.88 299.062 1156.64 299.798C1157.41 300.533 1157.79 301.548 1157.79 302.841C1157.79 303.064 1157.79 303.265 1157.78 303.443H1151.2C1151.25 304.123 1151.51 304.675 1151.99 305.098C1152.47 305.511 1153.07 305.717 1153.78 305.717C1154.85 305.717 1155.65 305.294 1156.17 304.446L1157.58 305.45C1156.77 306.743 1155.5 307.389 1153.76 307.389ZM1151.29 302.105H1155.94C1155.84 301.525 1155.57 301.074 1155.15 300.751C1154.74 300.416 1154.25 300.249 1153.7 300.249C1153.12 300.249 1152.6 300.411 1152.14 300.734C1151.69 301.057 1151.41 301.514 1151.29 302.105Z" fill="white" fill-opacity="0.5"/>
<path d="M31.61 280V268.75H29.144L30.404 267.22H33.158V280H31.61ZM38.0575 279.748C37.8055 280.012 37.4935 280.144 37.1215 280.144C36.7495 280.144 36.4315 280.012 36.1675 279.748C35.9155 279.484 35.7895 279.166 35.7895 278.794C35.7895 278.434 35.9215 278.122 36.1855 277.858C36.4495 277.582 36.7615 277.444 37.1215 277.444C37.4815 277.444 37.7935 277.582 38.0575 277.858C38.3215 278.122 38.4535 278.434 38.4535 278.794C38.4535 279.166 38.3215 279.484 38.0575 279.748ZM48.5507 278.506V280H40.2707V279.388C40.2707 278.944 40.3367 278.524 40.4687 278.128C40.6127 277.72 40.7687 277.378 40.9367 277.102C41.1047 276.826 41.3687 276.52 41.7287 276.184C42.0887 275.836 42.3707 275.584 42.5747 275.428C42.7787 275.26 43.1207 275.008 43.6007 274.672C44.0807 274.324 44.3987 274.096 44.5547 273.988C45.4067 273.364 45.9947 272.842 46.3187 272.422C46.6547 271.99 46.8227 271.426 46.8227 270.73C46.8227 270.058 46.6067 269.524 46.1747 269.128C45.7427 268.72 45.1787 268.516 44.4827 268.516C43.7507 268.516 43.1267 268.738 42.6107 269.182C42.0947 269.626 41.8367 270.244 41.8367 271.036H40.2527C40.2527 269.836 40.6487 268.864 41.4407 268.12C42.2447 267.376 43.2527 267.004 44.4647 267.004C45.5927 267.004 46.5287 267.328 47.2727 267.976C48.0287 268.624 48.4067 269.548 48.4067 270.748C48.4067 271.66 48.1847 272.44 47.7407 273.088C47.2967 273.724 46.5347 274.432 45.4547 275.212C45.2507 275.356 44.9627 275.56 44.5907 275.824C44.2187 276.076 43.9307 276.28 43.7267 276.436C43.5227 276.592 43.2947 276.784 43.0427 277.012C42.8027 277.228 42.6107 277.462 42.4667 277.714C42.3347 277.954 42.2387 278.218 42.1787 278.506H48.5507ZM55.0238 280.18C53.6918 280.18 52.6058 279.736 51.7658 278.848C50.9258 277.948 50.5058 276.79 50.5058 275.374V271.81C50.5058 270.394 50.9258 269.242 51.7658 268.354C52.6178 267.454 53.7038 267.004 55.0238 267.004C56.3438 267.004 57.4298 267.454 58.2818 268.354C59.1338 269.254 59.5598 270.406 59.5598 271.81V275.374C59.5598 276.79 59.1338 277.948 58.2818 278.848C57.4298 279.736 56.3438 280.18 55.0238 280.18ZM55.0238 278.668C55.9118 278.668 56.6318 278.374 57.1838 277.786C57.7358 277.198 58.0118 276.394 58.0118 275.374V271.81C58.0118 270.79 57.7358 269.986 57.1838 269.398C56.6318 268.81 55.9118 268.516 55.0238 268.516C54.1478 268.516 53.4338 268.81 52.8818 269.398C52.3298 269.986 52.0538 270.79 52.0538 271.81V275.374C52.0538 276.394 52.3298 277.198 52.8818 277.786C53.4338 278.374 54.1478 278.668 55.0238 278.668Z" fill="white"/>
<path d="M112.162 315.506V317H103.882V316.388C103.882 315.944 103.948 315.524 104.08 315.128C104.224 314.72 104.38 314.378 104.548 314.102C104.716 313.826 104.98 313.52 105.34 313.184C105.7 312.836 105.982 312.584 106.186 312.428C106.39 312.26 106.732 312.008 107.212 311.672C107.692 311.324 108.01 311.096 108.166 310.988C109.018 310.364 109.606 309.842 109.93 309.422C110.266 308.99 110.434 308.426 110.434 307.73C110.434 307.058 110.218 306.524 109.786 306.128C109.354 305.72 108.79 305.516 108.094 305.516C107.362 305.516 106.738 305.738 106.222 306.182C105.706 306.626 105.448 307.244 105.448 308.036H103.864C103.864 306.836 104.26 305.864 105.052 305.12C105.856 304.376 106.864 304.004 108.076 304.004C109.204 304.004 110.14 304.328 110.884 304.976C111.64 305.624 112.018 306.548 112.018 307.748C112.018 308.66 111.796 309.44 111.352 310.088C110.908 310.724 110.146 311.432 109.066 312.212C108.862 312.356 108.574 312.56 108.202 312.824C107.83 313.076 107.542 313.28 107.338 313.436C107.134 313.592 106.906 313.784 106.654 314.012C106.414 314.228 106.222 314.462 106.078 314.714C105.946 314.954 105.85 315.218 105.79 315.506H112.162ZM118.635 317.18C117.303 317.18 116.217 316.736 115.377 315.848C114.537 314.948 114.117 313.79 114.117 312.374V308.81C114.117 307.394 114.537 306.242 115.377 305.354C116.229 304.454 117.315 304.004 118.635 304.004C119.955 304.004 121.041 304.454 121.893 305.354C122.745 306.254 123.171 307.406 123.171 308.81V312.374C123.171 313.79 122.745 314.948 121.893 315.848C121.041 316.736 119.955 317.18 118.635 317.18ZM118.635 315.668C119.523 315.668 120.243 315.374 120.795 314.786C121.347 314.198 121.623 313.394 121.623 312.374V308.81C121.623 307.79 121.347 306.986 120.795 306.398C120.243 305.81 119.523 305.516 118.635 305.516C117.759 305.516 117.045 305.81 116.493 306.398C115.941 306.986 115.665 307.79 115.665 308.81V312.374C115.665 313.394 115.941 314.198 116.493 314.786C117.045 315.374 117.759 315.668 118.635 315.668ZM133.414 315.506V317H125.134V316.388C125.134 315.944 125.2 315.524 125.332 315.128C125.476 314.72 125.632 314.378 125.8 314.102C125.968 313.826 126.232 313.52 126.592 313.184C126.952 312.836 127.234 312.584 127.438 312.428C127.642 312.26 127.984 312.008 128.464 311.672C128.944 311.324 129.262 311.096 129.418 310.988C130.27 310.364 130.858 309.842 131.182 309.422C131.518 308.99 131.686 308.426 131.686 307.73C131.686 307.058 131.47 306.524 131.038 306.128C130.606 305.72 130.042 305.516 129.346 305.516C128.614 305.516 127.99 305.738 127.474 306.182C126.958 306.626 126.7 307.244 126.7 308.036H125.116C125.116 306.836 125.512 305.864 126.304 305.12C127.108 304.376 128.116 304.004 129.328 304.004C130.456 304.004 131.392 304.328 132.136 304.976C132.892 305.624 133.27 306.548 133.27 307.748C133.27 308.66 133.048 309.44 132.604 310.088C132.16 310.724 131.398 311.432 130.318 312.212C130.114 312.356 129.826 312.56 129.454 312.824C129.082 313.076 128.794 313.28 128.59 313.436C128.386 313.592 128.158 313.784 127.906 314.012C127.666 314.228 127.474 314.462 127.33 314.714C127.198 314.954 127.102 315.218 127.042 315.506H133.414ZM139.887 317.18C138.555 317.18 137.469 316.736 136.629 315.848C135.789 314.948 135.369 313.79 135.369 312.374V308.81C135.369 307.394 135.789 306.242 136.629 305.354C137.481 304.454 138.567 304.004 139.887 304.004C141.207 304.004 142.293 304.454 143.145 305.354C143.997 306.254 144.423 307.406 144.423 308.81V312.374C144.423 313.79 143.997 314.948 143.145 315.848C142.293 316.736 141.207 317.18 139.887 317.18ZM139.887 315.668C140.775 315.668 141.495 315.374 142.047 314.786C142.599 314.198 142.875 313.394 142.875 312.374V308.81C142.875 307.79 142.599 306.986 142.047 306.398C141.495 305.81 140.775 305.516 139.887 305.516C139.011 305.516 138.297 305.81 137.745 306.398C137.193 306.986 136.917 307.79 136.917 308.81V312.374C136.917 313.394 137.193 314.198 137.745 314.786C138.297 315.374 139.011 315.668 139.887 315.668ZM146.674 312.734V311.186H151.264V312.734H146.674ZM158.045 317.18C156.713 317.18 155.627 316.736 154.787 315.848C153.947 314.948 153.527 313.79 153.527 312.374V308.81C153.527 307.394 153.947 306.242 154.787 305.354C155.639 304.454 156.725 304.004 158.045 304.004C159.365 304.004 160.451 304.454 161.303 305.354C162.155 306.254 162.581 307.406 162.581 308.81V312.374C162.581 313.79 162.155 314.948 161.303 315.848C160.451 316.736 159.365 317.18 158.045 317.18ZM158.045 315.668C158.933 315.668 159.653 315.374 160.205 314.786C160.757 314.198 161.033 313.394 161.033 312.374V308.81C161.033 307.79 160.757 306.986 160.205 306.398C159.653 305.81 158.933 305.516 158.045 305.516C157.169 305.516 156.455 305.81 155.903 306.398C155.351 306.986 155.075 307.79 155.075 308.81V312.374C155.075 313.394 155.351 314.198 155.903 314.786C156.455 315.374 157.169 315.668 158.045 315.668ZM164.994 317L168.936 312.356C168.804 312.368 168.636 312.374 168.432 312.374C167.364 312.374 166.428 311.966 165.624 311.15C164.832 310.334 164.436 309.374 164.436 308.27C164.436 307.07 164.844 306.062 165.66 305.246C166.488 304.418 167.52 304.004 168.756 304.004C169.992 304.004 171.024 304.412 171.852 305.228C172.68 306.044 173.094 307.04 173.094 308.216C173.094 308.84 172.968 309.404 172.716 309.908C172.476 310.4 172.122 310.922 171.654 311.474L166.974 317H164.994ZM166.794 310.214C167.322 310.742 167.976 311.006 168.756 311.006C169.536 311.006 170.19 310.742 170.718 310.214C171.246 309.674 171.51 309.02 171.51 308.252C171.51 307.484 171.246 306.836 170.718 306.308C170.19 305.768 169.536 305.498 168.756 305.498C167.976 305.498 167.322 305.768 166.794 306.308C166.278 306.836 166.02 307.484 166.02 308.252C166.02 309.02 166.278 309.674 166.794 310.214Z" fill="white"/>
<path d="M214.162 315.506V317H205.882V316.388C205.882 315.944 205.948 315.524 206.08 315.128C206.224 314.72 206.38 314.378 206.548 314.102C206.716 313.826 206.98 313.52 207.34 313.184C207.7 312.836 207.982 312.584 208.186 312.428C208.39 312.26 208.732 312.008 209.212 311.672C209.692 311.324 210.01 311.096 210.166 310.988C211.018 310.364 211.606 309.842 211.93 309.422C212.266 308.99 212.434 308.426 212.434 307.73C212.434 307.058 212.218 306.524 211.786 306.128C211.354 305.72 210.79 305.516 210.094 305.516C209.362 305.516 208.738 305.738 208.222 306.182C207.706 306.626 207.448 307.244 207.448 308.036H205.864C205.864 306.836 206.26 305.864 207.052 305.12C207.856 304.376 208.864 304.004 210.076 304.004C211.204 304.004 212.14 304.328 212.884 304.976C213.64 305.624 214.018 306.548 214.018 307.748C214.018 308.66 213.796 309.44 213.352 310.088C212.908 310.724 212.146 311.432 211.066 312.212C210.862 312.356 210.574 312.56 210.202 312.824C209.83 313.076 209.542 313.28 209.338 313.436C209.134 313.592 208.906 313.784 208.654 314.012C208.414 314.228 208.222 314.462 208.078 314.714C207.946 314.954 207.85 315.218 207.79 315.506H214.162ZM220.635 317.18C219.303 317.18 218.217 316.736 217.377 315.848C216.537 314.948 216.117 313.79 216.117 312.374V308.81C216.117 307.394 216.537 306.242 217.377 305.354C218.229 304.454 219.315 304.004 220.635 304.004C221.955 304.004 223.041 304.454 223.893 305.354C224.745 306.254 225.171 307.406 225.171 308.81V312.374C225.171 313.79 224.745 314.948 223.893 315.848C223.041 316.736 221.955 317.18 220.635 317.18ZM220.635 315.668C221.523 315.668 222.243 315.374 222.795 314.786C223.347 314.198 223.623 313.394 223.623 312.374V308.81C223.623 307.79 223.347 306.986 222.795 306.398C222.243 305.81 221.523 305.516 220.635 305.516C219.759 305.516 219.045 305.81 218.493 306.398C217.941 306.986 217.665 307.79 217.665 308.81V312.374C217.665 313.394 217.941 314.198 218.493 314.786C219.045 315.374 219.759 315.668 220.635 315.668ZM235.414 315.506V317H227.134V316.388C227.134 315.944 227.2 315.524 227.332 315.128C227.476 314.72 227.632 314.378 227.8 314.102C227.968 313.826 228.232 313.52 228.592 313.184C228.952 312.836 229.234 312.584 229.438 312.428C229.642 312.26 229.984 312.008 230.464 311.672C230.944 311.324 231.262 311.096 231.418 310.988C232.27 310.364 232.858 309.842 233.182 309.422C233.518 308.99 233.686 308.426 233.686 307.73C233.686 307.058 233.47 306.524 233.038 306.128C232.606 305.72 232.042 305.516 231.346 305.516C230.614 305.516 229.99 305.738 229.474 306.182C228.958 306.626 228.7 307.244 228.7 308.036H227.116C227.116 306.836 227.512 305.864 228.304 305.12C229.108 304.376 230.116 304.004 231.328 304.004C232.456 304.004 233.392 304.328 234.136 304.976C234.892 305.624 235.27 306.548 235.27 307.748C235.27 308.66 235.048 309.44 234.604 310.088C234.16 310.724 233.398 311.432 232.318 312.212C232.114 312.356 231.826 312.56 231.454 312.824C231.082 313.076 230.794 313.28 230.59 313.436C230.386 313.592 230.158 313.784 229.906 314.012C229.666 314.228 229.474 314.462 229.33 314.714C229.198 314.954 229.102 315.218 229.042 315.506H235.414ZM238.899 317V305.75H236.433L237.693 304.22H240.447V317H238.899ZM243.313 312.734V311.186H247.903V312.734H243.313ZM254.684 317.18C253.352 317.18 252.266 316.736 251.426 315.848C250.586 314.948 250.166 313.79 250.166 312.374V308.81C250.166 307.394 250.586 306.242 251.426 305.354C252.278 304.454 253.364 304.004 254.684 304.004C256.004 304.004 257.09 304.454 257.942 305.354C258.794 306.254 259.22 307.406 259.22 308.81V312.374C259.22 313.79 258.794 314.948 257.942 315.848C257.09 316.736 256.004 317.18 254.684 317.18ZM254.684 315.668C255.572 315.668 256.292 315.374 256.844 314.786C257.396 314.198 257.672 313.394 257.672 312.374V308.81C257.672 307.79 257.396 306.986 256.844 306.398C256.292 305.81 255.572 305.516 254.684 305.516C253.808 305.516 253.094 305.81 252.542 306.398C251.99 306.986 251.714 307.79 251.714 308.81V312.374C251.714 313.394 251.99 314.198 252.542 314.786C253.094 315.374 253.808 315.668 254.684 315.668ZM262.911 317V305.75H260.445L261.705 304.22H264.459V317H262.911Z" fill="white"/>
<path d="M316.162 315.506V317H307.882V316.388C307.882 315.944 307.948 315.524 308.08 315.128C308.224 314.72 308.38 314.378 308.548 314.102C308.716 313.826 308.98 313.52 309.34 313.184C309.7 312.836 309.982 312.584 310.186 312.428C310.39 312.26 310.732 312.008 311.212 311.672C311.692 311.324 312.01 311.096 312.166 310.988C313.018 310.364 313.606 309.842 313.93 309.422C314.266 308.99 314.434 308.426 314.434 307.73C314.434 307.058 314.218 306.524 313.786 306.128C313.354 305.72 312.79 305.516 312.094 305.516C311.362 305.516 310.738 305.738 310.222 306.182C309.706 306.626 309.448 307.244 309.448 308.036H307.864C307.864 306.836 308.26 305.864 309.052 305.12C309.856 304.376 310.864 304.004 312.076 304.004C313.204 304.004 314.14 304.328 314.884 304.976C315.64 305.624 316.018 306.548 316.018 307.748C316.018 308.66 315.796 309.44 315.352 310.088C314.908 310.724 314.146 311.432 313.066 312.212C312.862 312.356 312.574 312.56 312.202 312.824C311.83 313.076 311.542 313.28 311.338 313.436C311.134 313.592 310.906 313.784 310.654 314.012C310.414 314.228 310.222 314.462 310.078 314.714C309.946 314.954 309.85 315.218 309.79 315.506H316.162ZM322.635 317.18C321.303 317.18 320.217 316.736 319.377 315.848C318.537 314.948 318.117 313.79 318.117 312.374V308.81C318.117 307.394 318.537 306.242 319.377 305.354C320.229 304.454 321.315 304.004 322.635 304.004C323.955 304.004 325.041 304.454 325.893 305.354C326.745 306.254 327.171 307.406 327.171 308.81V312.374C327.171 313.79 326.745 314.948 325.893 315.848C325.041 316.736 323.955 317.18 322.635 317.18ZM322.635 315.668C323.523 315.668 324.243 315.374 324.795 314.786C325.347 314.198 325.623 313.394 325.623 312.374V308.81C325.623 307.79 325.347 306.986 324.795 306.398C324.243 305.81 323.523 305.516 322.635 305.516C321.759 305.516 321.045 305.81 320.493 306.398C319.941 306.986 319.665 307.79 319.665 308.81V312.374C319.665 313.394 319.941 314.198 320.493 314.786C321.045 315.374 321.759 315.668 322.635 315.668ZM337.414 315.506V317H329.134V316.388C329.134 315.944 329.2 315.524 329.332 315.128C329.476 314.72 329.632 314.378 329.8 314.102C329.968 313.826 330.232 313.52 330.592 313.184C330.952 312.836 331.234 312.584 331.438 312.428C331.642 312.26 331.984 312.008 332.464 311.672C332.944 311.324 333.262 311.096 333.418 310.988C334.27 310.364 334.858 309.842 335.182 309.422C335.518 308.99 335.686 308.426 335.686 307.73C335.686 307.058 335.47 306.524 335.038 306.128C334.606 305.72 334.042 305.516 333.346 305.516C332.614 305.516 331.99 305.738 331.474 306.182C330.958 306.626 330.7 307.244 330.7 308.036H329.116C329.116 306.836 329.512 305.864 330.304 305.12C331.108 304.376 332.116 304.004 333.328 304.004C334.456 304.004 335.392 304.328 336.136 304.976C336.892 305.624 337.27 306.548 337.27 307.748C337.27 308.66 337.048 309.44 336.604 310.088C336.16 310.724 335.398 311.432 334.318 312.212C334.114 312.356 333.826 312.56 333.454 312.824C333.082 313.076 332.794 313.28 332.59 313.436C332.386 313.592 332.158 313.784 331.906 314.012C331.666 314.228 331.474 314.462 331.33 314.714C331.198 314.954 331.102 315.218 331.042 315.506H337.414ZM340.899 317V305.75H338.433L339.693 304.22H342.447V317H340.899ZM345.313 312.734V311.186H349.903V312.734H345.313ZM356.684 317.18C355.352 317.18 354.266 316.736 353.426 315.848C352.586 314.948 352.166 313.79 352.166 312.374V308.81C352.166 307.394 352.586 306.242 353.426 305.354C354.278 304.454 355.364 304.004 356.684 304.004C358.004 304.004 359.09 304.454 359.942 305.354C360.794 306.254 361.22 307.406 361.22 308.81V312.374C361.22 313.79 360.794 314.948 359.942 315.848C359.09 316.736 358.004 317.18 356.684 317.18ZM356.684 315.668C357.572 315.668 358.292 315.374 358.844 314.786C359.396 314.198 359.672 313.394 359.672 312.374V308.81C359.672 307.79 359.396 306.986 358.844 306.398C358.292 305.81 357.572 305.516 356.684 305.516C355.808 305.516 355.094 305.81 354.542 306.398C353.99 306.986 353.714 307.79 353.714 308.81V312.374C353.714 313.394 353.99 314.198 354.542 314.786C355.094 315.374 355.808 315.668 356.684 315.668ZM367.233 317.18C366.081 317.18 365.085 316.82 364.245 316.1C363.405 315.38 362.973 314.528 362.949 313.544H364.533C364.677 314.168 364.995 314.678 365.487 315.074C365.979 315.47 366.561 315.668 367.233 315.668C368.013 315.668 368.667 315.404 369.195 314.876C369.723 314.348 369.987 313.7 369.987 312.932C369.987 312.152 369.735 311.498 369.231 310.97C368.727 310.442 368.085 310.178 367.305 310.178C366.237 310.178 365.433 310.61 364.893 311.474L363.417 311.042L364.731 304.22H370.707V305.732H365.973L365.271 309.386C365.895 308.942 366.639 308.72 367.503 308.72C368.691 308.72 369.663 309.14 370.419 309.98C371.187 310.808 371.571 311.858 371.571 313.13C371.571 314.258 371.157 315.218 370.329 316.01C369.501 316.79 368.469 317.18 367.233 317.18Z" fill="white"/>
<path d="M418.162 315.506V317H409.882V316.388C409.882 315.944 409.948 315.524 410.08 315.128C410.224 314.72 410.38 314.378 410.548 314.102C410.716 313.826 410.98 313.52 411.34 313.184C411.7 312.836 411.982 312.584 412.186 312.428C412.39 312.26 412.732 312.008 413.212 311.672C413.692 311.324 414.01 311.096 414.166 310.988C415.018 310.364 415.606 309.842 415.93 309.422C416.266 308.99 416.434 308.426 416.434 307.73C416.434 307.058 416.218 306.524 415.786 306.128C415.354 305.72 414.79 305.516 414.094 305.516C413.362 305.516 412.738 305.738 412.222 306.182C411.706 306.626 411.448 307.244 411.448 308.036H409.864C409.864 306.836 410.26 305.864 411.052 305.12C411.856 304.376 412.864 304.004 414.076 304.004C415.204 304.004 416.14 304.328 416.884 304.976C417.64 305.624 418.018 306.548 418.018 307.748C418.018 308.66 417.796 309.44 417.352 310.088C416.908 310.724 416.146 311.432 415.066 312.212C414.862 312.356 414.574 312.56 414.202 312.824C413.83 313.076 413.542 313.28 413.338 313.436C413.134 313.592 412.906 313.784 412.654 314.012C412.414 314.228 412.222 314.462 412.078 314.714C411.946 314.954 411.85 315.218 411.79 315.506H418.162ZM424.635 317.18C423.303 317.18 422.217 316.736 421.377 315.848C420.537 314.948 420.117 313.79 420.117 312.374V308.81C420.117 307.394 420.537 306.242 421.377 305.354C422.229 304.454 423.315 304.004 424.635 304.004C425.955 304.004 427.041 304.454 427.893 305.354C428.745 306.254 429.171 307.406 429.171 308.81V312.374C429.171 313.79 428.745 314.948 427.893 315.848C427.041 316.736 425.955 317.18 424.635 317.18ZM424.635 315.668C425.523 315.668 426.243 315.374 426.795 314.786C427.347 314.198 427.623 313.394 427.623 312.374V308.81C427.623 307.79 427.347 306.986 426.795 306.398C426.243 305.81 425.523 305.516 424.635 305.516C423.759 305.516 423.045 305.81 422.493 306.398C421.941 306.986 421.665 307.79 421.665 308.81V312.374C421.665 313.394 421.941 314.198 422.493 314.786C423.045 315.374 423.759 315.668 424.635 315.668ZM439.414 315.506V317H431.134V316.388C431.134 315.944 431.2 315.524 431.332 315.128C431.476 314.72 431.632 314.378 431.8 314.102C431.968 313.826 432.232 313.52 432.592 313.184C432.952 312.836 433.234 312.584 433.438 312.428C433.642 312.26 433.984 312.008 434.464 311.672C434.944 311.324 435.262 311.096 435.418 310.988C436.27 310.364 436.858 309.842 437.182 309.422C437.518 308.99 437.686 308.426 437.686 307.73C437.686 307.058 437.47 306.524 437.038 306.128C436.606 305.72 436.042 305.516 435.346 305.516C434.614 305.516 433.99 305.738 433.474 306.182C432.958 306.626 432.7 307.244 432.7 308.036H431.116C431.116 306.836 431.512 305.864 432.304 305.12C433.108 304.376 434.116 304.004 435.328 304.004C436.456 304.004 437.392 304.328 438.136 304.976C438.892 305.624 439.27 306.548 439.27 307.748C439.27 308.66 439.048 309.44 438.604 310.088C438.16 310.724 437.398 311.432 436.318 312.212C436.114 312.356 435.826 312.56 435.454 312.824C435.082 313.076 434.794 313.28 434.59 313.436C434.386 313.592 434.158 313.784 433.906 314.012C433.666 314.228 433.474 314.462 433.33 314.714C433.198 314.954 433.102 315.218 433.042 315.506H439.414ZM442.899 317V305.75H440.433L441.693 304.22H444.447V317H442.899ZM447.313 312.734V311.186H451.903V312.734H447.313ZM458.684 317.18C457.352 317.18 456.266 316.736 455.426 315.848C454.586 314.948 454.166 313.79 454.166 312.374V308.81C454.166 307.394 454.586 306.242 455.426 305.354C456.278 304.454 457.364 304.004 458.684 304.004C460.004 304.004 461.09 304.454 461.942 305.354C462.794 306.254 463.22 307.406 463.22 308.81V312.374C463.22 313.79 462.794 314.948 461.942 315.848C461.09 316.736 460.004 317.18 458.684 317.18ZM458.684 315.668C459.572 315.668 460.292 315.374 460.844 314.786C461.396 314.198 461.672 313.394 461.672 312.374V308.81C461.672 307.79 461.396 306.986 460.844 306.398C460.292 305.81 459.572 305.516 458.684 305.516C457.808 305.516 457.094 305.81 456.542 306.398C455.99 306.986 455.714 307.79 455.714 308.81V312.374C455.714 313.394 455.99 314.198 456.542 314.786C457.094 315.374 457.808 315.668 458.684 315.668ZM465.633 317L469.575 312.356C469.443 312.368 469.275 312.374 469.071 312.374C468.003 312.374 467.067 311.966 466.263 311.15C465.471 310.334 465.075 309.374 465.075 308.27C465.075 307.07 465.483 306.062 466.299 305.246C467.127 304.418 468.159 304.004 469.395 304.004C470.631 304.004 471.663 304.412 472.491 305.228C473.319 306.044 473.733 307.04 473.733 308.216C473.733 308.84 473.607 309.404 473.355 309.908C473.115 310.4 472.761 310.922 472.293 311.474L467.613 317H465.633ZM467.433 310.214C467.961 310.742 468.615 311.006 469.395 311.006C470.175 311.006 470.829 310.742 471.357 310.214C471.885 309.674 472.149 309.02 472.149 308.252C472.149 307.484 471.885 306.836 471.357 306.308C470.829 305.768 470.175 305.498 469.395 305.498C468.615 305.498 467.961 305.768 467.433 306.308C466.917 306.836 466.659 307.484 466.659 308.252C466.659 309.02 466.917 309.674 467.433 310.214Z" fill="white"/>
<path d="M520.162 315.506V317H511.882V316.388C511.882 315.944 511.948 315.524 512.08 315.128C512.224 314.72 512.38 314.378 512.548 314.102C512.716 313.826 512.98 313.52 513.34 313.184C513.7 312.836 513.982 312.584 514.186 312.428C514.39 312.26 514.732 312.008 515.212 311.672C515.692 311.324 516.01 311.096 516.166 310.988C517.018 310.364 517.606 309.842 517.93 309.422C518.266 308.99 518.434 308.426 518.434 307.73C518.434 307.058 518.218 306.524 517.786 306.128C517.354 305.72 516.79 305.516 516.094 305.516C515.362 305.516 514.738 305.738 514.222 306.182C513.706 306.626 513.448 307.244 513.448 308.036H511.864C511.864 306.836 512.26 305.864 513.052 305.12C513.856 304.376 514.864 304.004 516.076 304.004C517.204 304.004 518.14 304.328 518.884 304.976C519.64 305.624 520.018 306.548 520.018 307.748C520.018 308.66 519.796 309.44 519.352 310.088C518.908 310.724 518.146 311.432 517.066 312.212C516.862 312.356 516.574 312.56 516.202 312.824C515.83 313.076 515.542 313.28 515.338 313.436C515.134 313.592 514.906 313.784 514.654 314.012C514.414 314.228 514.222 314.462 514.078 314.714C513.946 314.954 513.85 315.218 513.79 315.506H520.162ZM526.635 317.18C525.303 317.18 524.217 316.736 523.377 315.848C522.537 314.948 522.117 313.79 522.117 312.374V308.81C522.117 307.394 522.537 306.242 523.377 305.354C524.229 304.454 525.315 304.004 526.635 304.004C527.955 304.004 529.041 304.454 529.893 305.354C530.745 306.254 531.171 307.406 531.171 308.81V312.374C531.171 313.79 530.745 314.948 529.893 315.848C529.041 316.736 527.955 317.18 526.635 317.18ZM526.635 315.668C527.523 315.668 528.243 315.374 528.795 314.786C529.347 314.198 529.623 313.394 529.623 312.374V308.81C529.623 307.79 529.347 306.986 528.795 306.398C528.243 305.81 527.523 305.516 526.635 305.516C525.759 305.516 525.045 305.81 524.493 306.398C523.941 306.986 523.665 307.79 523.665 308.81V312.374C523.665 313.394 523.941 314.198 524.493 314.786C525.045 315.374 525.759 315.668 526.635 315.668ZM541.414 315.506V317H533.134V316.388C533.134 315.944 533.2 315.524 533.332 315.128C533.476 314.72 533.632 314.378 533.8 314.102C533.968 313.826 534.232 313.52 534.592 313.184C534.952 312.836 535.234 312.584 535.438 312.428C535.642 312.26 535.984 312.008 536.464 311.672C536.944 311.324 537.262 311.096 537.418 310.988C538.27 310.364 538.858 309.842 539.182 309.422C539.518 308.99 539.686 308.426 539.686 307.73C539.686 307.058 539.47 306.524 539.038 306.128C538.606 305.72 538.042 305.516 537.346 305.516C536.614 305.516 535.99 305.738 535.474 306.182C534.958 306.626 534.7 307.244 534.7 308.036H533.116C533.116 306.836 533.512 305.864 534.304 305.12C535.108 304.376 536.116 304.004 537.328 304.004C538.456 304.004 539.392 304.328 540.136 304.976C540.892 305.624 541.27 306.548 541.27 307.748C541.27 308.66 541.048 309.44 540.604 310.088C540.16 310.724 539.398 311.432 538.318 312.212C538.114 312.356 537.826 312.56 537.454 312.824C537.082 313.076 536.794 313.28 536.59 313.436C536.386 313.592 536.158 313.784 535.906 314.012C535.666 314.228 535.474 314.462 535.33 314.714C535.198 314.954 535.102 315.218 535.042 315.506H541.414ZM551.451 315.506V317H543.171V316.388C543.171 315.944 543.237 315.524 543.369 315.128C543.513 314.72 543.669 314.378 543.837 314.102C544.005 313.826 544.269 313.52 544.629 313.184C544.989 312.836 545.271 312.584 545.475 312.428C545.679 312.26 546.021 312.008 546.501 311.672C546.981 311.324 547.299 311.096 547.455 310.988C548.307 310.364 548.895 309.842 549.219 309.422C549.555 308.99 549.723 308.426 549.723 307.73C549.723 307.058 549.507 306.524 549.075 306.128C548.643 305.72 548.079 305.516 547.383 305.516C546.651 305.516 546.027 305.738 545.511 306.182C544.995 306.626 544.737 307.244 544.737 308.036H543.153C543.153 306.836 543.549 305.864 544.341 305.12C545.145 304.376 546.153 304.004 547.365 304.004C548.493 304.004 549.429 304.328 550.173 304.976C550.929 305.624 551.307 306.548 551.307 307.748C551.307 308.66 551.085 309.44 550.641 310.088C550.197 310.724 549.435 311.432 548.355 312.212C548.151 312.356 547.863 312.56 547.491 312.824C547.119 313.076 546.831 313.28 546.627 313.436C546.423 313.592 546.195 313.784 545.943 314.012C545.703 314.228 545.511 314.462 545.367 314.714C545.235 314.954 545.139 315.218 545.079 315.506H551.451ZM553.109 312.734V311.186H557.699V312.734H553.109ZM564.481 317.18C563.149 317.18 562.063 316.736 561.223 315.848C560.383 314.948 559.963 313.79 559.963 312.374V308.81C559.963 307.394 560.383 306.242 561.223 305.354C562.075 304.454 563.161 304.004 564.481 304.004C565.801 304.004 566.887 304.454 567.739 305.354C568.591 306.254 569.017 307.406 569.017 308.81V312.374C569.017 313.79 568.591 314.948 567.739 315.848C566.887 316.736 565.801 317.18 564.481 317.18ZM564.481 315.668C565.369 315.668 566.089 315.374 566.641 314.786C567.193 314.198 567.469 313.394 567.469 312.374V308.81C567.469 307.79 567.193 306.986 566.641 306.398C566.089 305.81 565.369 305.516 564.481 305.516C563.605 305.516 562.891 305.81 562.339 306.398C561.787 306.986 561.511 307.79 561.511 308.81V312.374C561.511 313.394 561.787 314.198 562.339 314.786C562.891 315.374 563.605 315.668 564.481 315.668ZM572.708 317V305.75H570.242L571.502 304.22H574.256V317H572.708Z" fill="white"/>
<path d="M622.162 315.506V317H613.882V316.388C613.882 315.944 613.948 315.524 614.08 315.128C614.224 314.72 614.38 314.378 614.548 314.102C614.716 313.826 614.98 313.52 615.34 313.184C615.7 312.836 615.982 312.584 616.186 312.428C616.39 312.26 616.732 312.008 617.212 311.672C617.692 311.324 618.01 311.096 618.166 310.988C619.018 310.364 619.606 309.842 619.93 309.422C620.266 308.99 620.434 308.426 620.434 307.73C620.434 307.058 620.218 306.524 619.786 306.128C619.354 305.72 618.79 305.516 618.094 305.516C617.362 305.516 616.738 305.738 616.222 306.182C615.706 306.626 615.448 307.244 615.448 308.036H613.864C613.864 306.836 614.26 305.864 615.052 305.12C615.856 304.376 616.864 304.004 618.076 304.004C619.204 304.004 620.14 304.328 620.884 304.976C621.64 305.624 622.018 306.548 622.018 307.748C622.018 308.66 621.796 309.44 621.352 310.088C620.908 310.724 620.146 311.432 619.066 312.212C618.862 312.356 618.574 312.56 618.202 312.824C617.83 313.076 617.542 313.28 617.338 313.436C617.134 313.592 616.906 313.784 616.654 314.012C616.414 314.228 616.222 314.462 616.078 314.714C615.946 314.954 615.85 315.218 615.79 315.506H622.162ZM628.635 317.18C627.303 317.18 626.217 316.736 625.377 315.848C624.537 314.948 624.117 313.79 624.117 312.374V308.81C624.117 307.394 624.537 306.242 625.377 305.354C626.229 304.454 627.315 304.004 628.635 304.004C629.955 304.004 631.041 304.454 631.893 305.354C632.745 306.254 633.171 307.406 633.171 308.81V312.374C633.171 313.79 632.745 314.948 631.893 315.848C631.041 316.736 629.955 317.18 628.635 317.18ZM628.635 315.668C629.523 315.668 630.243 315.374 630.795 314.786C631.347 314.198 631.623 313.394 631.623 312.374V308.81C631.623 307.79 631.347 306.986 630.795 306.398C630.243 305.81 629.523 305.516 628.635 305.516C627.759 305.516 627.045 305.81 626.493 306.398C625.941 306.986 625.665 307.79 625.665 308.81V312.374C625.665 313.394 625.941 314.198 626.493 314.786C627.045 315.374 627.759 315.668 628.635 315.668ZM643.414 315.506V317H635.134V316.388C635.134 315.944 635.2 315.524 635.332 315.128C635.476 314.72 635.632 314.378 635.8 314.102C635.968 313.826 636.232 313.52 636.592 313.184C636.952 312.836 637.234 312.584 637.438 312.428C637.642 312.26 637.984 312.008 638.464 311.672C638.944 311.324 639.262 311.096 639.418 310.988C640.27 310.364 640.858 309.842 641.182 309.422C641.518 308.99 641.686 308.426 641.686 307.73C641.686 307.058 641.47 306.524 641.038 306.128C640.606 305.72 640.042 305.516 639.346 305.516C638.614 305.516 637.99 305.738 637.474 306.182C636.958 306.626 636.7 307.244 636.7 308.036H635.116C635.116 306.836 635.512 305.864 636.304 305.12C637.108 304.376 638.116 304.004 639.328 304.004C640.456 304.004 641.392 304.328 642.136 304.976C642.892 305.624 643.27 306.548 643.27 307.748C643.27 308.66 643.048 309.44 642.604 310.088C642.16 310.724 641.398 311.432 640.318 312.212C640.114 312.356 639.826 312.56 639.454 312.824C639.082 313.076 638.794 313.28 638.59 313.436C638.386 313.592 638.158 313.784 637.906 314.012C637.666 314.228 637.474 314.462 637.33 314.714C637.198 314.954 637.102 315.218 637.042 315.506H643.414ZM653.451 315.506V317H645.171V316.388C645.171 315.944 645.237 315.524 645.369 315.128C645.513 314.72 645.669 314.378 645.837 314.102C646.005 313.826 646.269 313.52 646.629 313.184C646.989 312.836 647.271 312.584 647.475 312.428C647.679 312.26 648.021 312.008 648.501 311.672C648.981 311.324 649.299 311.096 649.455 310.988C650.307 310.364 650.895 309.842 651.219 309.422C651.555 308.99 651.723 308.426 651.723 307.73C651.723 307.058 651.507 306.524 651.075 306.128C650.643 305.72 650.079 305.516 649.383 305.516C648.651 305.516 648.027 305.738 647.511 306.182C646.995 306.626 646.737 307.244 646.737 308.036H645.153C645.153 306.836 645.549 305.864 646.341 305.12C647.145 304.376 648.153 304.004 649.365 304.004C650.493 304.004 651.429 304.328 652.173 304.976C652.929 305.624 653.307 306.548 653.307 307.748C653.307 308.66 653.085 309.44 652.641 310.088C652.197 310.724 651.435 311.432 650.355 312.212C650.151 312.356 649.863 312.56 649.491 312.824C649.119 313.076 648.831 313.28 648.627 313.436C648.423 313.592 648.195 313.784 647.943 314.012C647.703 314.228 647.511 314.462 647.367 314.714C647.235 314.954 647.139 315.218 647.079 315.506H653.451ZM655.109 312.734V311.186H659.699V312.734H655.109ZM666.481 317.18C665.149 317.18 664.063 316.736 663.223 315.848C662.383 314.948 661.963 313.79 661.963 312.374V308.81C661.963 307.394 662.383 306.242 663.223 305.354C664.075 304.454 665.161 304.004 666.481 304.004C667.801 304.004 668.887 304.454 669.739 305.354C670.591 306.254 671.017 307.406 671.017 308.81V312.374C671.017 313.79 670.591 314.948 669.739 315.848C668.887 316.736 667.801 317.18 666.481 317.18ZM666.481 315.668C667.369 315.668 668.089 315.374 668.641 314.786C669.193 314.198 669.469 313.394 669.469 312.374V308.81C669.469 307.79 669.193 306.986 668.641 306.398C668.089 305.81 667.369 305.516 666.481 305.516C665.605 305.516 664.891 305.81 664.339 306.398C663.787 306.986 663.511 307.79 663.511 308.81V312.374C663.511 313.394 663.787 314.198 664.339 314.786C664.891 315.374 665.605 315.668 666.481 315.668ZM677.03 317.18C675.878 317.18 674.882 316.82 674.042 316.1C673.202 315.38 672.77 314.528 672.746 313.544H674.33C674.474 314.168 674.792 314.678 675.284 315.074C675.776 315.47 676.358 315.668 677.03 315.668C677.81 315.668 678.464 315.404 678.992 314.876C679.52 314.348 679.784 313.7 679.784 312.932C679.784 312.152 679.532 311.498 679.028 310.97C678.524 310.442 677.882 310.178 677.102 310.178C676.034 310.178 675.23 310.61 674.69 311.474L673.214 311.042L674.528 304.22H680.504V305.732H675.77L675.068 309.386C675.692 308.942 676.436 308.72 677.3 308.72C678.488 308.72 679.46 309.14 680.216 309.98C680.984 310.808 681.368 311.858 681.368 313.13C681.368 314.258 680.954 315.218 680.126 316.01C679.298 316.79 678.266 317.18 677.03 317.18Z" fill="white"/>
<path d="M724.162 315.506V317H715.882V316.388C715.882 315.944 715.948 315.524 716.08 315.128C716.224 314.72 716.38 314.378 716.548 314.102C716.716 313.826 716.98 313.52 717.34 313.184C717.7 312.836 717.982 312.584 718.186 312.428C718.39 312.26 718.732 312.008 719.212 311.672C719.692 311.324 720.01 311.096 720.166 310.988C721.018 310.364 721.606 309.842 721.93 309.422C722.266 308.99 722.434 308.426 722.434 307.73C722.434 307.058 722.218 306.524 721.786 306.128C721.354 305.72 720.79 305.516 720.094 305.516C719.362 305.516 718.738 305.738 718.222 306.182C717.706 306.626 717.448 307.244 717.448 308.036H715.864C715.864 306.836 716.26 305.864 717.052 305.12C717.856 304.376 718.864 304.004 720.076 304.004C721.204 304.004 722.14 304.328 722.884 304.976C723.64 305.624 724.018 306.548 724.018 307.748C724.018 308.66 723.796 309.44 723.352 310.088C722.908 310.724 722.146 311.432 721.066 312.212C720.862 312.356 720.574 312.56 720.202 312.824C719.83 313.076 719.542 313.28 719.338 313.436C719.134 313.592 718.906 313.784 718.654 314.012C718.414 314.228 718.222 314.462 718.078 314.714C717.946 314.954 717.85 315.218 717.79 315.506H724.162ZM730.635 317.18C729.303 317.18 728.217 316.736 727.377 315.848C726.537 314.948 726.117 313.79 726.117 312.374V308.81C726.117 307.394 726.537 306.242 727.377 305.354C728.229 304.454 729.315 304.004 730.635 304.004C731.955 304.004 733.041 304.454 733.893 305.354C734.745 306.254 735.171 307.406 735.171 308.81V312.374C735.171 313.79 734.745 314.948 733.893 315.848C733.041 316.736 731.955 317.18 730.635 317.18ZM730.635 315.668C731.523 315.668 732.243 315.374 732.795 314.786C733.347 314.198 733.623 313.394 733.623 312.374V308.81C733.623 307.79 733.347 306.986 732.795 306.398C732.243 305.81 731.523 305.516 730.635 305.516C729.759 305.516 729.045 305.81 728.493 306.398C727.941 306.986 727.665 307.79 727.665 308.81V312.374C727.665 313.394 727.941 314.198 728.493 314.786C729.045 315.374 729.759 315.668 730.635 315.668ZM745.414 315.506V317H737.134V316.388C737.134 315.944 737.2 315.524 737.332 315.128C737.476 314.72 737.632 314.378 737.8 314.102C737.968 313.826 738.232 313.52 738.592 313.184C738.952 312.836 739.234 312.584 739.438 312.428C739.642 312.26 739.984 312.008 740.464 311.672C740.944 311.324 741.262 311.096 741.418 310.988C742.27 310.364 742.858 309.842 743.182 309.422C743.518 308.99 743.686 308.426 743.686 307.73C743.686 307.058 743.47 306.524 743.038 306.128C742.606 305.72 742.042 305.516 741.346 305.516C740.614 305.516 739.99 305.738 739.474 306.182C738.958 306.626 738.7 307.244 738.7 308.036H737.116C737.116 306.836 737.512 305.864 738.304 305.12C739.108 304.376 740.116 304.004 741.328 304.004C742.456 304.004 743.392 304.328 744.136 304.976C744.892 305.624 745.27 306.548 745.27 307.748C745.27 308.66 745.048 309.44 744.604 310.088C744.16 310.724 743.398 311.432 742.318 312.212C742.114 312.356 741.826 312.56 741.454 312.824C741.082 313.076 740.794 313.28 740.59 313.436C740.386 313.592 740.158 313.784 739.906 314.012C739.666 314.228 739.474 314.462 739.33 314.714C739.198 314.954 739.102 315.218 739.042 315.506H745.414ZM755.451 315.506V317H747.171V316.388C747.171 315.944 747.237 315.524 747.369 315.128C747.513 314.72 747.669 314.378 747.837 314.102C748.005 313.826 748.269 313.52 748.629 313.184C748.989 312.836 749.271 312.584 749.475 312.428C749.679 312.26 750.021 312.008 750.501 311.672C750.981 311.324 751.299 311.096 751.455 310.988C752.307 310.364 752.895 309.842 753.219 309.422C753.555 308.99 753.723 308.426 753.723 307.73C753.723 307.058 753.507 306.524 753.075 306.128C752.643 305.72 752.079 305.516 751.383 305.516C750.651 305.516 750.027 305.738 749.511 306.182C748.995 306.626 748.737 307.244 748.737 308.036H747.153C747.153 306.836 747.549 305.864 748.341 305.12C749.145 304.376 750.153 304.004 751.365 304.004C752.493 304.004 753.429 304.328 754.173 304.976C754.929 305.624 755.307 306.548 755.307 307.748C755.307 308.66 755.085 309.44 754.641 310.088C754.197 310.724 753.435 311.432 752.355 312.212C752.151 312.356 751.863 312.56 751.491 312.824C751.119 313.076 750.831 313.28 750.627 313.436C750.423 313.592 750.195 313.784 749.943 314.012C749.703 314.228 749.511 314.462 749.367 314.714C749.235 314.954 749.139 315.218 749.079 315.506H755.451ZM757.109 312.734V311.186H761.699V312.734H757.109ZM768.481 317.18C767.149 317.18 766.063 316.736 765.223 315.848C764.383 314.948 763.963 313.79 763.963 312.374V308.81C763.963 307.394 764.383 306.242 765.223 305.354C766.075 304.454 767.161 304.004 768.481 304.004C769.801 304.004 770.887 304.454 771.739 305.354C772.591 306.254 773.017 307.406 773.017 308.81V312.374C773.017 313.79 772.591 314.948 771.739 315.848C770.887 316.736 769.801 317.18 768.481 317.18ZM768.481 315.668C769.369 315.668 770.089 315.374 770.641 314.786C771.193 314.198 771.469 313.394 771.469 312.374V308.81C771.469 307.79 771.193 306.986 770.641 306.398C770.089 305.81 769.369 305.516 768.481 305.516C767.605 305.516 766.891 305.81 766.339 306.398C765.787 306.986 765.511 307.79 765.511 308.81V312.374C765.511 313.394 765.787 314.198 766.339 314.786C766.891 315.374 767.605 315.668 768.481 315.668ZM775.43 317L779.372 312.356C779.24 312.368 779.072 312.374 778.868 312.374C777.8 312.374 776.864 311.966 776.06 311.15C775.268 310.334 774.872 309.374 774.872 308.27C774.872 307.07 775.28 306.062 776.096 305.246C776.924 304.418 777.956 304.004 779.192 304.004C780.428 304.004 781.46 304.412 782.288 305.228C783.116 306.044 783.53 307.04 783.53 308.216C783.53 308.84 783.404 309.404 783.152 309.908C782.912 310.4 782.558 310.922 782.09 311.474L777.41 317H775.43ZM777.23 310.214C777.758 310.742 778.412 311.006 779.192 311.006C779.972 311.006 780.626 310.742 781.154 310.214C781.682 309.674 781.946 309.02 781.946 308.252C781.946 307.484 781.682 306.836 781.154 306.308C780.626 305.768 779.972 305.498 779.192 305.498C778.412 305.498 777.758 305.768 777.23 306.308C776.714 306.836 776.456 307.484 776.456 308.252C776.456 309.02 776.714 309.674 777.23 310.214Z" fill="white"/>
<path d="M826.162 315.506V317H817.882V316.388C817.882 315.944 817.948 315.524 818.08 315.128C818.224 314.72 818.38 314.378 818.548 314.102C818.716 313.826 818.98 313.52 819.34 313.184C819.7 312.836 819.982 312.584 820.186 312.428C820.39 312.26 820.732 312.008 821.212 311.672C821.692 311.324 822.01 311.096 822.166 310.988C823.018 310.364 823.606 309.842 823.93 309.422C824.266 308.99 824.434 308.426 824.434 307.73C824.434 307.058 824.218 306.524 823.786 306.128C823.354 305.72 822.79 305.516 822.094 305.516C821.362 305.516 820.738 305.738 820.222 306.182C819.706 306.626 819.448 307.244 819.448 308.036H817.864C817.864 306.836 818.26 305.864 819.052 305.12C819.856 304.376 820.864 304.004 822.076 304.004C823.204 304.004 824.14 304.328 824.884 304.976C825.64 305.624 826.018 306.548 826.018 307.748C826.018 308.66 825.796 309.44 825.352 310.088C824.908 310.724 824.146 311.432 823.066 312.212C822.862 312.356 822.574 312.56 822.202 312.824C821.83 313.076 821.542 313.28 821.338 313.436C821.134 313.592 820.906 313.784 820.654 314.012C820.414 314.228 820.222 314.462 820.078 314.714C819.946 314.954 819.85 315.218 819.79 315.506H826.162ZM832.635 317.18C831.303 317.18 830.217 316.736 829.377 315.848C828.537 314.948 828.117 313.79 828.117 312.374V308.81C828.117 307.394 828.537 306.242 829.377 305.354C830.229 304.454 831.315 304.004 832.635 304.004C833.955 304.004 835.041 304.454 835.893 305.354C836.745 306.254 837.171 307.406 837.171 308.81V312.374C837.171 313.79 836.745 314.948 835.893 315.848C835.041 316.736 833.955 317.18 832.635 317.18ZM832.635 315.668C833.523 315.668 834.243 315.374 834.795 314.786C835.347 314.198 835.623 313.394 835.623 312.374V308.81C835.623 307.79 835.347 306.986 834.795 306.398C834.243 305.81 833.523 305.516 832.635 305.516C831.759 305.516 831.045 305.81 830.493 306.398C829.941 306.986 829.665 307.79 829.665 308.81V312.374C829.665 313.394 829.941 314.198 830.493 314.786C831.045 315.374 831.759 315.668 832.635 315.668ZM847.414 315.506V317H839.134V316.388C839.134 315.944 839.2 315.524 839.332 315.128C839.476 314.72 839.632 314.378 839.8 314.102C839.968 313.826 840.232 313.52 840.592 313.184C840.952 312.836 841.234 312.584 841.438 312.428C841.642 312.26 841.984 312.008 842.464 311.672C842.944 311.324 843.262 311.096 843.418 310.988C844.27 310.364 844.858 309.842 845.182 309.422C845.518 308.99 845.686 308.426 845.686 307.73C845.686 307.058 845.47 306.524 845.038 306.128C844.606 305.72 844.042 305.516 843.346 305.516C842.614 305.516 841.99 305.738 841.474 306.182C840.958 306.626 840.7 307.244 840.7 308.036H839.116C839.116 306.836 839.512 305.864 840.304 305.12C841.108 304.376 842.116 304.004 843.328 304.004C844.456 304.004 845.392 304.328 846.136 304.976C846.892 305.624 847.27 306.548 847.27 307.748C847.27 308.66 847.048 309.44 846.604 310.088C846.16 310.724 845.398 311.432 844.318 312.212C844.114 312.356 843.826 312.56 843.454 312.824C843.082 313.076 842.794 313.28 842.59 313.436C842.386 313.592 842.158 313.784 841.906 314.012C841.666 314.228 841.474 314.462 841.33 314.714C841.198 314.954 841.102 315.218 841.042 315.506H847.414ZM853.635 317.18C852.363 317.18 851.283 316.796 850.395 316.028C849.519 315.248 849.081 314.276 849.081 313.112H850.647C850.695 313.868 851.001 314.486 851.565 314.966C852.129 315.434 852.819 315.668 853.635 315.668C854.379 315.668 854.997 315.464 855.489 315.056C855.981 314.648 856.227 314.084 856.227 313.364C856.227 312.596 855.975 312.02 855.471 311.636C854.979 311.252 854.301 311.06 853.437 311.06H852.483V309.638H853.509C854.193 309.638 854.751 309.446 855.183 309.062C855.627 308.678 855.855 308.18 855.867 307.568C855.867 306.968 855.645 306.476 855.201 306.092C854.769 305.708 854.223 305.516 853.563 305.516C852.807 305.516 852.171 305.738 851.655 306.182C851.139 306.626 850.881 307.244 850.881 308.036H849.297C849.297 306.812 849.705 305.834 850.521 305.102C851.337 304.37 852.351 304.004 853.563 304.004C854.679 304.004 855.603 304.328 856.335 304.976C857.079 305.612 857.451 306.458 857.451 307.514C857.439 308.126 857.271 308.678 856.947 309.17C856.635 309.662 856.227 310.04 855.723 310.304C856.371 310.568 856.881 310.976 857.253 311.528C857.625 312.068 857.811 312.698 857.811 313.418C857.811 314.534 857.421 315.44 856.641 316.136C855.861 316.832 854.859 317.18 853.635 317.18ZM859.9 312.734V311.186H864.49V312.734H859.9ZM871.272 317.18C869.94 317.18 868.854 316.736 868.014 315.848C867.174 314.948 866.754 313.79 866.754 312.374V308.81C866.754 307.394 867.174 306.242 868.014 305.354C868.866 304.454 869.952 304.004 871.272 304.004C872.592 304.004 873.678 304.454 874.53 305.354C875.382 306.254 875.808 307.406 875.808 308.81V312.374C875.808 313.79 875.382 314.948 874.53 315.848C873.678 316.736 872.592 317.18 871.272 317.18ZM871.272 315.668C872.16 315.668 872.88 315.374 873.432 314.786C873.984 314.198 874.26 313.394 874.26 312.374V308.81C874.26 307.79 873.984 306.986 873.432 306.398C872.88 305.81 872.16 305.516 871.272 305.516C870.396 305.516 869.682 305.81 869.13 306.398C868.578 306.986 868.302 307.79 868.302 308.81V312.374C868.302 313.394 868.578 314.198 869.13 314.786C869.682 315.374 870.396 315.668 871.272 315.668ZM879.499 317V305.75H877.033L878.293 304.22H881.047V317H879.499Z" fill="white"/>
<path d="M928.162 315.506V317H919.882V316.388C919.882 315.944 919.948 315.524 920.08 315.128C920.224 314.72 920.38 314.378 920.548 314.102C920.716 313.826 920.98 313.52 921.34 313.184C921.7 312.836 921.982 312.584 922.186 312.428C922.39 312.26 922.732 312.008 923.212 311.672C923.692 311.324 924.01 311.096 924.166 310.988C925.018 310.364 925.606 309.842 925.93 309.422C926.266 308.99 926.434 308.426 926.434 307.73C926.434 307.058 926.218 306.524 925.786 306.128C925.354 305.72 924.79 305.516 924.094 305.516C923.362 305.516 922.738 305.738 922.222 306.182C921.706 306.626 921.448 307.244 921.448 308.036H919.864C919.864 306.836 920.26 305.864 921.052 305.12C921.856 304.376 922.864 304.004 924.076 304.004C925.204 304.004 926.14 304.328 926.884 304.976C927.64 305.624 928.018 306.548 928.018 307.748C928.018 308.66 927.796 309.44 927.352 310.088C926.908 310.724 926.146 311.432 925.066 312.212C924.862 312.356 924.574 312.56 924.202 312.824C923.83 313.076 923.542 313.28 923.338 313.436C923.134 313.592 922.906 313.784 922.654 314.012C922.414 314.228 922.222 314.462 922.078 314.714C921.946 314.954 921.85 315.218 921.79 315.506H928.162ZM934.635 317.18C933.303 317.18 932.217 316.736 931.377 315.848C930.537 314.948 930.117 313.79 930.117 312.374V308.81C930.117 307.394 930.537 306.242 931.377 305.354C932.229 304.454 933.315 304.004 934.635 304.004C935.955 304.004 937.041 304.454 937.893 305.354C938.745 306.254 939.171 307.406 939.171 308.81V312.374C939.171 313.79 938.745 314.948 937.893 315.848C937.041 316.736 935.955 317.18 934.635 317.18ZM934.635 315.668C935.523 315.668 936.243 315.374 936.795 314.786C937.347 314.198 937.623 313.394 937.623 312.374V308.81C937.623 307.79 937.347 306.986 936.795 306.398C936.243 305.81 935.523 305.516 934.635 305.516C933.759 305.516 933.045 305.81 932.493 306.398C931.941 306.986 931.665 307.79 931.665 308.81V312.374C931.665 313.394 931.941 314.198 932.493 314.786C933.045 315.374 933.759 315.668 934.635 315.668ZM949.414 315.506V317H941.134V316.388C941.134 315.944 941.2 315.524 941.332 315.128C941.476 314.72 941.632 314.378 941.8 314.102C941.968 313.826 942.232 313.52 942.592 313.184C942.952 312.836 943.234 312.584 943.438 312.428C943.642 312.26 943.984 312.008 944.464 311.672C944.944 311.324 945.262 311.096 945.418 310.988C946.27 310.364 946.858 309.842 947.182 309.422C947.518 308.99 947.686 308.426 947.686 307.73C947.686 307.058 947.47 306.524 947.038 306.128C946.606 305.72 946.042 305.516 945.346 305.516C944.614 305.516 943.99 305.738 943.474 306.182C942.958 306.626 942.7 307.244 942.7 308.036H941.116C941.116 306.836 941.512 305.864 942.304 305.12C943.108 304.376 944.116 304.004 945.328 304.004C946.456 304.004 947.392 304.328 948.136 304.976C948.892 305.624 949.27 306.548 949.27 307.748C949.27 308.66 949.048 309.44 948.604 310.088C948.16 310.724 947.398 311.432 946.318 312.212C946.114 312.356 945.826 312.56 945.454 312.824C945.082 313.076 944.794 313.28 944.59 313.436C944.386 313.592 944.158 313.784 943.906 314.012C943.666 314.228 943.474 314.462 943.33 314.714C943.198 314.954 943.102 315.218 943.042 315.506H949.414ZM955.635 317.18C954.363 317.18 953.283 316.796 952.395 316.028C951.519 315.248 951.081 314.276 951.081 313.112H952.647C952.695 313.868 953.001 314.486 953.565 314.966C954.129 315.434 954.819 315.668 955.635 315.668C956.379 315.668 956.997 315.464 957.489 315.056C957.981 314.648 958.227 314.084 958.227 313.364C958.227 312.596 957.975 312.02 957.471 311.636C956.979 311.252 956.301 311.06 955.437 311.06H954.483V309.638H955.509C956.193 309.638 956.751 309.446 957.183 309.062C957.627 308.678 957.855 308.18 957.867 307.568C957.867 306.968 957.645 306.476 957.201 306.092C956.769 305.708 956.223 305.516 955.563 305.516C954.807 305.516 954.171 305.738 953.655 306.182C953.139 306.626 952.881 307.244 952.881 308.036H951.297C951.297 306.812 951.705 305.834 952.521 305.102C953.337 304.37 954.351 304.004 955.563 304.004C956.679 304.004 957.603 304.328 958.335 304.976C959.079 305.612 959.451 306.458 959.451 307.514C959.439 308.126 959.271 308.678 958.947 309.17C958.635 309.662 958.227 310.04 957.723 310.304C958.371 310.568 958.881 310.976 959.253 311.528C959.625 312.068 959.811 312.698 959.811 313.418C959.811 314.534 959.421 315.44 958.641 316.136C957.861 316.832 956.859 317.18 955.635 317.18ZM961.9 312.734V311.186H966.49V312.734H961.9ZM973.272 317.18C971.94 317.18 970.854 316.736 970.014 315.848C969.174 314.948 968.754 313.79 968.754 312.374V308.81C968.754 307.394 969.174 306.242 970.014 305.354C970.866 304.454 971.952 304.004 973.272 304.004C974.592 304.004 975.678 304.454 976.53 305.354C977.382 306.254 977.808 307.406 977.808 308.81V312.374C977.808 313.79 977.382 314.948 976.53 315.848C975.678 316.736 974.592 317.18 973.272 317.18ZM973.272 315.668C974.16 315.668 974.88 315.374 975.432 314.786C975.984 314.198 976.26 313.394 976.26 312.374V308.81C976.26 307.79 975.984 306.986 975.432 306.398C974.88 305.81 974.16 305.516 973.272 305.516C972.396 305.516 971.682 305.81 971.13 306.398C970.578 306.986 970.302 307.79 970.302 308.81V312.374C970.302 313.394 970.578 314.198 971.13 314.786C971.682 315.374 972.396 315.668 973.272 315.668ZM983.821 317.18C982.669 317.18 981.673 316.82 980.833 316.1C979.993 315.38 979.561 314.528 979.537 313.544H981.121C981.265 314.168 981.583 314.678 982.075 315.074C982.567 315.47 983.149 315.668 983.821 315.668C984.601 315.668 985.255 315.404 985.783 314.876C986.311 314.348 986.575 313.7 986.575 312.932C986.575 312.152 986.323 311.498 985.819 310.97C985.315 310.442 984.673 310.178 983.893 310.178C982.825 310.178 982.021 310.61 981.481 311.474L980.005 311.042L981.319 304.22H987.295V305.732H982.561L981.859 309.386C982.483 308.942 983.227 308.72 984.091 308.72C985.279 308.72 986.251 309.14 987.007 309.98C987.775 310.808 988.159 311.858 988.159 313.13C988.159 314.258 987.745 315.218 986.917 316.01C986.089 316.79 985.057 317.18 983.821 317.18Z" fill="white"/>
<path d="M1030.16 315.506V317H1021.88V316.388C1021.88 315.944 1021.95 315.524 1022.08 315.128C1022.22 314.72 1022.38 314.378 1022.55 314.102C1022.72 313.826 1022.98 313.52 1023.34 313.184C1023.7 312.836 1023.98 312.584 1024.19 312.428C1024.39 312.26 1024.73 312.008 1025.21 311.672C1025.69 311.324 1026.01 311.096 1026.17 310.988C1027.02 310.364 1027.61 309.842 1027.93 309.422C1028.27 308.99 1028.43 308.426 1028.43 307.73C1028.43 307.058 1028.22 306.524 1027.79 306.128C1027.35 305.72 1026.79 305.516 1026.09 305.516C1025.36 305.516 1024.74 305.738 1024.22 306.182C1023.71 306.626 1023.45 307.244 1023.45 308.036H1021.86C1021.86 306.836 1022.26 305.864 1023.05 305.12C1023.86 304.376 1024.86 304.004 1026.08 304.004C1027.2 304.004 1028.14 304.328 1028.88 304.976C1029.64 305.624 1030.02 306.548 1030.02 307.748C1030.02 308.66 1029.8 309.44 1029.35 310.088C1028.91 310.724 1028.15 311.432 1027.07 312.212C1026.86 312.356 1026.57 312.56 1026.2 312.824C1025.83 313.076 1025.54 313.28 1025.34 313.436C1025.13 313.592 1024.91 313.784 1024.65 314.012C1024.41 314.228 1024.22 314.462 1024.08 314.714C1023.95 314.954 1023.85 315.218 1023.79 315.506H1030.16ZM1036.64 317.18C1035.3 317.18 1034.22 316.736 1033.38 315.848C1032.54 314.948 1032.12 313.79 1032.12 312.374V308.81C1032.12 307.394 1032.54 306.242 1033.38 305.354C1034.23 304.454 1035.32 304.004 1036.64 304.004C1037.96 304.004 1039.04 304.454 1039.89 305.354C1040.75 306.254 1041.17 307.406 1041.17 308.81V312.374C1041.17 313.79 1040.75 314.948 1039.89 315.848C1039.04 316.736 1037.96 317.18 1036.64 317.18ZM1036.64 315.668C1037.52 315.668 1038.24 315.374 1038.8 314.786C1039.35 314.198 1039.62 313.394 1039.62 312.374V308.81C1039.62 307.79 1039.35 306.986 1038.8 306.398C1038.24 305.81 1037.52 305.516 1036.64 305.516C1035.76 305.516 1035.05 305.81 1034.49 306.398C1033.94 306.986 1033.67 307.79 1033.67 308.81V312.374C1033.67 313.394 1033.94 314.198 1034.49 314.786C1035.05 315.374 1035.76 315.668 1036.64 315.668ZM1051.41 315.506V317H1043.13V316.388C1043.13 315.944 1043.2 315.524 1043.33 315.128C1043.48 314.72 1043.63 314.378 1043.8 314.102C1043.97 313.826 1044.23 313.52 1044.59 313.184C1044.95 312.836 1045.23 312.584 1045.44 312.428C1045.64 312.26 1045.98 312.008 1046.46 311.672C1046.94 311.324 1047.26 311.096 1047.42 310.988C1048.27 310.364 1048.86 309.842 1049.18 309.422C1049.52 308.99 1049.69 308.426 1049.69 307.73C1049.69 307.058 1049.47 306.524 1049.04 306.128C1048.61 305.72 1048.04 305.516 1047.35 305.516C1046.61 305.516 1045.99 305.738 1045.47 306.182C1044.96 306.626 1044.7 307.244 1044.7 308.036H1043.12C1043.12 306.836 1043.51 305.864 1044.3 305.12C1045.11 304.376 1046.12 304.004 1047.33 304.004C1048.46 304.004 1049.39 304.328 1050.14 304.976C1050.89 305.624 1051.27 306.548 1051.27 307.748C1051.27 308.66 1051.05 309.44 1050.6 310.088C1050.16 310.724 1049.4 311.432 1048.32 312.212C1048.11 312.356 1047.83 312.56 1047.45 312.824C1047.08 313.076 1046.79 313.28 1046.59 313.436C1046.39 313.592 1046.16 313.784 1045.91 314.012C1045.67 314.228 1045.47 314.462 1045.33 314.714C1045.2 314.954 1045.1 315.218 1045.04 315.506H1051.41ZM1057.64 317.18C1056.36 317.18 1055.28 316.796 1054.4 316.028C1053.52 315.248 1053.08 314.276 1053.08 313.112H1054.65C1054.7 313.868 1055 314.486 1055.57 314.966C1056.13 315.434 1056.82 315.668 1057.64 315.668C1058.38 315.668 1059 315.464 1059.49 315.056C1059.98 314.648 1060.23 314.084 1060.23 313.364C1060.23 312.596 1059.98 312.02 1059.47 311.636C1058.98 311.252 1058.3 311.06 1057.44 311.06H1056.48V309.638H1057.51C1058.19 309.638 1058.75 309.446 1059.18 309.062C1059.63 308.678 1059.86 308.18 1059.87 307.568C1059.87 306.968 1059.65 306.476 1059.2 306.092C1058.77 305.708 1058.22 305.516 1057.56 305.516C1056.81 305.516 1056.17 305.738 1055.66 306.182C1055.14 306.626 1054.88 307.244 1054.88 308.036H1053.3C1053.3 306.812 1053.71 305.834 1054.52 305.102C1055.34 304.37 1056.35 304.004 1057.56 304.004C1058.68 304.004 1059.6 304.328 1060.34 304.976C1061.08 305.612 1061.45 306.458 1061.45 307.514C1061.44 308.126 1061.27 308.678 1060.95 309.17C1060.64 309.662 1060.23 310.04 1059.72 310.304C1060.37 310.568 1060.88 310.976 1061.25 311.528C1061.63 312.068 1061.81 312.698 1061.81 313.418C1061.81 314.534 1061.42 315.44 1060.64 316.136C1059.86 316.832 1058.86 317.18 1057.64 317.18ZM1063.9 312.734V311.186H1068.49V312.734H1063.9ZM1075.27 317.18C1073.94 317.18 1072.85 316.736 1072.01 315.848C1071.17 314.948 1070.75 313.79 1070.75 312.374V308.81C1070.75 307.394 1071.17 306.242 1072.01 305.354C1072.87 304.454 1073.95 304.004 1075.27 304.004C1076.59 304.004 1077.68 304.454 1078.53 305.354C1079.38 306.254 1079.81 307.406 1079.81 308.81V312.374C1079.81 313.79 1079.38 314.948 1078.53 315.848C1077.68 316.736 1076.59 317.18 1075.27 317.18ZM1075.27 315.668C1076.16 315.668 1076.88 315.374 1077.43 314.786C1077.98 314.198 1078.26 313.394 1078.26 312.374V308.81C1078.26 307.79 1077.98 306.986 1077.43 306.398C1076.88 305.81 1076.16 305.516 1075.27 305.516C1074.4 305.516 1073.68 305.81 1073.13 306.398C1072.58 306.986 1072.3 307.79 1072.3 308.81V312.374C1072.3 313.394 1072.58 314.198 1073.13 314.786C1073.68 315.374 1074.4 315.668 1075.27 315.668ZM1082.22 317L1086.16 312.356C1086.03 312.368 1085.86 312.374 1085.66 312.374C1084.59 312.374 1083.65 311.966 1082.85 311.15C1082.06 310.334 1081.66 309.374 1081.66 308.27C1081.66 307.07 1082.07 306.062 1082.89 305.246C1083.71 304.418 1084.75 304.004 1085.98 304.004C1087.22 304.004 1088.25 304.412 1089.08 305.228C1089.91 306.044 1090.32 307.04 1090.32 308.216C1090.32 308.84 1090.19 309.404 1089.94 309.908C1089.7 310.4 1089.35 310.922 1088.88 311.474L1084.2 317H1082.22ZM1084.02 310.214C1084.55 310.742 1085.2 311.006 1085.98 311.006C1086.76 311.006 1087.42 310.742 1087.94 310.214C1088.47 309.674 1088.74 309.02 1088.74 308.252C1088.74 307.484 1088.47 306.836 1087.94 306.308C1087.42 305.768 1086.76 305.498 1085.98 305.498C1085.2 305.498 1084.55 305.768 1084.02 306.308C1083.5 306.836 1083.25 307.484 1083.25 308.252C1083.25 309.02 1083.5 309.674 1084.02 310.214Z" fill="white"/>
<path d="M31.61 252V240.75H29.144L30.404 239.22H33.158V252H31.61ZM38.0575 251.748C37.8055 252.012 37.4935 252.144 37.1215 252.144C36.7495 252.144 36.4315 252.012 36.1675 251.748C35.9155 251.484 35.7895 251.166 35.7895 250.794C35.7895 250.434 35.9215 250.122 36.1855 249.858C36.4495 249.582 36.7615 249.444 37.1215 249.444C37.4815 249.444 37.7935 249.582 38.0575 249.858C38.3215 250.122 38.4535 250.434 38.4535 250.794C38.4535 251.166 38.3215 251.484 38.0575 251.748ZM48.5507 250.506V252H40.2707V251.388C40.2707 250.944 40.3367 250.524 40.4687 250.128C40.6127 249.72 40.7687 249.378 40.9367 249.102C41.1047 248.826 41.3687 248.52 41.7287 248.184C42.0887 247.836 42.3707 247.584 42.5747 247.428C42.7787 247.26 43.1207 247.008 43.6007 246.672C44.0807 246.324 44.3987 246.096 44.5547 245.988C45.4067 245.364 45.9947 244.842 46.3187 244.422C46.6547 243.99 46.8227 243.426 46.8227 242.73C46.8227 242.058 46.6067 241.524 46.1747 241.128C45.7427 240.72 45.1787 240.516 44.4827 240.516C43.7507 240.516 43.1267 240.738 42.6107 241.182C42.0947 241.626 41.8367 242.244 41.8367 243.036H40.2527C40.2527 241.836 40.6487 240.864 41.4407 240.12C42.2447 239.376 43.2527 239.004 44.4647 239.004C45.5927 239.004 46.5287 239.328 47.2727 239.976C48.0287 240.624 48.4067 241.548 48.4067 242.748C48.4067 243.66 48.1847 244.44 47.7407 245.088C47.2967 245.724 46.5347 246.432 45.4547 247.212C45.2507 247.356 44.9627 247.56 44.5907 247.824C44.2187 248.076 43.9307 248.28 43.7267 248.436C43.5227 248.592 43.2947 248.784 43.0427 249.012C42.8027 249.228 42.6107 249.462 42.4667 249.714C42.3347 249.954 42.2387 250.218 42.1787 250.506H48.5507ZM54.3578 252.18C53.2058 252.18 52.2098 251.82 51.3698 251.1C50.5298 250.38 50.0978 249.528 50.0738 248.544H51.6578C51.8018 249.168 52.1198 249.678 52.6118 250.074C53.1038 250.47 53.6858 250.668 54.3578 250.668C55.1378 250.668 55.7918 250.404 56.3198 249.876C56.8478 249.348 57.1118 248.7 57.1118 247.932C57.1118 247.152 56.8598 246.498 56.3558 245.97C55.8518 245.442 55.2098 245.178 54.4298 245.178C53.3618 245.178 52.5578 245.61 52.0178 246.474L50.5418 246.042L51.8558 239.22H57.8318V240.732H53.0978L52.3958 244.386C53.0198 243.942 53.7638 243.72 54.6278 243.72C55.8158 243.72 56.7878 244.14 57.5438 244.98C58.3118 245.808 58.6958 246.858 58.6958 248.13C58.6958 249.258 58.2818 250.218 57.4538 251.01C56.6258 251.79 55.5938 252.18 54.3578 252.18Z" fill="white"/>
<path d="M31.61 166V154.75H29.144L30.404 153.22H33.158V166H31.61ZM38.0575 165.748C37.8055 166.012 37.4935 166.144 37.1215 166.144C36.7495 166.144 36.4315 166.012 36.1675 165.748C35.9155 165.484 35.7895 165.166 35.7895 164.794C35.7895 164.434 35.9215 164.122 36.1855 163.858C36.4495 163.582 36.7615 163.444 37.1215 163.444C37.4815 163.444 37.7935 163.582 38.0575 163.858C38.3215 164.122 38.4535 164.434 38.4535 164.794C38.4535 165.166 38.3215 165.484 38.0575 165.748ZM46.4987 166V162.526H39.6947V161.284L46.6967 153.22H48.0467V161.068H49.8107V162.526H48.0467V166H46.4987ZM41.7107 161.068H46.4987V155.56L41.7107 161.068ZM56.096 166.18C54.764 166.18 53.678 165.736 52.838 164.848C51.998 163.948 51.578 162.79 51.578 161.374V157.81C51.578 156.394 51.998 155.242 52.838 154.354C53.69 153.454 54.776 153.004 56.096 153.004C57.416 153.004 58.502 153.454 59.354 154.354C60.206 155.254 60.632 156.406 60.632 157.81V161.374C60.632 162.79 60.206 163.948 59.354 164.848C58.502 165.736 57.416 166.18 56.096 166.18ZM56.096 164.668C56.984 164.668 57.704 164.374 58.256 163.786C58.808 163.198 59.084 162.394 59.084 161.374V157.81C59.084 156.79 58.808 155.986 58.256 155.398C57.704 154.81 56.984 154.516 56.096 154.516C55.22 154.516 54.506 154.81 53.954 155.398C53.402 155.986 53.126 156.79 53.126 157.81V161.374C53.126 162.394 53.402 163.198 53.954 163.786C54.506 164.374 55.22 164.668 56.096 164.668Z" fill="white"/>
<path d="M31.61 138V126.75H29.144L30.404 125.22H33.158V138H31.61ZM38.0575 137.748C37.8055 138.012 37.4935 138.144 37.1215 138.144C36.7495 138.144 36.4315 138.012 36.1675 137.748C35.9155 137.484 35.7895 137.166 35.7895 136.794C35.7895 136.434 35.9215 136.122 36.1855 135.858C36.4495 135.582 36.7615 135.444 37.1215 135.444C37.4815 135.444 37.7935 135.582 38.0575 135.858C38.3215 136.122 38.4535 136.434 38.4535 136.794C38.4535 137.166 38.3215 137.484 38.0575 137.748ZM46.4987 138V134.526H39.6947V133.284L46.6967 125.22H48.0467V133.068H49.8107V134.526H48.0467V138H46.4987ZM41.7107 133.068H46.4987V127.56L41.7107 133.068ZM55.43 138.18C54.278 138.18 53.282 137.82 52.442 137.1C51.602 136.38 51.17 135.528 51.146 134.544H52.73C52.874 135.168 53.192 135.678 53.684 136.074C54.176 136.47 54.758 136.668 55.43 136.668C56.21 136.668 56.864 136.404 57.392 135.876C57.92 135.348 58.184 134.7 58.184 133.932C58.184 133.152 57.932 132.498 57.428 131.97C56.924 131.442 56.282 131.178 55.502 131.178C54.434 131.178 53.63 131.61 53.09 132.474L51.614 132.042L52.928 125.22H58.904V126.732H54.17L53.468 130.386C54.092 129.942 54.836 129.72 55.7 129.72C56.888 129.72 57.86 130.14 58.616 130.98C59.384 131.808 59.768 132.858 59.768 134.13C59.768 135.258 59.354 136.218 58.526 137.01C57.698 137.79 56.666 138.18 55.43 138.18Z" fill="white"/>
<path d="M31.61 109V97.75H29.144L30.404 96.22H33.158V109H31.61ZM38.0575 108.748C37.8055 109.012 37.4935 109.144 37.1215 109.144C36.7495 109.144 36.4315 109.012 36.1675 108.748C35.9155 108.484 35.7895 108.166 35.7895 107.794C35.7895 107.434 35.9215 107.122 36.1855 106.858C36.4495 106.582 36.7615 106.444 37.1215 106.444C37.4815 106.444 37.7935 106.582 38.0575 106.858C38.3215 107.122 38.4535 107.434 38.4535 107.794C38.4535 108.166 38.3215 108.484 38.0575 108.748ZM44.3207 109.18C43.1687 109.18 42.1727 108.82 41.3327 108.1C40.4927 107.38 40.0607 106.528 40.0367 105.544H41.6207C41.7647 106.168 42.0827 106.678 42.5747 107.074C43.0667 107.47 43.6487 107.668 44.3207 107.668C45.1007 107.668 45.7547 107.404 46.2827 106.876C46.8107 106.348 47.0747 105.7 47.0747 104.932C47.0747 104.152 46.8227 103.498 46.3187 102.97C45.8147 102.442 45.1727 102.178 44.3927 102.178C43.3247 102.178 42.5207 102.61 41.9807 103.474L40.5047 103.042L41.8187 96.22H47.7947V97.732H43.0607L42.3587 101.386C42.9827 100.942 43.7267 100.72 44.5907 100.72C45.7787 100.72 46.7507 101.14 47.5067 101.98C48.2747 102.808 48.6587 103.858 48.6587 105.13C48.6587 106.258 48.2447 107.218 47.4167 108.01C46.5887 108.79 45.5567 109.18 44.3207 109.18ZM54.971 109.18C53.639 109.18 52.553 108.736 51.713 107.848C50.873 106.948 50.453 105.79 50.453 104.374V100.81C50.453 99.394 50.873 98.242 51.713 97.354C52.565 96.454 53.651 96.004 54.971 96.004C56.291 96.004 57.377 96.454 58.229 97.354C59.081 98.254 59.507 99.406 59.507 100.81V104.374C59.507 105.79 59.081 106.948 58.229 107.848C57.377 108.736 56.291 109.18 54.971 109.18ZM54.971 107.668C55.859 107.668 56.579 107.374 57.131 106.786C57.683 106.198 57.959 105.394 57.959 104.374V100.81C57.959 99.79 57.683 98.986 57.131 98.398C56.579 97.81 55.859 97.516 54.971 97.516C54.095 97.516 53.381 97.81 52.829 98.398C52.277 98.986 52.001 99.79 52.001 100.81V104.374C52.001 105.394 52.277 106.198 52.829 106.786C53.381 107.374 54.095 107.668 54.971 107.668Z" fill="white"/>
<path d="M31.61 81V69.75H29.144L30.404 68.22H33.158V81H31.61ZM38.0575 80.748C37.8055 81.012 37.4935 81.144 37.1215 81.144C36.7495 81.144 36.4315 81.012 36.1675 80.748C35.9155 80.484 35.7895 80.166 35.7895 79.794C35.7895 79.434 35.9215 79.122 36.1855 78.858C36.4495 78.582 36.7615 78.444 37.1215 78.444C37.4815 78.444 37.7935 78.582 38.0575 78.858C38.3215 79.122 38.4535 79.434 38.4535 79.794C38.4535 80.166 38.3215 80.484 38.0575 80.748ZM44.3207 81.18C43.1687 81.18 42.1727 80.82 41.3327 80.1C40.4927 79.38 40.0607 78.528 40.0367 77.544H41.6207C41.7647 78.168 42.0827 78.678 42.5747 79.074C43.0667 79.47 43.6487 79.668 44.3207 79.668C45.1007 79.668 45.7547 79.404 46.2827 78.876C46.8107 78.348 47.0747 77.7 47.0747 76.932C47.0747 76.152 46.8227 75.498 46.3187 74.97C45.8147 74.442 45.1727 74.178 44.3927 74.178C43.3247 74.178 42.5207 74.61 41.9807 75.474L40.5047 75.042L41.8187 68.22H47.7947V69.732H43.0607L42.3587 73.386C42.9827 72.942 43.7267 72.72 44.5907 72.72C45.7787 72.72 46.7507 73.14 47.5067 73.98C48.2747 74.808 48.6587 75.858 48.6587 77.13C48.6587 78.258 48.2447 79.218 47.4167 80.01C46.5887 80.79 45.5567 81.18 44.3207 81.18ZM54.305 81.18C53.153 81.18 52.157 80.82 51.317 80.1C50.477 79.38 50.045 78.528 50.021 77.544H51.605C51.749 78.168 52.067 78.678 52.559 79.074C53.051 79.47 53.633 79.668 54.305 79.668C55.085 79.668 55.739 79.404 56.267 78.876C56.795 78.348 57.059 77.7 57.059 76.932C57.059 76.152 56.807 75.498 56.303 74.97C55.799 74.442 55.157 74.178 54.377 74.178C53.309 74.178 52.505 74.61 51.965 75.474L50.489 75.042L51.803 68.22H57.779V69.732H53.045L52.343 73.386C52.967 72.942 53.711 72.72 54.575 72.72C55.763 72.72 56.735 73.14 57.491 73.98C58.259 74.808 58.643 75.858 58.643 77.13C58.643 78.258 58.229 79.218 57.401 80.01C56.573 80.79 55.541 81.18 54.305 81.18Z" fill="white"/>
<path d="M31.61 52V40.75H29.144L30.404 39.22H33.158V52H31.61ZM38.0575 51.748C37.8055 52.012 37.4935 52.144 37.1215 52.144C36.7495 52.144 36.4315 52.012 36.1675 51.748C35.9155 51.484 35.7895 51.166 35.7895 50.794C35.7895 50.434 35.9215 50.122 36.1855 49.858C36.4495 49.582 36.7615 49.444 37.1215 49.444C37.4815 49.444 37.7935 49.582 38.0575 49.858C38.3215 50.122 38.4535 50.434 38.4535 50.794C38.4535 51.166 38.3215 51.484 38.0575 51.748ZM47.4527 50.956C46.6367 51.772 45.6107 52.18 44.3747 52.18C43.1387 52.18 42.1067 51.772 41.2787 50.956C40.4507 50.14 40.0367 49.144 40.0367 47.968C40.0367 47.344 40.1567 46.786 40.3967 46.294C40.6487 45.79 41.0087 45.262 41.4767 44.71L46.1387 39.22H48.1007L44.1947 43.846C44.4107 43.822 44.5787 43.81 44.6987 43.81C45.7667 43.81 46.6967 44.218 47.4887 45.034C48.2927 45.85 48.6947 46.816 48.6947 47.932C48.6947 49.12 48.2807 50.128 47.4527 50.956ZM44.3747 50.686C45.1427 50.686 45.7907 50.416 46.3187 49.876C46.8467 49.336 47.1107 48.688 47.1107 47.932C47.1107 47.176 46.8467 46.528 46.3187 45.988C45.7907 45.448 45.1427 45.178 44.3747 45.178C43.5947 45.178 42.9407 45.448 42.4127 45.988C41.8847 46.516 41.6207 47.164 41.6207 47.932C41.6207 48.7 41.8847 49.354 42.4127 49.894C42.9407 50.422 43.5947 50.686 44.3747 50.686ZM55.0414 52.18C53.7094 52.18 52.6234 51.736 51.7834 50.848C50.9434 49.948 50.5234 48.79 50.5234 47.374V43.81C50.5234 42.394 50.9434 41.242 51.7834 40.354C52.6354 39.454 53.7214 39.004 55.0414 39.004C56.3614 39.004 57.4474 39.454 58.2994 40.354C59.1514 41.254 59.5774 42.406 59.5774 43.81V47.374C59.5774 48.79 59.1514 49.948 58.2994 50.848C57.4474 51.736 56.3614 52.18 55.0414 52.18ZM55.0414 50.668C55.9294 50.668 56.6494 50.374 57.2014 49.786C57.7534 49.198 58.0294 48.394 58.0294 47.374V43.81C58.0294 42.79 57.7534 41.986 57.2014 41.398C56.6494 40.81 55.9294 40.516 55.0414 40.516C54.1654 40.516 53.4514 40.81 52.8994 41.398C52.3474 41.986 52.0714 42.79 52.0714 43.81V47.374C52.0714 48.394 52.3474 49.198 52.8994 49.786C53.4514 50.374 54.1654 50.668 55.0414 50.668Z" fill="white"/>
<path d="M31.61 195V183.75H29.144L30.404 182.22H33.158V195H31.61ZM38.0575 194.748C37.8055 195.012 37.4935 195.144 37.1215 195.144C36.7495 195.144 36.4315 195.012 36.1675 194.748C35.9155 194.484 35.7895 194.166 35.7895 193.794C35.7895 193.434 35.9215 193.122 36.1855 192.858C36.4495 192.582 36.7615 192.444 37.1215 192.444C37.4815 192.444 37.7935 192.582 38.0575 192.858C38.3215 193.122 38.4535 193.434 38.4535 193.794C38.4535 194.166 38.3215 194.484 38.0575 194.748ZM44.7347 195.18C43.4627 195.18 42.3827 194.796 41.4947 194.028C40.6187 193.248 40.1807 192.276 40.1807 191.112H41.7467C41.7947 191.868 42.1007 192.486 42.6647 192.966C43.2287 193.434 43.9187 193.668 44.7347 193.668C45.4787 193.668 46.0967 193.464 46.5887 193.056C47.0807 192.648 47.3267 192.084 47.3267 191.364C47.3267 190.596 47.0747 190.02 46.5707 189.636C46.0787 189.252 45.4007 189.06 44.5367 189.06H43.5827V187.638H44.6087C45.2927 187.638 45.8507 187.446 46.2827 187.062C46.7267 186.678 46.9547 186.18 46.9667 185.568C46.9667 184.968 46.7447 184.476 46.3007 184.092C45.8687 183.708 45.3227 183.516 44.6627 183.516C43.9067 183.516 43.2707 183.738 42.7547 184.182C42.2387 184.626 41.9807 185.244 41.9807 186.036H40.3967C40.3967 184.812 40.8047 183.834 41.6207 183.102C42.4367 182.37 43.4507 182.004 44.6627 182.004C45.7787 182.004 46.7027 182.328 47.4347 182.976C48.1787 183.612 48.5507 184.458 48.5507 185.514C48.5387 186.126 48.3707 186.678 48.0467 187.17C47.7347 187.662 47.3267 188.04 46.8227 188.304C47.4707 188.568 47.9807 188.976 48.3527 189.528C48.7247 190.068 48.9107 190.698 48.9107 191.418C48.9107 192.534 48.5207 193.44 47.7407 194.136C46.9607 194.832 45.9587 195.18 44.7347 195.18ZM54.7621 195.18C53.6101 195.18 52.6141 194.82 51.7741 194.1C50.9341 193.38 50.5021 192.528 50.4781 191.544H52.0621C52.2061 192.168 52.5241 192.678 53.0161 193.074C53.5081 193.47 54.0901 193.668 54.7621 193.668C55.5421 193.668 56.1961 193.404 56.7241 192.876C57.2521 192.348 57.5161 191.7 57.5161 190.932C57.5161 190.152 57.2641 189.498 56.7601 188.97C56.2561 188.442 55.6141 188.178 54.8341 188.178C53.7661 188.178 52.9621 188.61 52.4221 189.474L50.9461 189.042L52.2601 182.22H58.2361V183.732H53.5021L52.8001 187.386C53.4241 186.942 54.1681 186.72 55.0321 186.72C56.2201 186.72 57.1921 187.14 57.9481 187.98C58.7161 188.808 59.1001 189.858 59.1001 191.13C59.1001 192.258 58.6861 193.218 57.8581 194.01C57.0301 194.79 55.9981 195.18 54.7621 195.18Z" fill="white"/>
<path d="M31.61 223V211.75H29.144L30.404 210.22H33.158V223H31.61ZM38.0575 222.748C37.8055 223.012 37.4935 223.144 37.1215 223.144C36.7495 223.144 36.4315 223.012 36.1675 222.748C35.9155 222.484 35.7895 222.166 35.7895 221.794C35.7895 221.434 35.9215 221.122 36.1855 220.858C36.4495 220.582 36.7615 220.444 37.1215 220.444C37.4815 220.444 37.7935 220.582 38.0575 220.858C38.3215 221.122 38.4535 221.434 38.4535 221.794C38.4535 222.166 38.3215 222.484 38.0575 222.748ZM44.7347 223.18C43.4627 223.18 42.3827 222.796 41.4947 222.028C40.6187 221.248 40.1807 220.276 40.1807 219.112H41.7467C41.7947 219.868 42.1007 220.486 42.6647 220.966C43.2287 221.434 43.9187 221.668 44.7347 221.668C45.4787 221.668 46.0967 221.464 46.5887 221.056C47.0807 220.648 47.3267 220.084 47.3267 219.364C47.3267 218.596 47.0747 218.02 46.5707 217.636C46.0787 217.252 45.4007 217.06 44.5367 217.06H43.5827V215.638H44.6087C45.2927 215.638 45.8507 215.446 46.2827 215.062C46.7267 214.678 46.9547 214.18 46.9667 213.568C46.9667 212.968 46.7447 212.476 46.3007 212.092C45.8687 211.708 45.3227 211.516 44.6627 211.516C43.9067 211.516 43.2707 211.738 42.7547 212.182C42.2387 212.626 41.9807 213.244 41.9807 214.036H40.3967C40.3967 212.812 40.8047 211.834 41.6207 211.102C42.4367 210.37 43.4507 210.004 44.6627 210.004C45.7787 210.004 46.7027 210.328 47.4347 210.976C48.1787 211.612 48.5507 212.458 48.5507 213.514C48.5387 214.126 48.3707 214.678 48.0467 215.17C47.7347 215.662 47.3267 216.04 46.8227 216.304C47.4707 216.568 47.9807 216.976 48.3527 217.528C48.7247 218.068 48.9107 218.698 48.9107 219.418C48.9107 220.534 48.5207 221.44 47.7407 222.136C46.9607 222.832 45.9587 223.18 44.7347 223.18ZM55.4281 223.18C54.0961 223.18 53.0101 222.736 52.1701 221.848C51.3301 220.948 50.9101 219.79 50.9101 218.374V214.81C50.9101 213.394 51.3301 212.242 52.1701 211.354C53.0221 210.454 54.1081 210.004 55.4281 210.004C56.7481 210.004 57.8341 210.454 58.6861 211.354C59.5381 212.254 59.9641 213.406 59.9641 214.81V218.374C59.9641 219.79 59.5381 220.948 58.6861 221.848C57.8341 222.736 56.7481 223.18 55.4281 223.18ZM55.4281 221.668C56.3161 221.668 57.0361 221.374 57.5881 220.786C58.1401 220.198 58.4161 219.394 58.4161 218.374V214.81C58.4161 213.79 58.1401 212.986 57.5881 212.398C57.0361 211.81 56.3161 211.516 55.4281 211.516C54.5521 211.516 53.8381 211.81 53.2861 212.398C52.7341 212.986 52.4581 213.79 52.4581 214.81V218.374C52.4581 219.394 52.7341 220.198 53.2861 220.786C53.8381 221.374 54.5521 221.668 55.4281 221.668Z" fill="white"/>
<rect x="100" y="88.1484" width="2" height="100" fill="#D9D9D9"/>
<rect x="103" y="88.1484" width="2" height="100" fill="#D9D9D9"/>
<rect x="109" y="143.148" width="2" height="70" fill="#D9D9D9"/>
<rect x="112" y="102.148" width="2" height="70" fill="#D9D9D9"/>
<rect x="115" y="102.148" width="2" height="78" fill="#D9D9D9"/>
<rect x="118" y="58.1484" width="2" height="112" fill="#D9D9D9"/>
<rect x="124" y="110.148" width="2" height="97" fill="#D9D9D9"/>
<rect x="121" y="110.148" width="2" height="97" fill="#D9D9D9"/>
<rect x="127" y="130.148" width="2" height="81" fill="#D9D9D9"/>
<rect x="130" y="122.148" width="2" height="42" fill="#D9D9D9"/>
<rect x="106" y="58.1484" width="2" height="132" fill="#D9D9D9"/>
<rect x="136" y="88.1484" width="2" height="138" fill="#D9D9D9"/>
<rect x="139" y="88.1484" width="2" height="119" fill="#D9D9D9"/>
<rect x="145" y="143.148" width="2" height="70" fill="#D9D9D9"/>
<rect x="148" y="102.148" width="2" height="70" fill="#D9D9D9"/>
<rect x="151" y="102.148" width="2" height="78" fill="#D9D9D9"/>
<rect x="154" y="58.1484" width="2" height="112" fill="#D9D9D9"/>
<rect x="160" y="64.1484" width="2" height="143" fill="#D9D9D9"/>
<rect x="157" y="110.148" width="2" height="88" fill="#D9D9D9"/>
<rect x="163" y="130.148" width="2" height="81" fill="#D9D9D9"/>
<rect x="166" y="141.148" width="2" height="23" fill="#D9D9D9"/>
<rect x="142" y="58.1484" width="2" height="132" fill="#D9D9D9"/>
<rect x="169" y="141.148" width="2" height="47" fill="#D9D9D9"/>
<rect x="172" y="88.1484" width="2" height="100" fill="#D9D9D9"/>
<rect x="178" y="143.148" width="2" height="70" fill="#D9D9D9"/>
<rect x="181" y="118.148" width="2" height="42" fill="#D9D9D9"/>
<rect x="184" y="102.148" width="2" height="78" fill="#D9D9D9"/>
<rect x="187" y="105.148" width="2" height="65" fill="#D9D9D9"/>
<rect x="193" y="110.148" width="2" height="97" fill="#D9D9D9"/>
<rect x="190" y="110.148" width="2" height="97" fill="#D9D9D9"/>
<rect x="196" y="130.148" width="2" height="81" fill="#D9D9D9"/>
<rect x="199" y="122.148" width="2" height="42" fill="#D9D9D9"/>
<rect x="175" y="58.1484" width="2" height="132" fill="#D9D9D9"/>
<rect x="202" y="88.1484" width="2" height="100" fill="#D9D9D9"/>
<rect x="205" y="88.1484" width="2" height="115" fill="#D9D9D9"/>
<rect x="211" y="61.1484" width="2" height="103" fill="#D9D9D9"/>
<rect x="214" y="75.1484" width="2" height="97" fill="#D9D9D9"/>
<rect x="217" y="102.148" width="2" height="101" fill="#D9D9D9"/>
<rect x="220" y="58.1484" width="2" height="112" fill="#D9D9D9"/>
<rect x="226" y="110.148" width="2" height="97" fill="#D9D9D9"/>
<rect x="223" y="110.148" width="2" height="125" fill="#D9D9D9"/>
<rect x="229" y="130.148" width="2" height="81" fill="#D9D9D9"/>
<rect x="232" y="122.148" width="2" height="42" fill="#D9D9D9"/>
<rect x="208" y="58.1484" width="2" height="132" fill="#D9D9D9"/>
<rect x="238" y="88.1484" width="2" height="100" fill="#D9D9D9"/>
<rect x="241" y="88.1484" width="2" height="100" fill="#D9D9D9"/>
<rect x="247" y="143.148" width="2" height="70" fill="#D9D9D9"/>
<rect x="250" y="102.148" width="2" height="70" fill="#D9D9D9"/>
<rect x="253" y="102.148" width="2" height="78" fill="#D9D9D9"/>
<rect x="256" y="58.1484" width="2" height="112" fill="#D9D9D9"/>
<rect x="262" y="110.148" width="2" height="97" fill="#D9D9D9"/>
<rect x="259" y="110.148" width="2" height="97" fill="#D9D9D9"/>
<rect x="265" y="130.148" width="2" height="81" fill="#D9D9D9"/>
<rect x="268" y="122.148" width="2" height="42" fill="#D9D9D9"/>
<rect x="244" y="58.1484" width="2" height="132" fill="#D9D9D9"/>
<rect x="271" y="88.1484" width="2" height="100" fill="#D9D9D9"/>
<rect x="274" y="88.1484" width="2" height="100" fill="#D9D9D9"/>
<rect x="280" y="143.148" width="2" height="70" fill="#D9D9D9"/>
<rect x="283" y="102.148" width="2" height="70" fill="#D9D9D9"/>
<rect x="286" y="102.148" width="2" height="78" fill="#D9D9D9"/>
<rect x="289" y="58.1484" width="2" height="112" fill="#D9D9D9"/>
<rect x="295" y="110.148" width="2" height="97" fill="#D9D9D9"/>
<rect x="292" y="110.148" width="2" height="97" fill="#D9D9D9"/>
<rect x="298" y="130.148" width="2" height="81" fill="#D9D9D9"/>
<rect x="301" y="122.148" width="2" height="42" fill="#D9D9D9"/>
<rect x="277" y="58.1484" width="2" height="132" fill="#D9D9D9"/>
<rect x="304" y="88.1484" width="2" height="100" fill="#D9D9D9"/>
<rect x="307" y="88.1484" width="2" height="100" fill="#D9D9D9"/>
<rect x="313" y="143.148" width="2" height="70" fill="#D9D9D9"/>
<rect x="316" y="102.148" width="2" height="70" fill="#D9D9D9"/>
<rect x="319" y="102.148" width="2" height="78" fill="#D9D9D9"/>
<rect x="322" y="58.1484" width="2" height="112" fill="#D9D9D9"/>
<rect x="328" y="110.148" width="2" height="97" fill="#D9D9D9"/>
<rect x="325" y="110.148" width="2" height="97" fill="#D9D9D9"/>
<rect x="331" y="130.148" width="2" height="81" fill="#D9D9D9"/>
<rect x="334" y="122.148" width="2" height="42" fill="#D9D9D9"/>
<rect x="310" y="58.1484" width="2" height="132" fill="#D9D9D9"/>
<rect x="340" y="88.1484" width="2" height="100" fill="#D9D9D9"/>
<rect x="343" y="88.1484" width="2" height="100" fill="#D9D9D9"/>
<rect x="349" y="143.148" width="2" height="70" fill="#D9D9D9"/>
<rect x="352" y="102.148" width="2" height="70" fill="#D9D9D9"/>
<rect x="355" y="102.148" width="2" height="78" fill="#D9D9D9"/>
<rect x="358" y="58.1484" width="2" height="112" fill="#D9D9D9"/>
<rect x="364" y="64.1484" width="2" height="108" fill="#D9D9D9"/>
<rect x="361" y="58.1484" width="2" height="119" fill="#D9D9D9"/>
<rect x="367" y="102.148" width="2" height="109" fill="#D9D9D9"/>
<rect x="370" y="88.1484" width="2" height="76" fill="#D9D9D9"/>
<rect x="346" y="58.1484" width="2" height="132" fill="#D9D9D9"/>
<rect x="373" y="61.1484" width="2" height="196" fill="#D9D9D9"/>
<rect x="376" y="88.1484" width="2" height="100" fill="#D9D9D9"/>
<rect x="382" y="42.1484" width="2" height="171" fill="#D9D9D9"/>
<rect x="385" y="51.1484" width="2" height="152" fill="#D9D9D9"/>
<rect x="388" y="102.148" width="2" height="78" fill="#D9D9D9"/>
<rect x="391" y="58.1484" width="2" height="112" fill="#D9D9D9"/>
<rect x="397" y="110.148" width="2" height="97" fill="#D9D9D9"/>
<rect x="394" y="62.1484" width="2" height="145" fill="#D9D9D9"/>
<rect x="400" y="100.148" width="2" height="111" fill="#D9D9D9"/>
<rect x="403" y="122.148" width="2" height="42" fill="#D9D9D9"/>
<rect x="379" y="58.1484" width="2" height="222" fill="#D9D9D9"/>
<rect x="406" y="61.1484" width="2" height="127" fill="#D9D9D9"/>
<rect x="409" y="88.1484" width="2" height="100" fill="#D9D9D9"/>
<rect x="415" y="133.148" width="2" height="80" fill="#D9D9D9"/>
<rect x="418" y="58.1484" width="2" height="114" fill="#D9D9D9"/>
<rect x="421" y="102.148" width="2" height="78" fill="#D9D9D9"/>
<rect x="424" y="58.1484" width="2" height="112" fill="#D9D9D9"/>
<rect x="430" y="110.148" width="2" height="97" fill="#D9D9D9"/>
<rect x="427" y="80.1484" width="2" height="127" fill="#D9D9D9"/>
<rect x="433" y="82.1484" width="2" height="129" fill="#D9D9D9"/>
<rect x="436" y="106.148" width="2" height="58" fill="#D9D9D9"/>
<rect x="412" y="58.1484" width="2" height="132" fill="#D9D9D9"/>
<rect x="442" y="60.1484" width="2" height="128" fill="#D9D9D9"/>
<rect x="445" y="64.1484" width="2" height="124" fill="#D9D9D9"/>
<rect x="451" y="87.1484" width="2" height="126" fill="#D9D9D9"/>
<rect x="454" y="60.1484" width="2" height="112" fill="#D9D9D9"/>
<rect x="457" y="65.1484" width="2" height="115" fill="#D9D9D9"/>
<rect x="460" y="58.1484" width="2" height="112" fill="#D9D9D9"/>
<rect x="466" y="87.1484" width="2" height="120" fill="#D9D9D9"/>
<rect x="463" y="75.1484" width="2" height="132" fill="#D9D9D9"/>
<rect x="469" y="80.1484" width="2" height="131" fill="#D9D9D9"/>
<rect x="472" y="62.1484" width="2" height="102" fill="#D9D9D9"/>
<rect x="448" y="58.1484" width="2" height="132" fill="#D9D9D9"/>
<rect x="475" y="139.148" width="2" height="49" fill="#D9D9D9"/>
<rect x="478" y="88.1484" width="2" height="100" fill="#D9D9D9"/>
<rect x="484" y="143.148" width="2" height="70" fill="#D9D9D9"/>
<rect x="487" y="55.1484" width="2" height="117" fill="#D9D9D9"/>
<rect x="490" y="93.1484" width="2" height="87" fill="#D9D9D9"/>
<rect x="493" y="58.1484" width="2" height="112" fill="#D9D9D9"/>
<rect x="499" y="97.1484" width="2" height="110" fill="#D9D9D9"/>
<rect x="496" y="125.148" width="2" height="82" fill="#D9D9D9"/>
<rect x="502" y="58.1484" width="2" height="153" fill="#D9D9D9"/>
<rect x="505" y="122.148" width="2" height="42" fill="#D9D9D9"/>
<rect x="481" y="58.1484" width="2" height="132" fill="#D9D9D9"/>
<rect x="508" y="61.1484" width="2" height="127" fill="#D9D9D9"/>
<rect x="511" y="88.1484" width="2" height="100" fill="#D9D9D9"/>
<rect x="517" y="108.148" width="2" height="105" fill="#D9D9D9"/>
<rect x="520" y="59.1484" width="2" height="113" fill="#D9D9D9"/>
<rect x="523" y="102.148" width="2" height="78" fill="#D9D9D9"/>
<rect x="526" y="58.1484" width="2" height="112" fill="#D9D9D9"/>
<rect x="532" y="102.148" width="2" height="105" fill="#D9D9D9"/>
<rect x="529" y="110.148" width="2" height="97" fill="#D9D9D9"/>
<rect x="535" y="65.1484" width="2" height="146" fill="#D9D9D9"/>
<rect x="538" y="62.1484" width="2" height="102" fill="#D9D9D9"/>
<rect x="514" y="58.1484" width="2" height="132" fill="#D9D9D9"/>
<rect x="544" y="88.1484" width="2" height="100" fill="#D9D9D9"/>
<rect x="547" y="88.1484" width="2" height="100" fill="#D9D9D9"/>
<rect x="553" y="143.148" width="2" height="70" fill="#D9D9D9"/>
<rect x="556" y="70.1484" width="2" height="102" fill="#D9D9D9"/>
<rect x="559" y="80.1484" width="2" height="100" fill="#D9D9D9"/>
<rect x="562" y="58.1484" width="2" height="112" fill="#D9D9D9"/>
<rect x="568" y="60.1484" width="2" height="147" fill="#D9D9D9"/>
<rect x="565" y="58.1484" width="2" height="149" fill="#D9D9D9"/>
<rect x="571" y="62.1484" width="2" height="149" fill="#D9D9D9"/>
<rect x="574" y="122.148" width="2" height="42" fill="#D9D9D9"/>
<rect x="550" y="58.1484" width="2" height="132" fill="#D9D9D9"/>
<rect x="577" y="115.148" width="2" height="73" fill="#D9D9D9"/>
<rect x="580" y="80.1484" width="2" height="108" fill="#D9D9D9"/>
<rect x="586" y="87.1484" width="2" height="69" fill="#D9D9D9"/>
<rect x="589" y="73.1484" width="2" height="99" fill="#D9D9D9"/>
<rect x="592" y="102.148" width="2" height="96" fill="#D9D9D9"/>
<rect x="595" y="58.1484" width="2" height="134" fill="#D9D9D9"/>
<rect x="601" y="110.148" width="2" height="97" fill="#D9D9D9"/>
<rect x="598" y="110.148" width="2" height="97" fill="#D9D9D9"/>
<rect x="604" y="130.148" width="2" height="81" fill="#D9D9D9"/>
<rect x="607" y="122.148" width="2" height="83" fill="#D9D9D9"/>
<rect x="583" y="58.1484" width="2" height="132" fill="#D9D9D9"/>
<rect x="610" y="88.1484" width="2" height="100" fill="#D9D9D9"/>
<rect x="613" y="92.1484" width="2" height="117" fill="#D9D9D9"/>
<rect x="619" y="70.1484" width="2" height="143" fill="#D9D9D9"/>
<rect x="622" y="60.1484" width="2" height="112" fill="#D9D9D9"/>
<rect x="625" y="93.1484" width="2" height="87" fill="#D9D9D9"/>
<rect x="628" y="58.1484" width="2" height="112" fill="#D9D9D9"/>
<rect x="634" y="110.148" width="2" height="97" fill="#D9D9D9"/>
<rect x="631" y="60.1484" width="2" height="147" fill="#D9D9D9"/>
<rect x="637" y="83.1484" width="2" height="128" fill="#D9D9D9"/>
<rect x="640" y="93.1484" width="2" height="111" fill="#D9D9D9"/>
<rect x="643" y="115.148" width="2" height="89" fill="#D9D9D9"/>
<rect x="616" y="58.1484" width="2" height="153" fill="#D9D9D9"/>
<rect x="646" y="45.1484" width="2" height="159" fill="#D9D9D9"/>
<rect x="649" y="43.1484" width="2" height="145" fill="#D9D9D9"/>
<rect x="655" y="143.148" width="2" height="70" fill="#D9D9D9"/>
<rect x="658" y="62.1484" width="2" height="145" fill="#D9D9D9"/>
<rect x="661" y="137.148" width="2" height="47" fill="#D9D9D9"/>
<rect x="664" y="58.1484" width="2" height="112" fill="#D9D9D9"/>
<rect x="670" y="110.148" width="2" height="97" fill="#D9D9D9"/>
<rect x="667" y="56.1484" width="2" height="151" fill="#D9D9D9"/>
<rect x="673" y="71.1484" width="2" height="140" fill="#D9D9D9"/>
<rect x="676" y="59.1484" width="2" height="105" fill="#D9D9D9"/>
<rect x="652" y="58.1484" width="2" height="132" fill="#D9D9D9"/>
<rect x="679" y="88.1484" width="2" height="74" fill="#D9D9D9"/>
<rect x="682" y="67.1484" width="2" height="121" fill="#D9D9D9"/>
<rect x="688" y="143.148" width="2" height="64" fill="#D9D9D9"/>
<rect x="691" y="140.148" width="2" height="45" fill="#D9D9D9"/>
<rect x="694" y="102.148" width="2" height="78" fill="#D9D9D9"/>
<rect x="697" y="80.1484" width="2" height="124" fill="#D9D9D9"/>
<rect x="703" y="126.148" width="2" height="81" fill="#D9D9D9"/>
<rect x="700" y="77.1484" width="2" height="130" fill="#D9D9D9"/>
<rect x="706" y="130.148" width="2" height="81" fill="#D9D9D9"/>
<rect x="709" y="122.148" width="2" height="42" fill="#D9D9D9"/>
<rect x="685" y="58.1484" width="2" height="132" fill="#D9D9D9"/>
<rect x="712" y="93.1484" width="2" height="115" fill="#D9D9D9"/>
<rect x="715" y="93.1484" width="2" height="115" fill="#D9D9D9"/>
<rect x="721" y="72.1484" width="2" height="141" fill="#D9D9D9"/>
<rect x="724" y="88.1484" width="2" height="98" fill="#D9D9D9"/>
<rect x="727" y="102.148" width="2" height="78" fill="#D9D9D9"/>
<rect x="730" y="58.1484" width="2" height="112" fill="#D9D9D9"/>
<rect x="736" y="60.1484" width="2" height="147" fill="#D9D9D9"/>
<rect x="733" y="93.1484" width="2" height="114" fill="#D9D9D9"/>
<rect x="739" y="130.148" width="2" height="81" fill="#D9D9D9"/>
<rect x="742" y="80.1484" width="2" height="84" fill="#D9D9D9"/>
<rect x="718" y="58.1484" width="2" height="156" fill="#D9D9D9"/>
<rect x="748" y="62.1484" width="2" height="126" fill="#D9D9D9"/>
<rect x="751" y="51.1484" width="2" height="137" fill="#D9D9D9"/>
<rect x="757" y="62.1484" width="2" height="151" fill="#D9D9D9"/>
<rect x="760" y="56.1484" width="2" height="116" fill="#D9D9D9"/>
<rect x="763" y="102.148" width="2" height="78" fill="#D9D9D9"/>
<rect x="766" y="58.1484" width="2" height="112" fill="#D9D9D9"/>
<rect x="772" y="45.1484" width="2" height="162" fill="#D9D9D9"/>
<rect x="769" y="56.1484" width="2" height="151" fill="#D9D9D9"/>
<rect x="775" y="130.148" width="2" height="81" fill="#D9D9D9"/>
<rect x="778" y="59.1484" width="2" height="105" fill="#D9D9D9"/>
<rect x="754" y="43.1484" width="2" height="147" fill="#D9D9D9"/>
<rect x="781" y="40.1484" width="2" height="148" fill="#D9D9D9"/>
<rect x="784" y="88.1484" width="2" height="100" fill="#D9D9D9"/>
<rect x="790" y="49.1484" width="2" height="164" fill="#D9D9D9"/>
<rect x="793" y="102.148" width="2" height="70" fill="#D9D9D9"/>
<rect x="796" y="102.148" width="2" height="78" fill="#D9D9D9"/>
<rect x="799" y="58.1484" width="2" height="112" fill="#D9D9D9"/>
<rect x="805" y="62.1484" width="2" height="145" fill="#D9D9D9"/>
<rect x="802" y="67.1484" width="2" height="140" fill="#D9D9D9"/>
<rect x="808" y="130.148" width="2" height="81" fill="#D9D9D9"/>
<rect x="811" y="147.148" width="2" height="17" fill="#D9D9D9"/>
<rect x="787" y="58.1484" width="2" height="132" fill="#D9D9D9"/>
<rect x="814" y="124.148" width="2" height="64" fill="#D9D9D9"/>
<rect x="817" y="88.1484" width="2" height="100" fill="#D9D9D9"/>
<rect x="823" y="91.1484" width="2" height="122" fill="#D9D9D9"/>
<rect x="826" y="72.1484" width="2" height="100" fill="#D9D9D9"/>
<rect x="829" y="58.1484" width="2" height="122" fill="#D9D9D9"/>
<rect x="832" y="58.1484" width="2" height="112" fill="#D9D9D9"/>
<rect x="838" y="124.148" width="2" height="83" fill="#D9D9D9"/>
<rect x="835" y="98.1484" width="2" height="109" fill="#D9D9D9"/>
<rect x="841" y="126.148" width="2" height="85" fill="#D9D9D9"/>
<rect x="844" y="88.1484" width="2" height="76" fill="#D9D9D9"/>
<rect x="847" y="62.1484" width="2" height="102" fill="#D9D9D9"/>
<rect x="820" y="58.1484" width="2" height="132" fill="#D9D9D9"/>
<rect x="850" y="88.1484" width="2" height="100" fill="#D9D9D9"/>
<rect x="853" y="88.1484" width="2" height="100" fill="#D9D9D9"/>
<rect x="859" y="143.148" width="2" height="70" fill="#D9D9D9"/>
<rect x="862" y="152.148" width="2" height="20" fill="#D9D9D9"/>
<rect x="865" y="96.1484" width="2" height="84" fill="#D9D9D9"/>
<rect x="868" y="98.1484" width="2" height="72" fill="#D9D9D9"/>
<rect x="874" y="53.1484" width="2" height="154" fill="#D9D9D9"/>
<rect x="871" y="110.148" width="2" height="97" fill="#D9D9D9"/>
<rect x="877" y="58.1484" width="2" height="153" fill="#D9D9D9"/>
<rect x="880" y="115.148" width="2" height="49" fill="#D9D9D9"/>
<rect x="856" y="120.148" width="2" height="70" fill="#D9D9D9"/>
<rect x="883" y="88.1484" width="2" height="100" fill="#D9D9D9"/>
<rect x="886" y="88.1484" width="2" height="100" fill="#D9D9D9"/>
<rect x="892" y="112.148" width="2" height="101" fill="#D9D9D9"/>
<rect x="895" y="102.148" width="2" height="96" fill="#D9D9D9"/>
<rect x="898" y="102.148" width="2" height="92" fill="#D9D9D9"/>
<rect x="901" y="58.1484" width="2" height="153" fill="#D9D9D9"/>
<rect x="907" y="67.1484" width="2" height="140" fill="#D9D9D9"/>
<rect x="904" y="72.1484" width="2" height="135" fill="#D9D9D9"/>
<rect x="910" y="110.148" width="2" height="30" fill="#D9D9D9"/>
<rect x="913" y="110.148" width="2" height="45" fill="#D9D9D9"/>
<rect x="889.01" y="40" width="2" height="150.149" fill="#D9D9D9"/>
<rect x="916" y="122.148" width="2" height="46" fill="#D9D9D9"/>
<rect x="919" y="88.1484" width="2" height="100" fill="#D9D9D9"/>
<rect x="925" y="143.148" width="2" height="62" fill="#D9D9D9"/>
<rect x="928" y="102.148" width="2" height="70" fill="#D9D9D9"/>
<rect x="931" y="102.148" width="2" height="78" fill="#D9D9D9"/>
<rect x="934" y="58.1484" width="2" height="112" fill="#D9D9D9"/>
<rect x="940" y="134.148" width="2" height="73" fill="#D9D9D9"/>
<rect x="937" y="110.148" width="2" height="97" fill="#D9D9D9"/>
<rect x="943" y="130.148" width="2" height="81" fill="#D9D9D9"/>
<rect x="946" y="84.1484" width="2" height="80" fill="#D9D9D9"/>
<rect x="922" y="58.1484" width="2" height="132" fill="#D9D9D9"/>
<rect x="952" y="62.1484" width="2" height="126" fill="#D9D9D9"/>
<rect x="955" y="88.1484" width="2" height="100" fill="#D9D9D9"/>
<rect x="961" y="143.148" width="2" height="70" fill="#D9D9D9"/>
<rect x="964" y="102.148" width="2" height="70" fill="#D9D9D9"/>
<rect x="967" y="96.1484" width="2" height="84" fill="#D9D9D9"/>
<rect x="970" y="58.1484" width="2" height="112" fill="#D9D9D9"/>
<rect x="976" y="84.1484" width="2" height="123" fill="#D9D9D9"/>
<rect x="973" y="77.1484" width="2" height="130" fill="#D9D9D9"/>
<rect x="979" y="130.148" width="2" height="81" fill="#D9D9D9"/>
<rect x="982" y="122.148" width="2" height="42" fill="#D9D9D9"/>
<rect x="958" y="58.1484" width="2" height="132" fill="#D9D9D9"/>
<rect x="985" y="88.1484" width="2" height="100" fill="#D9D9D9"/>
<rect x="988" y="88.1484" width="2" height="100" fill="#D9D9D9"/>
<rect x="994" y="143.148" width="2" height="70" fill="#D9D9D9"/>
<rect x="997" y="102.148" width="2" height="70" fill="#D9D9D9"/>
<rect x="1000" y="102.148" width="2" height="78" fill="#D9D9D9"/>
<rect x="1003" y="58.1484" width="2" height="112" fill="#D9D9D9"/>
<rect x="1009" y="88.1484" width="2" height="119" fill="#D9D9D9"/>
<rect x="1006" y="53.1484" width="2" height="154" fill="#D9D9D9"/>
<rect x="1012" y="79.1484" width="2" height="55" fill="#D9D9D9"/>
<rect x="1015" y="84.1484" width="2" height="50" fill="#D9D9D9"/>
<rect x="991" y="58.1484" width="2" height="132" fill="#D9D9D9"/>
<rect x="1021" y="88.1484" width="2" height="100" fill="#D9D9D9"/>
<rect x="1024" y="88.1484" width="2" height="100" fill="#D9D9D9"/>
<rect x="1030" y="143.148" width="2" height="70" fill="#D9D9D9"/>
<rect x="1033" y="102.148" width="2" height="70" fill="#D9D9D9"/>
<rect x="1036" y="102.148" width="2" height="78" fill="#D9D9D9"/>
<rect x="1039" y="58.1484" width="2" height="112" fill="#D9D9D9"/>
<rect x="1045" y="110.148" width="2" height="97" fill="#D9D9D9"/>
<rect x="1042" y="110.148" width="2" height="97" fill="#D9D9D9"/>
<rect x="1048" y="130.148" width="2" height="81" fill="#D9D9D9"/>
<rect x="1051" y="122.148" width="2" height="42" fill="#D9D9D9"/>
<rect x="1027" y="58.1484" width="2" height="132" fill="#D9D9D9"/>
<rect x="1057" y="88.1484" width="2" height="100" fill="#D9D9D9"/>
<rect x="1060" y="88.1484" width="2" height="100" fill="#D9D9D9"/>
<rect x="1066" y="143.148" width="2" height="70" fill="#D9D9D9"/>
<rect x="1069" y="102.148" width="2" height="70" fill="#D9D9D9"/>
<rect x="1072" y="102.148" width="2" height="78" fill="#D9D9D9"/>
<rect x="1075" y="58.1484" width="2" height="112" fill="#D9D9D9"/>
<rect x="1081" y="110.148" width="2" height="97" fill="#D9D9D9"/>
<rect x="1078" y="110.148" width="2" height="97" fill="#D9D9D9"/>
<rect x="1084" y="130.148" width="2" height="81" fill="#D9D9D9"/>
<rect x="1087" y="122.148" width="2" height="42" fill="#D9D9D9"/>
<rect x="1063" y="58.1484" width="2" height="132" fill="#D9D9D9"/>
<rect x="1090" y="88.1484" width="2" height="100" fill="#D9D9D9"/>
<rect x="1093" y="88.1484" width="2" height="100" fill="#D9D9D9"/>
<rect x="1099" y="143.148" width="2" height="70" fill="#D9D9D9"/>
<rect x="1102" y="102.148" width="2" height="70" fill="#D9D9D9"/>
<rect x="1105" y="102.148" width="2" height="78" fill="#D9D9D9"/>
<rect x="1108" y="58.1484" width="2" height="112" fill="#D9D9D9"/>
<rect x="1114" y="110.148" width="2" height="97" fill="#D9D9D9"/>
<rect x="1111" y="110.148" width="2" height="97" fill="#D9D9D9"/>
<rect x="1117" y="130.148" width="2" height="81" fill="#D9D9D9"/>
<rect x="1120" y="122.148" width="2" height="42" fill="#D9D9D9"/>
<rect x="1096" y="58.1484" width="2" height="132" fill="#D9D9D9"/>
<defs>
<linearGradient id="paint0_linear_2_746" x1="628" y1="0" x2="628" y2="362" gradientUnits="userSpaceOnUse">
<stop stop-color="#7D6FF6" stop-opacity="0.16"/>
<stop offset="1" stop-color="#58E1D9" stop-opacity="0.16"/>
</linearGradient>
</defs>
</svg>
