<svg width="1256" height="362" viewBox="0 0 1256 362" fill="none" xmlns="http://www.w3.org/2000/svg">
<rect width="1256" height="362" rx="10" fill="url(#paint0_linear_1_5)"/>
<rect x="0.5" y="0.5" width="1255" height="361" rx="9.5" stroke="white" stroke-opacity="0.15"/>
<line x1="84.75" y1="117" x2="84.75" y2="281" stroke="white" stroke-opacity="0.75" stroke-width="1.5"/>
<line x1="1175" y1="281.75" x2="85" y2="281.75" stroke="white" stroke-opacity="0.75" stroke-width="1.5"/>
<path d="M1123.96 307.222V297.222H1120.52V295.349H1129.38V297.222H1125.92V307.222H1123.96ZM1131.75 297.038C1131.41 297.038 1131.12 296.921 1130.88 296.687C1130.63 296.442 1130.51 296.146 1130.51 295.801C1130.51 295.466 1130.63 295.182 1130.88 294.948C1131.12 294.703 1131.41 294.58 1131.75 294.58C1132.09 294.58 1132.38 294.703 1132.62 294.948C1132.85 295.182 1132.97 295.466 1132.97 295.801C1132.97 296.146 1132.85 296.442 1132.62 296.687C1132.38 296.921 1132.09 297.038 1131.75 297.038ZM1130.83 307.222V298.861H1132.67V307.222H1130.83ZM1145.79 307.222V302.523C1145.79 301.843 1145.66 301.314 1145.41 300.935C1145.16 300.556 1144.79 300.366 1144.3 300.366C1143.71 300.366 1143.24 300.595 1142.88 301.052C1142.52 301.509 1142.34 302.15 1142.31 302.975V307.222H1140.47V302.523C1140.47 301.843 1140.35 301.314 1140.09 300.935C1139.84 300.556 1139.48 300.366 1138.99 300.366C1138.37 300.366 1137.88 300.606 1137.51 301.085C1137.16 301.564 1136.98 302.239 1136.98 303.109V307.222H1135.14V298.861H1136.98V299.998C1137.49 299.129 1138.28 298.694 1139.35 298.694C1140.61 298.694 1141.48 299.246 1141.94 300.349C1142.18 299.825 1142.54 299.418 1143.02 299.129C1143.51 298.839 1144.04 298.694 1144.62 298.694C1145.56 298.694 1146.29 299.012 1146.83 299.647C1147.36 300.282 1147.63 301.141 1147.63 302.222V307.222H1145.79ZM1153.76 307.389C1152.49 307.389 1151.44 306.982 1150.62 306.169C1149.8 305.355 1149.4 304.313 1149.4 303.042C1149.4 301.804 1149.81 300.773 1150.64 299.948C1151.46 299.112 1152.5 298.694 1153.76 298.694C1154.92 298.694 1155.88 299.062 1156.64 299.798C1157.41 300.533 1157.79 301.548 1157.79 302.841C1157.79 303.064 1157.79 303.265 1157.78 303.443H1151.2C1151.25 304.123 1151.51 304.675 1151.99 305.098C1152.47 305.511 1153.07 305.717 1153.78 305.717C1154.85 305.717 1155.65 305.294 1156.17 304.446L1157.58 305.45C1156.77 306.743 1155.5 307.389 1153.76 307.389ZM1151.29 302.105H1155.94C1155.84 301.525 1155.57 301.074 1155.15 300.751C1154.74 300.416 1154.25 300.249 1153.7 300.249C1153.12 300.249 1152.6 300.411 1152.14 300.734C1151.69 301.057 1151.41 301.514 1151.29 302.105Z" fill="white" fill-opacity="0.5"/>
<path d="M105 187.243H109.44H112.77L117.58 196.279L122.76 187.243L126.83 196.279L130.9 187.243L134.969 191.259L139.779 182.224V187.243L150.139 170.678H156.059L157.169 173.188L160.869 161.642H166.049H170.119L174.129 180.232M174.559 182.224L174.129 180.232M174.129 180.232L180.479 191.259C181.095 187.076 182.329 179.312 182.329 181.722C182.329 184.131 184.795 192.431 186.028 196.279L189.728 200.797V207.323L192.688 200.797L195.648 207.323L199.348 200.797L202.308 207.323V211.841L207.118 220.375L208.968 224.39L211.188 220.375L217.108 207.323L219.328 218.367L220.808 211.841L225.248 208.327L227.468 203.307L230.428 210.335L233.758 204.311L241.157 205.817L244.857 208.327L247.447 204.311L248.557 199.793L250.037 196.279L252.997 191.259C253.121 189.419 253.515 185.838 254.107 186.239C254.847 186.741 257.437 193.769 257.437 194.271C257.437 194.673 258.424 190.423 258.917 188.247L262.247 186.239C263.727 186.239 266.761 186.239 267.057 186.239C267.353 186.239 271.127 184.231 272.977 183.227L275.567 181.722L277.417 180.232H278.897C279.39 180.896 280.451 182.424 280.747 183.227C281.117 184.231 282.967 186.239 282.967 187.243C282.967 188.047 284.693 190.925 285.557 192.263C286.05 193.267 287.111 195.074 287.407 194.271C287.703 193.468 290.736 191.259 292.216 190.255L294.806 188.247C295.3 187.578 296.36 186.039 296.656 185.235C296.952 184.432 297.52 182.893 297.766 182.224L299.616 183.227L302.946 188.247C303.07 189.251 303.464 191.059 304.056 190.255C304.796 189.251 305.906 186.239 306.646 187.243C307.386 188.247 309.606 194.271 311.086 192.263C312.566 190.255 314.046 186.239 315.156 187.243C316.266 188.247 316.636 192.263 318.116 190.255C319.3 188.649 322.063 185.57 323.296 184.231L327.736 188.247C328.352 188.582 329.808 189.452 330.696 190.255C331.806 191.259 333.286 193.267 334.026 193.769C334.766 194.271 337.726 197.283 338.096 198.287C338.392 199.09 339.452 201.968 339.946 203.307C339.452 205.148 338.836 208.026 340.316 204.813C342.165 200.797 341.796 195.275 343.645 199.291C345.495 203.307 346.235 207.825 347.345 207.825C348.455 207.825 350.675 205.817 351.045 206.821C351.415 207.825 352.525 210.837 353.265 210.837C354.005 210.837 358.445 208.829 358.815 210.837C359.185 212.845 361.035 214.853 361.775 216.359C362.515 217.865 362.885 224.39 363.995 220.375C365.105 216.359 367.325 212.845 368.435 211.841C369.323 211.038 371.765 208.829 372.875 207.825L376.945 209.833C377.315 211.171 378.351 213.246 379.535 210.837C381.015 207.825 382.125 201.801 382.495 204.813C382.865 207.825 383.235 211.841 384.715 210.837C385.899 210.034 388.168 206.486 389.155 204.813C389.155 205.315 389.303 205.717 389.895 203.307C390.635 200.295 391.745 197.283 392.115 196.279C392.411 195.476 393.718 191.929 394.335 190.255C395.198 188.582 397.072 185.035 397.664 184.231C398.256 183.428 399.884 182.558 400.624 182.224C400.994 182.553 401.956 182.913 402.844 181.722C403.732 180.53 405.434 176.874 406.174 175.196C407.038 175.53 408.912 176.2 409.504 176.2C410.244 176.2 414.314 177.204 414.684 176.2C414.98 175.396 416.534 171.849 417.274 170.176C416.904 169.507 416.386 168.369 417.274 169.172C418.384 170.176 419.864 173.188 420.234 172.184C420.53 171.381 423.071 166.829 424.304 164.654H428.744L430.964 170.176L432.444 175.196C433.924 177.538 436.884 182.424 436.884 183.227C436.884 184.231 439.104 187.243 439.104 188.749C439.104 190.255 441.324 193.267 441.324 194.773C441.324 196.279 442.434 197.283 443.174 198.287C443.914 199.291 445.764 199.291 446.134 200.797C446.504 202.303 448.723 206.319 449.093 207.825C449.463 209.331 450.943 216.861 451.683 213.849C452.423 210.837 452.793 202.303 453.533 206.821C454.273 211.339 458.713 225.394 459.453 221.379C460.193 217.363 463.523 207.825 463.523 208.829C463.523 209.632 465.25 215.187 466.113 217.865L473.513 207.825L476.103 200.797C477.213 202.136 479.581 204.612 480.173 203.809C480.765 203.006 483.133 198.454 484.243 196.279C484.489 193.602 485.057 188.047 485.353 187.243C485.649 186.44 486.463 183.227 486.833 181.722C487.079 183.227 487.869 185.838 489.053 184.231C490.237 182.625 493.493 175.53 494.973 172.184L497.563 167.164C498.549 168.503 500.596 171.682 500.892 173.69C501.188 175.698 502.496 177.873 503.112 178.71C504.469 178.04 507.256 176.4 507.552 175.196C507.848 173.991 509.156 171.347 509.772 170.176C510.759 170.343 512.806 170.979 513.102 172.184C513.472 173.69 514.582 177.204 515.322 176.2C515.914 175.396 519.022 171.849 520.502 170.176L522.722 167.164C522.722 169.005 522.796 172.786 523.092 173.188C523.462 173.69 524.572 179.714 524.942 180.718C525.312 181.722 526.052 184.231 526.422 185.235C526.792 186.239 526.792 190.255 527.532 190.255C528.124 190.255 533.452 184.901 536.042 182.224C535.795 183.897 535.302 187.545 535.302 188.749C535.302 189.954 536.288 195.61 536.782 198.287C537.398 198.622 538.78 199.09 539.372 198.287C539.964 197.484 542.825 193.602 544.182 191.761L546.402 198.287L546.032 202.303C546.772 203.307 548.326 205.516 548.622 206.319C548.918 207.122 550.718 208.996 551.582 209.833C552.322 210.335 553.875 211.54 554.171 212.343C554.467 213.146 555.281 215.355 555.651 216.359L557.501 219.873L560.461 225.896C561.695 225.227 564.235 223.587 564.531 222.383C564.827 221.178 565.148 216.861 565.271 214.853C566.011 213.012 567.491 209.23 567.491 208.829C567.491 208.427 568.478 205.315 568.971 203.809L570.081 198.287C570.328 197.952 570.895 197.484 571.191 198.287C571.487 199.09 573.534 203.307 574.521 205.315C574.891 206.821 575.779 209.632 576.371 208.829C577.111 207.825 577.851 202.303 578.591 205.315C579.183 207.724 581.058 212.008 581.921 213.849C582.538 215.02 583.771 217.664 583.771 218.869C583.771 220.375 583.401 226.9 584.881 223.888C586.065 221.479 587.841 215.187 588.581 212.343C589.074 211.841 590.061 210.636 590.061 209.833C590.061 208.829 590.061 205.817 590.431 204.813C590.801 203.809 591.911 199.291 592.281 198.287C592.651 197.283 594.131 196.279 594.871 194.773C595.611 193.267 597.091 190.255 597.461 190.255C597.757 190.255 601.037 189.251 602.641 188.749L604.861 187.243L608.19 185.737L612.26 188.749C612.877 187.411 614.184 184.533 614.48 183.729C614.776 182.926 615.097 181.052 615.22 180.216C615.96 179.212 617.44 177.103 617.44 176.702C617.44 176.3 618.92 173.857 619.66 172.686C620.03 171.347 620.844 168.469 621.14 167.666C621.436 166.863 623.237 162.981 624.1 161.14C625.087 162.646 627.134 165.758 627.43 166.16C627.8 166.662 629.28 169.674 630.02 168.67C630.76 167.666 632.24 164.654 632.24 166.16C632.24 167.666 633.35 171.682 633.72 172.686C634.016 173.489 635.817 176.702 636.68 178.208L641.12 171.682C641.49 173.188 642.304 176.601 642.6 178.208C642.97 180.216 645.56 182.224 646.3 184.733C646.892 186.741 648.273 189.251 648.89 190.255L652.59 183.729C653.206 183.897 654.514 184.533 654.81 185.737C655.18 187.243 655.92 189.753 656.29 187.243C656.586 185.235 657.4 181.722 657.769 180.216L659.989 178.208L661.839 171.682C662.579 172.184 666.649 166.16 664.059 174.192C664.059 174.995 666.526 166.495 667.759 162.144C668.253 162.479 669.313 164.252 669.609 168.67C669.905 173.087 671.213 180.55 671.829 183.729C671.953 184.399 672.347 186.039 672.939 187.243C673.531 188.448 675.406 187.745 676.269 187.243C676.269 186.741 676.417 186.641 677.009 190.255C677.749 194.773 679.229 197.785 679.969 200.797C680.561 203.207 681.449 206.152 681.819 207.323C682.559 206.821 684.113 205.616 684.409 204.813C684.779 203.809 686.259 199.793 686.999 197.283C687.591 195.275 688.726 189.753 689.219 187.243L692.179 185.737C693.535 185.235 696.249 184.834 696.249 187.243C696.249 190.255 695.879 192.765 696.619 194.271C697.359 195.777 698.839 198.789 699.579 200.797C700.171 202.403 701.305 204.144 701.799 204.813C701.799 206.319 702.095 208.226 703.279 203.809C704.463 199.391 705.499 195.61 705.869 194.271L707.719 188.749C707.965 188.917 708.607 189.452 709.199 190.255C709.791 191.059 710.678 190.59 711.048 190.255C711.418 189.753 712.232 188.448 712.528 187.243C712.898 185.737 713.268 182.224 713.268 180.216C713.268 178.208 713.638 175.698 714.008 174.192C714.304 172.987 715.365 170.008 715.858 168.67L716.968 167.666C717.708 166.662 719.262 164.554 719.558 164.152C719.928 163.65 720.668 162.144 721.408 160.136C722 158.53 722.888 156.455 723.258 155.618C723.998 155.618 726.218 155.116 726.958 157.626C727.698 160.136 729.178 163.148 730.288 164.152C731.176 164.955 733.125 166.829 733.988 167.666C734.851 168.001 736.578 168.971 736.578 170.176C736.578 171.682 740.648 155.618 741.388 155.618C742.128 155.618 747.678 163.148 748.048 164.152C748.418 165.156 749.898 172.184 750.638 171.18C751.378 170.176 755.078 162.646 755.448 164.152C755.744 165.357 757.298 168.67 758.038 170.176C759.271 169.172 761.812 167.465 762.108 168.67C762.478 170.176 763.587 178.207 764.697 174.192C765.585 170.979 768.274 162.479 769.507 158.63L775.427 168.67C775.921 170.845 777.277 174.694 778.757 172.686C780.607 170.176 781.717 159.132 782.827 162.646C783.937 166.16 785.047 173.69 786.157 170.176C787.267 166.662 789.857 159.132 790.227 161.642C790.597 164.152 793.927 168.168 795.037 166.662C796.147 165.156 799.107 159.132 799.477 161.642C799.773 163.65 802.067 168.168 803.177 170.176C803.917 170.511 805.545 171.481 806.137 172.686C806.729 173.891 809.343 177.538 810.577 179.212C810.083 182.391 809.541 187.444 811.317 182.224C813.093 177.003 816.496 172.017 817.976 170.176C819.086 168.335 821.232 165.056 820.936 166.662C820.566 168.67 822.046 174.192 823.156 174.192C824.266 174.192 828.336 169.172 828.706 172.686C829.076 176.2 831.666 180.718 832.406 183.228C833.146 185.737 837.216 191.259 837.956 194.271C838.548 196.681 840.916 200.295 842.026 201.801C843.999 196.949 848.02 186.942 848.316 185.738C848.612 184.533 850.906 180.885 852.016 179.212C852.879 178.208 854.606 176.601 854.606 178.208C854.606 179.814 857.566 187.244 859.046 190.758C860.032 192.431 862.302 195.476 863.486 194.271C864.966 192.765 868.665 184.232 869.035 185.738C869.405 187.244 870.145 198.287 871.255 190.758C872.143 184.734 874.339 176.2 875.325 172.686C876.682 173.021 879.469 173.991 879.765 175.196C880.135 176.702 880.505 182.224 881.245 178.208C881.985 174.192 882.355 166.16 883.465 172.686C884.575 179.212 884.575 182.224 885.685 182.224C886.795 182.224 891.605 182.224 892.345 182.224C893.085 182.224 895.305 181.22 896.415 178.208C897.303 175.798 898.018 173.523 898.265 172.686C898.018 170.845 897.895 168.268 899.375 172.686C901.225 178.208 900.115 180.216 902.705 179.212C905.295 178.208 910.475 177.706 910.845 175.196C911.141 173.188 911.708 171.013 911.955 170.176L916.025 178.208C916.518 179.546 917.505 182.425 917.505 183.228C917.505 184.232 919.725 188.75 920.465 190.758C921.204 192.765 923.794 194.773 924.904 193.267C926.014 191.761 927.864 182.726 929.344 184.232C930.824 185.738 934.524 192.765 935.264 191.761C936.004 190.758 936.004 203.307 936.744 201.299C937.484 199.291 940.074 192.765 940.814 194.271C941.554 195.777 943.774 195.777 945.254 201.299C946.734 206.821 952.654 213.849 953.394 215.857C953.986 217.463 955.614 222.55 956.354 224.893L962.274 217.865C962.89 215.522 964.124 211.54 964.124 214.351C964.124 217.865 964.494 220.877 965.974 223.387C967.454 225.897 969.304 227.403 969.674 229.411C969.97 231.017 971.277 236.438 971.894 238.948C972.017 241.793 972.634 246.177 974.113 240.956C975.593 235.736 977.69 231.084 978.553 229.411C978.8 231.251 979.367 235.033 979.663 235.434C980.033 235.936 981.513 236.94 982.253 237.442C982.993 237.944 986.323 237.944 987.063 240.956C987.803 243.968 988.543 244.47 989.283 246.98C989.875 248.988 991.01 251.163 991.503 252C992.243 252 993.871 252 994.463 252C995.203 252 997.793 244.972 998.163 242.964C998.533 240.956 1000.01 236.438 1000.75 234.43C1001.34 232.824 1002.48 229.411 1002.97 227.905C1003.71 228.741 1005.34 229.712 1005.93 226.901C1006.67 223.387 1007.41 215.857 1008.89 212.845C1010.37 209.833 1012.96 204.311 1012.96 201.299C1012.96 198.287 1012.96 188.75 1012.96 188.248C1012.96 187.846 1013.46 185.403 1013.7 184.232L1018.14 182.224L1020.36 177.706C1021.23 177.037 1022.95 175.899 1022.95 176.702C1022.95 177.706 1023.69 179.714 1024.8 177.706C1025.91 175.698 1027.76 171.18 1027.76 169.674C1027.76 168.168 1025.54 166.16 1027.76 165.156C1029.54 164.353 1033.44 162.479 1035.16 161.642C1034.67 161.642 1033.98 162.345 1035.16 165.156C1036.64 168.67 1037.75 173.69 1038.12 175.698C1038.49 177.706 1039.97 181.722 1040.34 184.232C1040.71 186.742 1043.3 191.761 1043.3 192.765C1043.3 193.769 1043.67 194.271 1045.15 197.785C1046.63 201.299 1048.48 203.809 1048.85 204.813C1049.22 205.817 1050.7 207.825 1051.44 208.829C1052.03 209.632 1054.9 210.837 1056.25 211.339C1056.75 211.841 1057.95 212.544 1058.84 211.339C1059.73 210.134 1061.43 207.156 1062.17 205.817C1062.54 205.984 1063.43 205.817 1064.02 203.809C1064.76 201.299 1065.13 194.773 1065.5 194.271C1065.8 193.87 1066.61 192.096 1066.98 191.259H1068.83C1069.45 191.427 1070.68 191.259 1070.68 189.252C1070.68 186.742 1071.05 183.228 1071.42 182.224C1071.72 181.421 1072.78 176.535 1073.27 174.192C1073.39 173.355 1073.72 171.28 1074.01 169.674C1074.38 167.666 1075.49 164.654 1075.86 163.148C1076.16 161.943 1077.46 158.965 1078.08 157.626C1078.82 155.786 1080.3 151.904 1080.3 151.1C1080.3 150.097 1081.04 145.579 1081.41 143.069C1081.71 141.061 1082.52 131.858 1082.89 127.507L1085.11 120.981L1086.96 114.957L1088.07 112.447C1088.32 112.447 1088.96 112.447 1089.55 112.447C1090.29 112.447 1092.88 114.957 1093.25 114.957C1093.55 114.957 1095.1 112.615 1095.84 111.443C1096.09 111.109 1096.66 110.64 1096.95 111.443C1097.32 112.447 1098.06 114.957 1099.17 117.969C1100.28 120.981 1102.87 126.503 1103.24 129.013C1103.61 131.523 1103.24 132.025 1104.35 136.543C1105.46 141.06 1106.2 140.558 1107.31 147.586C1108.2 153.209 1109.65 158.295 1110.27 160.136L1115.45 157.626C1116.44 156.622 1118.48 154.413 1118.78 153.61C1119.15 152.606 1118.41 146.582 1119.89 150.096C1121.37 153.61 1122.85 156.622 1123.59 159.132C1124.33 161.642 1125.81 168.168 1126.55 168.168C1127.29 168.168 1132.1 171.682 1133.21 168.168C1134.32 164.654 1132.84 158.129 1134.69 163.148C1136.54 168.168 1138.39 173.689 1139.5 171.682C1140.61 169.674 1142.46 167.163 1143.2 165.156C1143.79 163.55 1144.93 156.12 1145.42 152.606C1146.28 151.602 1148.23 149.393 1149.12 148.59C1150.23 147.586 1155.04 141.563 1155.41 143.069C1155.71 144.273 1157.26 146.582 1158 147.586" stroke="white"/>
<path d="M28.826 274H27.098L33.056 262.732H26.522V261.22H34.91V262.516L28.826 274ZM36.7099 273.748C36.4579 274.012 36.1459 274.144 35.7739 274.144C35.4019 274.144 35.0839 274.012 34.8199 273.748C34.5679 273.484 34.4419 273.166 34.4419 272.794C34.4419 272.434 34.5739 272.122 34.8379 271.858C35.1019 271.582 35.4139 271.444 35.7739 271.444C36.1339 271.444 36.4459 271.582 36.7099 271.858C36.9739 272.122 37.1059 272.434 37.1059 272.794C37.1059 273.166 36.9739 273.484 36.7099 273.748ZM42.973 274.18C41.821 274.18 40.825 273.82 39.985 273.1C39.145 272.38 38.713 271.528 38.689 270.544H40.273C40.417 271.168 40.735 271.678 41.227 272.074C41.719 272.47 42.301 272.668 42.973 272.668C43.753 272.668 44.407 272.404 44.935 271.876C45.463 271.348 45.727 270.7 45.727 269.932C45.727 269.152 45.475 268.498 44.971 267.97C44.467 267.442 43.825 267.178 43.045 267.178C41.977 267.178 41.173 267.61 40.633 268.474L39.157 268.042L40.471 261.22H46.447V262.732H41.713L41.011 266.386C41.635 265.942 42.379 265.72 43.243 265.72C44.431 265.72 45.403 266.14 46.159 266.98C46.927 267.808 47.311 268.858 47.311 270.13C47.311 271.258 46.897 272.218 46.069 273.01C45.241 273.79 44.209 274.18 42.973 274.18ZM53.6234 274.18C52.2914 274.18 51.2054 273.736 50.3654 272.848C49.5254 271.948 49.1054 270.79 49.1054 269.374V265.81C49.1054 264.394 49.5254 263.242 50.3654 262.354C51.2174 261.454 52.3034 261.004 53.6234 261.004C54.9434 261.004 56.0294 261.454 56.8814 262.354C57.7334 263.254 58.1594 264.406 58.1594 265.81V269.374C58.1594 270.79 57.7334 271.948 56.8814 272.848C56.0294 273.736 54.9434 274.18 53.6234 274.18ZM53.6234 272.668C54.5114 272.668 55.2314 272.374 55.7834 271.786C56.3354 271.198 56.6114 270.394 56.6114 269.374V265.81C56.6114 264.79 56.3354 263.986 55.7834 263.398C55.2314 262.81 54.5114 262.516 53.6234 262.516C52.7474 262.516 52.0334 262.81 51.4814 263.398C50.9294 263.986 50.6534 264.79 50.6534 265.81V269.374C50.6534 270.394 50.9294 271.198 51.4814 271.786C52.0334 272.374 52.7474 272.668 53.6234 272.668Z" fill="white"/>
<path d="M112.162 315.506V317H103.882V316.388C103.882 315.944 103.948 315.524 104.08 315.128C104.224 314.72 104.38 314.378 104.548 314.102C104.716 313.826 104.98 313.52 105.34 313.184C105.7 312.836 105.982 312.584 106.186 312.428C106.39 312.26 106.732 312.008 107.212 311.672C107.692 311.324 108.01 311.096 108.166 310.988C109.018 310.364 109.606 309.842 109.93 309.422C110.266 308.99 110.434 308.426 110.434 307.73C110.434 307.058 110.218 306.524 109.786 306.128C109.354 305.72 108.79 305.516 108.094 305.516C107.362 305.516 106.738 305.738 106.222 306.182C105.706 306.626 105.448 307.244 105.448 308.036H103.864C103.864 306.836 104.26 305.864 105.052 305.12C105.856 304.376 106.864 304.004 108.076 304.004C109.204 304.004 110.14 304.328 110.884 304.976C111.64 305.624 112.018 306.548 112.018 307.748C112.018 308.66 111.796 309.44 111.352 310.088C110.908 310.724 110.146 311.432 109.066 312.212C108.862 312.356 108.574 312.56 108.202 312.824C107.83 313.076 107.542 313.28 107.338 313.436C107.134 313.592 106.906 313.784 106.654 314.012C106.414 314.228 106.222 314.462 106.078 314.714C105.946 314.954 105.85 315.218 105.79 315.506H112.162ZM118.635 317.18C117.303 317.18 116.217 316.736 115.377 315.848C114.537 314.948 114.117 313.79 114.117 312.374V308.81C114.117 307.394 114.537 306.242 115.377 305.354C116.229 304.454 117.315 304.004 118.635 304.004C119.955 304.004 121.041 304.454 121.893 305.354C122.745 306.254 123.171 307.406 123.171 308.81V312.374C123.171 313.79 122.745 314.948 121.893 315.848C121.041 316.736 119.955 317.18 118.635 317.18ZM118.635 315.668C119.523 315.668 120.243 315.374 120.795 314.786C121.347 314.198 121.623 313.394 121.623 312.374V308.81C121.623 307.79 121.347 306.986 120.795 306.398C120.243 305.81 119.523 305.516 118.635 305.516C117.759 305.516 117.045 305.81 116.493 306.398C115.941 306.986 115.665 307.79 115.665 308.81V312.374C115.665 313.394 115.941 314.198 116.493 314.786C117.045 315.374 117.759 315.668 118.635 315.668ZM133.414 315.506V317H125.134V316.388C125.134 315.944 125.2 315.524 125.332 315.128C125.476 314.72 125.632 314.378 125.8 314.102C125.968 313.826 126.232 313.52 126.592 313.184C126.952 312.836 127.234 312.584 127.438 312.428C127.642 312.26 127.984 312.008 128.464 311.672C128.944 311.324 129.262 311.096 129.418 310.988C130.27 310.364 130.858 309.842 131.182 309.422C131.518 308.99 131.686 308.426 131.686 307.73C131.686 307.058 131.47 306.524 131.038 306.128C130.606 305.72 130.042 305.516 129.346 305.516C128.614 305.516 127.99 305.738 127.474 306.182C126.958 306.626 126.7 307.244 126.7 308.036H125.116C125.116 306.836 125.512 305.864 126.304 305.12C127.108 304.376 128.116 304.004 129.328 304.004C130.456 304.004 131.392 304.328 132.136 304.976C132.892 305.624 133.27 306.548 133.27 307.748C133.27 308.66 133.048 309.44 132.604 310.088C132.16 310.724 131.398 311.432 130.318 312.212C130.114 312.356 129.826 312.56 129.454 312.824C129.082 313.076 128.794 313.28 128.59 313.436C128.386 313.592 128.158 313.784 127.906 314.012C127.666 314.228 127.474 314.462 127.33 314.714C127.198 314.954 127.102 315.218 127.042 315.506H133.414ZM139.887 317.18C138.555 317.18 137.469 316.736 136.629 315.848C135.789 314.948 135.369 313.79 135.369 312.374V308.81C135.369 307.394 135.789 306.242 136.629 305.354C137.481 304.454 138.567 304.004 139.887 304.004C141.207 304.004 142.293 304.454 143.145 305.354C143.997 306.254 144.423 307.406 144.423 308.81V312.374C144.423 313.79 143.997 314.948 143.145 315.848C142.293 316.736 141.207 317.18 139.887 317.18ZM139.887 315.668C140.775 315.668 141.495 315.374 142.047 314.786C142.599 314.198 142.875 313.394 142.875 312.374V308.81C142.875 307.79 142.599 306.986 142.047 306.398C141.495 305.81 140.775 305.516 139.887 305.516C139.011 305.516 138.297 305.81 137.745 306.398C137.193 306.986 136.917 307.79 136.917 308.81V312.374C136.917 313.394 137.193 314.198 137.745 314.786C138.297 315.374 139.011 315.668 139.887 315.668ZM146.674 312.734V311.186H151.264V312.734H146.674ZM158.045 317.18C156.713 317.18 155.627 316.736 154.787 315.848C153.947 314.948 153.527 313.79 153.527 312.374V308.81C153.527 307.394 153.947 306.242 154.787 305.354C155.639 304.454 156.725 304.004 158.045 304.004C159.365 304.004 160.451 304.454 161.303 305.354C162.155 306.254 162.581 307.406 162.581 308.81V312.374C162.581 313.79 162.155 314.948 161.303 315.848C160.451 316.736 159.365 317.18 158.045 317.18ZM158.045 315.668C158.933 315.668 159.653 315.374 160.205 314.786C160.757 314.198 161.033 313.394 161.033 312.374V308.81C161.033 307.79 160.757 306.986 160.205 306.398C159.653 305.81 158.933 305.516 158.045 305.516C157.169 305.516 156.455 305.81 155.903 306.398C155.351 306.986 155.075 307.79 155.075 308.81V312.374C155.075 313.394 155.351 314.198 155.903 314.786C156.455 315.374 157.169 315.668 158.045 315.668ZM164.994 317L168.936 312.356C168.804 312.368 168.636 312.374 168.432 312.374C167.364 312.374 166.428 311.966 165.624 311.15C164.832 310.334 164.436 309.374 164.436 308.27C164.436 307.07 164.844 306.062 165.66 305.246C166.488 304.418 167.52 304.004 168.756 304.004C169.992 304.004 171.024 304.412 171.852 305.228C172.68 306.044 173.094 307.04 173.094 308.216C173.094 308.84 172.968 309.404 172.716 309.908C172.476 310.4 172.122 310.922 171.654 311.474L166.974 317H164.994ZM166.794 310.214C167.322 310.742 167.976 311.006 168.756 311.006C169.536 311.006 170.19 310.742 170.718 310.214C171.246 309.674 171.51 309.02 171.51 308.252C171.51 307.484 171.246 306.836 170.718 306.308C170.19 305.768 169.536 305.498 168.756 305.498C167.976 305.498 167.322 305.768 166.794 306.308C166.278 306.836 166.02 307.484 166.02 308.252C166.02 309.02 166.278 309.674 166.794 310.214Z" fill="white"/>
<path d="M214.162 315.506V317H205.882V316.388C205.882 315.944 205.948 315.524 206.08 315.128C206.224 314.72 206.38 314.378 206.548 314.102C206.716 313.826 206.98 313.52 207.34 313.184C207.7 312.836 207.982 312.584 208.186 312.428C208.39 312.26 208.732 312.008 209.212 311.672C209.692 311.324 210.01 311.096 210.166 310.988C211.018 310.364 211.606 309.842 211.93 309.422C212.266 308.99 212.434 308.426 212.434 307.73C212.434 307.058 212.218 306.524 211.786 306.128C211.354 305.72 210.79 305.516 210.094 305.516C209.362 305.516 208.738 305.738 208.222 306.182C207.706 306.626 207.448 307.244 207.448 308.036H205.864C205.864 306.836 206.26 305.864 207.052 305.12C207.856 304.376 208.864 304.004 210.076 304.004C211.204 304.004 212.14 304.328 212.884 304.976C213.64 305.624 214.018 306.548 214.018 307.748C214.018 308.66 213.796 309.44 213.352 310.088C212.908 310.724 212.146 311.432 211.066 312.212C210.862 312.356 210.574 312.56 210.202 312.824C209.83 313.076 209.542 313.28 209.338 313.436C209.134 313.592 208.906 313.784 208.654 314.012C208.414 314.228 208.222 314.462 208.078 314.714C207.946 314.954 207.85 315.218 207.79 315.506H214.162ZM220.635 317.18C219.303 317.18 218.217 316.736 217.377 315.848C216.537 314.948 216.117 313.79 216.117 312.374V308.81C216.117 307.394 216.537 306.242 217.377 305.354C218.229 304.454 219.315 304.004 220.635 304.004C221.955 304.004 223.041 304.454 223.893 305.354C224.745 306.254 225.171 307.406 225.171 308.81V312.374C225.171 313.79 224.745 314.948 223.893 315.848C223.041 316.736 221.955 317.18 220.635 317.18ZM220.635 315.668C221.523 315.668 222.243 315.374 222.795 314.786C223.347 314.198 223.623 313.394 223.623 312.374V308.81C223.623 307.79 223.347 306.986 222.795 306.398C222.243 305.81 221.523 305.516 220.635 305.516C219.759 305.516 219.045 305.81 218.493 306.398C217.941 306.986 217.665 307.79 217.665 308.81V312.374C217.665 313.394 217.941 314.198 218.493 314.786C219.045 315.374 219.759 315.668 220.635 315.668ZM235.414 315.506V317H227.134V316.388C227.134 315.944 227.2 315.524 227.332 315.128C227.476 314.72 227.632 314.378 227.8 314.102C227.968 313.826 228.232 313.52 228.592 313.184C228.952 312.836 229.234 312.584 229.438 312.428C229.642 312.26 229.984 312.008 230.464 311.672C230.944 311.324 231.262 311.096 231.418 310.988C232.27 310.364 232.858 309.842 233.182 309.422C233.518 308.99 233.686 308.426 233.686 307.73C233.686 307.058 233.47 306.524 233.038 306.128C232.606 305.72 232.042 305.516 231.346 305.516C230.614 305.516 229.99 305.738 229.474 306.182C228.958 306.626 228.7 307.244 228.7 308.036H227.116C227.116 306.836 227.512 305.864 228.304 305.12C229.108 304.376 230.116 304.004 231.328 304.004C232.456 304.004 233.392 304.328 234.136 304.976C234.892 305.624 235.27 306.548 235.27 307.748C235.27 308.66 235.048 309.44 234.604 310.088C234.16 310.724 233.398 311.432 232.318 312.212C232.114 312.356 231.826 312.56 231.454 312.824C231.082 313.076 230.794 313.28 230.59 313.436C230.386 313.592 230.158 313.784 229.906 314.012C229.666 314.228 229.474 314.462 229.33 314.714C229.198 314.954 229.102 315.218 229.042 315.506H235.414ZM238.899 317V305.75H236.433L237.693 304.22H240.447V317H238.899ZM243.313 312.734V311.186H247.903V312.734H243.313ZM254.684 317.18C253.352 317.18 252.266 316.736 251.426 315.848C250.586 314.948 250.166 313.79 250.166 312.374V308.81C250.166 307.394 250.586 306.242 251.426 305.354C252.278 304.454 253.364 304.004 254.684 304.004C256.004 304.004 257.09 304.454 257.942 305.354C258.794 306.254 259.22 307.406 259.22 308.81V312.374C259.22 313.79 258.794 314.948 257.942 315.848C257.09 316.736 256.004 317.18 254.684 317.18ZM254.684 315.668C255.572 315.668 256.292 315.374 256.844 314.786C257.396 314.198 257.672 313.394 257.672 312.374V308.81C257.672 307.79 257.396 306.986 256.844 306.398C256.292 305.81 255.572 305.516 254.684 305.516C253.808 305.516 253.094 305.81 252.542 306.398C251.99 306.986 251.714 307.79 251.714 308.81V312.374C251.714 313.394 251.99 314.198 252.542 314.786C253.094 315.374 253.808 315.668 254.684 315.668ZM262.911 317V305.75H260.445L261.705 304.22H264.459V317H262.911Z" fill="white"/>
<path d="M316.162 315.506V317H307.882V316.388C307.882 315.944 307.948 315.524 308.08 315.128C308.224 314.72 308.38 314.378 308.548 314.102C308.716 313.826 308.98 313.52 309.34 313.184C309.7 312.836 309.982 312.584 310.186 312.428C310.39 312.26 310.732 312.008 311.212 311.672C311.692 311.324 312.01 311.096 312.166 310.988C313.018 310.364 313.606 309.842 313.93 309.422C314.266 308.99 314.434 308.426 314.434 307.73C314.434 307.058 314.218 306.524 313.786 306.128C313.354 305.72 312.79 305.516 312.094 305.516C311.362 305.516 310.738 305.738 310.222 306.182C309.706 306.626 309.448 307.244 309.448 308.036H307.864C307.864 306.836 308.26 305.864 309.052 305.12C309.856 304.376 310.864 304.004 312.076 304.004C313.204 304.004 314.14 304.328 314.884 304.976C315.64 305.624 316.018 306.548 316.018 307.748C316.018 308.66 315.796 309.44 315.352 310.088C314.908 310.724 314.146 311.432 313.066 312.212C312.862 312.356 312.574 312.56 312.202 312.824C311.83 313.076 311.542 313.28 311.338 313.436C311.134 313.592 310.906 313.784 310.654 314.012C310.414 314.228 310.222 314.462 310.078 314.714C309.946 314.954 309.85 315.218 309.79 315.506H316.162ZM322.635 317.18C321.303 317.18 320.217 316.736 319.377 315.848C318.537 314.948 318.117 313.79 318.117 312.374V308.81C318.117 307.394 318.537 306.242 319.377 305.354C320.229 304.454 321.315 304.004 322.635 304.004C323.955 304.004 325.041 304.454 325.893 305.354C326.745 306.254 327.171 307.406 327.171 308.81V312.374C327.171 313.79 326.745 314.948 325.893 315.848C325.041 316.736 323.955 317.18 322.635 317.18ZM322.635 315.668C323.523 315.668 324.243 315.374 324.795 314.786C325.347 314.198 325.623 313.394 325.623 312.374V308.81C325.623 307.79 325.347 306.986 324.795 306.398C324.243 305.81 323.523 305.516 322.635 305.516C321.759 305.516 321.045 305.81 320.493 306.398C319.941 306.986 319.665 307.79 319.665 308.81V312.374C319.665 313.394 319.941 314.198 320.493 314.786C321.045 315.374 321.759 315.668 322.635 315.668ZM337.414 315.506V317H329.134V316.388C329.134 315.944 329.2 315.524 329.332 315.128C329.476 314.72 329.632 314.378 329.8 314.102C329.968 313.826 330.232 313.52 330.592 313.184C330.952 312.836 331.234 312.584 331.438 312.428C331.642 312.26 331.984 312.008 332.464 311.672C332.944 311.324 333.262 311.096 333.418 310.988C334.27 310.364 334.858 309.842 335.182 309.422C335.518 308.99 335.686 308.426 335.686 307.73C335.686 307.058 335.47 306.524 335.038 306.128C334.606 305.72 334.042 305.516 333.346 305.516C332.614 305.516 331.99 305.738 331.474 306.182C330.958 306.626 330.7 307.244 330.7 308.036H329.116C329.116 306.836 329.512 305.864 330.304 305.12C331.108 304.376 332.116 304.004 333.328 304.004C334.456 304.004 335.392 304.328 336.136 304.976C336.892 305.624 337.27 306.548 337.27 307.748C337.27 308.66 337.048 309.44 336.604 310.088C336.16 310.724 335.398 311.432 334.318 312.212C334.114 312.356 333.826 312.56 333.454 312.824C333.082 313.076 332.794 313.28 332.59 313.436C332.386 313.592 332.158 313.784 331.906 314.012C331.666 314.228 331.474 314.462 331.33 314.714C331.198 314.954 331.102 315.218 331.042 315.506H337.414ZM340.899 317V305.75H338.433L339.693 304.22H342.447V317H340.899ZM345.313 312.734V311.186H349.903V312.734H345.313ZM356.684 317.18C355.352 317.18 354.266 316.736 353.426 315.848C352.586 314.948 352.166 313.79 352.166 312.374V308.81C352.166 307.394 352.586 306.242 353.426 305.354C354.278 304.454 355.364 304.004 356.684 304.004C358.004 304.004 359.09 304.454 359.942 305.354C360.794 306.254 361.22 307.406 361.22 308.81V312.374C361.22 313.79 360.794 314.948 359.942 315.848C359.09 316.736 358.004 317.18 356.684 317.18ZM356.684 315.668C357.572 315.668 358.292 315.374 358.844 314.786C359.396 314.198 359.672 313.394 359.672 312.374V308.81C359.672 307.79 359.396 306.986 358.844 306.398C358.292 305.81 357.572 305.516 356.684 305.516C355.808 305.516 355.094 305.81 354.542 306.398C353.99 306.986 353.714 307.79 353.714 308.81V312.374C353.714 313.394 353.99 314.198 354.542 314.786C355.094 315.374 355.808 315.668 356.684 315.668ZM367.233 317.18C366.081 317.18 365.085 316.82 364.245 316.1C363.405 315.38 362.973 314.528 362.949 313.544H364.533C364.677 314.168 364.995 314.678 365.487 315.074C365.979 315.47 366.561 315.668 367.233 315.668C368.013 315.668 368.667 315.404 369.195 314.876C369.723 314.348 369.987 313.7 369.987 312.932C369.987 312.152 369.735 311.498 369.231 310.97C368.727 310.442 368.085 310.178 367.305 310.178C366.237 310.178 365.433 310.61 364.893 311.474L363.417 311.042L364.731 304.22H370.707V305.732H365.973L365.271 309.386C365.895 308.942 366.639 308.72 367.503 308.72C368.691 308.72 369.663 309.14 370.419 309.98C371.187 310.808 371.571 311.858 371.571 313.13C371.571 314.258 371.157 315.218 370.329 316.01C369.501 316.79 368.469 317.18 367.233 317.18Z" fill="white"/>
<path d="M418.162 315.506V317H409.882V316.388C409.882 315.944 409.948 315.524 410.08 315.128C410.224 314.72 410.38 314.378 410.548 314.102C410.716 313.826 410.98 313.52 411.34 313.184C411.7 312.836 411.982 312.584 412.186 312.428C412.39 312.26 412.732 312.008 413.212 311.672C413.692 311.324 414.01 311.096 414.166 310.988C415.018 310.364 415.606 309.842 415.93 309.422C416.266 308.99 416.434 308.426 416.434 307.73C416.434 307.058 416.218 306.524 415.786 306.128C415.354 305.72 414.79 305.516 414.094 305.516C413.362 305.516 412.738 305.738 412.222 306.182C411.706 306.626 411.448 307.244 411.448 308.036H409.864C409.864 306.836 410.26 305.864 411.052 305.12C411.856 304.376 412.864 304.004 414.076 304.004C415.204 304.004 416.14 304.328 416.884 304.976C417.64 305.624 418.018 306.548 418.018 307.748C418.018 308.66 417.796 309.44 417.352 310.088C416.908 310.724 416.146 311.432 415.066 312.212C414.862 312.356 414.574 312.56 414.202 312.824C413.83 313.076 413.542 313.28 413.338 313.436C413.134 313.592 412.906 313.784 412.654 314.012C412.414 314.228 412.222 314.462 412.078 314.714C411.946 314.954 411.85 315.218 411.79 315.506H418.162ZM424.635 317.18C423.303 317.18 422.217 316.736 421.377 315.848C420.537 314.948 420.117 313.79 420.117 312.374V308.81C420.117 307.394 420.537 306.242 421.377 305.354C422.229 304.454 423.315 304.004 424.635 304.004C425.955 304.004 427.041 304.454 427.893 305.354C428.745 306.254 429.171 307.406 429.171 308.81V312.374C429.171 313.79 428.745 314.948 427.893 315.848C427.041 316.736 425.955 317.18 424.635 317.18ZM424.635 315.668C425.523 315.668 426.243 315.374 426.795 314.786C427.347 314.198 427.623 313.394 427.623 312.374V308.81C427.623 307.79 427.347 306.986 426.795 306.398C426.243 305.81 425.523 305.516 424.635 305.516C423.759 305.516 423.045 305.81 422.493 306.398C421.941 306.986 421.665 307.79 421.665 308.81V312.374C421.665 313.394 421.941 314.198 422.493 314.786C423.045 315.374 423.759 315.668 424.635 315.668ZM439.414 315.506V317H431.134V316.388C431.134 315.944 431.2 315.524 431.332 315.128C431.476 314.72 431.632 314.378 431.8 314.102C431.968 313.826 432.232 313.52 432.592 313.184C432.952 312.836 433.234 312.584 433.438 312.428C433.642 312.26 433.984 312.008 434.464 311.672C434.944 311.324 435.262 311.096 435.418 310.988C436.27 310.364 436.858 309.842 437.182 309.422C437.518 308.99 437.686 308.426 437.686 307.73C437.686 307.058 437.47 306.524 437.038 306.128C436.606 305.72 436.042 305.516 435.346 305.516C434.614 305.516 433.99 305.738 433.474 306.182C432.958 306.626 432.7 307.244 432.7 308.036H431.116C431.116 306.836 431.512 305.864 432.304 305.12C433.108 304.376 434.116 304.004 435.328 304.004C436.456 304.004 437.392 304.328 438.136 304.976C438.892 305.624 439.27 306.548 439.27 307.748C439.27 308.66 439.048 309.44 438.604 310.088C438.16 310.724 437.398 311.432 436.318 312.212C436.114 312.356 435.826 312.56 435.454 312.824C435.082 313.076 434.794 313.28 434.59 313.436C434.386 313.592 434.158 313.784 433.906 314.012C433.666 314.228 433.474 314.462 433.33 314.714C433.198 314.954 433.102 315.218 433.042 315.506H439.414ZM442.899 317V305.75H440.433L441.693 304.22H444.447V317H442.899ZM447.313 312.734V311.186H451.903V312.734H447.313ZM458.684 317.18C457.352 317.18 456.266 316.736 455.426 315.848C454.586 314.948 454.166 313.79 454.166 312.374V308.81C454.166 307.394 454.586 306.242 455.426 305.354C456.278 304.454 457.364 304.004 458.684 304.004C460.004 304.004 461.09 304.454 461.942 305.354C462.794 306.254 463.22 307.406 463.22 308.81V312.374C463.22 313.79 462.794 314.948 461.942 315.848C461.09 316.736 460.004 317.18 458.684 317.18ZM458.684 315.668C459.572 315.668 460.292 315.374 460.844 314.786C461.396 314.198 461.672 313.394 461.672 312.374V308.81C461.672 307.79 461.396 306.986 460.844 306.398C460.292 305.81 459.572 305.516 458.684 305.516C457.808 305.516 457.094 305.81 456.542 306.398C455.99 306.986 455.714 307.79 455.714 308.81V312.374C455.714 313.394 455.99 314.198 456.542 314.786C457.094 315.374 457.808 315.668 458.684 315.668ZM465.633 317L469.575 312.356C469.443 312.368 469.275 312.374 469.071 312.374C468.003 312.374 467.067 311.966 466.263 311.15C465.471 310.334 465.075 309.374 465.075 308.27C465.075 307.07 465.483 306.062 466.299 305.246C467.127 304.418 468.159 304.004 469.395 304.004C470.631 304.004 471.663 304.412 472.491 305.228C473.319 306.044 473.733 307.04 473.733 308.216C473.733 308.84 473.607 309.404 473.355 309.908C473.115 310.4 472.761 310.922 472.293 311.474L467.613 317H465.633ZM467.433 310.214C467.961 310.742 468.615 311.006 469.395 311.006C470.175 311.006 470.829 310.742 471.357 310.214C471.885 309.674 472.149 309.02 472.149 308.252C472.149 307.484 471.885 306.836 471.357 306.308C470.829 305.768 470.175 305.498 469.395 305.498C468.615 305.498 467.961 305.768 467.433 306.308C466.917 306.836 466.659 307.484 466.659 308.252C466.659 309.02 466.917 309.674 467.433 310.214Z" fill="white"/>
<path d="M520.162 315.506V317H511.882V316.388C511.882 315.944 511.948 315.524 512.08 315.128C512.224 314.72 512.38 314.378 512.548 314.102C512.716 313.826 512.98 313.52 513.34 313.184C513.7 312.836 513.982 312.584 514.186 312.428C514.39 312.26 514.732 312.008 515.212 311.672C515.692 311.324 516.01 311.096 516.166 310.988C517.018 310.364 517.606 309.842 517.93 309.422C518.266 308.99 518.434 308.426 518.434 307.73C518.434 307.058 518.218 306.524 517.786 306.128C517.354 305.72 516.79 305.516 516.094 305.516C515.362 305.516 514.738 305.738 514.222 306.182C513.706 306.626 513.448 307.244 513.448 308.036H511.864C511.864 306.836 512.26 305.864 513.052 305.12C513.856 304.376 514.864 304.004 516.076 304.004C517.204 304.004 518.14 304.328 518.884 304.976C519.64 305.624 520.018 306.548 520.018 307.748C520.018 308.66 519.796 309.44 519.352 310.088C518.908 310.724 518.146 311.432 517.066 312.212C516.862 312.356 516.574 312.56 516.202 312.824C515.83 313.076 515.542 313.28 515.338 313.436C515.134 313.592 514.906 313.784 514.654 314.012C514.414 314.228 514.222 314.462 514.078 314.714C513.946 314.954 513.85 315.218 513.79 315.506H520.162ZM526.635 317.18C525.303 317.18 524.217 316.736 523.377 315.848C522.537 314.948 522.117 313.79 522.117 312.374V308.81C522.117 307.394 522.537 306.242 523.377 305.354C524.229 304.454 525.315 304.004 526.635 304.004C527.955 304.004 529.041 304.454 529.893 305.354C530.745 306.254 531.171 307.406 531.171 308.81V312.374C531.171 313.79 530.745 314.948 529.893 315.848C529.041 316.736 527.955 317.18 526.635 317.18ZM526.635 315.668C527.523 315.668 528.243 315.374 528.795 314.786C529.347 314.198 529.623 313.394 529.623 312.374V308.81C529.623 307.79 529.347 306.986 528.795 306.398C528.243 305.81 527.523 305.516 526.635 305.516C525.759 305.516 525.045 305.81 524.493 306.398C523.941 306.986 523.665 307.79 523.665 308.81V312.374C523.665 313.394 523.941 314.198 524.493 314.786C525.045 315.374 525.759 315.668 526.635 315.668ZM541.414 315.506V317H533.134V316.388C533.134 315.944 533.2 315.524 533.332 315.128C533.476 314.72 533.632 314.378 533.8 314.102C533.968 313.826 534.232 313.52 534.592 313.184C534.952 312.836 535.234 312.584 535.438 312.428C535.642 312.26 535.984 312.008 536.464 311.672C536.944 311.324 537.262 311.096 537.418 310.988C538.27 310.364 538.858 309.842 539.182 309.422C539.518 308.99 539.686 308.426 539.686 307.73C539.686 307.058 539.47 306.524 539.038 306.128C538.606 305.72 538.042 305.516 537.346 305.516C536.614 305.516 535.99 305.738 535.474 306.182C534.958 306.626 534.7 307.244 534.7 308.036H533.116C533.116 306.836 533.512 305.864 534.304 305.12C535.108 304.376 536.116 304.004 537.328 304.004C538.456 304.004 539.392 304.328 540.136 304.976C540.892 305.624 541.27 306.548 541.27 307.748C541.27 308.66 541.048 309.44 540.604 310.088C540.16 310.724 539.398 311.432 538.318 312.212C538.114 312.356 537.826 312.56 537.454 312.824C537.082 313.076 536.794 313.28 536.59 313.436C536.386 313.592 536.158 313.784 535.906 314.012C535.666 314.228 535.474 314.462 535.33 314.714C535.198 314.954 535.102 315.218 535.042 315.506H541.414ZM551.451 315.506V317H543.171V316.388C543.171 315.944 543.237 315.524 543.369 315.128C543.513 314.72 543.669 314.378 543.837 314.102C544.005 313.826 544.269 313.52 544.629 313.184C544.989 312.836 545.271 312.584 545.475 312.428C545.679 312.26 546.021 312.008 546.501 311.672C546.981 311.324 547.299 311.096 547.455 310.988C548.307 310.364 548.895 309.842 549.219 309.422C549.555 308.99 549.723 308.426 549.723 307.73C549.723 307.058 549.507 306.524 549.075 306.128C548.643 305.72 548.079 305.516 547.383 305.516C546.651 305.516 546.027 305.738 545.511 306.182C544.995 306.626 544.737 307.244 544.737 308.036H543.153C543.153 306.836 543.549 305.864 544.341 305.12C545.145 304.376 546.153 304.004 547.365 304.004C548.493 304.004 549.429 304.328 550.173 304.976C550.929 305.624 551.307 306.548 551.307 307.748C551.307 308.66 551.085 309.44 550.641 310.088C550.197 310.724 549.435 311.432 548.355 312.212C548.151 312.356 547.863 312.56 547.491 312.824C547.119 313.076 546.831 313.28 546.627 313.436C546.423 313.592 546.195 313.784 545.943 314.012C545.703 314.228 545.511 314.462 545.367 314.714C545.235 314.954 545.139 315.218 545.079 315.506H551.451ZM553.109 312.734V311.186H557.699V312.734H553.109ZM564.481 317.18C563.149 317.18 562.063 316.736 561.223 315.848C560.383 314.948 559.963 313.79 559.963 312.374V308.81C559.963 307.394 560.383 306.242 561.223 305.354C562.075 304.454 563.161 304.004 564.481 304.004C565.801 304.004 566.887 304.454 567.739 305.354C568.591 306.254 569.017 307.406 569.017 308.81V312.374C569.017 313.79 568.591 314.948 567.739 315.848C566.887 316.736 565.801 317.18 564.481 317.18ZM564.481 315.668C565.369 315.668 566.089 315.374 566.641 314.786C567.193 314.198 567.469 313.394 567.469 312.374V308.81C567.469 307.79 567.193 306.986 566.641 306.398C566.089 305.81 565.369 305.516 564.481 305.516C563.605 305.516 562.891 305.81 562.339 306.398C561.787 306.986 561.511 307.79 561.511 308.81V312.374C561.511 313.394 561.787 314.198 562.339 314.786C562.891 315.374 563.605 315.668 564.481 315.668ZM572.708 317V305.75H570.242L571.502 304.22H574.256V317H572.708Z" fill="white"/>
<path d="M622.162 315.506V317H613.882V316.388C613.882 315.944 613.948 315.524 614.08 315.128C614.224 314.72 614.38 314.378 614.548 314.102C614.716 313.826 614.98 313.52 615.34 313.184C615.7 312.836 615.982 312.584 616.186 312.428C616.39 312.26 616.732 312.008 617.212 311.672C617.692 311.324 618.01 311.096 618.166 310.988C619.018 310.364 619.606 309.842 619.93 309.422C620.266 308.99 620.434 308.426 620.434 307.73C620.434 307.058 620.218 306.524 619.786 306.128C619.354 305.72 618.79 305.516 618.094 305.516C617.362 305.516 616.738 305.738 616.222 306.182C615.706 306.626 615.448 307.244 615.448 308.036H613.864C613.864 306.836 614.26 305.864 615.052 305.12C615.856 304.376 616.864 304.004 618.076 304.004C619.204 304.004 620.14 304.328 620.884 304.976C621.64 305.624 622.018 306.548 622.018 307.748C622.018 308.66 621.796 309.44 621.352 310.088C620.908 310.724 620.146 311.432 619.066 312.212C618.862 312.356 618.574 312.56 618.202 312.824C617.83 313.076 617.542 313.28 617.338 313.436C617.134 313.592 616.906 313.784 616.654 314.012C616.414 314.228 616.222 314.462 616.078 314.714C615.946 314.954 615.85 315.218 615.79 315.506H622.162ZM628.635 317.18C627.303 317.18 626.217 316.736 625.377 315.848C624.537 314.948 624.117 313.79 624.117 312.374V308.81C624.117 307.394 624.537 306.242 625.377 305.354C626.229 304.454 627.315 304.004 628.635 304.004C629.955 304.004 631.041 304.454 631.893 305.354C632.745 306.254 633.171 307.406 633.171 308.81V312.374C633.171 313.79 632.745 314.948 631.893 315.848C631.041 316.736 629.955 317.18 628.635 317.18ZM628.635 315.668C629.523 315.668 630.243 315.374 630.795 314.786C631.347 314.198 631.623 313.394 631.623 312.374V308.81C631.623 307.79 631.347 306.986 630.795 306.398C630.243 305.81 629.523 305.516 628.635 305.516C627.759 305.516 627.045 305.81 626.493 306.398C625.941 306.986 625.665 307.79 625.665 308.81V312.374C625.665 313.394 625.941 314.198 626.493 314.786C627.045 315.374 627.759 315.668 628.635 315.668ZM643.414 315.506V317H635.134V316.388C635.134 315.944 635.2 315.524 635.332 315.128C635.476 314.72 635.632 314.378 635.8 314.102C635.968 313.826 636.232 313.52 636.592 313.184C636.952 312.836 637.234 312.584 637.438 312.428C637.642 312.26 637.984 312.008 638.464 311.672C638.944 311.324 639.262 311.096 639.418 310.988C640.27 310.364 640.858 309.842 641.182 309.422C641.518 308.99 641.686 308.426 641.686 307.73C641.686 307.058 641.47 306.524 641.038 306.128C640.606 305.72 640.042 305.516 639.346 305.516C638.614 305.516 637.99 305.738 637.474 306.182C636.958 306.626 636.7 307.244 636.7 308.036H635.116C635.116 306.836 635.512 305.864 636.304 305.12C637.108 304.376 638.116 304.004 639.328 304.004C640.456 304.004 641.392 304.328 642.136 304.976C642.892 305.624 643.27 306.548 643.27 307.748C643.27 308.66 643.048 309.44 642.604 310.088C642.16 310.724 641.398 311.432 640.318 312.212C640.114 312.356 639.826 312.56 639.454 312.824C639.082 313.076 638.794 313.28 638.59 313.436C638.386 313.592 638.158 313.784 637.906 314.012C637.666 314.228 637.474 314.462 637.33 314.714C637.198 314.954 637.102 315.218 637.042 315.506H643.414ZM653.451 315.506V317H645.171V316.388C645.171 315.944 645.237 315.524 645.369 315.128C645.513 314.72 645.669 314.378 645.837 314.102C646.005 313.826 646.269 313.52 646.629 313.184C646.989 312.836 647.271 312.584 647.475 312.428C647.679 312.26 648.021 312.008 648.501 311.672C648.981 311.324 649.299 311.096 649.455 310.988C650.307 310.364 650.895 309.842 651.219 309.422C651.555 308.99 651.723 308.426 651.723 307.73C651.723 307.058 651.507 306.524 651.075 306.128C650.643 305.72 650.079 305.516 649.383 305.516C648.651 305.516 648.027 305.738 647.511 306.182C646.995 306.626 646.737 307.244 646.737 308.036H645.153C645.153 306.836 645.549 305.864 646.341 305.12C647.145 304.376 648.153 304.004 649.365 304.004C650.493 304.004 651.429 304.328 652.173 304.976C652.929 305.624 653.307 306.548 653.307 307.748C653.307 308.66 653.085 309.44 652.641 310.088C652.197 310.724 651.435 311.432 650.355 312.212C650.151 312.356 649.863 312.56 649.491 312.824C649.119 313.076 648.831 313.28 648.627 313.436C648.423 313.592 648.195 313.784 647.943 314.012C647.703 314.228 647.511 314.462 647.367 314.714C647.235 314.954 647.139 315.218 647.079 315.506H653.451ZM655.109 312.734V311.186H659.699V312.734H655.109ZM666.481 317.18C665.149 317.18 664.063 316.736 663.223 315.848C662.383 314.948 661.963 313.79 661.963 312.374V308.81C661.963 307.394 662.383 306.242 663.223 305.354C664.075 304.454 665.161 304.004 666.481 304.004C667.801 304.004 668.887 304.454 669.739 305.354C670.591 306.254 671.017 307.406 671.017 308.81V312.374C671.017 313.79 670.591 314.948 669.739 315.848C668.887 316.736 667.801 317.18 666.481 317.18ZM666.481 315.668C667.369 315.668 668.089 315.374 668.641 314.786C669.193 314.198 669.469 313.394 669.469 312.374V308.81C669.469 307.79 669.193 306.986 668.641 306.398C668.089 305.81 667.369 305.516 666.481 305.516C665.605 305.516 664.891 305.81 664.339 306.398C663.787 306.986 663.511 307.79 663.511 308.81V312.374C663.511 313.394 663.787 314.198 664.339 314.786C664.891 315.374 665.605 315.668 666.481 315.668ZM677.03 317.18C675.878 317.18 674.882 316.82 674.042 316.1C673.202 315.38 672.77 314.528 672.746 313.544H674.33C674.474 314.168 674.792 314.678 675.284 315.074C675.776 315.47 676.358 315.668 677.03 315.668C677.81 315.668 678.464 315.404 678.992 314.876C679.52 314.348 679.784 313.7 679.784 312.932C679.784 312.152 679.532 311.498 679.028 310.97C678.524 310.442 677.882 310.178 677.102 310.178C676.034 310.178 675.23 310.61 674.69 311.474L673.214 311.042L674.528 304.22H680.504V305.732H675.77L675.068 309.386C675.692 308.942 676.436 308.72 677.3 308.72C678.488 308.72 679.46 309.14 680.216 309.98C680.984 310.808 681.368 311.858 681.368 313.13C681.368 314.258 680.954 315.218 680.126 316.01C679.298 316.79 678.266 317.18 677.03 317.18Z" fill="white"/>
<path d="M724.162 315.506V317H715.882V316.388C715.882 315.944 715.948 315.524 716.08 315.128C716.224 314.72 716.38 314.378 716.548 314.102C716.716 313.826 716.98 313.52 717.34 313.184C717.7 312.836 717.982 312.584 718.186 312.428C718.39 312.26 718.732 312.008 719.212 311.672C719.692 311.324 720.01 311.096 720.166 310.988C721.018 310.364 721.606 309.842 721.93 309.422C722.266 308.99 722.434 308.426 722.434 307.73C722.434 307.058 722.218 306.524 721.786 306.128C721.354 305.72 720.79 305.516 720.094 305.516C719.362 305.516 718.738 305.738 718.222 306.182C717.706 306.626 717.448 307.244 717.448 308.036H715.864C715.864 306.836 716.26 305.864 717.052 305.12C717.856 304.376 718.864 304.004 720.076 304.004C721.204 304.004 722.14 304.328 722.884 304.976C723.64 305.624 724.018 306.548 724.018 307.748C724.018 308.66 723.796 309.44 723.352 310.088C722.908 310.724 722.146 311.432 721.066 312.212C720.862 312.356 720.574 312.56 720.202 312.824C719.83 313.076 719.542 313.28 719.338 313.436C719.134 313.592 718.906 313.784 718.654 314.012C718.414 314.228 718.222 314.462 718.078 314.714C717.946 314.954 717.85 315.218 717.79 315.506H724.162ZM730.635 317.18C729.303 317.18 728.217 316.736 727.377 315.848C726.537 314.948 726.117 313.79 726.117 312.374V308.81C726.117 307.394 726.537 306.242 727.377 305.354C728.229 304.454 729.315 304.004 730.635 304.004C731.955 304.004 733.041 304.454 733.893 305.354C734.745 306.254 735.171 307.406 735.171 308.81V312.374C735.171 313.79 734.745 314.948 733.893 315.848C733.041 316.736 731.955 317.18 730.635 317.18ZM730.635 315.668C731.523 315.668 732.243 315.374 732.795 314.786C733.347 314.198 733.623 313.394 733.623 312.374V308.81C733.623 307.79 733.347 306.986 732.795 306.398C732.243 305.81 731.523 305.516 730.635 305.516C729.759 305.516 729.045 305.81 728.493 306.398C727.941 306.986 727.665 307.79 727.665 308.81V312.374C727.665 313.394 727.941 314.198 728.493 314.786C729.045 315.374 729.759 315.668 730.635 315.668ZM745.414 315.506V317H737.134V316.388C737.134 315.944 737.2 315.524 737.332 315.128C737.476 314.72 737.632 314.378 737.8 314.102C737.968 313.826 738.232 313.52 738.592 313.184C738.952 312.836 739.234 312.584 739.438 312.428C739.642 312.26 739.984 312.008 740.464 311.672C740.944 311.324 741.262 311.096 741.418 310.988C742.27 310.364 742.858 309.842 743.182 309.422C743.518 308.99 743.686 308.426 743.686 307.73C743.686 307.058 743.47 306.524 743.038 306.128C742.606 305.72 742.042 305.516 741.346 305.516C740.614 305.516 739.99 305.738 739.474 306.182C738.958 306.626 738.7 307.244 738.7 308.036H737.116C737.116 306.836 737.512 305.864 738.304 305.12C739.108 304.376 740.116 304.004 741.328 304.004C742.456 304.004 743.392 304.328 744.136 304.976C744.892 305.624 745.27 306.548 745.27 307.748C745.27 308.66 745.048 309.44 744.604 310.088C744.16 310.724 743.398 311.432 742.318 312.212C742.114 312.356 741.826 312.56 741.454 312.824C741.082 313.076 740.794 313.28 740.59 313.436C740.386 313.592 740.158 313.784 739.906 314.012C739.666 314.228 739.474 314.462 739.33 314.714C739.198 314.954 739.102 315.218 739.042 315.506H745.414ZM755.451 315.506V317H747.171V316.388C747.171 315.944 747.237 315.524 747.369 315.128C747.513 314.72 747.669 314.378 747.837 314.102C748.005 313.826 748.269 313.52 748.629 313.184C748.989 312.836 749.271 312.584 749.475 312.428C749.679 312.26 750.021 312.008 750.501 311.672C750.981 311.324 751.299 311.096 751.455 310.988C752.307 310.364 752.895 309.842 753.219 309.422C753.555 308.99 753.723 308.426 753.723 307.73C753.723 307.058 753.507 306.524 753.075 306.128C752.643 305.72 752.079 305.516 751.383 305.516C750.651 305.516 750.027 305.738 749.511 306.182C748.995 306.626 748.737 307.244 748.737 308.036H747.153C747.153 306.836 747.549 305.864 748.341 305.12C749.145 304.376 750.153 304.004 751.365 304.004C752.493 304.004 753.429 304.328 754.173 304.976C754.929 305.624 755.307 306.548 755.307 307.748C755.307 308.66 755.085 309.44 754.641 310.088C754.197 310.724 753.435 311.432 752.355 312.212C752.151 312.356 751.863 312.56 751.491 312.824C751.119 313.076 750.831 313.28 750.627 313.436C750.423 313.592 750.195 313.784 749.943 314.012C749.703 314.228 749.511 314.462 749.367 314.714C749.235 314.954 749.139 315.218 749.079 315.506H755.451ZM757.109 312.734V311.186H761.699V312.734H757.109ZM768.481 317.18C767.149 317.18 766.063 316.736 765.223 315.848C764.383 314.948 763.963 313.79 763.963 312.374V308.81C763.963 307.394 764.383 306.242 765.223 305.354C766.075 304.454 767.161 304.004 768.481 304.004C769.801 304.004 770.887 304.454 771.739 305.354C772.591 306.254 773.017 307.406 773.017 308.81V312.374C773.017 313.79 772.591 314.948 771.739 315.848C770.887 316.736 769.801 317.18 768.481 317.18ZM768.481 315.668C769.369 315.668 770.089 315.374 770.641 314.786C771.193 314.198 771.469 313.394 771.469 312.374V308.81C771.469 307.79 771.193 306.986 770.641 306.398C770.089 305.81 769.369 305.516 768.481 305.516C767.605 305.516 766.891 305.81 766.339 306.398C765.787 306.986 765.511 307.79 765.511 308.81V312.374C765.511 313.394 765.787 314.198 766.339 314.786C766.891 315.374 767.605 315.668 768.481 315.668ZM775.43 317L779.372 312.356C779.24 312.368 779.072 312.374 778.868 312.374C777.8 312.374 776.864 311.966 776.06 311.15C775.268 310.334 774.872 309.374 774.872 308.27C774.872 307.07 775.28 306.062 776.096 305.246C776.924 304.418 777.956 304.004 779.192 304.004C780.428 304.004 781.46 304.412 782.288 305.228C783.116 306.044 783.53 307.04 783.53 308.216C783.53 308.84 783.404 309.404 783.152 309.908C782.912 310.4 782.558 310.922 782.09 311.474L777.41 317H775.43ZM777.23 310.214C777.758 310.742 778.412 311.006 779.192 311.006C779.972 311.006 780.626 310.742 781.154 310.214C781.682 309.674 781.946 309.02 781.946 308.252C781.946 307.484 781.682 306.836 781.154 306.308C780.626 305.768 779.972 305.498 779.192 305.498C778.412 305.498 777.758 305.768 777.23 306.308C776.714 306.836 776.456 307.484 776.456 308.252C776.456 309.02 776.714 309.674 777.23 310.214Z" fill="white"/>
<path d="M826.162 315.506V317H817.882V316.388C817.882 315.944 817.948 315.524 818.08 315.128C818.224 314.72 818.38 314.378 818.548 314.102C818.716 313.826 818.98 313.52 819.34 313.184C819.7 312.836 819.982 312.584 820.186 312.428C820.39 312.26 820.732 312.008 821.212 311.672C821.692 311.324 822.01 311.096 822.166 310.988C823.018 310.364 823.606 309.842 823.93 309.422C824.266 308.99 824.434 308.426 824.434 307.73C824.434 307.058 824.218 306.524 823.786 306.128C823.354 305.72 822.79 305.516 822.094 305.516C821.362 305.516 820.738 305.738 820.222 306.182C819.706 306.626 819.448 307.244 819.448 308.036H817.864C817.864 306.836 818.26 305.864 819.052 305.12C819.856 304.376 820.864 304.004 822.076 304.004C823.204 304.004 824.14 304.328 824.884 304.976C825.64 305.624 826.018 306.548 826.018 307.748C826.018 308.66 825.796 309.44 825.352 310.088C824.908 310.724 824.146 311.432 823.066 312.212C822.862 312.356 822.574 312.56 822.202 312.824C821.83 313.076 821.542 313.28 821.338 313.436C821.134 313.592 820.906 313.784 820.654 314.012C820.414 314.228 820.222 314.462 820.078 314.714C819.946 314.954 819.85 315.218 819.79 315.506H826.162ZM832.635 317.18C831.303 317.18 830.217 316.736 829.377 315.848C828.537 314.948 828.117 313.79 828.117 312.374V308.81C828.117 307.394 828.537 306.242 829.377 305.354C830.229 304.454 831.315 304.004 832.635 304.004C833.955 304.004 835.041 304.454 835.893 305.354C836.745 306.254 837.171 307.406 837.171 308.81V312.374C837.171 313.79 836.745 314.948 835.893 315.848C835.041 316.736 833.955 317.18 832.635 317.18ZM832.635 315.668C833.523 315.668 834.243 315.374 834.795 314.786C835.347 314.198 835.623 313.394 835.623 312.374V308.81C835.623 307.79 835.347 306.986 834.795 306.398C834.243 305.81 833.523 305.516 832.635 305.516C831.759 305.516 831.045 305.81 830.493 306.398C829.941 306.986 829.665 307.79 829.665 308.81V312.374C829.665 313.394 829.941 314.198 830.493 314.786C831.045 315.374 831.759 315.668 832.635 315.668ZM847.414 315.506V317H839.134V316.388C839.134 315.944 839.2 315.524 839.332 315.128C839.476 314.72 839.632 314.378 839.8 314.102C839.968 313.826 840.232 313.52 840.592 313.184C840.952 312.836 841.234 312.584 841.438 312.428C841.642 312.26 841.984 312.008 842.464 311.672C842.944 311.324 843.262 311.096 843.418 310.988C844.27 310.364 844.858 309.842 845.182 309.422C845.518 308.99 845.686 308.426 845.686 307.73C845.686 307.058 845.47 306.524 845.038 306.128C844.606 305.72 844.042 305.516 843.346 305.516C842.614 305.516 841.99 305.738 841.474 306.182C840.958 306.626 840.7 307.244 840.7 308.036H839.116C839.116 306.836 839.512 305.864 840.304 305.12C841.108 304.376 842.116 304.004 843.328 304.004C844.456 304.004 845.392 304.328 846.136 304.976C846.892 305.624 847.27 306.548 847.27 307.748C847.27 308.66 847.048 309.44 846.604 310.088C846.16 310.724 845.398 311.432 844.318 312.212C844.114 312.356 843.826 312.56 843.454 312.824C843.082 313.076 842.794 313.28 842.59 313.436C842.386 313.592 842.158 313.784 841.906 314.012C841.666 314.228 841.474 314.462 841.33 314.714C841.198 314.954 841.102 315.218 841.042 315.506H847.414ZM853.635 317.18C852.363 317.18 851.283 316.796 850.395 316.028C849.519 315.248 849.081 314.276 849.081 313.112H850.647C850.695 313.868 851.001 314.486 851.565 314.966C852.129 315.434 852.819 315.668 853.635 315.668C854.379 315.668 854.997 315.464 855.489 315.056C855.981 314.648 856.227 314.084 856.227 313.364C856.227 312.596 855.975 312.02 855.471 311.636C854.979 311.252 854.301 311.06 853.437 311.06H852.483V309.638H853.509C854.193 309.638 854.751 309.446 855.183 309.062C855.627 308.678 855.855 308.18 855.867 307.568C855.867 306.968 855.645 306.476 855.201 306.092C854.769 305.708 854.223 305.516 853.563 305.516C852.807 305.516 852.171 305.738 851.655 306.182C851.139 306.626 850.881 307.244 850.881 308.036H849.297C849.297 306.812 849.705 305.834 850.521 305.102C851.337 304.37 852.351 304.004 853.563 304.004C854.679 304.004 855.603 304.328 856.335 304.976C857.079 305.612 857.451 306.458 857.451 307.514C857.439 308.126 857.271 308.678 856.947 309.17C856.635 309.662 856.227 310.04 855.723 310.304C856.371 310.568 856.881 310.976 857.253 311.528C857.625 312.068 857.811 312.698 857.811 313.418C857.811 314.534 857.421 315.44 856.641 316.136C855.861 316.832 854.859 317.18 853.635 317.18ZM859.9 312.734V311.186H864.49V312.734H859.9ZM871.272 317.18C869.94 317.18 868.854 316.736 868.014 315.848C867.174 314.948 866.754 313.79 866.754 312.374V308.81C866.754 307.394 867.174 306.242 868.014 305.354C868.866 304.454 869.952 304.004 871.272 304.004C872.592 304.004 873.678 304.454 874.53 305.354C875.382 306.254 875.808 307.406 875.808 308.81V312.374C875.808 313.79 875.382 314.948 874.53 315.848C873.678 316.736 872.592 317.18 871.272 317.18ZM871.272 315.668C872.16 315.668 872.88 315.374 873.432 314.786C873.984 314.198 874.26 313.394 874.26 312.374V308.81C874.26 307.79 873.984 306.986 873.432 306.398C872.88 305.81 872.16 305.516 871.272 305.516C870.396 305.516 869.682 305.81 869.13 306.398C868.578 306.986 868.302 307.79 868.302 308.81V312.374C868.302 313.394 868.578 314.198 869.13 314.786C869.682 315.374 870.396 315.668 871.272 315.668ZM879.499 317V305.75H877.033L878.293 304.22H881.047V317H879.499Z" fill="white"/>
<path d="M928.162 315.506V317H919.882V316.388C919.882 315.944 919.948 315.524 920.08 315.128C920.224 314.72 920.38 314.378 920.548 314.102C920.716 313.826 920.98 313.52 921.34 313.184C921.7 312.836 921.982 312.584 922.186 312.428C922.39 312.26 922.732 312.008 923.212 311.672C923.692 311.324 924.01 311.096 924.166 310.988C925.018 310.364 925.606 309.842 925.93 309.422C926.266 308.99 926.434 308.426 926.434 307.73C926.434 307.058 926.218 306.524 925.786 306.128C925.354 305.72 924.79 305.516 924.094 305.516C923.362 305.516 922.738 305.738 922.222 306.182C921.706 306.626 921.448 307.244 921.448 308.036H919.864C919.864 306.836 920.26 305.864 921.052 305.12C921.856 304.376 922.864 304.004 924.076 304.004C925.204 304.004 926.14 304.328 926.884 304.976C927.64 305.624 928.018 306.548 928.018 307.748C928.018 308.66 927.796 309.44 927.352 310.088C926.908 310.724 926.146 311.432 925.066 312.212C924.862 312.356 924.574 312.56 924.202 312.824C923.83 313.076 923.542 313.28 923.338 313.436C923.134 313.592 922.906 313.784 922.654 314.012C922.414 314.228 922.222 314.462 922.078 314.714C921.946 314.954 921.85 315.218 921.79 315.506H928.162ZM934.635 317.18C933.303 317.18 932.217 316.736 931.377 315.848C930.537 314.948 930.117 313.79 930.117 312.374V308.81C930.117 307.394 930.537 306.242 931.377 305.354C932.229 304.454 933.315 304.004 934.635 304.004C935.955 304.004 937.041 304.454 937.893 305.354C938.745 306.254 939.171 307.406 939.171 308.81V312.374C939.171 313.79 938.745 314.948 937.893 315.848C937.041 316.736 935.955 317.18 934.635 317.18ZM934.635 315.668C935.523 315.668 936.243 315.374 936.795 314.786C937.347 314.198 937.623 313.394 937.623 312.374V308.81C937.623 307.79 937.347 306.986 936.795 306.398C936.243 305.81 935.523 305.516 934.635 305.516C933.759 305.516 933.045 305.81 932.493 306.398C931.941 306.986 931.665 307.79 931.665 308.81V312.374C931.665 313.394 931.941 314.198 932.493 314.786C933.045 315.374 933.759 315.668 934.635 315.668ZM949.414 315.506V317H941.134V316.388C941.134 315.944 941.2 315.524 941.332 315.128C941.476 314.72 941.632 314.378 941.8 314.102C941.968 313.826 942.232 313.52 942.592 313.184C942.952 312.836 943.234 312.584 943.438 312.428C943.642 312.26 943.984 312.008 944.464 311.672C944.944 311.324 945.262 311.096 945.418 310.988C946.27 310.364 946.858 309.842 947.182 309.422C947.518 308.99 947.686 308.426 947.686 307.73C947.686 307.058 947.47 306.524 947.038 306.128C946.606 305.72 946.042 305.516 945.346 305.516C944.614 305.516 943.99 305.738 943.474 306.182C942.958 306.626 942.7 307.244 942.7 308.036H941.116C941.116 306.836 941.512 305.864 942.304 305.12C943.108 304.376 944.116 304.004 945.328 304.004C946.456 304.004 947.392 304.328 948.136 304.976C948.892 305.624 949.27 306.548 949.27 307.748C949.27 308.66 949.048 309.44 948.604 310.088C948.16 310.724 947.398 311.432 946.318 312.212C946.114 312.356 945.826 312.56 945.454 312.824C945.082 313.076 944.794 313.28 944.59 313.436C944.386 313.592 944.158 313.784 943.906 314.012C943.666 314.228 943.474 314.462 943.33 314.714C943.198 314.954 943.102 315.218 943.042 315.506H949.414ZM955.635 317.18C954.363 317.18 953.283 316.796 952.395 316.028C951.519 315.248 951.081 314.276 951.081 313.112H952.647C952.695 313.868 953.001 314.486 953.565 314.966C954.129 315.434 954.819 315.668 955.635 315.668C956.379 315.668 956.997 315.464 957.489 315.056C957.981 314.648 958.227 314.084 958.227 313.364C958.227 312.596 957.975 312.02 957.471 311.636C956.979 311.252 956.301 311.06 955.437 311.06H954.483V309.638H955.509C956.193 309.638 956.751 309.446 957.183 309.062C957.627 308.678 957.855 308.18 957.867 307.568C957.867 306.968 957.645 306.476 957.201 306.092C956.769 305.708 956.223 305.516 955.563 305.516C954.807 305.516 954.171 305.738 953.655 306.182C953.139 306.626 952.881 307.244 952.881 308.036H951.297C951.297 306.812 951.705 305.834 952.521 305.102C953.337 304.37 954.351 304.004 955.563 304.004C956.679 304.004 957.603 304.328 958.335 304.976C959.079 305.612 959.451 306.458 959.451 307.514C959.439 308.126 959.271 308.678 958.947 309.17C958.635 309.662 958.227 310.04 957.723 310.304C958.371 310.568 958.881 310.976 959.253 311.528C959.625 312.068 959.811 312.698 959.811 313.418C959.811 314.534 959.421 315.44 958.641 316.136C957.861 316.832 956.859 317.18 955.635 317.18ZM961.9 312.734V311.186H966.49V312.734H961.9ZM973.272 317.18C971.94 317.18 970.854 316.736 970.014 315.848C969.174 314.948 968.754 313.79 968.754 312.374V308.81C968.754 307.394 969.174 306.242 970.014 305.354C970.866 304.454 971.952 304.004 973.272 304.004C974.592 304.004 975.678 304.454 976.53 305.354C977.382 306.254 977.808 307.406 977.808 308.81V312.374C977.808 313.79 977.382 314.948 976.53 315.848C975.678 316.736 974.592 317.18 973.272 317.18ZM973.272 315.668C974.16 315.668 974.88 315.374 975.432 314.786C975.984 314.198 976.26 313.394 976.26 312.374V308.81C976.26 307.79 975.984 306.986 975.432 306.398C974.88 305.81 974.16 305.516 973.272 305.516C972.396 305.516 971.682 305.81 971.13 306.398C970.578 306.986 970.302 307.79 970.302 308.81V312.374C970.302 313.394 970.578 314.198 971.13 314.786C971.682 315.374 972.396 315.668 973.272 315.668ZM983.821 317.18C982.669 317.18 981.673 316.82 980.833 316.1C979.993 315.38 979.561 314.528 979.537 313.544H981.121C981.265 314.168 981.583 314.678 982.075 315.074C982.567 315.47 983.149 315.668 983.821 315.668C984.601 315.668 985.255 315.404 985.783 314.876C986.311 314.348 986.575 313.7 986.575 312.932C986.575 312.152 986.323 311.498 985.819 310.97C985.315 310.442 984.673 310.178 983.893 310.178C982.825 310.178 982.021 310.61 981.481 311.474L980.005 311.042L981.319 304.22H987.295V305.732H982.561L981.859 309.386C982.483 308.942 983.227 308.72 984.091 308.72C985.279 308.72 986.251 309.14 987.007 309.98C987.775 310.808 988.159 311.858 988.159 313.13C988.159 314.258 987.745 315.218 986.917 316.01C986.089 316.79 985.057 317.18 983.821 317.18Z" fill="white"/>
<path d="M1030.16 315.506V317H1021.88V316.388C1021.88 315.944 1021.95 315.524 1022.08 315.128C1022.22 314.72 1022.38 314.378 1022.55 314.102C1022.72 313.826 1022.98 313.52 1023.34 313.184C1023.7 312.836 1023.98 312.584 1024.19 312.428C1024.39 312.26 1024.73 312.008 1025.21 311.672C1025.69 311.324 1026.01 311.096 1026.17 310.988C1027.02 310.364 1027.61 309.842 1027.93 309.422C1028.27 308.99 1028.43 308.426 1028.43 307.73C1028.43 307.058 1028.22 306.524 1027.79 306.128C1027.35 305.72 1026.79 305.516 1026.09 305.516C1025.36 305.516 1024.74 305.738 1024.22 306.182C1023.71 306.626 1023.45 307.244 1023.45 308.036H1021.86C1021.86 306.836 1022.26 305.864 1023.05 305.12C1023.86 304.376 1024.86 304.004 1026.08 304.004C1027.2 304.004 1028.14 304.328 1028.88 304.976C1029.64 305.624 1030.02 306.548 1030.02 307.748C1030.02 308.66 1029.8 309.44 1029.35 310.088C1028.91 310.724 1028.15 311.432 1027.07 312.212C1026.86 312.356 1026.57 312.56 1026.2 312.824C1025.83 313.076 1025.54 313.28 1025.34 313.436C1025.13 313.592 1024.91 313.784 1024.65 314.012C1024.41 314.228 1024.22 314.462 1024.08 314.714C1023.95 314.954 1023.85 315.218 1023.79 315.506H1030.16ZM1036.64 317.18C1035.3 317.18 1034.22 316.736 1033.38 315.848C1032.54 314.948 1032.12 313.79 1032.12 312.374V308.81C1032.12 307.394 1032.54 306.242 1033.38 305.354C1034.23 304.454 1035.32 304.004 1036.64 304.004C1037.96 304.004 1039.04 304.454 1039.89 305.354C1040.75 306.254 1041.17 307.406 1041.17 308.81V312.374C1041.17 313.79 1040.75 314.948 1039.89 315.848C1039.04 316.736 1037.96 317.18 1036.64 317.18ZM1036.64 315.668C1037.52 315.668 1038.24 315.374 1038.8 314.786C1039.35 314.198 1039.62 313.394 1039.62 312.374V308.81C1039.62 307.79 1039.35 306.986 1038.8 306.398C1038.24 305.81 1037.52 305.516 1036.64 305.516C1035.76 305.516 1035.05 305.81 1034.49 306.398C1033.94 306.986 1033.67 307.79 1033.67 308.81V312.374C1033.67 313.394 1033.94 314.198 1034.49 314.786C1035.05 315.374 1035.76 315.668 1036.64 315.668ZM1051.41 315.506V317H1043.13V316.388C1043.13 315.944 1043.2 315.524 1043.33 315.128C1043.48 314.72 1043.63 314.378 1043.8 314.102C1043.97 313.826 1044.23 313.52 1044.59 313.184C1044.95 312.836 1045.23 312.584 1045.44 312.428C1045.64 312.26 1045.98 312.008 1046.46 311.672C1046.94 311.324 1047.26 311.096 1047.42 310.988C1048.27 310.364 1048.86 309.842 1049.18 309.422C1049.52 308.99 1049.69 308.426 1049.69 307.73C1049.69 307.058 1049.47 306.524 1049.04 306.128C1048.61 305.72 1048.04 305.516 1047.35 305.516C1046.61 305.516 1045.99 305.738 1045.47 306.182C1044.96 306.626 1044.7 307.244 1044.7 308.036H1043.12C1043.12 306.836 1043.51 305.864 1044.3 305.12C1045.11 304.376 1046.12 304.004 1047.33 304.004C1048.46 304.004 1049.39 304.328 1050.14 304.976C1050.89 305.624 1051.27 306.548 1051.27 307.748C1051.27 308.66 1051.05 309.44 1050.6 310.088C1050.16 310.724 1049.4 311.432 1048.32 312.212C1048.11 312.356 1047.83 312.56 1047.45 312.824C1047.08 313.076 1046.79 313.28 1046.59 313.436C1046.39 313.592 1046.16 313.784 1045.91 314.012C1045.67 314.228 1045.47 314.462 1045.33 314.714C1045.2 314.954 1045.1 315.218 1045.04 315.506H1051.41ZM1057.64 317.18C1056.36 317.18 1055.28 316.796 1054.4 316.028C1053.52 315.248 1053.08 314.276 1053.08 313.112H1054.65C1054.7 313.868 1055 314.486 1055.57 314.966C1056.13 315.434 1056.82 315.668 1057.64 315.668C1058.38 315.668 1059 315.464 1059.49 315.056C1059.98 314.648 1060.23 314.084 1060.23 313.364C1060.23 312.596 1059.98 312.02 1059.47 311.636C1058.98 311.252 1058.3 311.06 1057.44 311.06H1056.48V309.638H1057.51C1058.19 309.638 1058.75 309.446 1059.18 309.062C1059.63 308.678 1059.86 308.18 1059.87 307.568C1059.87 306.968 1059.65 306.476 1059.2 306.092C1058.77 305.708 1058.22 305.516 1057.56 305.516C1056.81 305.516 1056.17 305.738 1055.66 306.182C1055.14 306.626 1054.88 307.244 1054.88 308.036H1053.3C1053.3 306.812 1053.71 305.834 1054.52 305.102C1055.34 304.37 1056.35 304.004 1057.56 304.004C1058.68 304.004 1059.6 304.328 1060.34 304.976C1061.08 305.612 1061.45 306.458 1061.45 307.514C1061.44 308.126 1061.27 308.678 1060.95 309.17C1060.64 309.662 1060.23 310.04 1059.72 310.304C1060.37 310.568 1060.88 310.976 1061.25 311.528C1061.63 312.068 1061.81 312.698 1061.81 313.418C1061.81 314.534 1061.42 315.44 1060.64 316.136C1059.86 316.832 1058.86 317.18 1057.64 317.18ZM1063.9 312.734V311.186H1068.49V312.734H1063.9ZM1075.27 317.18C1073.94 317.18 1072.85 316.736 1072.01 315.848C1071.17 314.948 1070.75 313.79 1070.75 312.374V308.81C1070.75 307.394 1071.17 306.242 1072.01 305.354C1072.87 304.454 1073.95 304.004 1075.27 304.004C1076.59 304.004 1077.68 304.454 1078.53 305.354C1079.38 306.254 1079.81 307.406 1079.81 308.81V312.374C1079.81 313.79 1079.38 314.948 1078.53 315.848C1077.68 316.736 1076.59 317.18 1075.27 317.18ZM1075.27 315.668C1076.16 315.668 1076.88 315.374 1077.43 314.786C1077.98 314.198 1078.26 313.394 1078.26 312.374V308.81C1078.26 307.79 1077.98 306.986 1077.43 306.398C1076.88 305.81 1076.16 305.516 1075.27 305.516C1074.4 305.516 1073.68 305.81 1073.13 306.398C1072.58 306.986 1072.3 307.79 1072.3 308.81V312.374C1072.3 313.394 1072.58 314.198 1073.13 314.786C1073.68 315.374 1074.4 315.668 1075.27 315.668ZM1082.22 317L1086.16 312.356C1086.03 312.368 1085.86 312.374 1085.66 312.374C1084.59 312.374 1083.65 311.966 1082.85 311.15C1082.06 310.334 1081.66 309.374 1081.66 308.27C1081.66 307.07 1082.07 306.062 1082.89 305.246C1083.71 304.418 1084.75 304.004 1085.98 304.004C1087.22 304.004 1088.25 304.412 1089.08 305.228C1089.91 306.044 1090.32 307.04 1090.32 308.216C1090.32 308.84 1090.19 309.404 1089.94 309.908C1089.7 310.4 1089.35 310.922 1088.88 311.474L1084.2 317H1082.22ZM1084.02 310.214C1084.55 310.742 1085.2 311.006 1085.98 311.006C1086.76 311.006 1087.42 310.742 1087.94 310.214C1088.47 309.674 1088.74 309.02 1088.74 308.252C1088.74 307.484 1088.47 306.836 1087.94 306.308C1087.42 305.768 1086.76 305.498 1085.98 305.498C1085.2 305.498 1084.55 305.768 1084.02 306.308C1083.5 306.836 1083.25 307.484 1083.25 308.252C1083.25 309.02 1083.5 309.674 1084.02 310.214Z" fill="white"/>
<path d="M28.826 227H27.098L33.056 215.732H26.522V214.22H34.91V215.516L28.826 227ZM36.7099 226.748C36.4579 227.012 36.1459 227.144 35.7739 227.144C35.4019 227.144 35.0839 227.012 34.8199 226.748C34.5679 226.484 34.4419 226.166 34.4419 225.794C34.4419 225.434 34.5739 225.122 34.8379 224.858C35.1019 224.582 35.4139 224.444 35.7739 224.444C36.1339 224.444 36.4459 224.582 36.7099 224.858C36.9739 225.122 37.1059 225.434 37.1059 225.794C37.1059 226.166 36.9739 226.484 36.7099 226.748ZM46.105 225.956C45.289 226.772 44.263 227.18 43.027 227.18C41.791 227.18 40.759 226.772 39.931 225.956C39.103 225.14 38.689 224.144 38.689 222.968C38.689 222.344 38.809 221.786 39.049 221.294C39.301 220.79 39.661 220.262 40.129 219.71L44.791 214.22H46.753L42.847 218.846C43.063 218.822 43.231 218.81 43.351 218.81C44.419 218.81 45.349 219.218 46.141 220.034C46.945 220.85 47.347 221.816 47.347 222.932C47.347 224.12 46.933 225.128 46.105 225.956ZM43.027 225.686C43.795 225.686 44.443 225.416 44.971 224.876C45.499 224.336 45.763 223.688 45.763 222.932C45.763 222.176 45.499 221.528 44.971 220.988C44.443 220.448 43.795 220.178 43.027 220.178C42.247 220.178 41.593 220.448 41.065 220.988C40.537 221.516 40.273 222.164 40.273 222.932C40.273 223.7 40.537 224.354 41.065 224.894C41.593 225.422 42.247 225.686 43.027 225.686ZM53.6937 227.18C52.3617 227.18 51.2757 226.736 50.4357 225.848C49.5957 224.948 49.1757 223.79 49.1757 222.374V218.81C49.1757 217.394 49.5957 216.242 50.4357 215.354C51.2877 214.454 52.3737 214.004 53.6937 214.004C55.0137 214.004 56.0997 214.454 56.9517 215.354C57.8037 216.254 58.2297 217.406 58.2297 218.81V222.374C58.2297 223.79 57.8037 224.948 56.9517 225.848C56.0997 226.736 55.0137 227.18 53.6937 227.18ZM53.6937 225.668C54.5817 225.668 55.3017 225.374 55.8537 224.786C56.4057 224.198 56.6817 223.394 56.6817 222.374V218.81C56.6817 217.79 56.4057 216.986 55.8537 216.398C55.3017 215.81 54.5817 215.516 53.6937 215.516C52.8177 215.516 52.1037 215.81 51.5517 216.398C50.9997 216.986 50.7237 217.79 50.7237 218.81V222.374C50.7237 223.394 50.9997 224.198 51.5517 224.786C52.1037 225.374 52.8177 225.668 53.6937 225.668Z" fill="white"/>
<path d="M28.826 133H27.098L33.056 121.732H26.522V120.22H34.91V121.516L28.826 133ZM36.7099 132.748C36.4579 133.012 36.1459 133.144 35.7739 133.144C35.4019 133.144 35.0839 133.012 34.8199 132.748C34.5679 132.484 34.4419 132.166 34.4419 131.794C34.4419 131.434 34.5739 131.122 34.8379 130.858C35.1019 130.582 35.4139 130.444 35.7739 130.444C36.1339 130.444 36.4459 130.582 36.7099 130.858C36.9739 131.122 37.1059 131.434 37.1059 131.794C37.1059 132.166 36.9739 132.484 36.7099 132.748ZM43.189 133.18C41.941 133.18 40.909 132.802 40.093 132.046C39.289 131.29 38.887 130.33 38.887 129.166C38.887 127.606 39.559 126.496 40.903 125.836C40.027 125.212 39.589 124.366 39.589 123.298C39.589 122.338 39.925 121.552 40.597 120.94C41.281 120.316 42.145 120.004 43.189 120.004C44.245 120.004 45.103 120.316 45.763 120.94C46.435 121.552 46.771 122.338 46.771 123.298C46.771 124.378 46.339 125.224 45.475 125.836C46.807 126.496 47.473 127.606 47.473 129.166C47.473 130.33 47.071 131.29 46.267 132.046C45.475 132.802 44.449 133.18 43.189 133.18ZM43.189 131.704C44.029 131.704 44.689 131.464 45.169 130.984C45.661 130.504 45.907 129.898 45.907 129.166C45.907 128.422 45.661 127.81 45.169 127.33C44.689 126.85 44.029 126.61 43.189 126.61C42.373 126.61 41.713 126.856 41.209 127.348C40.705 127.828 40.453 128.434 40.453 129.166C40.453 129.886 40.705 130.492 41.209 130.984C41.713 131.464 42.373 131.704 43.189 131.704ZM43.189 125.224C43.813 125.224 44.311 125.044 44.683 124.684C45.055 124.312 45.241 123.862 45.241 123.334C45.241 122.782 45.055 122.332 44.683 121.984C44.323 121.636 43.825 121.462 43.189 121.462C42.577 121.462 42.079 121.642 41.695 122.002C41.311 122.35 41.119 122.794 41.119 123.334C41.119 123.85 41.311 124.294 41.695 124.666C42.079 125.038 42.577 125.224 43.189 125.224ZM53.9222 133.18C52.5902 133.18 51.5042 132.736 50.6642 131.848C49.8242 130.948 49.4042 129.79 49.4042 128.374V124.81C49.4042 123.394 49.8242 122.242 50.6642 121.354C51.5162 120.454 52.6022 120.004 53.9222 120.004C55.2422 120.004 56.3282 120.454 57.1802 121.354C58.0322 122.254 58.4582 123.406 58.4582 124.81V128.374C58.4582 129.79 58.0322 130.948 57.1802 131.848C56.3282 132.736 55.2422 133.18 53.9222 133.18ZM53.9222 131.668C54.8102 131.668 55.5302 131.374 56.0822 130.786C56.6342 130.198 56.9102 129.394 56.9102 128.374V124.81C56.9102 123.79 56.6342 122.986 56.0822 122.398C55.5302 121.81 54.8102 121.516 53.9222 121.516C53.0462 121.516 52.3322 121.81 51.7802 122.398C51.2282 122.986 50.9522 123.79 50.9522 124.81V128.374C50.9522 129.394 51.2282 130.198 51.7802 130.786C52.3322 131.374 53.0462 131.668 53.9222 131.668Z" fill="white"/>
<path d="M28.826 180H27.098L33.056 168.732H26.522V167.22H34.91V168.516L28.826 180ZM36.7099 179.748C36.4579 180.012 36.1459 180.144 35.7739 180.144C35.4019 180.144 35.0839 180.012 34.8199 179.748C34.5679 179.484 34.4419 179.166 34.4419 178.794C34.4419 178.434 34.5739 178.122 34.8379 177.858C35.1019 177.582 35.4139 177.444 35.7739 177.444C36.1339 177.444 36.4459 177.582 36.7099 177.858C36.9739 178.122 37.1059 178.434 37.1059 178.794C37.1059 179.166 36.9739 179.484 36.7099 179.748ZM40.867 180H39.139L45.097 168.732H38.563V167.22H46.951V168.516L40.867 180ZM52.7972 180.18C51.4652 180.18 50.3792 179.736 49.5392 178.848C48.6992 177.948 48.2792 176.79 48.2792 175.374V171.81C48.2792 170.394 48.6992 169.242 49.5392 168.354C50.3912 167.454 51.4772 167.004 52.7972 167.004C54.1172 167.004 55.2032 167.454 56.0552 168.354C56.9072 169.254 57.3332 170.406 57.3332 171.81V175.374C57.3332 176.79 56.9072 177.948 56.0552 178.848C55.2032 179.736 54.1172 180.18 52.7972 180.18ZM52.7972 178.668C53.6852 178.668 54.4052 178.374 54.9572 177.786C55.5092 177.198 55.7852 176.394 55.7852 175.374V171.81C55.7852 170.79 55.5092 169.986 54.9572 169.398C54.4052 168.81 53.6852 168.516 52.7972 168.516C51.9212 168.516 51.2072 168.81 50.6552 169.398C50.1032 169.986 49.8272 170.79 49.8272 171.81V175.374C49.8272 176.394 50.1032 177.198 50.6552 177.786C51.2072 178.374 51.9212 178.668 52.7972 178.668Z" fill="white"/>
<defs>
<linearGradient id="paint0_linear_1_5" x1="628" y1="0" x2="628" y2="362" gradientUnits="userSpaceOnUse">
<stop stop-color="#7D6FF6" stop-opacity="0.16"/>
<stop offset="1" stop-color="#58E1D9" stop-opacity="0.16"/>
</linearGradient>
</defs>
</svg>
