<svg width="77" height="51" viewBox="0 0 77 51" fill="none" xmlns="http://www.w3.org/2000/svg">
<path opacity="0.5" d="M70.5409 24.9272C70.739 24.9274 70.9324 24.8668 71.095 24.7537C71.2576 24.6405 71.3816 24.4802 71.4503 24.2944C71.519 24.1086 71.529 23.9062 71.4791 23.7145C71.4293 23.5228 71.3218 23.351 71.1712 23.2222L62.1296 15.4722C61.7679 15.1622 61.2319 15.1622 60.8689 15.4722L51.8272 23.2222C51.6767 23.351 51.5692 23.5228 51.5193 23.7145C51.4694 23.9062 51.4795 24.1086 51.5482 24.2944C51.6169 24.4802 51.7409 24.6405 51.9035 24.7537C52.0661 24.8668 52.2595 24.9274 52.4576 24.9272L70.5409 24.9272Z" fill="white"/>
<path fill-rule="evenodd" clip-rule="evenodd" d="M71.2772 19.4221C71.1944 19.5188 71.0933 19.5981 70.9798 19.6557C70.8663 19.7133 70.7425 19.7479 70.6156 19.7576C70.4887 19.7673 70.3611 19.752 70.2402 19.7123C70.1192 19.6727 70.0072 19.6097 69.9106 19.5267L61.4993 12.318L53.088 19.5267C52.9915 19.6105 52.8794 19.6744 52.7582 19.7147C52.6369 19.755 52.5089 19.7709 52.3815 19.7615C52.2541 19.7522 52.1298 19.7177 52.0157 19.66C51.9017 19.6024 51.8002 19.5228 51.717 19.4258C51.6339 19.3287 51.5708 19.2162 51.5313 19.0947C51.4918 18.9732 51.4768 18.8451 51.487 18.7177C51.4973 18.5903 51.5326 18.4663 51.591 18.3526C51.6494 18.239 51.7297 18.138 51.8273 18.0555L60.869 10.3055C61.0445 10.1551 61.2681 10.0724 61.4993 10.0724C61.7305 10.0724 61.9541 10.1551 62.1296 10.3055L71.1713 18.0555C71.268 18.1384 71.3473 18.2394 71.4049 18.353C71.4625 18.4665 71.4971 18.5902 71.5068 18.7172C71.5165 18.8441 71.5011 18.9716 71.4615 19.0926C71.4219 19.2136 71.3588 19.3255 71.2759 19.4221L71.2772 19.4221Z" fill="white"/>
<path fill-rule="evenodd" clip-rule="evenodd" d="M24.5 5.729C19.4913 5.729 14.6877 7.75932 11.146 11.3733C7.60433 14.9873 5.61462 19.8889 5.61462 24.9998C5.61462 30.1108 7.60433 35.0124 11.146 38.6264C14.6877 42.2404 19.4913 44.2707 24.5 44.2707C29.5088 44.2707 34.3123 42.2404 37.854 38.6264C41.3957 35.0124 43.3855 30.1108 43.3855 24.9998C43.3855 19.8889 41.3957 14.9873 37.854 11.3733C34.3123 7.75932 29.5088 5.729 24.5 5.729ZM2.55212 24.9998C2.55212 12.6311 12.3787 2.604 24.5 2.604C36.6214 2.604 46.448 12.6311 46.448 24.9998C46.448 37.3686 36.6214 47.3957 24.5 47.3957C12.3787 47.3957 2.55212 37.3686 2.55212 24.9998ZM24.5 10.9373C24.9062 10.9373 25.2956 11.102 25.5828 11.395C25.87 11.688 26.0313 12.0854 26.0313 12.4998V13.1603C29.3592 13.7686 32.1563 16.3207 32.1563 19.7915C32.1563 20.2059 31.995 20.6033 31.7078 20.8964C31.4206 21.1894 31.0312 21.354 30.625 21.354C30.2189 21.354 29.8294 21.1894 29.5423 20.8964C29.2551 20.6033 29.0938 20.2059 29.0938 19.7915C29.0938 18.379 27.9423 16.8811 26.0313 16.3478V23.5769C29.3592 24.1853 32.1563 26.7373 32.1563 30.2082C32.1563 33.679 29.3592 36.2311 26.0313 36.8394V37.4998C26.0313 37.9142 25.87 38.3117 25.5828 38.6047C25.2956 38.8977 24.9062 39.0623 24.5 39.0623C24.0939 39.0623 23.7044 38.8977 23.4173 38.6047C23.1301 38.3117 22.9688 37.9142 22.9688 37.4998V36.8394C19.6409 36.2311 16.8438 33.679 16.8438 30.2082C16.8438 29.7938 17.0051 29.3963 17.2923 29.1033C17.5794 28.8103 17.9689 28.6457 18.375 28.6457C18.7812 28.6457 19.1706 28.8103 19.4578 29.1033C19.745 29.3963 19.9063 29.7938 19.9063 30.2082C19.9063 31.6207 21.0578 33.1186 22.9688 33.6498V26.4228C19.6409 25.8144 16.8438 23.2623 16.8438 19.7915C16.8438 16.3207 19.6409 13.7686 22.9688 13.1603V12.4998C22.9688 12.0854 23.1301 11.688 23.4173 11.395C23.7044 11.102 24.0939 10.9373 24.5 10.9373ZM22.9688 16.3478C21.0578 16.8811 19.9063 18.379 19.9063 19.7915C19.9063 21.204 21.0578 22.7019 22.9688 23.2332V16.3478ZM26.0313 26.7644V33.6519C27.9423 33.1186 29.0938 31.6228 29.0938 30.2082C29.0938 28.7957 27.9423 27.2957 26.0313 26.7644Z" fill="white"/>
<path opacity="0.5" d="M70.5409 42.9272C70.739 42.9274 70.9324 42.8668 71.095 42.7537C71.2576 42.6405 71.3816 42.4802 71.4503 42.2944C71.519 42.1086 71.529 41.9062 71.4791 41.7145C71.4293 41.5228 71.3218 41.351 71.1712 41.2222L62.1296 33.4722C61.7679 33.1622 61.2319 33.1622 60.8689 33.4722L51.8272 41.2222C51.6767 41.351 51.5692 41.5228 51.5193 41.7145C51.4694 41.9062 51.4795 42.1086 51.5482 42.2944C51.6169 42.4802 51.7409 42.6405 51.9035 42.7537C52.0661 42.8668 52.2595 42.9274 52.4576 42.9272L70.5409 42.9272Z" fill="white"/>
<path fill-rule="evenodd" clip-rule="evenodd" d="M71.2772 37.4221C71.1944 37.5188 71.0933 37.5981 70.9798 37.6557C70.8663 37.7133 70.7425 37.7479 70.6156 37.7576C70.4887 37.7673 70.3611 37.752 70.2402 37.7123C70.1192 37.6727 70.0072 37.6097 69.9106 37.5267L61.4993 30.318L53.088 37.5267C52.9915 37.6105 52.8794 37.6744 52.7582 37.7147C52.6369 37.755 52.5089 37.7709 52.3815 37.7615C52.2541 37.7522 52.1298 37.7177 52.0157 37.66C51.9017 37.6024 51.8002 37.5228 51.717 37.4258C51.6339 37.3287 51.5708 37.2162 51.5313 37.0947C51.4918 36.9732 51.4768 36.8451 51.487 36.7177C51.4973 36.5903 51.5326 36.4663 51.591 36.3526C51.6494 36.239 51.7297 36.138 51.8273 36.0555L60.869 28.3055C61.0445 28.1551 61.2681 28.0724 61.4993 28.0724C61.7305 28.0724 61.9541 28.1551 62.1296 28.3055L71.1713 36.0555C71.268 36.1384 71.3473 36.2394 71.4049 36.353C71.4625 36.4665 71.4971 36.5902 71.5068 36.7172C71.5165 36.8441 71.5011 36.9716 71.4615 37.0926C71.4219 37.2136 71.3588 37.3255 71.2759 37.4221L71.2772 37.4221Z" fill="white"/>
</svg>
