<svg width="51" height="35" viewBox="0 0 51 35" fill="none" xmlns="http://www.w3.org/2000/svg">
<path opacity="0.5" d="M49.6864 17.3727C49.824 17.3728 49.9583 17.3307 50.0712 17.2522C50.1841 17.1736 50.2702 17.0623 50.3179 16.9333C50.3656 16.8042 50.3726 16.6637 50.338 16.5306C50.3033 16.3974 50.2287 16.2781 50.1241 16.1887L43.8454 10.807C43.5943 10.5917 43.2221 10.5917 42.97 10.807L36.6913 16.1887C36.5868 16.2781 36.5121 16.3974 36.4775 16.5306C36.4428 16.6637 36.4498 16.8042 36.4975 16.9333C36.5452 17.0623 36.6314 17.1736 36.7443 17.2522C36.8572 17.3307 36.9915 17.3728 37.129 17.3727L49.6864 17.3727Z" fill="white"/>
<path fill-rule="evenodd" clip-rule="evenodd" d="M50.1978 13.5502C50.1402 13.6173 50.0701 13.6724 49.9912 13.7124C49.9124 13.7524 49.8265 13.7764 49.7383 13.7832C49.6502 13.7899 49.5616 13.7792 49.4776 13.7517C49.3936 13.7242 49.3158 13.6804 49.2488 13.6229L43.4078 8.61693L37.5668 13.6229C37.4998 13.681 37.422 13.7254 37.3378 13.7534C37.2536 13.7814 37.1647 13.7924 37.0762 13.7859C36.9877 13.7794 36.9014 13.7554 36.8222 13.7154C36.743 13.6754 36.6725 13.6201 36.6148 13.5527C36.5571 13.4853 36.5132 13.4072 36.4858 13.3228C36.4584 13.2384 36.448 13.1495 36.4551 13.061C36.4622 12.9726 36.4867 12.8864 36.5273 12.8075C36.5679 12.7286 36.6236 12.6585 36.6914 12.6012L42.9701 7.21947C43.092 7.11501 43.2472 7.05759 43.4078 7.05759C43.5683 7.05759 43.7236 7.11501 43.8455 7.21947L50.1242 12.6012C50.1913 12.6587 50.2464 12.7289 50.2864 12.8078C50.3264 12.8866 50.3504 12.9725 50.3572 13.0607C50.3639 13.1488 50.3533 13.2374 50.3257 13.3214C50.2982 13.4054 50.2544 13.4831 50.1969 13.5502L50.1978 13.5502Z" fill="white"/>
<path fill-rule="evenodd" clip-rule="evenodd" d="M17.259 4.06874C13.7306 4.06874 10.3467 5.47038 7.8518 7.96532C5.35686 10.4602 3.95522 13.8441 3.95522 17.3725C3.95522 20.9008 5.35686 24.2847 7.8518 26.7796C10.3467 29.2746 13.7306 30.6762 17.259 30.6762C20.7873 30.6762 24.1712 29.2746 26.6661 26.7796C29.161 24.2847 30.5627 20.9008 30.5627 17.3725C30.5627 13.8441 29.161 10.4602 26.6661 7.96532C24.1712 5.47038 20.7873 4.06874 17.259 4.06874ZM1.79786 17.3725C1.79786 8.83364 8.72012 1.91138 17.259 1.91138C25.7978 1.91138 32.72 8.83364 32.72 17.3725C32.72 25.9113 25.7978 32.8336 17.259 32.8336C8.72012 32.8336 1.79786 25.9113 1.79786 17.3725ZM17.259 7.66435C17.545 7.66435 17.8194 7.77799 18.0217 7.98028C18.224 8.18258 18.3376 8.45694 18.3376 8.74303V9.19895C20.682 9.61891 22.6524 11.3808 22.6524 13.7769C22.6524 14.063 22.5387 14.3373 22.3364 14.5396C22.1341 14.7419 21.8598 14.8555 21.5737 14.8555C21.2876 14.8555 21.0132 14.7419 20.8109 14.5396C20.6086 14.3373 20.495 14.063 20.495 13.7769C20.495 12.8017 19.6838 11.7676 18.3376 11.3995V16.3902C20.682 16.8101 22.6524 18.572 22.6524 20.9681C22.6524 23.3642 20.682 25.126 18.3376 25.546V26.0019C18.3376 26.288 18.224 26.5624 18.0217 26.7647C17.8194 26.967 17.545 27.0806 17.259 27.0806C16.9729 27.0806 16.6985 26.967 16.4962 26.7647C16.2939 26.5624 16.1803 26.288 16.1803 26.0019V25.546C13.8359 25.126 11.8655 23.3642 11.8655 20.9681C11.8655 20.682 11.9792 20.4076 12.1815 20.2053C12.3838 20.003 12.6581 19.8894 12.9442 19.8894C13.2303 19.8894 13.5047 20.003 13.707 20.2053C13.9093 20.4076 14.0229 20.682 14.0229 20.9681C14.0229 21.9432 14.8341 22.9773 16.1803 23.344V18.3548C13.8359 17.9348 11.8655 16.173 11.8655 13.7769C11.8655 11.3808 13.8359 9.61891 16.1803 9.19895V8.74303C16.1803 8.45694 16.2939 8.18258 16.4962 7.98028C16.6985 7.77799 16.9729 7.66435 17.259 7.66435ZM16.1803 11.3995C14.8341 11.7676 14.0229 12.8017 14.0229 13.7769C14.0229 14.752 14.8341 15.7861 16.1803 16.1528V11.3995ZM18.3376 18.5907V23.3455C19.6838 22.9773 20.495 21.9446 20.495 20.9681C20.495 19.9929 19.6838 18.9574 18.3376 18.5907Z" fill="white"/>
<path opacity="0.5" d="M49.6864 29.6811C49.824 29.6812 49.9583 29.6391 50.0712 29.5605C50.1841 29.482 50.2702 29.3707 50.3179 29.2416C50.3656 29.1126 50.3726 28.9721 50.338 28.8389C50.3033 28.7058 50.2287 28.5865 50.1241 28.4971L43.8454 23.1153C43.5943 22.9001 43.2221 22.9001 42.97 23.1153L36.6913 28.4971C36.5868 28.5865 36.5121 28.7058 36.4775 28.8389C36.4428 28.972 36.4498 29.1126 36.4975 29.2416C36.5452 29.3706 36.6314 29.482 36.7443 29.5605C36.8572 29.6391 36.9915 29.6812 37.129 29.6811L49.6864 29.6811Z" fill="white"/>
<path fill-rule="evenodd" clip-rule="evenodd" d="M50.1978 25.8583C50.1402 25.9254 50.0701 25.9806 49.9912 26.0205C49.9124 26.0605 49.8265 26.0846 49.7383 26.0913C49.6502 26.0981 49.5616 26.0874 49.4776 26.0599C49.3936 26.0323 49.3158 25.9886 49.2488 25.931L43.4078 20.9251L37.5668 25.931C37.4998 25.9892 37.422 26.0335 37.3378 26.0615C37.2536 26.0895 37.1647 26.1005 37.0762 26.094C36.9877 26.0875 36.9014 26.0635 36.8222 26.0235C36.743 25.9835 36.6725 25.9282 36.6148 25.8608C36.5571 25.7935 36.5132 25.7153 36.4858 25.631C36.4584 25.5466 36.448 25.4576 36.4551 25.3692C36.4622 25.2807 36.4867 25.1946 36.5273 25.1156C36.5679 25.0367 36.6236 24.9666 36.6914 24.9093L42.9701 19.5276C43.092 19.4231 43.2472 19.3657 43.4078 19.3657C43.5683 19.3657 43.7236 19.4231 43.8455 19.5276L50.1242 24.9093C50.1913 24.9669 50.2464 25.037 50.2864 25.1159C50.3264 25.1947 50.3504 25.2806 50.3572 25.3688C50.3639 25.4569 50.3533 25.5455 50.3257 25.6295C50.2982 25.7135 50.2544 25.7913 50.1969 25.8583L50.1978 25.8583Z" fill="white"/>
</svg>
