<svg width="38" height="42" viewBox="0 0 38 42" fill="none" xmlns="http://www.w3.org/2000/svg">
<path fill-rule="evenodd" clip-rule="evenodd" d="M24.3685 21.7504C24.0582 20.8729 23.4835 20.1132 22.7235 19.5759C21.9636 19.0385 21.0557 18.75 20.125 18.75V17.625H17.875V18.75C16.6815 18.75 15.5369 19.2241 14.693 20.068C13.8491 20.9119 13.375 22.0565 13.375 23.25C13.375 24.4435 13.8491 25.5881 14.693 26.432C15.5369 27.2759 16.6815 27.75 17.875 27.75V32.25C16.8962 32.25 16.0626 31.6256 15.7521 30.7504C15.7061 30.6072 15.6317 30.4747 15.5336 30.3607C15.4354 30.2467 15.3154 30.1536 15.1806 30.0868C15.0458 30.0201 14.899 29.981 14.7488 29.9719C14.5987 29.9629 14.4482 29.9841 14.3064 30.0342C14.1646 30.0843 14.0342 30.1623 13.9231 30.2637C13.8119 30.3651 13.7223 30.4877 13.6593 30.6243C13.5964 30.7609 13.5615 30.9088 13.5567 31.0591C13.552 31.2095 13.5774 31.3593 13.6315 31.4996C13.9418 32.3771 14.5165 33.1368 15.2765 33.6741C16.0364 34.2115 16.9443 34.5 17.875 34.5V35.625H20.125V34.5C21.3185 34.5 22.4631 34.0259 23.307 33.182C24.1509 32.3381 24.625 31.1935 24.625 30C24.625 28.8065 24.1509 27.6619 23.307 26.818C22.4631 25.9741 21.3185 25.5 20.125 25.5V21C20.5903 20.9999 21.0442 21.144 21.4242 21.4126C21.8042 21.6812 22.0916 22.0609 22.2467 22.4996C22.3461 22.781 22.5532 23.0114 22.8224 23.1401C22.9557 23.2038 23.1002 23.2406 23.2478 23.2485C23.3953 23.2563 23.5429 23.2351 23.6823 23.1859C23.8216 23.1367 23.9498 23.0605 24.0597 22.9618C24.1696 22.863 24.259 22.7436 24.3227 22.6103C24.3864 22.477 24.4232 22.3324 24.4311 22.1849C24.439 22.0373 24.4177 21.8897 24.3685 21.7504ZM17.875 21C17.2783 21 16.706 21.2371 16.284 21.659C15.8621 22.081 15.625 22.6533 15.625 23.25C15.625 23.8467 15.8621 24.419 16.284 24.841C16.706 25.2629 17.2783 25.5 17.875 25.5V21ZM20.125 32.25C20.7217 32.25 21.294 32.0129 21.716 31.591C22.1379 31.169 22.375 30.5967 22.375 30C22.375 29.4033 22.1379 28.831 21.716 28.409C21.294 27.9871 20.7217 27.75 20.125 27.75V32.25Z" fill="white"/>
<path fill-rule="evenodd" clip-rule="evenodd" d="M6.7971 3.69863C9.55785 2.3475 14.0871 0.75 19.0439 0.75C23.8971 0.75 28.3071 2.28112 31.0532 3.61425L31.2085 3.68962C32.0365 4.09912 32.7047 4.48612 33.175 4.8L29.0192 10.875C38.5997 20.6692 46 41.2466 19.0439 41.2466C-7.91227 41.2466 -0.711147 21.0427 8.9526 10.875L4.82385 4.8C5.14223 4.59188 5.5461 4.35 6.0276 4.0935C6.2661 3.96525 6.5226 3.8325 6.7971 3.69863ZM26.3485 10.794L29.6751 5.93062C26.5814 6.15337 22.9004 6.88012 19.3566 7.90612C16.8254 8.63737 14.0129 8.526 11.4085 8.04562C10.7522 7.92395 10.1004 7.77911 9.45435 7.61137L11.6144 10.7917C16.2437 12.4399 21.718 12.4399 26.3485 10.794ZM10.315 12.7087C15.7319 14.8012 22.2422 14.8012 27.6591 12.7065C29.9202 15.09 31.8117 17.7987 33.2706 20.7424C34.7916 23.8451 35.6196 26.9467 35.4846 29.6197C35.3541 32.1994 34.3394 34.4032 32.0219 36.0412C29.6065 37.7479 25.5441 38.9966 19.0427 38.9966C12.5346 38.9966 8.4531 37.7692 6.01523 36.0817C3.68085 34.464 2.65598 32.2905 2.51085 29.7457C2.35898 27.102 3.16898 24.0161 4.68435 20.892C6.12998 17.913 8.1471 15.0454 10.315 12.7087ZM9.02123 5.1555C9.92123 5.42325 10.8617 5.65612 11.8157 5.83275C14.2345 6.27825 16.66 6.3435 18.73 5.74387C21.1422 5.04114 23.5957 4.48845 26.0762 4.089C24.0062 3.46575 21.5852 3 19.0427 3C15.1671 3 11.5525 4.08113 9.02123 5.1555Z" fill="white"/>
</svg>
