<svg width="51" height="51" viewBox="0 0 51 51" fill="none" xmlns="http://www.w3.org/2000/svg">
<g clip-path="url(#clip0_7021_1282)">
<path d="M51 44.625L41.4375 51V47.8125H26.2969L32.6719 41.4375H41.4375V38.25L51 44.625ZM0 6.375L9.5625 0V3.1875H24.7031L18.3281 9.5625H9.5625V12.75L0 6.375ZM31.0462 0L0 31.0462L19.9538 51L51 19.9538L31.0462 0ZM4.43062 31.0462L31.0462 4.43062L46.5694 19.9538L19.9538 46.5694L4.43062 31.0462Z" fill="white"/>
<path d="M13.2918 31.0461L11.0605 33.2774L17.7224 39.9392L19.9537 37.708L22.3124 39.9074L31.0462 31.0461C29.5679 32.4814 27.5843 33.2774 25.5239 33.2622C23.4636 33.247 21.4919 32.4217 20.035 30.9648C18.5781 29.5079 17.7528 27.5362 17.7376 25.4759C17.7224 23.4155 18.5184 21.4319 19.9537 19.9536L11.0924 28.6874L13.2918 31.0461Z" fill="white"/>
<path d="M39.9076 17.7542L33.2457 11.0923L31.0145 13.3235L28.6876 11.0923L19.9539 19.9535C21.4321 18.5183 23.4158 17.7223 25.4761 17.7375C27.5365 17.7527 29.5081 18.5779 30.965 20.0349C32.422 21.4918 33.2472 23.4634 33.2624 25.5238C33.2776 27.5841 32.4816 29.5677 31.0464 31.046L39.9076 22.3123L37.6764 20.081L39.9076 17.7542Z" fill="white"/>
</g>
<defs>
<clipPath id="clip0_7021_1282">
<rect width="51" height="51" fill="white"/>
</clipPath>
</defs>
</svg>
