<svg width="45" height="61" viewBox="0 0 45 61" fill="none" xmlns="http://www.w3.org/2000/svg">
<rect x="8.49367" y="41.6963" width="6.94937" height="19.3038" fill="white"/>
<rect x="20.0759" y="31.6582" width="6.94937" height="29.3418" fill="white"/>
<rect x="31.6582" y="20.8481" width="6.94937" height="40.1519" fill="white"/>
<g clip-path="url(#clip0_7183_1170)">
<path d="M3.99406 31.3134C4.09857 31.2089 4.21127 31.1153 4.32359 31.0398C4.43592 30.9642 4.54492 30.9087 4.64233 30.8774C6.13026 30.3997 7.43198 29.8777 8.95079 28.8814C10.3557 27.9587 16.2115 22.9453 18.1696 21.0341L16.793 19.6575C16.7395 19.6032 16.7266 19.5109 16.7557 19.3918C16.7848 19.2728 16.8548 19.1323 16.957 18.9876C17.0592 18.843 17.1891 18.7005 17.3308 18.5778C17.4724 18.4551 17.6196 18.3575 17.7542 18.297L23.9519 17.3069C24.0449 17.2654 24.1294 17.2429 24.2003 17.2406C24.2712 17.2384 24.327 17.2565 24.3643 17.2938C24.4016 17.3311 24.4197 17.3869 24.4175 17.4578C24.4152 17.5287 24.3927 17.6132 24.3512 17.7062L23.9519 24.4948C23.8914 24.6293 23.7938 24.7765 23.6711 24.9182C23.5484 25.0598 23.4059 25.1897 23.2613 25.2919C23.1167 25.3941 22.9762 25.4641 22.8571 25.4932C22.7381 25.5224 22.6457 25.5094 22.5914 25.4559L21.2046 24.0691C17.9583 27.1978 10.8406 32.7755 8.45769 33.3996C6.48377 33.9166 4.84378 33.5389 3.58228 32.2774C3.50905 32.2042 3.51129 32.0615 3.58852 31.8807C3.66574 31.6999 3.81162 31.4959 3.99406 31.3134Z" fill="white"/>
</g>
<path d="M34.9399 6.05908C34.2171 6.25675 33.7816 6.81193 33.7816 7.33545C33.7816 7.85897 34.2171 8.41415 34.9399 8.61104V6.05908ZM36.0981 9.92061V12.4718C36.8208 12.2749 37.2563 11.7197 37.2563 11.1962C37.2563 10.6727 36.8208 10.1175 36.0981 9.92061Z" fill="white"/>
<path fill-rule="evenodd" clip-rule="evenodd" d="M43.2405 9.26595C43.2405 13.5305 39.7836 16.9875 35.519 16.9875C31.2544 16.9875 27.7975 13.5305 27.7975 9.26595C27.7975 5.00136 31.2544 1.54443 35.519 1.54443C39.7836 1.54443 43.2405 5.00136 43.2405 9.26595ZM35.519 4.05393C35.6726 4.05393 35.8199 4.11494 35.9285 4.22355C36.0371 4.33215 36.0981 4.47945 36.0981 4.63304V4.87781C37.3567 5.10328 38.4145 6.04917 38.4145 7.33557C38.4145 7.48916 38.3535 7.63646 38.2449 7.74507C38.1363 7.85367 37.989 7.91469 37.8354 7.91469C37.6818 7.91469 37.5345 7.85367 37.4259 7.74507C37.3173 7.63646 37.2563 7.48916 37.2563 7.33557C37.2563 6.81205 36.8208 6.25688 36.0981 6.05921V8.73857C37.3567 8.96404 38.4145 9.90993 38.4145 11.1963C38.4145 12.4827 37.3567 13.4286 36.0981 13.6541V13.8989C36.0981 14.0525 36.0371 14.1998 35.9285 14.3084C35.8199 14.417 35.6726 14.478 35.519 14.478C35.3654 14.478 35.2181 14.417 35.1095 14.3084C35.0009 14.1998 34.9399 14.0525 34.9399 13.8989V13.6541C33.6813 13.4286 32.6234 12.4827 32.6234 11.1963C32.6234 11.0427 32.6844 10.8954 32.793 10.7868C32.9016 10.6782 33.0489 10.6172 33.2025 10.6172C33.3561 10.6172 33.5034 10.6782 33.612 10.7868C33.7206 10.8954 33.7816 11.0427 33.7816 11.1963C33.7816 11.7199 34.2171 12.275 34.9399 12.4719V9.79333C33.6813 9.56786 32.6234 8.62198 32.6234 7.33557C32.6234 6.04917 33.6813 5.10328 34.9399 4.87781V4.63304C34.9399 4.47945 35.0009 4.33215 35.1095 4.22355C35.2181 4.11494 35.3654 4.05393 35.519 4.05393Z" fill="white"/>
<defs>
<clipPath id="clip0_7183_1170">
<rect width="31.1302" height="12.4955" fill="white" transform="translate(30.848 19.646) rotate(135)"/>
</clipPath>
</defs>
</svg>
