<svg width="44" height="44" viewBox="0 0 44 44" fill="none" xmlns="http://www.w3.org/2000/svg">
    <g clip-path="url(#clip0_5334_1317)">
        <path
            d="M11.6082 33.6082L4.83894 40.3774C4.64503 40.5361 4.44231 40.6154 4.23077 40.6154C4.01923 40.6154 3.81651 40.5361 3.6226 40.3774C3.46394 40.2011 3.38462 39.9984 3.38462 39.7692C3.38462 39.5401 3.46394 39.3373 3.6226 39.1611L10.3918 32.3918C10.5681 32.2332 10.7708 32.1538 11 32.1538C11.2292 32.1538 11.4319 32.2332 11.6082 32.3918C11.7668 32.5681 11.8462 32.7708 11.8462 33C11.8462 33.2292 11.7668 33.4319 11.6082 33.6082ZM16.0769 34.6923V43.1538C16.0769 43.4006 15.9976 43.6034 15.8389 43.762C15.6803 43.9207 15.4776 44 15.2308 44C14.984 44 14.7812 43.9207 14.6226 43.762C14.4639 43.6034 14.3846 43.4006 14.3846 43.1538V34.6923C14.3846 34.4455 14.4639 34.2428 14.6226 34.0841C14.7812 33.9255 14.984 33.8462 15.2308 33.8462C15.4776 33.8462 15.6803 33.9255 15.8389 34.0841C15.9976 34.2428 16.0769 34.4455 16.0769 34.6923ZM10.1538 28.7692C10.1538 29.016 10.0745 29.2188 9.91587 29.3774C9.75721 29.5361 9.55449 29.6154 9.30769 29.6154H0.846154C0.599359 29.6154 0.396635 29.5361 0.237981 29.3774C0.0793269 29.2188 0 29.016 0 28.7692C0 28.5224 0.0793269 28.3197 0.237981 28.1611C0.396635 28.0024 0.599359 27.9231 0.846154 27.9231H9.30769C9.55449 27.9231 9.75721 28.0024 9.91587 28.1611C10.0745 28.3197 10.1538 28.5224 10.1538 28.7692ZM43.5769 32.1538C43.5769 34.2692 42.8277 36.0585 41.3293 37.5216L37.4423 41.3822C35.9792 42.8454 34.1899 43.5769 32.0745 43.5769C29.9415 43.5769 28.1434 42.8277 26.6803 41.3293L17.8486 32.4712C17.4784 32.101 17.1082 31.6074 16.738 30.9904L23.0577 30.5144L30.2764 37.7596C30.7524 38.2356 31.3518 38.478 32.0745 38.4868C32.7973 38.4956 33.3966 38.262 33.8726 37.7861L37.7596 33.9255C38.2532 33.4319 38.5 32.8413 38.5 32.1538C38.5 31.4487 38.2532 30.8494 37.7596 30.3558L30.5144 23.0841L30.9904 16.7644C31.6074 17.1346 32.101 17.5048 32.4712 17.875L41.3558 26.7596C42.8365 28.2756 43.5769 30.0737 43.5769 32.1538ZM27.262 13.0096L20.9423 13.4856L13.7236 6.24038C13.23 5.7468 12.6306 5.5 11.9255 5.5C11.238 5.5 10.6386 5.73798 10.1274 6.21394L6.24038 10.0745C5.7468 10.5681 5.5 11.1587 5.5 11.8462C5.5 12.5513 5.7468 13.1506 6.24038 13.6442L13.4856 20.8894L13.0096 27.2356C12.3926 26.8654 11.899 26.4952 11.5288 26.125L2.64423 17.2404C1.16346 15.7244 0.423077 13.9263 0.423077 11.8462C0.423077 9.73077 1.17228 7.94151 2.67067 6.47837L6.55769 2.61779C8.02083 1.15465 9.8101 0.423077 11.9255 0.423077C14.0585 0.423077 15.8566 1.17228 17.3197 2.67067L26.1514 11.5288C26.5216 11.899 26.8918 12.3926 27.262 13.0096ZM44 15.2308C44 15.4776 43.9207 15.6803 43.762 15.8389C43.6034 15.9976 43.4006 16.0769 43.1538 16.0769H34.6923C34.4455 16.0769 34.2428 15.9976 34.0841 15.8389C33.9255 15.6803 33.8462 15.4776 33.8462 15.2308C33.8462 14.984 33.9255 14.7812 34.0841 14.6226C34.2428 14.4639 34.4455 14.3846 34.6923 14.3846H43.1538C43.4006 14.3846 43.6034 14.4639 43.762 14.6226C43.9207 14.7812 44 14.984 44 15.2308ZM29.6154 0.846154V9.30769C29.6154 9.55449 29.5361 9.75721 29.3774 9.91587C29.2188 10.0745 29.016 10.1538 28.7692 10.1538C28.5224 10.1538 28.3197 10.0745 28.1611 9.91587C28.0024 9.75721 27.9231 9.55449 27.9231 9.30769V0.846154C27.9231 0.599359 28.0024 0.396635 28.1611 0.237981C28.3197 0.0793269 28.5224 0 28.7692 0C29.016 0 29.2188 0.0793269 29.3774 0.237981C29.5361 0.396635 29.6154 0.599359 29.6154 0.846154ZM40.3774 4.83894L33.6082 11.6082C33.4143 11.7668 33.2115 11.8462 33 11.8462C32.7885 11.8462 32.5857 11.7668 32.3918 11.6082C32.2332 11.4319 32.1538 11.2292 32.1538 11C32.1538 10.7708 32.2332 10.5681 32.3918 10.3918L39.1611 3.6226C39.3373 3.46394 39.5401 3.38462 39.7692 3.38462C39.9984 3.38462 40.2011 3.46394 40.3774 3.6226C40.5361 3.79888 40.6154 4.0016 40.6154 4.23077C40.6154 4.45994 40.5361 4.66266 40.3774 4.83894Z"
            fill="url(#paint0_linear_5334_1317)" />
    </g>
    <defs>
        <linearGradient id="paint0_linear_5334_1317" x1="22" y1="0" x2="22" y2="44" gradientUnits="userSpaceOnUse">
            <stop stop-color="#7882F2" />
            <stop offset="1" stop-color="#6DA5E9" />
        </linearGradient>
        <clipPath id="clip0_5334_1317">
            <rect width="44" height="44" fill="white" />
        </clipPath>
    </defs>
</svg>