<svg width="69" height="46" viewBox="0 0 69 46" fill="none" xmlns="http://www.w3.org/2000/svg">
    <path
        d="M7.67104 23.9686L5.36658 21.6641L22.1415 4.88916H47.4784L65.0409 22.8462L62.5107 23.9686L46.3074 8.14865H23.491L7.67104 23.9686Z"
        fill="white" />
    <path
        d="M22.8163 13.038C26.4167 13.038 29.3353 10.1193 29.3353 6.51898C29.3353 2.91865 26.4167 0 22.8163 0C19.216 0 16.2974 2.91865 16.2974 6.51898C16.2974 10.1193 19.216 13.038 22.8163 13.038Z"
        fill="#758EEF" />
    <path
        d="M45.6328 13.038C49.2331 13.038 52.1517 10.1193 52.1517 6.51898C52.1517 2.91865 49.2331 0 45.6328 0C42.0324 0 39.1138 2.91865 39.1138 6.51898C39.1138 10.1193 42.0324 13.038 45.6328 13.038Z"
        fill="#758EEF" />
    <path
        d="M7.6711 21.5153L5.36664 23.8198L22.1416 40.5947H47.4784L65.041 22.6377L62.5108 21.5153L46.3075 37.3352H23.491L7.6711 21.5153Z"
        fill="white" />
    <path
        d="M6.51898 16.3717C10.1193 16.3717 13.038 19.2904 13.038 22.8907C13.038 26.491 10.1193 29.4097 6.51898 29.4097C2.91865 29.4097 0 26.491 0 22.8907C0 19.2904 2.91865 16.3717 6.51898 16.3717Z"
        fill="#758EEF" />
    <path
        d="M22.8165 32.4459C26.4168 32.4459 29.3354 35.3646 29.3354 38.9649C29.3354 42.5652 26.4168 45.4839 22.8165 45.4839C19.2161 45.4839 16.2975 42.5652 16.2975 38.9649C16.2975 35.3646 19.2161 32.4459 22.8165 32.4459Z"
        fill="#758EEF" />
    <path
        d="M45.6329 32.4459C49.2332 32.4459 52.1519 35.3646 52.1519 38.9649C52.1519 42.5652 49.2332 45.4839 45.6329 45.4839C42.0325 45.4839 39.1139 42.5652 39.1139 38.9649C39.1139 35.3646 42.0325 32.4459 45.6329 32.4459Z"
        fill="#758EEF" />
    <path
        d="M62.481 16.3717C66.0814 16.3717 69 19.2904 69 22.8907C69 26.491 66.0814 29.4097 62.481 29.4097C58.8807 29.4097 55.962 26.491 55.962 22.8907C55.962 19.2904 58.8807 16.3717 62.481 16.3717Z"
        fill="#758EEF" />
</svg>