<svg width="135" height="51" viewBox="0 0 135 51" fill="none" xmlns="http://www.w3.org/2000/svg">
<path d="M29.5806 30.7884V22.9682H26.9966V21.0815H34.188V22.9682H31.5767V30.7884H29.5806ZM39.788 29.9134C39.0862 30.597 38.2386 30.9388 37.2451 30.9388C36.2516 30.9388 35.404 30.597 34.7021 29.9134C34.0003 29.2207 33.6494 28.3731 33.6494 27.3705C33.6494 26.377 34.0003 25.5339 34.7021 24.8412C35.404 24.1485 36.2516 23.8022 37.2451 23.8022C38.2386 23.8022 39.0862 24.1485 39.788 24.8412C40.4898 25.5339 40.8407 26.377 40.8407 27.3705C40.8407 28.3731 40.4898 29.2207 39.788 29.9134ZM37.2451 29.1888C37.7281 29.1888 38.1292 29.0202 38.4482 28.683C38.7763 28.3366 38.9404 27.8991 38.9404 27.3705C38.9404 26.8418 38.7763 26.4089 38.4482 26.0717C38.1292 25.7253 37.7281 25.5521 37.2451 25.5521C36.7529 25.5521 36.3427 25.7253 36.0146 26.0717C35.6956 26.4089 35.5361 26.8418 35.5361 27.3705C35.5361 27.8991 35.6956 28.3366 36.0146 28.683C36.3427 29.0202 36.7529 29.1888 37.2451 29.1888ZM46.8535 30.7884L44.0645 27.6439V30.7884H42.1915V20.5346H44.0645V26.4681L46.2793 23.9526H48.5351L45.8281 27.0287L49.164 30.7884H46.8535ZM52.5466 30.9388C51.5076 30.9388 50.6417 30.6107 49.949 29.9544C49.2654 29.2982 48.9236 28.4369 48.9236 27.3705C48.9236 26.3497 49.2654 25.502 49.949 24.8275C50.6326 24.144 51.4893 23.8022 52.5193 23.8022C53.4672 23.8022 54.2647 24.0984 54.9118 24.6908C55.5589 25.2741 55.8825 26.099 55.8825 27.1654C55.8825 27.4662 55.8734 27.6804 55.8552 27.808H50.7419C50.7966 28.2546 50.9926 28.6055 51.3298 28.8607C51.6762 29.1068 52.0863 29.2298 52.5603 29.2298C53.3624 29.2298 53.9502 28.9427 54.3239 28.3685L55.7184 29.4076C55.0166 30.4284 53.9594 30.9388 52.5466 30.9388ZM50.8103 26.5365H54.0095C53.9275 26.1446 53.7406 25.8484 53.4489 25.6478C53.1664 25.4473 52.8383 25.3471 52.4646 25.3471C52.0818 25.3471 51.7309 25.4473 51.4119 25.6478C51.0929 25.8484 50.8923 26.1446 50.8103 26.5365ZM57.2651 30.7884V23.9526H59.1381V24.7318C59.5573 24.1121 60.209 23.8022 61.0931 23.8022C61.9134 23.8022 62.556 24.0756 63.0208 24.6225C63.4948 25.1602 63.7318 25.8803 63.7318 26.7826V30.7884H61.8588V27.097C61.8588 26.5957 61.7539 26.2084 61.5443 25.9349C61.3347 25.6524 61.0385 25.5111 60.6556 25.5111C60.1999 25.5111 59.8308 25.6752 59.5482 26.0033C59.2748 26.3314 59.1381 26.8145 59.1381 27.4525V30.7884H57.2651ZM66.3791 22.8315C66.0601 22.8315 65.7821 22.7175 65.5451 22.4897C65.3081 22.2527 65.1896 21.9702 65.1896 21.642C65.1896 21.3139 65.3081 21.0359 65.5451 20.8081C65.7821 20.5711 66.0601 20.4526 66.3791 20.4526C66.7163 20.4526 66.9989 20.5711 67.2267 20.8081C67.4637 21.0359 67.5822 21.3139 67.5822 21.642C67.5822 21.9702 67.4637 22.2527 67.2267 22.4897C66.9989 22.7175 66.7163 22.8315 66.3791 22.8315ZM65.4494 30.7884V23.9526H67.3224V30.7884H65.4494ZM68.7792 30.7884V29.3255L71.9784 25.6478H68.8202V23.9526H74.3983V25.4291L71.1991 29.0931H74.5076V30.7884H68.7792ZM79.0222 30.9388C77.9831 30.9388 77.1173 30.6107 76.4246 29.9544C75.741 29.2982 75.3992 28.4369 75.3992 27.3705C75.3992 26.3497 75.741 25.502 76.4246 24.8275C77.1082 24.144 77.9649 23.8022 78.9949 23.8022C79.9428 23.8022 80.7403 24.0984 81.3874 24.6908C82.0345 25.2741 82.3581 26.099 82.3581 27.1654C82.3581 27.4662 82.349 27.6804 82.3308 27.808H77.2175C77.2722 28.2546 77.4682 28.6055 77.8054 28.8607C78.1518 29.1068 78.5619 29.2298 79.0359 29.2298C79.8379 29.2298 80.4258 28.9427 80.7995 28.3685L82.194 29.4076C81.4922 30.4284 80.4349 30.9388 79.0222 30.9388ZM77.2859 26.5365H80.4851C80.403 26.1446 80.2162 25.8484 79.9245 25.6478C79.642 25.4473 79.3139 25.3471 78.9402 25.3471C78.5574 25.3471 78.2065 25.4473 77.8874 25.6478C77.5684 25.8484 77.3679 26.1446 77.2859 26.5365ZM86.516 30.9388C85.6137 30.9388 84.8526 30.5879 84.2328 29.8861C83.613 29.1843 83.3031 28.3457 83.3031 27.3705C83.3031 26.3952 83.613 25.5567 84.2328 24.8549C84.8526 24.1531 85.6137 23.8022 86.516 23.8022C86.9535 23.8022 87.3454 23.8933 87.6918 24.0756C88.0381 24.2579 88.3024 24.4721 88.4847 24.7182V20.5346H90.3578V30.7884H88.4847V30.0228C88.3024 30.2689 88.0381 30.4831 87.6918 30.6654C87.3454 30.8477 86.9535 30.9388 86.516 30.9388ZM85.6547 28.7103C85.9737 29.0567 86.393 29.2298 86.9125 29.2298C87.432 29.2298 87.8467 29.0567 88.1566 28.7103C88.4756 28.364 88.6351 27.9173 88.6351 27.3705C88.6351 26.8236 88.4756 26.377 88.1566 26.0307C87.8467 25.6843 87.432 25.5111 86.9125 25.5111C86.393 25.5111 85.9737 25.6843 85.6547 26.0307C85.3448 26.377 85.1898 26.8236 85.1898 27.3705C85.1898 27.9173 85.3448 28.364 85.6547 28.7103ZM95.4672 30.7884V21.0815H97.4496V28.9017H101.606V30.7884H95.4672ZM108.657 22.0248C109.305 22.6446 109.628 23.4194 109.628 24.349C109.628 25.2787 109.305 26.058 108.657 26.6869C108.01 27.3067 107.199 27.6166 106.224 27.6166H104.98V30.7884H102.997V21.0815H106.224C107.199 21.0815 108.01 21.3959 108.657 22.0248ZM107.29 25.3607C107.564 25.0964 107.7 24.7592 107.7 24.349C107.7 23.9389 107.564 23.6016 107.29 23.3373C107.017 23.073 106.652 22.9408 106.197 22.9408H104.98V25.7572H106.197C106.652 25.7572 107.017 25.6251 107.29 25.3607Z" fill="white"/>
<rect x="1.40138" y="0.951963" width="132.843" height="48.5346" rx="1.70896" stroke="white" stroke-width="1.13931"/>
</svg>
