<svg width="57" height="57" viewBox="0 0 57 57" fill="none" xmlns="http://www.w3.org/2000/svg">
<path d="M37.4062 49.875C39.3738 49.875 40.9688 48.28 40.9688 46.3125C40.9688 44.345 39.3738 42.75 37.4062 42.75C35.4387 42.75 33.8438 44.345 33.8438 46.3125C33.8438 48.28 35.4387 49.875 37.4062 49.875Z" fill="white"/>
<path d="M37.4062 14.25C39.3738 14.25 40.9688 12.655 40.9688 10.6875C40.9688 8.71999 39.3738 7.125 37.4062 7.125C35.4387 7.125 33.8438 8.71999 33.8438 10.6875C33.8438 12.655 35.4387 14.25 37.4062 14.25Z" fill="white"/>
<path d="M7.125 32.0625C9.09251 32.0625 10.6875 30.4675 10.6875 28.5C10.6875 26.5325 9.09251 24.9375 7.125 24.9375C5.15749 24.9375 3.5625 26.5325 3.5625 28.5C3.5625 30.4675 5.15749 32.0625 7.125 32.0625Z" fill="white"/>
<path d="M49.875 21.375C48.2997 21.3797 46.7704 21.9068 45.5268 22.8739C44.2832 23.8409 43.3956 25.1931 43.0029 26.7188H35.3721C35.1198 25.7142 34.6497 24.7775 33.9952 23.9748C33.3406 23.1721 32.5175 22.5232 31.5843 22.074C30.651 21.6248 29.6304 21.3863 28.5948 21.3754C27.5591 21.3645 26.5337 21.5815 25.5912 22.0109L19.9322 14.9393C20.8631 13.7169 21.3696 12.224 21.375 10.6875C21.375 9.27831 20.9571 7.90077 20.1742 6.72907C19.3913 5.55736 18.2785 4.64414 16.9766 4.10486C15.6747 3.56559 14.2421 3.42449 12.86 3.69941C11.4779 3.97433 10.2083 4.65292 9.21187 5.64937C8.21542 6.64582 7.53683 7.91537 7.26191 9.29748C6.98699 10.6796 7.12809 12.1122 7.66736 13.4141C8.20664 14.716 9.11986 15.8288 10.2916 16.6117C11.4633 17.3946 12.8408 17.8125 14.25 17.8125C15.2544 17.8102 16.2467 17.5934 17.1606 17.1766L22.8178 24.2482C21.8827 25.4683 21.3759 26.9627 21.3759 28.5C21.3759 30.0373 21.8827 31.5317 22.8178 32.7518L17.1606 39.8234C16.2467 39.4066 15.2544 39.1898 14.25 39.1875C12.8408 39.1875 11.4633 39.6054 10.2916 40.3883C9.11986 41.1712 8.20664 42.284 7.66736 43.5859C7.12809 44.8878 6.98699 46.3204 7.26191 47.7025C7.53683 49.0846 8.21542 50.3542 9.21187 51.3506C10.2083 52.3471 11.4779 53.0257 12.86 53.3006C14.2421 53.5755 15.6747 53.4344 16.9766 52.8951C18.2785 52.3559 19.3913 51.4426 20.1742 50.2709C20.9571 49.0992 21.375 47.7217 21.375 46.3125C21.3698 44.7759 20.8632 43.2831 19.9322 42.0607L25.5894 34.9891C26.532 35.4189 27.5576 35.6361 28.5935 35.6253C29.6293 35.6146 30.6502 35.3762 31.5837 34.9269C32.5171 34.4777 33.3404 33.8287 33.995 33.0259C34.6497 32.223 35.1198 31.286 35.3721 30.2813H43.0029C43.3384 31.5683 44.028 32.7355 44.9934 33.6504C45.9589 34.5652 47.1615 35.191 48.4647 35.4567C49.768 35.7224 51.1196 35.6173 52.3661 35.1535C53.6127 34.6896 54.7042 33.8855 55.5167 32.8325C56.3292 31.7795 56.8302 30.5197 56.9627 29.1963C57.0952 27.8729 56.854 26.5388 56.2665 25.3456C55.6789 24.1523 54.7686 23.1477 53.6388 22.4459C52.509 21.744 51.205 21.373 49.875 21.375ZM10.6875 10.6875C10.6875 9.98291 10.8964 9.29414 11.2879 8.70828C11.6793 8.12243 12.2357 7.66582 12.8867 7.39618C13.5377 7.12654 14.254 7.056 14.945 7.19346C15.6361 7.33092 16.2708 7.67021 16.7691 8.16844C17.2673 8.66666 17.6066 9.30144 17.7441 9.99249C17.8815 10.6836 17.811 11.3999 17.5413 12.0508C17.2717 12.7018 16.8151 13.2582 16.2292 13.6496C15.6434 14.0411 14.9546 14.25 14.25 14.25C13.3055 14.2491 12.3999 13.8734 11.732 13.2055C11.0641 12.5376 10.6884 11.632 10.6875 10.6875ZM14.25 49.875C13.5454 49.875 12.8566 49.6661 12.2708 49.2746C11.6849 48.8832 11.2283 48.3268 10.9587 47.6758C10.689 47.0249 10.6185 46.3086 10.756 45.6175C10.8934 44.9264 11.2327 44.2917 11.7309 43.7934C12.2292 43.2952 12.8639 42.9559 13.555 42.8185C14.2461 42.681 14.9624 42.7515 15.6133 43.0212C16.2643 43.2908 16.8207 43.7474 17.2121 44.3333C17.6036 44.9191 17.8125 45.6079 17.8125 46.3125C17.8116 47.257 17.4359 48.1626 16.768 48.8305C16.1001 49.4984 15.1945 49.8741 14.25 49.875ZM28.5 32.0625C27.7954 32.0625 27.1066 31.8536 26.5208 31.4621C25.9349 31.0707 25.4783 30.5143 25.2087 29.8633C24.939 29.2124 24.8685 28.4961 25.006 27.805C25.1434 27.1139 25.4827 26.4792 25.9809 25.9809C26.4792 25.4827 27.1139 25.1434 27.805 25.006C28.4961 24.8685 29.2124 24.939 29.8633 25.2087C30.5143 25.4783 31.0707 25.9349 31.4621 26.5208C31.8536 27.1066 32.0625 27.7954 32.0625 28.5C32.0616 29.4445 31.6859 30.3501 31.018 31.018C30.3501 31.6859 29.4445 32.0616 28.5 32.0625ZM49.875 32.0625C49.1704 32.0625 48.4816 31.8536 47.8958 31.4621C47.3099 31.0707 46.8533 30.5143 46.5837 29.8633C46.314 29.2124 46.2435 28.4961 46.381 27.805C46.5184 27.1139 46.8577 26.4792 47.3559 25.9809C47.8542 25.4827 48.4889 25.1434 49.18 25.006C49.8711 24.8685 50.5874 24.939 51.2383 25.2087C51.8893 25.4783 52.4457 25.9349 52.8371 26.5208C53.2286 27.1066 53.4375 27.7954 53.4375 28.5C53.4366 29.4445 53.0609 30.3501 52.393 31.018C51.7251 31.6859 50.8195 32.0616 49.875 32.0625Z" fill="url(#paint0_linear_5334_1793)"/>
<defs>
<linearGradient id="paint0_linear_5334_1793" x1="7.125" y1="3.69533" x2="56.8482" y2="53.4166" gradientUnits="userSpaceOnUse">
<stop stop-color="#7882F2"/>
<stop offset="1" stop-color="#6DA5E9"/>
</linearGradient>
</defs>
</svg>
