
<svg width="290" height="83" viewBox="0 0 290 83" fill="none" xmlns="http://www.w3.org/2000/svg">
<path d="M27.2366 53.4146C26.0791 53.4146 25.1449 53.0546 24.4339 52.3345C23.723 51.6145 23.3675 50.6529 23.3675 49.4498V43.5436H24.9671V49.4772C24.9671 50.2337 25.1722 50.8215 25.5824 51.2408C25.9925 51.6601 26.5439 51.8697 27.2366 51.8697C27.9293 51.8697 28.4762 51.6601 28.8772 51.2408C29.2874 50.8215 29.4925 50.2337 29.4925 49.4772V43.5436H31.0921V49.4498C31.0921 50.6438 30.732 51.6054 30.012 52.3345C29.2919 53.0546 28.3668 53.4146 27.2366 53.4146ZM33.0189 53.2505V46.4147H34.5228V47.3444C34.9512 46.6334 35.6439 46.278 36.6009 46.278C37.3939 46.278 38.0273 46.5377 38.5013 47.0573C38.9752 47.5768 39.2122 48.2695 39.2122 49.1354V53.2505H37.7083V49.3815C37.7083 48.8346 37.5807 48.4108 37.3255 48.11C37.0703 47.8001 36.7239 47.6451 36.2865 47.6451C35.7669 47.6451 35.3431 47.8411 35.015 48.233C34.6869 48.625 34.5228 49.1764 34.5228 49.8873V53.2505H33.0189ZM41.8884 44.9245C41.615 44.9245 41.378 44.8288 41.1775 44.6374C40.977 44.4369 40.8767 44.1953 40.8767 43.9128C40.8767 43.6393 40.977 43.4069 41.1775 43.2155C41.378 43.015 41.615 42.9147 41.8884 42.9147C42.171 42.9147 42.408 43.015 42.5994 43.2155C42.7908 43.4069 42.8865 43.6393 42.8865 43.9128C42.8865 44.1953 42.7908 44.4369 42.5994 44.6374C42.408 44.8288 42.171 44.9245 41.8884 44.9245ZM41.1365 53.2505V46.4147H42.6404V53.2505H41.1365ZM44.839 43.5436H46.3018L49.6924 48.1373L53.0967 43.5436H54.5595V53.2505H52.9463V46.2916L49.7061 50.6939L46.4386 46.278V53.2505H44.839V43.5436ZM56.9352 53.2505V43.5436H58.5348V51.7193H62.9781V53.2505H56.9352ZM72.6841 52.3619C72.0005 53.0455 71.1528 53.3873 70.1411 53.3873C69.1294 53.3873 68.2772 53.0455 67.5845 52.3619C66.9009 51.6692 66.5591 50.8261 66.5591 49.8326C66.5591 48.8391 66.9009 48.0006 67.5845 47.317C68.2772 46.6243 69.1294 46.278 70.1411 46.278C71.1528 46.278 72.0005 46.6243 72.6841 47.317C73.3768 48.0006 73.7231 48.8391 73.7231 49.8326C73.7231 50.8261 73.3768 51.6692 72.6841 52.3619ZM70.1411 51.9928C70.7336 51.9928 71.2212 51.7877 71.604 51.3775C71.9959 50.9583 72.1919 50.4433 72.1919 49.8326C72.1919 49.222 71.9959 48.7115 71.604 48.3014C71.2212 47.8821 70.7336 47.6725 70.1411 47.6725C69.5396 47.6725 69.0428 47.8821 68.6509 48.3014C68.2681 48.7115 68.0767 49.222 68.0767 49.8326C68.0767 50.4433 68.2681 50.9583 68.6509 51.3775C69.0428 51.7877 69.5396 51.9928 70.1411 51.9928ZM76.7395 56.1079H75.2357V46.4147H76.7395V47.3307C76.9492 47.039 77.25 46.7929 77.6419 46.5924C78.0429 46.3828 78.4759 46.278 78.9407 46.278C79.8704 46.278 80.6497 46.6243 81.2786 47.317C81.9166 48.0097 82.2356 48.8483 82.2356 49.8326C82.2356 50.817 81.9166 51.6555 81.2786 52.3482C80.6497 53.0409 79.8704 53.3873 78.9407 53.3873C78.4759 53.3873 78.0429 53.287 77.6419 53.0865C77.25 52.8769 76.9492 52.6262 76.7395 52.3345V56.1079ZM78.6673 52.0201C79.2597 52.0201 79.7473 51.8105 80.1301 51.3912C80.5129 50.9719 80.7043 50.4524 80.7043 49.8326C80.7043 49.2128 80.5129 48.6933 80.1301 48.274C79.7473 47.8548 79.2597 47.6451 78.6673 47.6451C78.0657 47.6451 77.5735 47.8548 77.1907 48.274C76.8079 48.6933 76.6165 49.2128 76.6165 49.8326C76.6165 50.4524 76.8079 50.9719 77.1907 51.3912C77.5735 51.8105 78.0657 52.0201 78.6673 52.0201ZM86.6004 53.3189C85.9077 53.3189 85.3426 53.1275 84.9051 52.7447C84.4767 52.3528 84.2625 51.7877 84.2625 51.0494V47.7545H82.8406V46.4147H84.2625V44.5143H85.7664V46.4147H87.7215V47.7545H85.7664V50.8033C85.7664 51.2226 85.8575 51.5234 86.0398 51.7056C86.2221 51.8788 86.5138 51.9654 86.9148 51.9654C87.2429 51.9654 87.5118 51.9198 87.7215 51.8287V53.1685C87.3933 53.2688 87.0196 53.3189 86.6004 53.3189ZM89.8996 44.9245C89.6262 44.9245 89.3892 44.8288 89.1887 44.6374C88.9882 44.4369 88.8879 44.1953 88.8879 43.9128C88.8879 43.6393 88.9882 43.4069 89.1887 43.2155C89.3892 43.015 89.6262 42.9147 89.8996 42.9147C90.1822 42.9147 90.4192 43.015 90.6106 43.2155C90.802 43.4069 90.8977 43.6393 90.8977 43.9128C90.8977 44.1953 90.802 44.4369 90.6106 44.6374C90.4192 44.8288 90.1822 44.9245 89.8996 44.9245ZM89.1477 53.2505V46.4147H90.6516V53.2505H89.1477ZM101.381 53.2505V49.4088C101.381 48.8528 101.276 48.4199 101.067 48.11C100.866 47.8001 100.566 47.6451 100.165 47.6451C99.6815 47.6451 99.2941 47.832 99.0024 48.2057C98.7108 48.5794 98.5558 49.1035 98.5376 49.7779V53.2505H97.0337V49.4088C97.0337 48.8528 96.9289 48.4199 96.7193 48.11C96.5187 47.8001 96.218 47.6451 95.8169 47.6451C95.3156 47.6451 94.9146 47.8411 94.6138 48.233C94.3221 48.625 94.1763 49.1764 94.1763 49.8873V53.2505H92.6724V46.4147H94.1763V47.3444C94.5956 46.6334 95.2427 46.278 96.1177 46.278C97.1476 46.278 97.854 46.7291 98.2368 47.6315C98.4282 47.2031 98.7199 46.8704 99.1118 46.6334C99.5128 46.3965 99.9503 46.278 100.424 46.278C101.19 46.278 101.791 46.5377 102.229 47.0573C102.666 47.5768 102.885 48.2786 102.885 49.1627V53.2505H101.381ZM105.561 44.9245C105.287 44.9245 105.05 44.8288 104.85 44.6374C104.649 44.4369 104.549 44.1953 104.549 43.9128C104.549 43.6393 104.649 43.4069 104.85 43.2155C105.05 43.015 105.287 42.9147 105.561 42.9147C105.843 42.9147 106.08 43.015 106.272 43.2155C106.463 43.4069 106.559 43.6393 106.559 43.9128C106.559 44.1953 106.463 44.4369 106.272 44.6374C106.08 44.8288 105.843 44.9245 105.561 44.9245ZM104.809 53.2505V46.4147H106.313V53.2505H104.809ZM107.869 53.2505V52.0611L111.451 47.7819H107.923V46.4147H113.392V47.6178L109.81 51.8834H113.501V53.2505H107.869ZM118.019 53.3873C116.98 53.3873 116.123 53.0546 115.449 52.3892C114.783 51.7239 114.451 50.8717 114.451 49.8326C114.451 48.8209 114.788 47.9778 115.462 47.3034C116.137 46.6198 116.989 46.278 118.019 46.278C118.967 46.278 119.751 46.5788 120.37 47.1803C120.999 47.7819 121.314 48.6113 121.314 49.6686C121.314 49.8509 121.309 50.0149 121.3 50.1607H115.927C115.964 50.7167 116.178 51.1679 116.57 51.5142C116.962 51.8515 117.449 52.0201 118.032 52.0201C118.907 52.0201 119.559 51.6737 119.988 50.981L121.136 51.8013C120.48 52.8586 119.441 53.3873 118.019 53.3873ZM115.995 49.067H119.796C119.714 48.5931 119.5 48.2239 119.154 47.9596C118.816 47.6862 118.42 47.5494 117.964 47.5494C117.49 47.5494 117.066 47.6816 116.693 47.9459C116.328 48.2102 116.096 48.5839 115.995 49.067ZM125.033 53.3873C124.405 53.3873 123.849 53.2688 123.366 53.0318C122.882 52.7857 122.522 52.4211 122.285 51.9381L123.393 51.1451C123.53 51.4368 123.748 51.6692 124.049 51.8424C124.35 52.0064 124.678 52.0885 125.033 52.0885C125.316 52.0885 125.548 52.0247 125.731 51.897C125.922 51.7694 126.018 51.5917 126.018 51.3639C126.018 51.1633 125.94 50.9993 125.785 50.8717C125.64 50.7441 125.366 50.6165 124.965 50.4889L124.364 50.3248C123.151 49.9967 122.554 49.2994 122.573 48.233C122.573 47.6406 122.805 47.1666 123.27 46.8112C123.735 46.4557 124.318 46.278 125.02 46.278C126.077 46.278 126.847 46.6653 127.33 47.4401L126.291 48.233C125.945 47.7682 125.512 47.5358 124.992 47.5358C124.746 47.5358 124.532 47.595 124.35 47.7135C124.168 47.8229 124.076 47.9778 124.076 48.1783C124.076 48.3606 124.136 48.5156 124.254 48.6432C124.373 48.7708 124.587 48.8847 124.897 48.985L125.594 49.1901C126.232 49.3815 126.711 49.6412 127.03 49.9693C127.349 50.2883 127.508 50.7213 127.508 51.2682C127.508 51.9153 127.276 52.4302 126.811 52.8131C126.346 53.1959 125.754 53.3873 125.033 53.3873ZM132.286 53.2505V42.9968H133.79V53.2505H132.286ZM136.562 44.9245C136.289 44.9245 136.052 44.8288 135.851 44.6374C135.651 44.4369 135.551 44.1953 135.551 43.9128C135.551 43.6393 135.651 43.4069 135.851 43.2155C136.052 43.015 136.289 42.9147 136.562 42.9147C136.845 42.9147 137.082 43.015 137.273 43.2155C137.465 43.4069 137.56 43.6393 137.56 43.9128C137.56 44.1953 137.465 44.4369 137.273 44.6374C137.082 44.8288 136.845 44.9245 136.562 44.9245ZM135.81 53.2505V46.4147H137.314V53.2505H135.81ZM145.829 56.1079H144.325V52.3345C144.116 52.6262 143.815 52.8769 143.423 53.0865C143.031 53.287 142.603 53.3873 142.138 53.3873C141.208 53.3873 140.424 53.0409 139.786 52.3482C139.157 51.6555 138.843 50.817 138.843 49.8326C138.843 48.8483 139.157 48.0097 139.786 47.317C140.424 46.6243 141.208 46.278 142.138 46.278C142.603 46.278 143.031 46.3828 143.423 46.5924C143.815 46.7929 144.116 47.039 144.325 47.3307V46.4147H145.829V56.1079ZM140.948 51.3912C141.331 51.8105 141.819 52.0201 142.411 52.0201C143.004 52.0201 143.491 51.8105 143.874 51.3912C144.257 50.9719 144.448 50.4524 144.448 49.8326C144.448 49.2128 144.257 48.6933 143.874 48.274C143.491 47.8548 143.004 47.6451 142.411 47.6451C141.819 47.6451 141.331 47.8548 140.948 48.274C140.566 48.6933 140.374 49.2128 140.374 49.8326C140.374 50.4524 140.566 50.9719 140.948 51.3912ZM150.314 53.3873C149.53 53.3873 148.91 53.1275 148.455 52.608C147.999 52.0793 147.771 51.3775 147.771 50.5025V46.4147H149.275V50.2564C149.275 50.8033 149.393 51.2363 149.63 51.5553C149.867 51.8651 150.204 52.0201 150.642 52.0201C151.152 52.0201 151.558 51.8287 151.859 51.4459C152.16 51.054 152.31 50.498 152.31 49.7779V46.4147H153.814V53.2505H152.31V52.3209C151.909 53.0318 151.244 53.3873 150.314 53.3873ZM156.589 44.9245C156.316 44.9245 156.079 44.8288 155.878 44.6374C155.678 44.4369 155.578 44.1953 155.578 43.9128C155.578 43.6393 155.678 43.4069 155.878 43.2155C156.079 43.015 156.316 42.9147 156.589 42.9147C156.872 42.9147 157.109 43.015 157.3 43.2155C157.492 43.4069 157.587 43.6393 157.587 43.9128C157.587 44.1953 157.492 44.4369 157.3 44.6374C157.109 44.8288 156.872 44.9245 156.589 44.9245ZM155.837 53.2505V46.4147H157.341V53.2505H155.837ZM162.165 53.3873C161.235 53.3873 160.451 53.0409 159.813 52.3482C159.184 51.6555 158.87 50.817 158.87 49.8326C158.87 48.8483 159.184 48.0097 159.813 47.317C160.451 46.6243 161.235 46.278 162.165 46.278C162.63 46.278 163.058 46.3828 163.45 46.5924C163.842 46.7929 164.143 47.039 164.352 47.3307V42.9968H165.856V53.2505H164.352V52.3345C164.143 52.6262 163.842 52.8769 163.45 53.0865C163.058 53.287 162.63 53.3873 162.165 53.3873ZM160.975 51.3912C161.358 51.8105 161.846 52.0201 162.438 52.0201C163.031 52.0201 163.518 51.8105 163.901 51.3912C164.284 50.9719 164.475 50.4524 164.475 49.8326C164.475 49.2128 164.284 48.6933 163.901 48.274C163.518 47.8548 163.031 47.6451 162.438 47.6451C161.846 47.6451 161.358 47.8548 160.975 48.274C160.593 48.6933 160.401 49.2128 160.401 49.8326C160.401 50.4524 160.593 50.9719 160.975 51.3912ZM168.645 44.9245C168.372 44.9245 168.135 44.8288 167.935 44.6374C167.734 44.4369 167.634 44.1953 167.634 43.9128C167.634 43.6393 167.734 43.4069 167.935 43.2155C168.135 43.015 168.372 42.9147 168.645 42.9147C168.928 42.9147 169.165 43.015 169.356 43.2155C169.548 43.4069 169.644 43.6393 169.644 43.9128C169.644 44.1953 169.548 44.4369 169.356 44.6374C169.165 44.8288 168.928 44.9245 168.645 44.9245ZM167.894 53.2505V46.4147H169.397V53.2505H167.894ZM174.385 53.3189C173.692 53.3189 173.127 53.1275 172.69 52.7447C172.261 52.3528 172.047 51.7877 172.047 51.0494V47.7545H170.625V46.4147H172.047V44.5143H173.551V46.4147H175.506V47.7545H173.551V50.8033C173.551 51.2226 173.642 51.5234 173.824 51.7056C174.007 51.8788 174.298 51.9654 174.699 51.9654C175.028 51.9654 175.296 51.9198 175.506 51.8287V53.1685C175.178 53.2688 174.804 53.3189 174.385 53.3189ZM179.12 56.1079H177.466L178.928 52.8814L175.989 46.4147H177.643L179.735 51.2545L181.84 46.4147H183.508L179.12 56.1079ZM188.97 56.1079H187.467V46.4147H188.97V47.3307C189.18 47.039 189.481 46.7929 189.873 46.5924C190.274 46.3828 190.707 46.278 191.172 46.278C192.101 46.278 192.881 46.6243 193.509 47.317C194.147 48.0097 194.466 48.8483 194.466 49.8326C194.466 50.817 194.147 51.6555 193.509 52.3482C192.881 53.0409 192.101 53.3873 191.172 53.3873C190.707 53.3873 190.274 53.287 189.873 53.0865C189.481 52.8769 189.18 52.6262 188.97 52.3345V56.1079ZM190.898 52.0201C191.491 52.0201 191.978 51.8105 192.361 51.3912C192.744 50.9719 192.935 50.4524 192.935 49.8326C192.935 49.2128 192.744 48.6933 192.361 48.274C191.978 47.8548 191.491 47.6451 190.898 47.6451C190.297 47.6451 189.804 47.8548 189.422 48.274C189.039 48.6933 188.847 49.2128 188.847 49.8326C188.847 50.4524 189.039 50.9719 189.422 51.3912C189.804 51.8105 190.297 52.0201 190.898 52.0201ZM195.998 53.2505V46.4147H197.502V47.6315C197.629 47.2487 197.862 46.9388 198.199 46.7018C198.545 46.4648 198.915 46.3463 199.307 46.3463C199.544 46.3463 199.739 46.3646 199.894 46.401V47.9459C199.676 47.8639 199.425 47.8229 199.142 47.8229C198.687 47.8229 198.299 48.0097 197.98 48.3834C197.661 48.748 197.502 49.2584 197.502 49.9147V53.2505H195.998ZM206.584 52.3619C205.9 53.0455 205.053 53.3873 204.041 53.3873C203.029 53.3873 202.177 53.0455 201.484 52.3619C200.801 51.6692 200.459 50.8261 200.459 49.8326C200.459 48.8391 200.801 48.0006 201.484 47.317C202.177 46.6243 203.029 46.278 204.041 46.278C205.053 46.278 205.9 46.6243 206.584 47.317C207.277 48.0006 207.623 48.8391 207.623 49.8326C207.623 50.8261 207.277 51.6692 206.584 52.3619ZM204.041 51.9928C204.634 51.9928 205.121 51.7877 205.504 51.3775C205.896 50.9583 206.092 50.4433 206.092 49.8326C206.092 49.222 205.896 48.7115 205.504 48.3014C205.121 47.8821 204.634 47.6725 204.041 47.6725C203.44 47.6725 202.943 47.8821 202.551 48.3014C202.168 48.7115 201.977 49.222 201.977 49.8326C201.977 50.4433 202.168 50.9583 202.551 51.3775C202.943 51.7877 203.44 51.9928 204.041 51.9928ZM211.095 53.2505L208.005 46.4147H209.673L211.751 51.2135L213.843 46.4147H215.524L212.421 53.2505H211.095ZM217.324 44.9245C217.051 44.9245 216.814 44.8288 216.613 44.6374C216.413 44.4369 216.313 44.1953 216.313 43.9128C216.313 43.6393 216.413 43.4069 216.613 43.2155C216.814 43.015 217.051 42.9147 217.324 42.9147C217.607 42.9147 217.844 43.015 218.035 43.2155C218.227 43.4069 218.322 43.6393 218.322 43.9128C218.322 44.1953 218.227 44.4369 218.035 44.6374C217.844 44.8288 217.607 44.9245 217.324 44.9245ZM216.572 53.2505V46.4147H218.076V53.2505H216.572ZM222.271 53.3873C221.642 53.3873 221.086 53.2688 220.603 53.0318C220.12 52.7857 219.76 52.4211 219.523 51.9381L220.63 51.1451C220.767 51.4368 220.986 51.6692 221.286 51.8424C221.587 52.0064 221.915 52.0885 222.271 52.0885C222.553 52.0885 222.786 52.0247 222.968 51.897C223.159 51.7694 223.255 51.5917 223.255 51.3639C223.255 51.1633 223.178 50.9993 223.023 50.8717C222.877 50.7441 222.604 50.6165 222.202 50.4889L221.601 50.3248C220.389 49.9967 219.792 49.2994 219.81 48.233C219.81 47.6406 220.042 47.1666 220.507 46.8112C220.972 46.4557 221.555 46.278 222.257 46.278C223.314 46.278 224.085 46.6653 224.568 47.4401L223.529 48.233C223.182 47.7682 222.749 47.5358 222.23 47.5358C221.984 47.5358 221.77 47.595 221.587 47.7135C221.405 47.8229 221.314 47.9778 221.314 48.1783C221.314 48.3606 221.373 48.5156 221.492 48.6432C221.61 48.7708 221.824 48.8847 222.134 48.985L222.831 49.1901C223.469 49.3815 223.948 49.6412 224.267 49.9693C224.586 50.2883 224.745 50.7213 224.745 51.2682C224.745 51.9153 224.513 52.4302 224.048 52.8131C223.583 53.1959 222.991 53.3873 222.271 53.3873ZM227.057 44.9245C226.784 44.9245 226.547 44.8288 226.346 44.6374C226.146 44.4369 226.046 44.1953 226.046 43.9128C226.046 43.6393 226.146 43.4069 226.346 43.2155C226.547 43.015 226.784 42.9147 227.057 42.9147C227.34 42.9147 227.577 43.015 227.768 43.2155C227.96 43.4069 228.055 43.6393 228.055 43.9128C228.055 44.1953 227.96 44.4369 227.768 44.6374C227.577 44.8288 227.34 44.9245 227.057 44.9245ZM226.305 53.2505V46.4147H227.809V53.2505H226.305ZM235.463 52.3619C234.779 53.0455 233.932 53.3873 232.92 53.3873C231.908 53.3873 231.056 53.0455 230.363 52.3619C229.68 51.6692 229.338 50.8261 229.338 49.8326C229.338 48.8391 229.68 48.0006 230.363 47.317C231.056 46.6243 231.908 46.278 232.92 46.278C233.932 46.278 234.779 46.6243 235.463 47.317C236.156 48.0006 236.502 48.8391 236.502 49.8326C236.502 50.8261 236.156 51.6692 235.463 52.3619ZM232.92 51.9928C233.512 51.9928 234 51.7877 234.383 51.3775C234.775 50.9583 234.971 50.4433 234.971 49.8326C234.971 49.222 234.775 48.7115 234.383 48.3014C234 47.8821 233.512 47.6725 232.92 47.6725C232.318 47.6725 231.822 47.8821 231.43 48.3014C231.047 48.7115 230.856 49.222 230.856 49.8326C230.856 50.4433 231.047 50.9583 231.43 51.3775C231.822 51.7877 232.318 51.9928 232.92 51.9928ZM238.014 53.2505V46.4147H239.518V47.3444C239.947 46.6334 240.639 46.278 241.596 46.278C242.389 46.278 243.023 46.5377 243.497 47.0573C243.971 47.5768 244.208 48.2695 244.208 49.1354V53.2505H242.704V49.3815C242.704 48.8346 242.576 48.4108 242.321 48.11C242.066 47.8001 241.719 47.6451 241.282 47.6451C240.762 47.6451 240.339 47.8411 240.011 48.233C239.682 48.625 239.518 49.1764 239.518 49.8873V53.2505H238.014ZM246.884 44.9245C246.611 44.9245 246.374 44.8288 246.173 44.6374C245.973 44.4369 245.872 44.1953 245.872 43.9128C245.872 43.6393 245.973 43.4069 246.173 43.2155C246.374 43.015 246.611 42.9147 246.884 42.9147C247.167 42.9147 247.404 43.015 247.595 43.2155C247.786 43.4069 247.882 43.6393 247.882 43.9128C247.882 44.1953 247.786 44.4369 247.595 44.6374C247.404 44.8288 247.167 44.9245 246.884 44.9245ZM246.132 53.2505V46.4147H247.636V53.2505H246.132ZM249.657 53.2505V46.4147H251.161V47.3444C251.589 46.6334 252.282 46.278 253.239 46.278C254.032 46.278 254.665 46.5377 255.139 47.0573C255.613 47.5768 255.85 48.2695 255.85 49.1354V53.2505H254.346V49.3815C254.346 48.8346 254.219 48.4108 253.963 48.11C253.708 47.8001 253.362 47.6451 252.924 47.6451C252.405 47.6451 251.981 47.8411 251.653 48.233C251.325 48.625 251.161 49.1764 251.161 49.8873V53.2505H249.657ZM259.401 51.2408C259.793 51.6327 260.276 51.8287 260.85 51.8287C261.425 51.8287 261.908 51.6327 262.3 51.2408C262.692 50.8398 262.888 50.3385 262.888 49.7369C262.888 49.1354 262.692 48.6386 262.3 48.2467C261.908 47.8457 261.425 47.6451 260.85 47.6451C260.276 47.6451 259.793 47.8457 259.401 48.2467C259.009 48.6386 258.813 49.1354 258.813 49.7369C258.813 50.3385 259.009 50.8398 259.401 51.2408ZM260.714 56.2447C260.048 56.2447 259.433 56.1307 258.868 55.9029C258.303 55.6841 257.852 55.3788 257.515 54.9869L258.431 53.9068C259.041 54.5721 259.798 54.9048 260.7 54.9048C261.293 54.9048 261.785 54.7134 262.177 54.3306C262.569 53.9569 262.765 53.4374 262.765 52.772V52.1431C262.546 52.453 262.24 52.7082 261.849 52.9088C261.457 53.1093 261.033 53.2095 260.577 53.2095C259.656 53.2095 258.877 52.8769 258.239 52.2115C257.61 51.537 257.296 50.7122 257.296 49.7369C257.296 48.7708 257.61 47.955 258.239 47.2897C258.877 46.6152 259.656 46.278 260.577 46.278C261.033 46.278 261.457 46.3782 261.849 46.5788C262.24 46.7702 262.546 47.0208 262.765 47.3307V46.4147H264.268V52.7857C264.268 53.925 263.94 54.7863 263.284 55.3697C262.637 55.953 261.78 56.2447 260.714 56.2447ZM19.8335 70.3873C18.9038 70.3873 18.1199 70.0409 17.4819 69.3482C16.853 68.6555 16.5386 67.817 16.5386 66.8326C16.5386 65.8483 16.853 65.0097 17.4819 64.317C18.1199 63.6243 18.9038 63.278 19.8335 63.278C20.2983 63.278 20.7267 63.3828 21.1186 63.5924C21.5105 63.7929 21.8113 64.039 22.0209 64.3307V63.4147H23.5248V70.2505H22.0209V69.3345C21.8113 69.6262 21.5105 69.8769 21.1186 70.0865C20.7267 70.287 20.2983 70.3873 19.8335 70.3873ZM18.644 68.3912C19.0268 68.8105 19.5145 69.0201 20.1069 69.0201C20.6993 69.0201 21.187 68.8105 21.5698 68.3912C21.9526 67.9719 22.144 67.4524 22.144 66.8326C22.144 66.2128 21.9526 65.6933 21.5698 65.274C21.187 64.8548 20.6993 64.6451 20.1069 64.6451C19.5145 64.6451 19.0268 64.8548 18.644 65.274C18.2612 65.6933 18.0698 66.2128 18.0698 66.8326C18.0698 67.4524 18.2612 67.9719 18.644 68.3912ZM25.5622 70.2505V63.4147H27.0661V64.3444C27.4945 63.6334 28.1872 63.278 29.1442 63.278C29.9372 63.278 30.5706 63.5377 31.0446 64.0573C31.5185 64.5768 31.7555 65.2695 31.7555 66.1354V70.2505H30.2516V66.3815C30.2516 65.8346 30.124 65.4108 29.8688 65.11C29.6136 64.8001 29.2673 64.6451 28.8298 64.6451C28.3102 64.6451 27.8864 64.8411 27.5583 65.233C27.2302 65.625 27.0661 66.1764 27.0661 66.8873V70.2505H25.5622ZM36.4825 70.3873C35.5528 70.3873 34.769 70.0409 34.131 69.3482C33.5021 68.6555 33.1876 67.817 33.1876 66.8326C33.1876 65.8483 33.5021 65.0097 34.131 64.317C34.769 63.6243 35.5528 63.278 36.4825 63.278C36.9473 63.278 37.3757 63.3828 37.7676 63.5924C38.1596 63.7929 38.4603 64.039 38.67 64.3307V59.9968H40.1739V70.2505H38.67V69.3345C38.4603 69.6262 38.1596 69.8769 37.7676 70.0865C37.3757 70.287 36.9473 70.3873 36.4825 70.3873ZM35.2931 68.3912C35.6759 68.8105 36.1635 69.0201 36.7559 69.0201C37.3484 69.0201 37.836 68.8105 38.2188 68.3912C38.6016 67.9719 38.793 67.4524 38.793 66.8326C38.793 66.2128 38.6016 65.6933 38.2188 65.274C37.836 64.8548 37.3484 64.6451 36.7559 64.6451C36.1635 64.6451 35.6759 64.8548 35.2931 65.274C34.9103 65.6933 34.7189 66.2128 34.7189 66.8326C34.7189 67.4524 34.9103 67.9719 35.2931 68.3912ZM48.5461 70.3873C47.5161 70.3873 46.6548 70.05 45.9621 69.3756C45.2785 68.692 44.9367 67.8443 44.9367 66.8326C44.9367 65.8209 45.2785 64.9778 45.9621 64.3034C46.6548 63.6198 47.5161 63.278 48.5461 63.278C49.2479 63.278 49.8768 63.4466 50.4328 63.7838C50.9979 64.1211 51.4308 64.5813 51.7316 65.1647L50.4191 65.8756C50.2459 65.511 49.9953 65.2194 49.6672 65.0006C49.339 64.7819 48.9653 64.6725 48.5461 64.6725C47.9445 64.6725 47.4478 64.8821 47.0559 65.3014C46.6639 65.7115 46.468 66.222 46.468 66.8326C46.468 67.4433 46.6639 67.9583 47.0559 68.3775C47.4478 68.7877 47.9445 68.9928 48.5461 68.9928C48.9653 68.9928 49.339 68.8834 49.6672 68.6646C49.9953 68.4459 50.2459 68.1542 50.4191 67.7896L51.7316 68.5006C51.4308 69.0839 50.9979 69.5442 50.4328 69.8814C49.8768 70.2186 49.2479 70.3873 48.5461 70.3873ZM58.7387 69.3619C58.0551 70.0455 57.2074 70.3873 56.1957 70.3873C55.184 70.3873 54.3318 70.0455 53.6391 69.3619C52.9555 68.6692 52.6137 67.8261 52.6137 66.8326C52.6137 65.8391 52.9555 65.0006 53.6391 64.317C54.3318 63.6243 55.184 63.278 56.1957 63.278C57.2074 63.278 58.0551 63.6243 58.7387 64.317C59.4314 65.0006 59.7777 65.8391 59.7777 66.8326C59.7777 67.8261 59.4314 68.6692 58.7387 69.3619ZM56.1957 68.9928C56.7882 68.9928 57.2758 68.7877 57.6586 68.3775C58.0505 67.9583 58.2465 67.4433 58.2465 66.8326C58.2465 66.222 58.0505 65.7115 57.6586 65.3014C57.2758 64.8821 56.7882 64.6725 56.1957 64.6725C55.5942 64.6725 55.0974 64.8821 54.7055 65.3014C54.3227 65.7115 54.1313 66.222 54.1313 66.8326C54.1313 67.4433 54.3227 67.9583 54.7055 68.3775C55.0974 68.7877 55.5942 68.9928 56.1957 68.9928ZM61.2902 70.2505V63.4147H62.7941V64.3444C63.2225 63.6334 63.9152 63.278 64.8722 63.278C65.6652 63.278 66.2987 63.5377 66.7726 64.0573C67.2466 64.5768 67.4835 65.2695 67.4835 66.1354V70.2505H65.9796V66.3815C65.9796 65.8346 65.852 65.4108 65.5968 65.11C65.3416 64.8001 64.9953 64.6451 64.5578 64.6451C64.0383 64.6451 63.6144 64.8411 63.2863 65.233C62.9582 65.625 62.7941 66.1764 62.7941 66.8873V70.2505H61.2902ZM71.5816 70.3873C70.9527 70.3873 70.3967 70.2688 69.9137 70.0318C69.4306 69.7857 69.0706 69.4211 68.8336 68.9381L69.941 68.1451C70.0777 68.4368 70.2965 68.6692 70.5973 68.8424C70.898 69.0064 71.2262 69.0885 71.5816 69.0885C71.8642 69.0885 72.0966 69.0247 72.2789 68.897C72.4703 68.7694 72.566 68.5917 72.566 68.3639C72.566 68.1633 72.4885 67.9993 72.3336 67.8717C72.1877 67.7441 71.9143 67.6165 71.5133 67.4889L70.9117 67.3248C69.6995 66.9967 69.1025 66.2994 69.1207 65.233C69.1207 64.6406 69.3531 64.1666 69.818 63.8112C70.2828 63.4557 70.8661 63.278 71.568 63.278C72.6252 63.278 73.3954 63.6653 73.8785 64.4401L72.8394 65.233C72.4931 64.7682 72.0601 64.5358 71.5406 64.5358C71.2945 64.5358 71.0803 64.595 70.898 64.7135C70.7158 64.8229 70.6246 64.9778 70.6246 65.1783C70.6246 65.3606 70.6839 65.5156 70.8023 65.6432C70.9208 65.7708 71.135 65.8847 71.4449 65.985L72.1422 66.1901C72.7802 66.3815 73.2587 66.6412 73.5777 66.9693C73.8967 67.2883 74.0562 67.7213 74.0562 68.2682C74.0562 68.9153 73.8238 69.4302 73.3589 69.8131C72.8941 70.1959 72.3017 70.3873 71.5816 70.3873ZM78.4895 70.3189C77.7968 70.3189 77.2317 70.1275 76.7942 69.7447C76.3658 69.3528 76.1516 68.7877 76.1516 68.0494V64.7545H74.7298V63.4147H76.1516V61.5143H77.6555V63.4147H79.6106V64.7545H77.6555V67.8033C77.6555 68.2226 77.7466 68.5234 77.9289 68.7056C78.1112 68.8788 78.4029 68.9654 78.8039 68.9654C79.132 68.9654 79.4009 68.9198 79.6106 68.8287V70.1685C79.2824 70.2688 78.9087 70.3189 78.4895 70.3189ZM83.746 70.3873C82.8164 70.3873 82.0325 70.0409 81.3945 69.3482C80.7656 68.6555 80.4512 67.817 80.4512 66.8326C80.4512 65.8483 80.7656 65.0097 81.3945 64.317C82.0325 63.6243 82.8164 63.278 83.746 63.278C84.2109 63.278 84.6393 63.3828 85.0312 63.5924C85.4231 63.7929 85.7239 64.039 85.9335 64.3307V63.4147H87.4374V70.2505H85.9335V69.3345C85.7239 69.6262 85.4231 69.8769 85.0312 70.0865C84.6393 70.287 84.2109 70.3873 83.746 70.3873ZM82.5566 68.3912C82.9394 68.8105 83.427 69.0201 84.0195 69.0201C84.6119 69.0201 85.0995 68.8105 85.4823 68.3912C85.8651 67.9719 86.0566 67.4524 86.0566 66.8326C86.0566 66.2128 85.8651 65.6933 85.4823 65.274C85.0995 64.8548 84.6119 64.6451 84.0195 64.6451C83.427 64.6451 82.9394 64.8548 82.5566 65.274C82.1738 65.6933 81.9824 66.2128 81.9824 66.8326C81.9824 67.4524 82.1738 67.9719 82.5566 68.3912ZM89.4748 70.2505V63.4147H90.9787V64.3444C91.4071 63.6334 92.0998 63.278 93.0568 63.278C93.8497 63.278 94.4832 63.5377 94.9572 64.0573C95.4311 64.5768 95.6681 65.2695 95.6681 66.1354V70.2505H94.1642V66.3815C94.1642 65.8346 94.0366 65.4108 93.7814 65.11C93.5262 64.8001 93.1798 64.6451 92.7423 64.6451C92.2228 64.6451 91.799 64.8411 91.4709 65.233C91.1427 65.625 90.9787 66.1764 90.9787 66.8873V70.2505H89.4748ZM100.479 70.3189C99.7863 70.3189 99.2212 70.1275 98.7837 69.7447C98.3554 69.3528 98.1412 68.7877 98.1412 68.0494V64.7545H96.7193V63.4147H98.1412V61.5143H99.6451V63.4147H101.6V64.7545H99.6451V67.8033C99.6451 68.2226 99.7362 68.5234 99.9185 68.7056C100.101 68.8788 100.392 68.9654 100.793 68.9654C101.122 68.9654 101.39 68.9198 101.6 68.8287V70.1685C101.272 70.2688 100.898 70.3189 100.479 70.3189ZM103.026 70.2505V59.9968H104.53V70.2505H103.026ZM108.739 73.1079H107.084L108.547 69.8814L105.608 63.4147H107.262L109.354 68.2545L111.459 63.4147H113.127L108.739 73.1079ZM117.085 70.2505V63.4147H118.589V64.6315C118.717 64.2487 118.949 63.9388 119.286 63.7018C119.633 63.4648 120.002 63.3463 120.394 63.3463C120.631 63.3463 120.827 63.3646 120.982 63.401V64.9459C120.763 64.8639 120.512 64.8229 120.23 64.8229C119.774 64.8229 119.387 65.0097 119.068 65.3834C118.749 65.748 118.589 66.2584 118.589 66.9147V70.2505H117.085ZM125.128 70.3873C124.089 70.3873 123.233 70.0546 122.558 69.3892C121.893 68.7239 121.56 67.8717 121.56 66.8326C121.56 65.8209 121.897 64.9778 122.572 64.3034C123.246 63.6198 124.098 63.278 125.128 63.278C126.076 63.278 126.86 63.5788 127.48 64.1803C128.109 64.7819 128.423 65.6113 128.423 66.6686C128.423 66.8509 128.419 67.0149 128.41 67.1607H123.037C123.073 67.7167 123.287 68.1679 123.679 68.5142C124.071 68.8515 124.559 69.0201 125.142 69.0201C126.017 69.0201 126.669 68.6737 127.097 67.981L128.246 68.8013C127.589 69.8586 126.55 70.3873 125.128 70.3873ZM123.105 66.067H126.906C126.824 65.5931 126.609 65.2239 126.263 64.9596C125.926 64.6862 125.529 64.5494 125.074 64.5494C124.6 64.5494 124.176 64.6816 123.802 64.9459C123.438 65.2102 123.205 65.5839 123.105 66.067ZM133.674 70.3873C133.209 70.3873 132.776 70.287 132.375 70.0865C131.984 69.8769 131.683 69.6262 131.473 69.3345V70.2505H129.969V59.9968H131.473V64.3307C131.683 64.039 131.984 63.7929 132.375 63.5924C132.776 63.3828 133.209 63.278 133.674 63.278C134.604 63.278 135.383 63.6243 136.012 64.317C136.65 65.0097 136.969 65.8483 136.969 66.8326C136.969 67.817 136.65 68.6555 136.012 69.3482C135.383 70.0409 134.604 70.3873 133.674 70.3873ZM133.401 69.0201C133.993 69.0201 134.481 68.8105 134.864 68.3912C135.247 67.9719 135.438 67.4524 135.438 66.8326C135.438 66.2128 135.247 65.6933 134.864 65.274C134.481 64.8548 133.993 64.6451 133.401 64.6451C132.799 64.6451 132.307 64.8548 131.924 65.274C131.541 65.6933 131.35 66.2128 131.35 66.8326C131.35 67.4524 131.541 67.9719 131.924 68.3912C132.307 68.8105 132.799 69.0201 133.401 69.0201ZM141.303 70.3873C140.374 70.3873 139.59 70.0409 138.952 69.3482C138.323 68.6555 138.009 67.817 138.009 66.8326C138.009 65.8483 138.323 65.0097 138.952 64.317C139.59 63.6243 140.374 63.278 141.303 63.278C141.768 63.278 142.197 63.3828 142.589 63.5924C142.98 63.7929 143.281 64.039 143.491 64.3307V63.4147H144.995V70.2505H143.491V69.3345C143.281 69.6262 142.98 69.8769 142.589 70.0865C142.197 70.287 141.768 70.3873 141.303 70.3873ZM140.114 68.3912C140.497 68.8105 140.984 69.0201 141.577 69.0201C142.169 69.0201 142.657 68.8105 143.04 68.3912C143.423 67.9719 143.614 67.4524 143.614 66.8326C143.614 66.2128 143.423 65.6933 143.04 65.274C142.657 64.8548 142.169 64.6451 141.577 64.6451C140.984 64.6451 140.497 64.8548 140.114 65.274C139.731 65.6933 139.54 66.2128 139.54 66.8326C139.54 67.4524 139.731 67.9719 140.114 68.3912ZM147.032 70.2505V59.9968H148.536V70.2505H147.032ZM153.36 70.3873C152.43 70.3873 151.646 70.0409 151.008 69.3482C150.379 68.6555 150.065 67.817 150.065 66.8326C150.065 65.8483 150.379 65.0097 151.008 64.317C151.646 63.6243 152.43 63.278 153.36 63.278C153.824 63.278 154.253 63.3828 154.645 63.5924C155.037 63.7929 155.337 64.039 155.547 64.3307V63.4147H157.051V70.2505H155.547V69.3345C155.337 69.6262 155.037 69.8769 154.645 70.0865C154.253 70.287 153.824 70.3873 153.36 70.3873ZM152.17 68.3912C152.553 68.8105 153.041 69.0201 153.633 69.0201C154.225 69.0201 154.713 68.8105 155.096 68.3912C155.479 67.9719 155.67 67.4524 155.67 66.8326C155.67 66.2128 155.479 65.6933 155.096 65.274C154.713 64.8548 154.225 64.6451 153.633 64.6451C153.041 64.6451 152.553 64.8548 152.17 65.274C151.787 65.6933 151.596 66.2128 151.596 66.8326C151.596 67.4524 151.787 67.9719 152.17 68.3912ZM159.088 70.2505V63.4147H160.592V64.3444C161.021 63.6334 161.713 63.278 162.67 63.278C163.463 63.278 164.097 63.5377 164.571 64.0573C165.045 64.5768 165.282 65.2695 165.282 66.1354V70.2505H163.778V66.3815C163.778 65.8346 163.65 65.4108 163.395 65.11C163.14 64.8001 162.793 64.6451 162.356 64.6451C161.836 64.6451 161.413 64.8411 161.084 65.233C160.756 65.625 160.592 66.1764 160.592 66.8873V70.2505H159.088ZM170.323 70.3873C169.293 70.3873 168.432 70.05 167.739 69.3756C167.056 68.692 166.714 67.8443 166.714 66.8326C166.714 65.8209 167.056 64.9778 167.739 64.3034C168.432 63.6198 169.293 63.278 170.323 63.278C171.025 63.278 171.654 63.4466 172.21 63.7838C172.775 64.1211 173.208 64.5813 173.509 65.1647L172.196 65.8756C172.023 65.511 171.772 65.2194 171.444 65.0006C171.116 64.7819 170.742 64.6725 170.323 64.6725C169.722 64.6725 169.225 64.8821 168.833 65.3014C168.441 65.7115 168.245 66.222 168.245 66.8326C168.245 67.4433 168.441 67.9583 168.833 68.3775C169.225 68.7877 169.722 68.9928 170.323 68.9928C170.742 68.9928 171.116 68.8834 171.444 68.6646C171.772 68.4459 172.023 68.1542 172.196 67.7896L173.509 68.5006C173.208 69.0839 172.775 69.5442 172.21 69.8814C171.654 70.2186 171.025 70.3873 170.323 70.3873ZM177.973 70.3873C176.934 70.3873 176.077 70.0546 175.402 69.3892C174.737 68.7239 174.404 67.8717 174.404 66.8326C174.404 65.8209 174.742 64.9778 175.416 64.3034C176.091 63.6198 176.943 63.278 177.973 63.278C178.921 63.278 179.704 63.5788 180.324 64.1803C180.953 64.7819 181.268 65.6113 181.268 66.6686C181.268 66.8509 181.263 67.0149 181.254 67.1607H175.881C175.917 67.7167 176.132 68.1679 176.524 68.5142C176.915 68.8515 177.403 69.0201 177.986 69.0201C178.861 69.0201 179.513 68.6737 179.941 67.981L181.09 68.8013C180.434 69.8586 179.395 70.3873 177.973 70.3873ZM175.949 66.067H179.75C179.668 65.5931 179.454 65.2239 179.107 64.9596C178.77 64.6862 178.374 64.5494 177.918 64.5494C177.444 64.5494 177.02 64.6816 176.647 64.9459C176.282 65.2102 176.05 65.5839 175.949 66.067ZM184.987 70.3873C184.358 70.3873 183.803 70.2688 183.319 70.0318C182.836 69.7857 182.476 69.4211 182.239 68.9381L183.347 68.1451C183.484 68.4368 183.702 68.6692 184.003 68.8424C184.304 69.0064 184.632 69.0885 184.987 69.0885C185.27 69.0885 185.502 69.0247 185.685 68.897C185.876 68.7694 185.972 68.5917 185.972 68.3639C185.972 68.1633 185.894 67.9993 185.739 67.8717C185.594 67.7441 185.32 67.6165 184.919 67.4889L184.317 67.3248C183.105 66.9967 182.508 66.2994 182.526 65.233C182.526 64.6406 182.759 64.1666 183.224 63.8112C183.689 63.4557 184.272 63.278 184.974 63.278C186.031 63.278 186.801 63.6653 187.284 64.4401L186.245 65.233C185.899 64.7682 185.466 64.5358 184.946 64.5358C184.7 64.5358 184.486 64.595 184.304 64.7135C184.122 64.8229 184.03 64.9778 184.03 65.1783C184.03 65.3606 184.09 65.5156 184.208 65.6432C184.327 65.7708 184.541 65.8847 184.851 65.985L185.548 66.1901C186.186 66.3815 186.664 66.6412 186.983 66.9693C187.302 67.2883 187.462 67.7213 187.462 68.2682C187.462 68.9153 187.23 69.4302 186.765 69.8131C186.3 70.1959 185.707 70.3873 184.987 70.3873ZM192.992 61.9245C192.718 61.9245 192.481 61.8288 192.281 61.6374C192.08 61.4369 191.98 61.1953 191.98 60.9128C191.98 60.6393 192.08 60.4069 192.281 60.2155C192.481 60.015 192.718 59.9147 192.992 59.9147C193.274 59.9147 193.511 60.015 193.702 60.2155C193.894 60.4069 193.99 60.6393 193.99 60.9128C193.99 61.1953 193.894 61.4369 193.702 61.6374C193.511 61.8288 193.274 61.9245 192.992 61.9245ZM192.24 70.2505V63.4147H193.743V70.2505H192.24ZM198.731 70.3189C198.038 70.3189 197.473 70.1275 197.036 69.7447C196.607 69.3528 196.393 68.7877 196.393 68.0494V64.7545H194.971V63.4147H196.393V61.5143H197.897V63.4147H199.852V64.7545H197.897V67.8033C197.897 68.2226 197.988 68.5234 198.171 68.7056C198.353 68.8788 198.645 68.9654 199.046 68.9654C199.374 68.9654 199.643 68.9198 199.852 68.8287V70.1685C199.524 70.2688 199.15 70.3189 198.731 70.3189ZM207.236 70.3189C206.543 70.3189 205.978 70.1275 205.541 69.7447C205.112 69.3528 204.898 68.7877 204.898 68.0494V64.7545H203.476V63.4147H204.898V61.5143H206.402V63.4147H208.357V64.7545H206.402V67.8033C206.402 68.2226 206.493 68.5234 206.675 68.7056C206.858 68.8788 207.149 68.9654 207.55 68.9654C207.878 68.9654 208.147 68.9198 208.357 68.8287V70.1685C208.029 70.2688 207.655 70.3189 207.236 70.3189ZM209.783 70.2505V63.4147H211.287V64.6315C211.415 64.2487 211.647 63.9388 211.984 63.7018C212.331 63.4648 212.7 63.3463 213.092 63.3463C213.329 63.3463 213.525 63.3646 213.68 63.401V64.9459C213.461 64.8639 213.21 64.8229 212.928 64.8229C212.472 64.8229 212.085 65.0097 211.766 65.3834C211.447 65.748 211.287 66.2584 211.287 66.9147V70.2505H209.783ZM217.424 70.3873C216.64 70.3873 216.02 70.1275 215.565 69.608C215.109 69.0793 214.881 68.3775 214.881 67.5025V63.4147H216.385V67.2564C216.385 67.8033 216.503 68.2363 216.74 68.5553C216.977 68.8651 217.315 69.0201 217.752 69.0201C218.263 69.0201 218.668 68.8287 218.969 68.4459C219.27 68.054 219.42 67.498 219.42 66.7779V63.4147H220.924V70.2505H219.42V69.3209C219.019 70.0318 218.354 70.3873 217.424 70.3873ZM225.121 70.3873C224.492 70.3873 223.936 70.2688 223.453 70.0318C222.97 69.7857 222.61 69.4211 222.373 68.9381L223.481 68.1451C223.617 68.4368 223.836 68.6692 224.137 68.8424C224.438 69.0064 224.766 69.0885 225.121 69.0885C225.404 69.0885 225.636 69.0247 225.819 68.897C226.01 68.7694 226.106 68.5917 226.106 68.3639C226.106 68.1633 226.028 67.9993 225.873 67.8717C225.727 67.7441 225.454 67.6165 225.053 67.4889L224.451 67.3248C223.239 66.9967 222.642 66.2994 222.66 65.233C222.66 64.6406 222.893 64.1666 223.358 63.8112C223.823 63.4557 224.406 63.278 225.108 63.278C226.165 63.278 226.935 63.6653 227.418 64.4401L226.379 65.233C226.033 64.7682 225.6 64.5358 225.08 64.5358C224.834 64.5358 224.62 64.595 224.438 64.7135C224.255 64.8229 224.164 64.9778 224.164 65.1783C224.164 65.3606 224.224 65.5156 224.342 65.6432C224.461 65.7708 224.675 65.8847 224.985 65.985L225.682 66.1901C226.32 66.3815 226.798 66.6412 227.117 66.9693C227.436 67.2883 227.596 67.7213 227.596 68.2682C227.596 68.9153 227.363 69.4302 226.899 69.8131C226.434 70.1959 225.841 70.3873 225.121 70.3873ZM232.029 70.3189C231.336 70.3189 230.771 70.1275 230.334 69.7447C229.906 69.3528 229.691 68.7877 229.691 68.0494V64.7545H228.269V63.4147H229.691V61.5143H231.195V63.4147H233.15V64.7545H231.195V67.8033C231.195 68.2226 231.286 68.5234 231.469 68.7056C231.651 68.8788 231.943 68.9654 232.344 68.9654C232.672 68.9654 232.941 68.9198 233.15 68.8287V70.1685C232.822 70.2688 232.448 70.3189 232.029 70.3189ZM234.576 70.2505V59.9968H236.08V70.2505H234.576ZM241.191 70.3873C240.152 70.3873 239.295 70.0546 238.621 69.3892C237.955 68.7239 237.623 67.8717 237.623 66.8326C237.623 65.8209 237.96 64.9778 238.634 64.3034C239.309 63.6198 240.161 63.278 241.191 63.278C242.139 63.278 242.923 63.5788 243.543 64.1803C244.171 64.7819 244.486 65.6113 244.486 66.6686C244.486 66.8509 244.481 67.0149 244.472 67.1607H239.099C239.136 67.7167 239.35 68.1679 239.742 68.5142C240.134 68.8515 240.621 69.0201 241.205 69.0201C242.08 69.0201 242.731 68.6737 243.16 67.981L244.308 68.8013C243.652 69.8586 242.613 70.3873 241.191 70.3873ZM239.168 66.067H242.968C242.886 65.5931 242.672 65.2239 242.326 64.9596C241.989 64.6862 241.592 64.5494 241.136 64.5494C240.662 64.5494 240.239 64.6816 239.865 64.9459C239.5 65.2102 239.268 65.5839 239.168 66.067ZM248.206 70.3873C247.577 70.3873 247.021 70.2688 246.538 70.0318C246.055 69.7857 245.695 69.4211 245.458 68.9381L246.565 68.1451C246.702 68.4368 246.921 68.6692 247.221 68.8424C247.522 69.0064 247.85 69.0885 248.206 69.0885C248.488 69.0885 248.721 69.0247 248.903 68.897C249.094 68.7694 249.19 68.5917 249.19 68.3639C249.19 68.1633 249.113 67.9993 248.958 67.8717C248.812 67.7441 248.538 67.6165 248.137 67.4889L247.536 67.3248C246.324 66.9967 245.727 66.2994 245.745 65.233C245.745 64.6406 245.977 64.1666 246.442 63.8112C246.907 63.4557 247.49 63.278 248.192 63.278C249.249 63.278 250.019 63.6653 250.503 64.4401L249.464 65.233C249.117 64.7682 248.684 64.5358 248.165 64.5358C247.919 64.5358 247.704 64.595 247.522 64.7135C247.34 64.8229 247.249 64.9778 247.249 65.1783C247.249 65.3606 247.308 65.5156 247.426 65.6432C247.545 65.7708 247.759 65.8847 248.069 65.985L248.766 66.1901C249.404 66.3815 249.883 66.6412 250.202 66.9693C250.521 67.2883 250.68 67.7213 250.68 68.2682C250.68 68.9153 250.448 69.4302 249.983 69.8131C249.518 70.1959 248.926 70.3873 248.206 70.3873ZM254.414 70.3873C253.785 70.3873 253.229 70.2688 252.746 70.0318C252.263 69.7857 251.903 69.4211 251.666 68.9381L252.773 68.1451C252.91 68.4368 253.129 68.6692 253.43 68.8424C253.73 69.0064 254.059 69.0885 254.414 69.0885C254.697 69.0885 254.929 69.0247 255.111 68.897C255.303 68.7694 255.398 68.5917 255.398 68.3639C255.398 68.1633 255.321 67.9993 255.166 67.8717C255.02 67.7441 254.747 67.6165 254.346 67.4889L253.744 67.3248C252.532 66.9967 251.935 66.2994 251.953 65.233C251.953 64.6406 252.186 64.1666 252.65 63.8112C253.115 63.4557 253.699 63.278 254.4 63.278C255.458 63.278 256.228 63.6653 256.711 64.4401L255.672 65.233C255.326 64.7682 254.893 64.5358 254.373 64.5358C254.127 64.5358 253.913 64.595 253.73 64.7135C253.548 64.8229 253.457 64.9778 253.457 65.1783C253.457 65.3606 253.516 65.5156 253.635 65.6432C253.753 65.7708 253.967 65.8847 254.277 65.985L254.975 66.1901C255.613 66.3815 256.091 66.6412 256.41 66.9693C256.729 67.2883 256.889 67.7213 256.889 68.2682C256.889 68.9153 256.656 69.4302 256.191 69.8131C255.727 70.1959 255.134 70.3873 254.414 70.3873ZM258.449 70.2505V59.9968H259.952V70.2505H258.449ZM264.161 73.1079H262.507L263.969 69.8814L261.03 63.4147H262.684L264.776 68.2545L266.881 63.4147H268.549L264.161 73.1079ZM269.736 70.3599C269.417 70.3599 269.139 70.246 268.902 70.0181C268.674 69.7812 268.56 69.4986 268.56 69.1705C268.56 68.8515 268.674 68.5735 268.902 68.3365C269.139 68.0995 269.417 67.981 269.736 67.981C270.064 67.981 270.342 68.0995 270.57 68.3365C270.807 68.5735 270.925 68.8515 270.925 69.1705C270.925 69.4986 270.807 69.7812 270.57 70.0181C270.342 70.246 270.064 70.3599 269.736 70.3599Z" fill="white" fill-opacity="0.75"/>
<rect x="0.859175" y="31.6172" width="287.789" height="50.8132" stroke="white" stroke-opacity="0.75" stroke-width="1.13931" stroke-dasharray="2.28 2.28"/>
<line x1="144.184" y1="31.0475" x2="144.184" y2="8.26129" stroke="white" stroke-width="1.13931"/>
<circle cx="144.07" cy="3.29918" r="2.9622" fill="white"/>
</svg>
