<svg width="58" height="58" viewBox="0 0 58 58" fill="none" xmlns="http://www.w3.org/2000/svg">
<g clip-path="url(#clip0_5308_175)">
<path d="M29 3.45721e-05C45.0171 3.45721e-05 58 12.983 58 29C58 45.0171 45.0171 58 29 58C12.983 58 1.26914e-05 45.0171 1.26914e-05 29C-0.00413117 24.5745 1.00654 20.207 2.95433 16.2332C4.90213 12.2593 7.73518 8.78503 11.2357 6.07735L11.4043 6.28397L11.8574 6.8386C18.2809 14.7048 21.6014 18.7884 21.8189 19.0875C22.1814 19.5913 22.0455 20.0427 21.4219 20.3979C21.0758 20.5955 20.3616 20.7948 20.0064 20.7948C19.6022 20.7948 19.1473 20.6009 18.8156 20.2873C18.7273 20.1926 18.6461 20.0914 18.5727 19.9847L18.4168 19.769C17.9275 19.073 17.0031 17.6665 15.457 15.2703C14.4359 13.671 13.4016 12.0802 12.354 10.498L12.3323 10.4799C12.3286 10.4799 12.3305 10.4872 12.3395 10.5089L12.3975 10.6249C12.5842 10.9838 13.2476 12.1692 15.2866 15.8195C17.1825 19.2125 17.8241 20.4106 17.8241 20.5719C17.8241 20.8982 17.7335 21.0685 17.3311 21.518C16.6605 22.2666 16.3614 23.1076 16.1439 24.8476C15.9011 26.7997 15.2196 28.1772 13.3273 30.5352C12.2217 31.9163 12.0405 32.1701 11.7595 32.7265C11.4079 33.4262 11.3118 33.8195 11.2719 34.704C11.2303 35.6392 11.3118 36.2446 11.5982 37.1382C11.8483 37.9212 12.1093 38.4395 12.7763 39.4727C13.3527 40.3662 13.6844 41.0296 13.6844 41.2888C13.6844 41.4954 13.7243 41.4954 14.6178 41.2942C16.7548 40.8121 18.4893 39.962 19.4663 38.9217C20.0698 38.2782 20.2112 37.923 20.2166 37.0403C20.2185 36.4639 20.1985 36.3425 20.0426 36.0108C19.7889 35.4707 19.3267 35.0212 18.3081 34.3252C16.9723 33.4117 16.4031 32.6758 16.2455 31.6662C16.115 30.8379 16.2654 30.2525 17.0049 28.7046C17.768 27.1023 17.9583 26.4208 18.087 24.8059C18.1685 23.7619 18.2827 23.3505 18.5836 23.0206C18.8953 22.6762 19.1781 22.5584 19.952 22.4533C21.2135 22.2811 22.0164 21.9548 22.6762 21.3477C23.2489 20.8184 23.4882 20.3091 23.5245 19.5442L23.5534 18.9642L23.2326 18.5908L23.1964 18.5473C22.5946 17.8586 18.7975 13.6699 11.8066 5.9831L11.6218 5.78191C16.6336 2.01977 22.7333 -0.00966 29 3.45721e-05ZM29.087 37.555C28.2641 37.3448 26.7833 37.2868 25.8934 37.4318C23.829 37.7671 21.5651 38.8582 19.7436 40.3952L19.2016 40.8538L19.6783 40.9263C22.1633 41.316 22.8321 41.6603 24.5576 43.4366C25.549 44.4588 25.8843 44.6872 26.7072 44.8957C27.9161 45.2038 29.1088 44.6383 29.5166 43.5598C29.6996 43.0777 29.6761 42.2784 29.4658 41.8778C28.9674 40.9245 27.5156 40.6163 26.8141 41.316C26.2287 41.896 26.3991 42.7732 27.1259 42.9255C27.2926 42.9599 27.289 42.9527 27.0842 42.8602C26.7652 42.7152 26.6274 42.5158 26.6256 42.1987C26.622 41.4555 27.4739 41.0368 28.2659 41.3939C28.8459 41.6549 29.0779 41.9975 29.0779 42.5974C29.0801 42.8129 29.0359 43.0263 28.9484 43.2233C28.8608 43.4202 28.732 43.596 28.5706 43.7388C28.4093 43.8816 28.2191 43.9881 28.013 44.0511C27.8069 44.114 27.5896 44.1319 27.376 44.1036C26.8391 44.0179 26.3447 43.7596 25.9677 43.3677C25.1611 42.4542 25.4747 41.0151 26.6021 40.4623C27.4594 40.0418 28.5995 40.1451 29.484 40.7251C30.499 41.3903 30.9321 41.9975 31.8076 43.993C32.0921 44.6437 32.4601 45.3742 32.6232 45.6188C33.4497 46.8604 34.443 47.4676 35.6392 47.4676C36.299 47.4676 36.7956 47.348 37.4209 47.0362C37.8849 46.8042 38.541 46.3656 38.4939 46.3167C38.3464 46.343 38.2027 46.3874 38.0661 46.449C36.7611 46.9583 35.4326 46.9238 34.6623 46.3583C34.1765 46.0049 33.785 45.2962 33.5838 44.4117C33.4895 43.9119 33.4043 43.4103 33.3283 42.9073C33.06 41.2 32.8026 40.4315 32.2027 39.5506C31.5865 38.6498 30.4083 37.8922 29.087 37.555ZM37.8631 28.5741C37.8269 28.5741 37.7653 28.6847 37.7272 28.8188C37.3701 30.0821 37.5188 31.4342 38.1713 32.8353L38.2891 33.08C38.59 33.6835 38.9815 34.3052 40.156 36.0652C41.2996 37.7816 41.867 38.7966 42.1443 39.6285C42.5974 40.9879 42.5303 42.2095 41.9304 43.4638C41.7872 43.761 41.693 44.0021 41.7183 44.0021C41.7437 44.0021 41.9775 43.8861 42.2403 43.7429C44.0238 42.775 45.2763 41.1148 45.8146 39.0014C45.985 38.3308 46.052 36.7303 45.9378 36.0652C45.7348 34.8907 45.3143 33.9264 44.6328 33.08C43.8571 32.1139 42.7152 31.2675 40.7124 30.1763C39.1083 29.3027 38.5066 28.962 38.2057 28.759C38.1013 28.6808 37.9858 28.6185 37.8631 28.5741ZM12.963 34.6242C12.963 34.2653 13.6065 34.1348 14.0197 34.4103C14.4583 34.7003 14.5979 35.2985 14.3351 35.7625C14.085 36.2065 13.6046 36.3533 13.2657 36.0887C13.0573 35.9238 13.0428 35.6809 13.2258 35.4054C13.4071 35.1335 13.389 35.0012 13.1588 34.8834C13.0228 34.8127 12.963 34.733 12.963 34.6242ZM35.5613 27.4286L35.6863 27.8038C35.7859 28.1442 35.8646 28.4905 35.922 28.8405C36.3153 31.1787 35.0882 33.0691 32.6993 33.8013C32.4456 33.8793 31.4505 34.0732 30.4881 34.2345C28.5342 34.5608 27.6642 34.7892 26.7888 35.2115C26.1671 35.5105 25.4167 35.9582 25.4602 36.0035C25.5691 35.9978 25.676 35.972 25.7756 35.9274C26.8794 35.5395 28.1083 35.3402 29.9733 35.2423C30.7146 35.2042 31.5575 35.1426 31.8456 35.1063C33.5095 34.8961 34.6604 34.3922 35.5576 33.4787C36.0561 32.9712 36.3533 32.5 36.5908 31.833C36.7448 31.4088 36.7648 31.253 36.7666 30.5026C36.7666 29.7395 36.7485 29.6 36.5853 29.1305C36.3678 28.5143 36.1141 28.0521 35.7933 27.6914L35.5613 27.4286ZM32.7646 20.6643C32.7465 20.6643 32.732 21.0123 32.732 21.4383C32.732 24.331 34.4611 26.0457 39.3657 28.0213C42.6336 29.3353 43.9695 30.015 44.9663 30.8705C45.84 31.6227 46.362 32.6268 46.4109 33.6563C46.42 33.8503 46.4562 33.9898 46.4925 33.979C46.6266 33.9355 47.1268 32.8135 47.2918 32.19C47.5002 31.4016 47.5745 29.9063 47.4476 29.1088C47.0054 26.3647 45.153 24.3492 42.1588 23.3559C41.2163 23.0442 40.194 22.8303 38.3797 22.5638C35.2966 22.1143 34.1819 21.7736 33.1869 20.9761C33.0536 20.8624 32.9125 20.7582 32.7646 20.6643ZM25.8698 22.9028C25.5037 22.7161 24.7261 22.6418 24.3491 22.7578C23.7564 22.939 23.1819 23.568 23.0024 24.2259C22.8937 24.6265 22.9553 25.3315 23.1185 25.549C23.3813 25.9007 23.6368 25.9931 24.3256 25.9877C25.6741 25.9786 26.8449 25.4004 26.9827 24.6772C27.0951 24.0845 26.5785 23.2653 25.8698 22.9028ZM23.9975 23.7257C23.9975 23.0895 25.0161 22.7469 25.6886 23.1602C26.042 23.3758 26.1345 23.6948 25.9242 23.9903C25.7828 24.1933 25.3388 24.389 25.0143 24.389C24.5286 24.389 23.9975 24.041 23.9975 23.7257ZM24.2549 10.5325C23.4954 10.3512 22.3934 10.2552 21.9276 10.3258C21.6848 10.3621 21.7065 10.373 22.2231 10.4527C24.1081 10.7463 25.578 11.4931 27.077 12.9177C27.7349 13.543 28.3983 14.3206 29.4695 15.7271C31.8837 18.8935 32.9078 19.7762 34.9396 20.4396C36.1322 20.8275 37.3375 21.0087 39.4654 21.1211C41.8216 21.2462 42.7098 21.4347 43.5526 21.9911C44.0184 22.2992 44.3827 22.6835 44.7452 23.2453L44.9573 23.5716L44.9119 23.2127C44.7434 21.8352 43.7592 19.8958 42.505 18.4767L42.2766 18.2175L42.1606 18.7377C41.8706 20.0481 41.2435 20.9888 40.6598 20.9906C40.5187 20.9896 40.3806 20.9489 40.2614 20.8733C40.1422 20.7977 40.0467 20.6901 39.9856 20.5628C39.8569 20.2547 39.8678 20.1423 40.0581 19.7835C40.4115 19.1219 40.4985 18.2374 40.3245 17.0828C40.2756 16.7493 40.2013 16.4358 40.1614 16.3887C40.0345 16.2346 39.0159 15.6419 38.3706 15.3447C36.0271 14.2608 33.2231 13.9092 30.4681 14.3532L29.8156 14.4583L29.3589 13.949C27.637 12.0332 26.0257 10.9548 24.2549 10.5325ZM41.2906 11.0527C41.2761 11.0527 41.18 11.2375 41.0785 11.4623C40.8211 12.0296 40.6943 12.6513 40.6399 13.5938C40.6055 14.201 40.571 14.4094 40.5003 14.4348C40.3934 14.4765 40.2502 14.433 39.3766 14.0977C38.7911 13.8711 37.3339 13.4452 37.2922 13.4887C37.2813 13.4995 37.5858 13.6482 37.9701 13.8185C38.3543 13.9889 38.9778 14.3115 39.3548 14.5363C40.8501 15.4208 41.1039 15.9355 41.1057 18.0815C41.1057 19.1509 41.093 19.2905 40.9607 19.6131C40.7831 20.0463 40.8157 20.1278 41.0096 19.7454C41.3721 19.0385 41.5244 18.328 41.5461 17.226C41.5588 16.5192 41.5806 16.3687 41.6803 16.269C41.789 16.1603 41.8162 16.1603 41.992 16.2509C42.2548 16.385 43.442 17.3312 43.9604 17.8151L44.3827 18.212L43.9604 17.6574C43.7284 17.3511 43.0868 16.6424 42.534 16.0769C41.3595 14.8752 41.2652 14.7157 41.1021 13.6028C40.9752 12.7256 41.0042 11.9716 41.1927 11.4224C41.2421 11.3042 41.275 11.1798 41.2906 11.0527ZM21.712 11.4333L21.6684 11.9462C21.5289 13.6028 22.1778 15.8195 23.2272 17.2641C24.0428 18.3842 25.3025 19.2542 26.236 19.3394C26.8449 19.3938 27.028 19.2035 26.7525 18.8011C26.3683 18.241 25.897 17.3801 25.7738 17.0103C25.6286 16.5141 25.5034 16.0123 25.3986 15.506C24.9618 13.4669 24.5304 12.6712 23.5371 12.0677C23.0391 11.7968 22.5051 11.5978 21.9512 11.4768L21.712 11.4333Z" fill="white"/>
</g>
<defs>
<clipPath id="clip0_5308_175">
<rect width="58" height="58" fill="white"/>
</clipPath>
</defs>
</svg>
