<svg width="41" height="47" viewBox="0 0 41 47" fill="none" xmlns="http://www.w3.org/2000/svg">
<g clip-path="url(#clip0_5334_1315)">
<path d="M20.5 23.5C17.3932 23.5 14.4136 22.2621 12.2167 20.0585C10.0199 17.855 8.78571 14.8663 8.78571 11.75C8.78571 8.63371 10.0199 5.64505 12.2167 3.4415C14.4136 1.23794 17.3932 0 20.5 0C23.6068 0 26.5864 1.23794 28.7833 3.4415C30.9801 5.64505 32.2143 8.63371 32.2143 11.75C32.2143 14.8663 30.9801 17.855 28.7833 20.0585C26.5864 22.2621 23.6068 23.5 20.5 23.5ZM19.1364 32.9734L17.4342 30.1277C16.8484 29.1455 17.5531 27.9062 18.6879 27.9062H22.3029C23.4377 27.9062 24.1424 29.1547 23.5567 30.1277L21.8545 32.9734L24.9112 44.3471L28.2058 30.8621C28.3888 30.1186 29.1027 29.632 29.844 29.8248C36.2594 31.4404 41 37.2603 41 44.1818C41 45.7424 39.7371 47 38.1904 47H26.1283C25.9362 47 25.7623 46.9633 25.5975 46.899L25.625 47H15.375L15.4025 46.899C15.2377 46.9633 15.0547 47 14.8717 47H2.8096C1.26295 47 0 45.7332 0 44.1818C0 37.2512 4.74978 31.4312 11.156 29.8248C11.8973 29.6412 12.6112 30.1277 12.7942 30.8621L16.0888 44.3471L19.1455 32.9734H19.1364Z" fill="url(#paint0_linear_5334_1315)"/>
</g>
<defs>
<linearGradient id="paint0_linear_5334_1315" x1="20.5" y1="0" x2="20.5" y2="47" gradientUnits="userSpaceOnUse">
<stop stop-color="#7882F2"/>
<stop offset="1" stop-color="#6DA5E9"/>
</linearGradient>
<clipPath id="clip0_5334_1315">
<rect width="41" height="47" fill="white"/>
</clipPath>
</defs>
</svg>
