<svg width="24" height="22" viewBox="0 0 24 22" fill="none" xmlns="http://www.w3.org/2000/svg">
<path d="M21.625 0.375H2.375C1.91087 0.375 1.46575 0.559374 1.13756 0.887563C0.809374 1.21575 0.625 1.66087 0.625 2.125V17C0.625 17.4641 0.809374 17.9092 1.13756 18.2374C1.46575 18.5656 1.91087 18.75 2.375 18.75H4.125V20.5C4.125 20.7321 4.21719 20.9546 4.38128 21.1187C4.54538 21.2828 4.76794 21.375 5 21.375C5.23206 21.375 5.45462 21.2828 5.61872 21.1187C5.78281 20.9546 5.875 20.7321 5.875 20.5V18.75H18.125V20.5C18.125 20.7321 18.2172 20.9546 18.3813 21.1187C18.5454 21.2828 18.7679 21.375 19 21.375C19.2321 21.375 19.4546 21.2828 19.6187 21.1187C19.7828 20.9546 19.875 20.7321 19.875 20.5V18.75H21.625C22.0891 18.75 22.5342 18.5656 22.8624 18.2374C23.1906 17.9092 23.375 17.4641 23.375 17V2.125C23.375 1.66087 23.1906 1.21575 22.8624 0.887563C22.5342 0.559374 22.0891 0.375 21.625 0.375ZM21.625 17H2.375V2.125H21.625V9.125H19.8006C19.5812 7.82703 18.8822 6.65884 17.8421 5.85194C16.8021 5.04503 15.4968 4.65831 14.185 4.76839C12.8732 4.87847 11.6507 5.47734 10.7596 6.4463C9.86858 7.41527 9.37406 8.68361 9.37406 10C9.37406 11.3164 9.86858 12.5847 10.7596 13.5537C11.6507 14.5227 12.8732 15.1215 14.185 15.2316C15.4968 15.3417 16.8021 14.955 17.8421 14.1481C18.8822 13.3412 19.5812 12.173 19.8006 10.875H21.625V17ZM16.1388 9.125C15.9461 8.79138 15.6488 8.53063 15.2929 8.38321C14.937 8.23579 14.5424 8.20992 14.1703 8.30963C13.7982 8.40934 13.4694 8.62904 13.2348 8.93467C13.0003 9.2403 12.8732 9.61477 12.8732 10C12.8732 10.3852 13.0003 10.7597 13.2348 11.0653C13.4694 11.371 13.7982 11.5907 14.1703 11.6904C14.5424 11.7901 14.937 11.7642 15.2929 11.6168C15.6488 11.4694 15.9461 11.2086 16.1388 10.875H18.0156C17.8027 11.6998 17.2962 12.4187 16.5911 12.8968C15.8861 13.3749 15.0308 13.5794 14.1857 13.4721C13.3407 13.3648 12.5637 12.9529 12.0006 12.3137C11.4375 11.6745 11.1268 10.8519 11.1268 10C11.1268 9.14812 11.4375 8.32549 12.0006 7.6863C12.5637 7.0471 13.3407 6.63524 14.1857 6.5279C15.0308 6.42056 15.8861 6.62511 16.5911 7.10322C17.2962 7.58133 17.8027 8.30017 18.0156 9.125H16.1388Z" fill="white"/>
</svg>
