<svg width="44" height="44" viewBox="0 0 44 44" fill="none" xmlns="http://www.w3.org/2000/svg">
<g clip-path="url(#clip0_2350_12212)">
<path d="M22.0738 20.6959C33.8843 20.6959 43.4563 16.7033 43.4563 11.7837C43.4563 6.86408 33.8843 2.87158 22.0738 2.87158C10.2634 2.87158 0.691406 6.86408 0.691406 11.7837C0.691406 16.7033 10.2634 20.6959 22.0738 20.6959ZM22.0738 34.9452C13.9134 34.9452 6.69687 32.9824 2.14474 29.9504C1.21761 30.9527 0.691406 32.0302 0.691406 33.1662C0.691406 38.0858 10.2634 42.0783 22.0738 42.0783C33.8843 42.0783 43.4563 38.0858 43.4563 33.1662C43.4563 32.0302 42.9301 30.9527 42.003 29.9588C37.4508 32.9824 30.2343 34.9452 22.0738 34.9452ZM22.0738 24.254C13.9134 24.254 6.69687 22.2912 2.14474 19.2592C1.21761 20.2615 0.691406 21.339 0.691406 22.4749C0.691406 27.3946 10.2634 31.3871 22.0738 31.3871C33.8843 31.3871 43.4563 27.3946 43.4563 22.4749C43.4563 21.339 42.9301 20.2615 42.003 19.2676C37.4508 22.2912 30.2343 24.254 22.0738 24.254Z" fill="white"/>
</g>
<defs>
<clipPath id="clip0_2350_12212">
<rect width="42.7649" height="42.7649" fill="white" transform="translate(0.691406 0.382324)"/>
</clipPath>
</defs>
</svg>
