<svg width="46" height="27" viewBox="0 0 46 27" fill="none" xmlns="http://www.w3.org/2000/svg">
<path d="M8.81408 2.4891L1.98742 9.31576C1.40317 9.89978 0.939702 10.5932 0.623493 11.3564C0.307284 12.1195 0.144531 12.9375 0.144531 13.7636C0.144531 14.5897 0.307284 15.4077 0.623493 16.1709C0.939702 16.9341 1.40317 17.6275 1.98742 18.2115L8.81408 25.0381C9.3981 25.6224 10.0915 26.0859 10.8547 26.4021C11.6179 26.7183 12.4359 26.881 13.2619 26.881C14.088 26.881 14.906 26.7183 15.6692 26.4021C16.4324 26.0859 17.1258 25.6224 17.7098 25.0381L24.5365 18.2115C25.1207 17.6275 25.5842 16.9341 25.9004 16.1709C26.2166 15.4077 26.3794 14.5897 26.3794 13.7636C26.3794 12.9375 26.2166 12.1195 25.9004 11.3564C25.5842 10.5932 25.1207 9.89978 24.5365 9.31576L17.7098 2.4891C17.1258 1.90485 16.4324 1.44138 15.6692 1.12517C14.906 0.808964 14.088 0.646211 13.2619 0.646211C12.4359 0.646211 11.6179 0.808964 10.8547 1.12517C10.0915 1.44138 9.3981 1.90485 8.81408 2.4891ZM27.6809 25.0381L24.9201 22.2773L26.7628 20.4346C27.6389 19.5586 28.3339 18.5186 28.8081 17.374C29.2823 16.2294 29.5263 15.0026 29.5263 13.7636C29.5263 12.5247 29.2823 11.2979 28.8081 10.1532C28.3339 9.00862 27.6389 7.96861 26.7628 7.09262L24.9201 5.2531L27.6809 2.48596C28.265 1.90171 28.9584 1.43824 29.7215 1.12203C30.4847 0.805819 31.3027 0.643066 32.1288 0.643066C32.9549 0.643066 33.7729 0.805819 34.5361 1.12203C35.2992 1.43824 35.9926 1.90171 36.5767 2.48596L43.4033 9.31576C43.9876 9.89978 44.451 10.5932 44.7673 11.3564C45.0835 12.1195 45.2462 12.9375 45.2462 13.7636C45.2462 14.5897 45.0835 15.4077 44.7673 16.1709C44.451 16.9341 43.9876 17.6275 43.4033 18.2115L36.5767 25.0381C35.9926 25.6224 35.2992 26.0859 34.5361 26.4021C33.7729 26.7183 32.9549 26.881 32.1288 26.881C31.3027 26.881 30.4847 26.7183 29.7215 26.4021C28.9584 26.0859 28.265 25.6224 27.6809 25.0381Z" fill="white"/>
</svg>
