<svg width="1328" height="1328" viewBox="0 0 1328 1328" fill="none" xmlns="http://www.w3.org/2000/svg">
<path style="mix-blend-mode:screen" d="M884.833 664C884.833 542.037 785.963 443.167 664 443.167C542.037 443.167 443.167 542.037 443.167 664C443.167 785.963 542.037 884.833 664 884.833C785.963 884.833 884.833 785.963 884.833 664ZM664 442.167C786.515 442.167 885.833 541.485 885.833 664C885.833 786.515 786.515 885.833 664 885.833C541.485 885.833 442.167 786.515 442.167 664C442.167 541.485 541.485 442.167 664 442.167ZM959.611 664C959.611 827.262 827.261 959.611 664 959.611C500.738 959.611 368.389 827.262 368.389 664C368.389 500.739 500.738 368.389 664 368.389C827.261 368.389 959.611 500.739 959.611 664ZM664 958.611C826.709 958.611 958.611 826.709 958.611 664C958.611 501.291 826.709 369.389 664 369.389C501.291 369.389 369.389 501.291 369.389 664C369.389 826.709 501.291 958.611 664 958.611ZM1032.39 664C1032.39 460.544 867.456 295.611 664 295.611C460.544 295.611 295.611 460.544 295.611 664C295.611 867.456 460.544 1032.39 664 1032.39C867.456 1032.39 1032.39 867.456 1032.39 664ZM664 294.611C868.008 294.611 1033.39 459.992 1033.39 664C1033.39 868.008 868.008 1033.39 664 1033.39C459.992 1033.39 294.611 868.008 294.611 664C294.611 459.992 459.992 294.611 664 294.611ZM1179.94 664C1179.94 379.052 948.948 148.056 664 148.056C379.052 148.056 148.056 379.052 148.056 664C148.056 948.948 379.052 1179.94 664 1179.94C948.948 1179.94 1179.94 948.948 1179.94 664ZM664 147.056C949.5 147.056 1180.94 378.5 1180.94 664C1180.94 949.501 949.5 1180.94 664 1180.94C378.499 1180.94 147.056 949.501 147.056 664C147.056 378.5 378.499 147.056 664 147.056ZM1327.5 664C1327.5 297.559 1030.44 0.5 664 0.5C297.559 0.5 0.5 297.559 0.5 664C0.5 1030.44 297.559 1327.5 664 1327.5C1030.44 1327.5 1327.5 1030.44 1327.5 664ZM1254.72 664C1254.72 990.247 990.247 1254.72 664 1254.72C337.753 1254.72 73.2778 990.247 73.2778 664C73.2778 337.753 337.753 73.2778 664 73.2778C990.247 73.2778 1254.72 337.753 1254.72 664ZM664 1253.72C989.695 1253.72 1253.72 989.695 1253.72 664C1253.72 338.305 989.695 74.2778 664 74.2778C338.305 74.2778 74.2778 338.305 74.2778 664C74.2778 989.695 338.305 1253.72 664 1253.72ZM1107.17 664C1107.17 908.754 908.754 1107.17 664 1107.17C419.246 1107.17 220.833 908.754 220.833 664C220.833 419.246 419.246 220.833 664 220.833C908.754 220.833 1107.17 419.246 1107.17 664ZM664 1106.17C908.202 1106.17 1106.17 908.202 1106.17 664C1106.17 419.798 908.202 221.833 664 221.833C419.798 221.833 221.833 419.798 221.833 664C221.833 908.202 419.798 1106.17 664 1106.17Z" stroke="url(#paint0_angular_2189_1177)" stroke-opacity="0.05"/>
<defs>
<radialGradient id="paint0_angular_2189_1177" cx="0" cy="0" r="1" gradientUnits="userSpaceOnUse" gradientTransform="translate(664 664) rotate(90) scale(664)">
<stop offset="0.165535" stop-color="#7D6FF6"/>
<stop offset="0.211571" stop-color="#58E1D9"/>
<stop offset="0.28125" stop-color="#249FBA"/>
<stop offset="0.320764" stop-color="#7D6FF6"/>
<stop offset="0.497609" stop-color="#627EEB" stop-opacity="0"/>
<stop offset="0.696223" stop-color="#58E1D9"/>
<stop offset="0.783836" stop-color="#58E1D9"/>
<stop offset="0.848049" stop-color="#7D6FF6"/>
<stop offset="1" stop-color="#01393E" stop-opacity="0"/>
</radialGradient>
</defs>
</svg>
