<svg width="100%" height="100%" viewBox="0 0 1440 723" fill="none" xmlns="http://www.w3.org/2000/svg">
    <path
        d="M1533.66 721.795C1485.7 706.927 1416.93 431.728 1101.86 284.582M1101.86 284.582C762.691 126.184 358.074 659.829 -216.102 493.447M1101.86 284.582C1442.38 443.61 1495.2 752.222 1544.99 720.101M1101.86 284.582C761.342 125.555 354.84 664.092 -222.984 491.424M1533.83 709.487C1483.27 703.927 1411.72 443.014 1091.45 290.516M1091.45 290.516C749.62 127.743 355.879 650.807 -215.166 480.234M1091.45 290.516C1434.67 453.949 1492.25 741.885 1544.44 706.613M1091.45 290.516C748.238 127.084 352.721 655.012 -222.031 478.149M1534.08 696.816C1480.94 700.288 1406.5 454.357 1081.06 296.456C736.532 129.287 353.674 641.815 -214.264 467.001M1534.15 683.871C1478.43 695.187 1400.72 465.458 1070.66 302.379M1070.66 302.379C723.464 130.837 351.503 632.776 -213.287 453.788M1070.66 302.379C1419.24 474.607 1486.37 721.193 1543.37 679.631M1070.66 302.379C722.069 130.151 348.508 636.836 -220.121 451.589M1534.14 670.749C1475.86 689.235 1394.63 476.446 1060.25 308.313M1060.25 308.313C710.374 132.391 349.299 623.785 -212.366 440.56M1060.25 308.313C1411.53 484.936 1483.42 710.855 1542.82 666.143M1060.25 308.313C708.962 131.69 346.389 627.756 -219.168 438.314M1533.99 657.534C1473.17 682.47 1388.2 487.295 1049.84 314.247M1049.84 314.247C697.303 133.951 347.1 614.772 -211.449 427.342M1049.84 314.247C1403.8 495.271 1480.47 700.507 1542.27 652.655M1049.84 314.247C695.878 133.224 344.273 618.665 -218.214 425.039M1533.77 644.258C1470.42 675.114 1381.54 498.051 1039.45 320.186M1039.45 320.186C684.235 135.5 344.899 605.77 -210.528 414.114M1039.45 320.186C1396.11 505.605 1477.52 690.169 1541.74 639.172M1039.45 320.186C682.79 134.768 342.173 609.59 -217.261 411.764M1533.54 630.909C1467.67 667.389 1374.78 508.756 1029.04 326.12M1029.04 326.12C671.144 137.054 342.692 596.789 -209.627 400.88M1029.04 326.12C1388.38 515.939 1474.57 679.831 1541.19 625.683M1029.04 326.12C669.706 136.302 340.054 600.51 -216.307 398.489M1533.18 617.56C1464.8 659.209 1367.76 519.347 1018.64 332.044M1018.64 332.044C658.076 138.604 340.498 587.755 -208.669 387.662M1018.64 332.044C1380.67 526.268 1471.62 669.483 1540.64 612.195M1018.64 332.044C656.605 137.82 337.937 591.42 -215.351 385.204M1532.83 604.18C1461.96 650.826 1360.71 529.934 1008.23 337.978C644.986 140.158 338.316 578.759 -207.732 374.45M1532.49 590.748C1459.13 642.266 1353.63 540.52 997.84 343.907C631.899 141.702 336.09 569.772 -206.85 361.211M1532.06 577.358C1456.22 633.453 1346.39 551.019 987.432 349.841C618.828 143.262 333.888 560.77 -205.929 347.983M1531.64 563.927C1453.34 624.536 1339.12 561.533 977.02 355.785C605.74 144.806 331.687 551.768 -205.012 334.765M1531.2 550.5C1450.42 615.464 1331.8 572.011 966.612 361.719C592.669 146.366 329.483 542.776 -204.11 321.532M1530.76 537.074C1447.52 606.298 1324.45 582.469 956.225 367.648M956.225 367.648C579.582 147.91 327.284 533.764 -203.171 308.309M956.225 367.648C1334.38 588.258 1453.96 607.435 1537.4 531.266M956.225 367.648C578.072 147.038 325.253 536.902 -209.628 305.543M1530.3 523.611C1444.61 597.028 1317.09 592.937 945.816 373.582M945.816 373.582C566.511 149.469 325.077 524.782 -202.289 295.07M945.816 373.582C1326.65 598.592 1451.01 597.097 1536.85 517.777M945.816 373.582C564.988 148.572 323.134 527.822 -208.674 292.268M1529.85 510.159C1441.69 587.675 1309.69 603.395 935.408 379.516C553.42 151.024 322.873 515.791 -201.39 281.847M1529.37 496.702C1438.75 578.255 1302.24 613.816 925.002 385.439C540.333 152.568 320.671 506.789 -200.467 268.609M1528.89 483.265C1435.84 568.784 1294.79 624.248 914.613 391.379M914.613 391.379C527.265 154.117 318.47 497.786 -199.549 255.391M914.613 391.379C1303.51 629.59 1442.18 566.078 1535.23 477.318M914.613 391.379C525.715 153.168 316.802 500.566 -205.811 252.433M1534.7 463.835C1439.25 555.734 1295.82 639.934 904.204 397.313C512.592 154.691 314.686 491.476 -204.877 239.153M1534.15 450.346C1436.3 545.397 1288.09 650.258 893.795 403.247C499.504 156.235 312.567 482.396 -203.923 225.878M1533.6 436.858C1433.35 535.059 1280.37 660.597 883.387 409.181C486.4 157.764 310.428 473.31 -202.97 212.603M1533.07 423.365C1430.43 524.705 1272.67 670.916 873 415.109C473.335 159.303 308.334 464.215 -202.014 199.317M1532.53 409.876C1427.47 514.367 1264.95 681.255 862.592 421.043C460.231 160.831 306.215 455.134 -201.06 186.042M1531.98 396.388C1424.52 504.029 1257.22 691.579 852.183 426.977C447.144 162.375 304.096 446.054 -200.107 172.767M1531.43 382.9C1421.58 493.681 1249.51 701.919 841.794 432.916C434.078 163.914 301.999 436.969 -199.134 159.498M1530.9 369.417C1418.64 483.348 1241.8 712.258 831.388 438.84C420.98 165.422 299.882 427.878 -198.197 146.207M1530.35 355.929C1415.68 472.995 1234.09 722.587 820.979 444.774C407.874 166.961 297.763 418.798 -197.244 132.932M1529.81 342.44C1412.75 462.662 1226.37 732.916 810.59 450.713C394.805 168.51 295.666 409.713 -196.271 119.662M1529.28 328.957C1409.79 452.324 1218.66 743.256 800.181 456.647C381.702 170.039 293.547 400.633 -195.337 106.382M1528.73 315.469C1406.85 441.976 1210.95 753.595 789.773 462.581C368.598 171.567 291.428 391.552 -194.383 93.107M1528.18 301.981C1403.9 431.638 1203.22 763.919 779.367 468.505C355.516 173.091 289.315 382.452 -193.427 79.8216M1527.65 288.487C1400.97 421.295 1195.51 774.248 768.978 474.444C342.448 174.64 287.196 373.371 -192.474 66.5466M1527.11 274.999C1398.02 410.957 1187.8 784.577 758.569 480.378C329.341 176.179 285.077 364.291 -191.52 53.2716M1526.56 261.511C1395.07 400.609 1180.08 794.916 748.16 486.312C316.237 177.707 282.96 355.201 -190.567 39.9966M1526.01 248.023C1392.12 390.271 1172.37 805.245 737.755 492.236C303.136 179.226 280.844 346.11 -189.611 26.7113M1525.48 234.539C1389.19 379.928 1164.64 815.58 727.365 498.175C290.09 180.77 278.744 337.035 -188.657 13.4363M1524.93 221.051C1386.24 369.59 1156.93 825.909 716.957 504.109C276.983 182.309 276.628 327.945 -187.704 0.161271M1543.91 693.119C1489.32 731.531 1426.96 464.268 1081.06 296.445C735.173 128.623 350.627 645.916 -221.074 464.864M1540.12 598.712C1468.69 659.15 1372.95 536.607 1008.25 337.983C643.539 139.359 335.821 582.329 -214.398 371.929M1539.57 585.224C1465.74 648.812 1365.24 546.936 997.837 343.917C630.433 140.898 333.702 573.249 -213.444 358.654M1539.02 571.735C1462.79 638.464 1357.51 557.271 987.429 349.851C617.348 142.431 331.586 564.159 -212.491 345.379M1538.49 558.242C1459.86 628.121 1349.82 567.595 977.042 355.78C604.263 143.965 329.489 555.073 -211.535 332.093M1537.95 544.754C1456.92 617.772 1342.09 577.929 966.634 361.714C591.179 145.499 327.37 545.993 -210.581 318.818M1536.32 504.294C1448.08 586.753 1318.95 608.926 935.43 379.511C551.906 150.095 321.04 518.727 -207.718 278.983M1535.77 490.806C1445.13 576.416 1311.24 619.266 925.021 385.445C538.802 151.623 318.921 509.646 -206.765 265.708"
        stroke="url(#paint0_linear_2151_4611)" stroke-opacity="0.5" stroke-width="0.25" stroke-miterlimit="10"
        stroke-linecap="round" stroke-linejoin="round" />
    <defs>
        <linearGradient id="paint0_linear_2151_4611" x1="620.5" y1="767.5" x2="704.5" y2="178.5"
            gradientUnits="userSpaceOnUse">
            <stop stop-color="#7D6FF6" />
            <stop offset="0.302083" stop-color="#58E1D9" />
            <stop offset="0.635417" stop-color="#7D6FF6" />
            <stop offset="1" stop-color="#58E1D9" />
        </linearGradient>
    </defs>
</svg>