<svg width="54" height="54" viewBox="0 0 54 54" fill="none" xmlns="http://www.w3.org/2000/svg">
<path d="M43.3573 11.9926C40.3648 10.5976 37.1248 9.5851 33.7498 9.0001C33.7202 8.99916 33.6907 9.00471 33.6635 9.01637C33.6363 9.02804 33.612 9.04552 33.5923 9.0676C33.1873 9.8101 32.7148 10.7776 32.3998 11.5201C28.82 10.9801 25.1795 10.9801 21.5998 11.5201C21.2848 10.7551 20.8123 9.8101 20.3848 9.0676C20.3623 9.0226 20.2948 9.0001 20.2273 9.0001C16.8523 9.5851 13.6348 10.5976 10.6198 11.9926C10.5973 11.9926 10.5748 12.0151 10.5523 12.0376C4.43228 21.1951 2.74478 30.1051 3.57728 38.9251C3.57728 38.9701 3.59978 39.0151 3.64478 39.0376C7.69478 42.0076 11.5873 43.8076 15.4348 45.0001C15.5023 45.0226 15.5698 45.0001 15.5923 44.9551C16.4923 43.7176 17.3023 42.4126 17.9998 41.0401C18.0448 40.9501 17.9998 40.8601 17.9098 40.8376C16.6273 40.3426 15.4123 39.7576 14.2198 39.0826C14.1298 39.0376 14.1298 38.9026 14.1973 38.8351C14.4448 38.6551 14.6923 38.4526 14.9398 38.2726C14.9848 38.2276 15.0523 38.2276 15.0973 38.2501C22.8373 41.7826 31.1848 41.7826 38.8348 38.2501C38.8798 38.2276 38.9473 38.2276 38.9923 38.2726C39.2398 38.4751 39.4873 38.6551 39.7348 38.8576C39.8248 38.9251 39.8248 39.0601 39.7123 39.1051C38.5423 39.8026 37.3048 40.3651 36.0223 40.8601C35.9323 40.8826 35.9098 40.9951 35.9323 41.0626C36.6523 42.4351 37.4623 43.7401 38.3398 44.9776C38.4073 45.0001 38.4748 45.0226 38.5423 45.0001C42.4123 43.8076 46.3048 42.0076 50.3548 39.0376C50.3998 39.0151 50.4223 38.9701 50.4223 38.9251C51.4123 28.7326 48.7798 19.8901 43.4473 12.0376C43.4248 12.0151 43.4023 11.9926 43.3573 11.9926ZM19.1698 33.5476C16.8523 33.5476 14.9173 31.4101 14.9173 28.7776C14.9173 26.1451 16.8073 24.0076 19.1698 24.0076C21.5548 24.0076 23.4448 26.1676 23.4223 28.7776C23.4223 31.4101 21.5323 33.5476 19.1698 33.5476ZM34.8523 33.5476C32.5348 33.5476 30.5998 31.4101 30.5998 28.7776C30.5998 26.1451 32.4898 24.0076 34.8523 24.0076C37.2373 24.0076 39.1273 26.1676 39.1048 28.7776C39.1048 31.4101 37.2373 33.5476 34.8523 33.5476Z" fill="white"/>
</svg>
