<svg width="150" height="59" viewBox="0 0 150 59" fill="none" xmlns="http://www.w3.org/2000/svg">
<g clip-path="url(#clip0_2469_22513)">
<path d="M32.2085 31.9272C33.7679 31.9272 35.032 30.6631 35.032 29.1038C35.032 27.5444 33.7679 26.2803 32.2085 26.2803C30.6491 26.2803 29.385 27.5444 29.385 29.1038C29.385 30.6631 30.6491 31.9272 32.2085 31.9272Z" fill="white"/>
<path d="M84.7686 31.9272C86.3279 31.9272 87.592 30.6631 87.592 29.1038C87.592 27.5444 86.3279 26.2803 84.7686 26.2803C83.2092 26.2803 81.9451 27.5444 81.9451 29.1038C81.9451 30.6631 83.2092 31.9272 84.7686 31.9272Z" fill="white"/>
<path d="M39.9065 13.3447C41.4659 13.3447 42.73 12.0806 42.73 10.5212C42.73 8.96187 41.4659 7.69775 39.9065 7.69775C38.3471 7.69775 37.083 8.96187 37.083 10.5212C37.083 12.0806 38.3471 13.3447 39.9065 13.3447Z" fill="white"/>
<path d="M77.0708 50.5117C78.6302 50.5117 79.8943 49.2476 79.8943 47.6882C79.8943 46.1289 78.6302 44.8647 77.0708 44.8647C75.5114 44.8647 74.2473 46.1289 74.2473 47.6882C74.2473 49.2476 75.5114 50.5117 77.0708 50.5117Z" fill="white"/>
<path d="M58.4885 5.64697C60.0479 5.64697 61.312 4.38285 61.312 2.82348C61.312 1.26412 60.0479 0 58.4885 0C56.9292 0 55.665 1.26412 55.665 2.82348C55.665 4.38285 56.9292 5.64697 58.4885 5.64697Z" fill="white"/>
<path d="M58.4885 58.2095C60.0479 58.2095 61.312 56.9454 61.312 55.386C61.312 53.8266 60.0479 52.5625 58.4885 52.5625C56.9292 52.5625 55.665 53.8266 55.665 55.386C55.665 56.9454 56.9292 58.2095 58.4885 58.2095Z" fill="white"/>
<path d="M58.501 5.64697C60.0603 5.64697 61.3245 4.38285 61.3245 2.82348C61.3245 1.26412 60.0603 0 58.501 0C56.9416 0 55.6775 1.26412 55.6775 2.82348C55.6775 4.38285 56.9416 5.64697 58.501 5.64697Z" fill="white"/>
<path d="M58.501 58.2095C60.0603 58.2095 61.3245 56.9454 61.3245 55.386C61.3245 53.8266 60.0603 52.5625 58.501 52.5625C56.9416 52.5625 55.6775 53.8266 55.6775 55.386C55.6775 56.9454 56.9416 58.2095 58.501 58.2095Z" fill="white"/>
<path d="M77.7197 14.0063C79.2791 14.0063 80.5432 12.7422 80.5432 11.1829C80.5432 9.62349 79.2791 8.35938 77.7197 8.35938C76.1604 8.35938 74.8962 9.62349 74.8962 11.1829C74.8962 12.7422 76.1604 14.0063 77.7197 14.0063Z" fill="white"/>
<path d="M39.2795 49.8501C40.8389 49.8501 42.103 48.586 42.103 47.0266C42.103 45.4672 40.8389 44.2031 39.2795 44.2031C37.7202 44.2031 36.4561 45.4672 36.4561 47.0266C36.4561 48.586 37.7202 49.8501 39.2795 49.8501Z" fill="white"/>
<path d="M20.3888 17.2495V40.9579H17.6122L3.38621 23.279V40.9604H0V17.252H2.77659L17.0026 34.9333V17.252H20.3888V17.2495Z" fill="white"/>
<path d="M46.1482 29.1061C46.1482 22.3189 51.3805 17.252 58.4985 17.252C65.6164 17.252 70.7821 22.2844 70.7821 29.1061C70.7821 35.9279 65.5498 40.9603 58.4985 40.9603C51.4472 40.9603 46.1482 35.8934 46.1482 29.1061ZM67.4724 29.1061C67.4724 23.9725 63.6321 20.1988 58.4985 20.1988C53.3649 20.1988 49.4579 23.9725 49.4579 29.1061C49.4579 34.2397 53.2982 38.0134 58.4985 38.0134C63.6987 38.0134 67.4724 34.2397 67.4724 29.1061Z" fill="#7D6FF6"/>
<path d="M104.661 32.7638V40.9603H101.307V32.6972L91.8916 17.252H95.5147L103.102 29.7503L110.723 17.252H114.077L104.661 32.7638Z" fill="white"/>
<path d="M143.835 35.032H131.235L128.626 40.9603H125.136L135.873 17.252H139.227L149.997 40.9603H146.441L143.832 35.032H143.835ZM142.65 32.322L137.536 20.7048L132.422 32.322H142.65Z" fill="white"/>
</g>
<defs>
<clipPath id="clip0_2469_22513">
<rect width="150" height="58.2097" fill="white"/>
</clipPath>
</defs>
</svg>
