<svg width="25" height="24" viewBox="0 0 25 24" fill="none" xmlns="http://www.w3.org/2000/svg">
<path d="M12.5 22.4503C9.59919 22.4503 6.8172 21.3536 4.76602 19.4014C2.71484 17.4493 1.5625 14.8015 1.5625 12.0407C1.5625 9.27994 2.71484 6.63221 4.76602 4.68003C6.8172 2.72785 9.59919 1.63113 12.5 1.63113C15.4008 1.63113 18.1828 2.72785 20.234 4.68003C22.2852 6.63221 23.4375 9.27994 23.4375 12.0407C23.4375 14.8015 22.2852 17.4493 20.234 19.4014C18.1828 21.3536 15.4008 22.4503 12.5 22.4503ZM12.5 23.9374C15.8152 23.9374 18.9946 22.684 21.3388 20.453C23.683 18.2219 25 15.1959 25 12.0407C25 8.88554 23.683 5.85957 21.3388 3.6285C18.9946 1.39744 15.8152 0.144043 12.5 0.144043C9.18479 0.144043 6.00537 1.39744 3.66117 3.6285C1.31696 5.85957 0 8.88554 0 12.0407C0 15.1959 1.31696 18.2219 3.66117 20.453C6.00537 22.684 9.18479 23.9374 12.5 23.9374Z" fill="url(#paint0_linear_2151_4599)"/>
<path d="M9.79844 7.66111C9.92622 7.59848 10.0697 7.57062 10.213 7.58059C10.3564 7.59056 10.4941 7.63798 10.6109 7.71762L16.0797 11.4353C16.181 11.5041 16.2635 11.5949 16.3205 11.7002C16.3774 11.8055 16.4071 11.9222 16.4071 12.0406C16.4071 12.159 16.3774 12.2757 16.3205 12.381C16.2635 12.4862 16.181 12.577 16.0797 12.6458L10.6109 16.3635C10.4941 16.4431 10.3565 16.4905 10.2132 16.5005C10.0699 16.5104 9.92655 16.4826 9.79881 16.4201C9.67107 16.3575 9.56392 16.2626 9.48915 16.1459C9.41438 16.0291 9.37488 15.895 9.375 15.7583V8.32286C9.37485 8.18617 9.41429 8.05209 9.48899 7.93534C9.5637 7.8186 9.67077 7.72371 9.79844 7.66111Z" fill="url(#paint1_linear_2151_4599)"/>
<defs>
<linearGradient id="paint0_linear_2151_4599" x1="-12" y1="11.5649" x2="35.5" y2="11.5649" gradientUnits="userSpaceOnUse">
<stop stop-color="#7D6FF6"/>
<stop offset="1" stop-color="#58E1D9"/>
</linearGradient>
<linearGradient id="paint1_linear_2151_4599" x1="5.99957" y1="11.8621" x2="19.3606" y2="11.8621" gradientUnits="userSpaceOnUse">
<stop stop-color="#7D6FF6"/>
<stop offset="1" stop-color="#58E1D9"/>
</linearGradient>
</defs>
</svg>
