<svg width="1122" height="665" viewBox="0 0 1122 665" fill="none" xmlns="http://www.w3.org/2000/svg">
<g opacity="0.04">
<path opacity="0.04" d="M887.694 0L912.266 78.2668C912.287 78.3264 912.351 78.3463 912.415 78.3463C912.479 78.3264 912.5 78.2668 912.5 78.2072L887.928 0H887.694Z" fill="white" fill-opacity="0.2"/>
</g>
<g opacity="0.03">
<path opacity="0.03" d="M912.331 78.1668C912.331 78.1668 912.352 78.1668 912.352 78.1469L982.9 60.6615C982.943 60.6417 982.985 60.6814 983.006 60.7211C983.028 60.7609 982.985 60.8006 982.943 60.8205L912.394 78.3058C912.352 78.3257 912.309 78.286 912.288 78.2462C912.288 78.2264 912.309 78.1866 912.331 78.1668Z" fill="white" fill-opacity="0.2"/>
</g>
<g opacity="0.09">
<path opacity="0.09" d="M581.16 41.3077C581.288 41.2282 581.458 41.2282 581.585 41.3077C581.755 41.407 581.798 41.6454 581.691 41.8044L560.946 70.6354C560.818 70.7943 560.584 70.8341 560.414 70.7347C560.244 70.6354 560.202 70.3969 560.308 70.238L581.054 41.407C581.075 41.3673 581.117 41.3275 581.16 41.3077Z" fill="white" fill-opacity="0.2"/>
</g>
<g opacity="0.03">
<path opacity="0.03" d="M581.282 41.5052C581.304 41.5052 581.304 41.4854 581.325 41.4854L623.496 31.4114C623.56 31.3915 623.624 31.4313 623.645 31.4909C623.667 31.5505 623.624 31.6101 623.56 31.63L581.389 41.7039C581.325 41.7238 581.261 41.6841 581.24 41.6245C581.219 41.5847 581.24 41.5251 581.282 41.5052Z" fill="white" fill-opacity="0.2"/>
</g>
<g opacity="0.03">
<path opacity="0.03" d="M525.377 29.1097C525.399 29.0898 525.42 29.0898 525.441 29.0898L623.537 31.4146C623.601 31.4146 623.643 31.4543 623.643 31.5139C623.643 31.5736 623.601 31.6133 623.537 31.6133L525.441 29.2885C525.377 29.2885 525.335 29.2488 525.335 29.1892C525.335 29.1693 525.356 29.1296 525.377 29.1097Z" fill="white" fill-opacity="0.2"/>
</g>
<g opacity="0.18">
<path opacity="0.18" d="M560.227 69.9218C560.227 69.9019 560.248 69.9019 560.227 69.9218L623.165 30.997C623.484 30.7983 623.888 30.8778 624.101 31.1759C624.292 31.454 624.228 31.8514 623.931 32.0302H623.909L560.992 70.9352C560.673 71.1339 560.269 71.0544 560.057 70.7563C559.844 70.498 559.929 70.1006 560.227 69.9218Z" fill="white" fill-opacity="0.2"/>
</g>
<g opacity="0.14">
<path opacity="0.14" d="M623.223 31.1172C623.414 30.998 623.69 30.998 623.882 31.1569L677.085 74.3537C677.298 74.5325 677.34 74.8505 677.128 75.0491C676.936 75.2677 676.596 75.2876 676.384 75.0889L623.18 31.8921C622.968 31.7133 622.925 31.3954 623.138 31.1967C623.159 31.1569 623.202 31.1371 623.223 31.1172Z" fill="white" fill-opacity="0.2"/>
</g>
<g opacity="0.01">
<path opacity="0.01" d="M676.707 74.6732C676.728 74.6533 676.771 74.6533 676.792 74.6931C676.813 74.7129 676.813 74.7527 676.771 74.7726L580.652 139.21C580.63 139.23 580.588 139.23 580.567 139.19C580.545 139.17 580.545 139.131 580.588 139.111L676.707 74.6732Z" fill="white" fill-opacity="0.2"/>
</g>
<g opacity="0.19">
<path opacity="0.19" d="M676.323 74.1551C676.62 73.9564 677.045 74.016 677.3 74.2942L726.444 132.036C726.699 132.334 726.635 132.751 726.338 132.969C726.061 133.208 725.573 133.148 725.339 132.87L676.195 75.1287C675.94 74.8307 676.004 74.4134 676.301 74.1948C676.301 74.175 676.323 74.175 676.323 74.1551Z" fill="white" fill-opacity="0.2"/>
</g>
<g opacity="0.04">
<path opacity="0.04" d="M572.829 317.579C572.872 317.559 572.914 317.539 572.957 317.559C573.063 317.579 573.127 317.658 573.127 317.758L566.665 370.611C566.644 370.711 566.559 370.77 566.452 370.77C566.346 370.75 566.282 370.671 566.282 370.571L572.744 317.718C572.744 317.658 572.787 317.619 572.829 317.579Z" fill="white" fill-opacity="0.2"/>
</g>
<g opacity="0.01">
<path opacity="0.01" d="M495.45 299.675H495.471L572.927 317.697C572.949 317.697 572.949 317.717 572.949 317.736C572.949 317.756 572.927 317.756 572.906 317.756L495.45 299.734C495.428 299.715 495.428 299.695 495.45 299.675C495.428 299.675 495.428 299.675 495.45 299.675Z" fill="white" fill-opacity="0.2"/>
</g>
<g opacity="0.14">
<path opacity="0.14" d="M511.78 301.227C511.929 301.127 512.099 301.088 512.291 301.147L573.082 317.182C573.401 317.261 573.593 317.579 573.508 317.877C573.422 318.175 573.082 318.354 572.764 318.275L511.972 302.24C511.653 302.161 511.462 301.843 511.547 301.545C511.589 301.405 511.674 301.306 511.78 301.227Z" fill="white" fill-opacity="0.2"/>
</g>
<g opacity="0.02">
<path opacity="0.02" d="M572.868 317.657C572.89 317.638 572.932 317.638 572.975 317.657L628.283 344.223C628.325 344.243 628.346 344.303 628.325 344.343C628.304 344.382 628.24 344.402 628.198 344.382L572.89 317.816C572.847 317.797 572.826 317.737 572.847 317.697C572.847 317.677 572.847 317.657 572.868 317.657Z" fill="white" fill-opacity="0.2"/>
</g>
<g opacity="0.19">
<path opacity="0.19" d="M572.437 317.101C572.564 317.022 572.713 316.962 572.862 316.962L594.841 315.909C595.287 315.889 595.691 316.207 595.712 316.644C595.733 317.081 595.393 317.439 594.926 317.459L572.968 318.512C572.522 318.532 572.118 318.214 572.097 317.777C572.075 317.499 572.224 317.24 572.437 317.101Z" fill="white" fill-opacity="0.2"/>
</g>
<g opacity="0.02">
<path opacity="0.02" d="M495.41 299.63C495.432 299.61 495.453 299.61 495.474 299.61L594.909 316.579C594.952 316.579 594.994 316.619 594.973 316.678C594.973 316.718 594.931 316.758 594.867 316.738L495.432 299.769C495.389 299.769 495.347 299.73 495.368 299.67C495.389 299.65 495.389 299.63 495.41 299.63Z" fill="white" fill-opacity="0.2"/>
</g>
<g opacity="0.24">
<path opacity="0.24" d="M594.313 315.907C594.674 315.669 595.184 315.689 595.546 315.967L628.875 343.586C629.279 343.924 629.321 344.52 628.96 344.897C628.599 345.275 627.961 345.314 627.557 344.977L594.228 317.358C593.824 317.02 593.782 316.424 594.143 316.046C594.207 316.007 594.249 315.947 594.313 315.907Z" fill="white" fill-opacity="0.2"/>
</g>
<g opacity="0.04">
<path opacity="0.04" d="M594.803 316.544C594.867 316.505 594.952 316.505 595.015 316.544L670.07 372.816C670.134 372.875 670.155 372.974 670.091 373.034C670.049 373.114 669.921 373.114 669.857 373.054L594.803 316.783C594.739 316.723 594.718 316.624 594.782 316.564C594.76 316.564 594.782 316.544 594.803 316.544Z" fill="white" fill-opacity="0.2"/>
</g>
<g opacity="0.03">
<path opacity="0.03" d="M628.15 344.202C628.171 344.183 628.214 344.183 628.256 344.183L715.788 373.133C715.852 373.153 715.873 373.212 715.852 373.272C715.831 373.331 715.767 373.351 715.703 373.331L628.171 344.381C628.108 344.361 628.086 344.302 628.108 344.242C628.129 344.242 628.129 344.222 628.15 344.202Z" fill="white" fill-opacity="0.2"/>
</g>
<g opacity="0.25">
<path opacity="0.25" d="M627.628 343.506C627.968 343.267 628.457 343.267 628.818 343.525L670.543 372.178C670.99 372.495 671.096 373.092 670.756 373.509C670.416 373.946 669.778 374.025 669.332 373.707L627.607 345.055C627.16 344.737 627.054 344.141 627.394 343.724C627.479 343.645 627.543 343.565 627.628 343.506Z" fill="white" fill-opacity="0.2"/>
</g>
<g opacity="0.22">
<path opacity="0.22" d="M669.446 372.279C669.595 372.179 669.765 372.14 669.957 372.14L715.763 372.438C716.252 372.438 716.634 372.815 716.634 373.252C716.634 373.709 716.231 374.067 715.763 374.067L669.957 373.769C669.468 373.769 669.085 373.391 669.085 372.954C669.064 372.656 669.213 372.418 669.446 372.279Z" fill="white" fill-opacity="0.2"/>
</g>
<g opacity="0.12">
<path opacity="0.12" d="M472.75 492.389C472.856 492.31 472.984 492.29 473.133 492.31C473.43 492.35 473.622 492.608 473.579 492.866L467.436 532.864C467.394 533.142 467.117 533.321 466.841 533.281C466.543 533.242 466.352 532.983 466.395 532.725L472.538 492.727C472.538 492.588 472.623 492.469 472.75 492.389Z" fill="white" fill-opacity="0.2"/>
</g>
<g opacity="0.22">
<path opacity="0.22" d="M472.52 492.094C472.796 491.915 473.179 491.875 473.498 492.034L484.041 497.339C484.487 497.558 484.657 498.094 484.423 498.512C484.189 498.929 483.615 499.088 483.169 498.869L472.626 493.564C472.18 493.346 472.01 492.809 472.244 492.392C472.307 492.273 472.414 492.173 472.52 492.094Z" fill="white" fill-opacity="0.2"/>
</g>
<g opacity="0.01">
<path opacity="0.01" d="M473.033 492.748C473.054 492.729 473.097 492.748 473.118 492.768L503.939 539.82C503.96 539.84 503.939 539.879 503.918 539.899C503.897 539.919 503.854 539.899 503.833 539.879L473.012 492.828C472.99 492.808 473.012 492.768 473.033 492.748Z" fill="white" fill-opacity="0.2"/>
</g>
<g opacity="0.21">
<path opacity="0.21" d="M483.08 497.439C483.123 497.419 483.165 497.379 483.229 497.359C483.676 497.181 484.186 497.359 484.377 497.757L504.655 539.503C504.846 539.92 504.655 540.397 504.23 540.576C503.784 540.755 503.273 540.576 503.082 540.179L482.804 498.432C482.613 498.075 482.74 497.658 483.08 497.439Z" fill="white" fill-opacity="0.2"/>
</g>
<g opacity="0.17">
<path opacity="0.17" d="M503.489 539.322C503.51 539.302 503.531 539.302 503.553 539.282C503.871 539.103 504.297 539.223 504.467 539.521L541.282 601.157C541.452 601.455 541.346 601.832 541.027 602.011C540.708 602.19 540.283 602.071 540.113 601.772L503.298 540.137C503.127 539.858 503.212 539.501 503.489 539.322Z" fill="white" fill-opacity="0.2"/>
</g>
<g opacity="0.01">
<path opacity="0.01" d="M540.67 601.435L625.927 552.297C625.948 552.277 625.991 552.297 626.012 552.317C626.033 552.337 626.012 552.377 625.991 552.397L540.733 601.534C540.712 601.554 540.67 601.534 540.648 601.515C540.648 601.475 540.648 601.435 540.67 601.435Z" fill="white" fill-opacity="0.2"/>
</g>
<g opacity="0.14">
<path opacity="0.14" d="M540.383 601.06C540.596 600.921 540.872 600.941 541.064 601.1L602.812 655.98C603.025 656.178 603.025 656.476 602.833 656.675C602.621 656.874 602.302 656.894 602.089 656.695L540.341 601.815C540.128 601.616 540.128 601.318 540.32 601.119C540.341 601.1 540.362 601.08 540.383 601.06Z" fill="white" fill-opacity="0.2"/>
</g>
<g opacity="0.13">
<path opacity="0.13" d="M346.712 465.607C346.945 465.448 347.285 465.468 347.498 465.647L354.491 471.607C354.746 471.826 354.768 472.204 354.534 472.442C354.3 472.68 353.896 472.7 353.641 472.482L346.648 466.521C346.393 466.302 346.371 465.925 346.605 465.686C346.648 465.666 346.669 465.627 346.712 465.607Z" fill="white" fill-opacity="0.2"/>
</g>
<g opacity="0.16">
<path opacity="0.16" d="M346.643 465.527C346.813 465.428 347.026 465.368 347.238 465.428C347.621 465.527 347.876 465.885 347.77 466.263L340.33 494.597C340.224 494.954 339.841 495.193 339.437 495.094C339.055 494.994 338.8 494.637 338.906 494.259L346.346 465.925C346.409 465.766 346.516 465.627 346.643 465.527Z" fill="white" fill-opacity="0.2"/>
</g>
<g opacity="0.11">
<path opacity="0.11" d="M339.348 494.059C339.433 494 339.561 493.96 339.667 493.98C339.922 494 340.113 494.218 340.092 494.477L333.014 559.57C332.993 559.808 332.759 559.987 332.482 559.967C332.227 559.947 332.036 559.729 332.057 559.47L339.135 494.377C339.178 494.238 339.242 494.119 339.348 494.059Z" fill="white" fill-opacity="0.2"/>
</g>
<g opacity="0.02">
<path opacity="0.02" d="M236.178 558.042C236.199 558.042 236.199 558.022 236.22 558.022L332.552 559.453C332.594 559.453 332.616 559.493 332.616 559.513C332.616 559.552 332.594 559.572 332.552 559.572L236.22 558.142C236.178 558.142 236.156 558.102 236.156 558.082C236.156 558.062 236.178 558.042 236.178 558.042Z" fill="white" fill-opacity="0.2"/>
</g>
<g opacity="0.02">
<path opacity="0.02" d="M332.503 559.453C332.525 559.453 332.546 559.434 332.546 559.434C332.588 559.434 332.631 559.473 332.631 559.513L327.997 659.637C327.997 659.676 327.955 659.716 327.912 659.716C327.87 659.716 327.827 659.676 327.827 659.637L332.461 559.513C332.482 559.493 332.482 559.473 332.503 559.453Z" fill="white" fill-opacity="0.2"/>
</g>
<g opacity="0.3">
<path opacity="0.3" d="M961.41 1.82769C961.473 1.78795 961.537 1.74821 961.622 1.72834C962.069 1.58925 962.536 1.80782 962.685 2.22509L983.75 60.503C983.898 60.9202 983.665 61.3574 983.218 61.4964C982.772 61.6355 982.304 61.417 982.155 60.9997L961.091 2.72183C960.963 2.38404 961.112 2.02639 961.41 1.82769Z" fill="white" fill-opacity="0.2"/>
</g>
<g opacity="0.14">
<path opacity="0.14" d="M730.224 2.28563C730.394 2.16641 730.649 2.18627 730.798 2.34523C730.968 2.50419 730.968 2.78237 730.798 2.94133L657.21 70.399C657.04 70.558 656.742 70.558 656.572 70.399C656.402 70.2401 656.402 69.9619 656.572 69.8029L730.139 2.34523C730.181 2.32536 730.202 2.3055 730.224 2.28563Z" fill="white" fill-opacity="0.2"/>
</g>
<g opacity="0.06">
<path opacity="0.06" d="M656.79 69.9393C656.875 69.8797 656.96 69.8996 657.045 69.9592L735.501 140.834C735.586 140.914 735.586 141.013 735.501 141.093C735.416 141.172 735.309 141.172 735.224 141.093L656.769 70.2175C656.684 70.138 656.684 70.0387 656.769 69.9592C656.769 69.9592 656.79 69.9592 656.79 69.9393Z" fill="white" fill-opacity="0.2"/>
</g>
<g opacity="0.05">
<path opacity="0.05" d="M735.287 140.834C735.308 140.814 735.351 140.814 735.372 140.814C735.457 140.814 735.521 140.874 735.521 140.954L733.65 255.324C733.65 255.403 733.565 255.463 733.501 255.463C733.416 255.463 733.353 255.403 733.353 255.324L735.223 140.973C735.223 140.914 735.244 140.874 735.287 140.834Z" fill="white" fill-opacity="0.2"/>
</g>
<g opacity="0.13">
<path opacity="0.13" d="M733.263 254.987C733.326 254.948 733.39 254.928 733.475 254.908C733.709 254.888 733.9 255.067 733.922 255.285L739.469 342.156C739.491 342.374 739.299 342.553 739.065 342.573C738.832 342.593 738.64 342.414 738.619 342.195L733.071 255.325C733.071 255.206 733.135 255.067 733.263 254.987Z" fill="white" fill-opacity="0.2"/>
</g>
<g opacity="0.13">
<path opacity="0.13" d="M525.149 28.8128C525.361 28.6737 525.68 28.7135 525.85 28.9122L561.028 70.1418C561.198 70.3604 561.177 70.6584 560.943 70.8174C560.71 70.9763 560.391 70.9565 560.221 70.7379L525.042 29.5083C524.872 29.2897 524.893 28.9916 525.127 28.8327C525.127 28.8128 525.127 28.8128 525.149 28.8128Z" fill="white" fill-opacity="0.2"/>
</g>
<g opacity="0.05">
<path opacity="0.05" d="M560.494 70.2796C560.515 70.2597 560.537 70.2597 560.558 70.2597C560.664 70.2398 560.77 70.2995 560.792 70.3789L580.793 139.108C580.815 139.208 580.772 139.307 580.666 139.327C580.56 139.347 580.453 139.287 580.432 139.208L560.43 70.4783C560.388 70.3988 560.43 70.3193 560.494 70.2796Z" fill="white" fill-opacity="0.2"/>
</g>
<g opacity="0.14">
<path opacity="0.14" d="M517.031 118.701C517.159 118.621 517.329 118.581 517.499 118.641L580.799 138.709C581.075 138.789 581.224 139.067 581.118 139.325C581.033 139.584 580.735 139.723 580.459 139.623L517.159 119.555C516.883 119.476 516.734 119.197 516.84 118.939C516.861 118.84 516.925 118.74 517.031 118.701Z" fill="white" fill-opacity="0.2"/>
</g>
<g opacity="0.04">
<path opacity="0.04" d="M580.545 139.049C580.566 139.029 580.588 139.029 580.609 139.029C580.694 139.029 580.758 139.069 580.758 139.149L592.406 235.994C592.406 236.073 592.363 236.133 592.278 236.133C592.193 236.133 592.13 236.093 592.13 236.013L580.481 139.168C580.481 139.109 580.503 139.069 580.545 139.049Z" fill="white" fill-opacity="0.2"/>
</g>
<g opacity="0.02">
<path opacity="0.02" d="M592.209 235.932C592.231 235.932 592.231 235.912 592.252 235.912C592.295 235.912 592.337 235.952 592.337 235.992L596.673 343.268C596.673 343.308 596.631 343.348 596.588 343.348C596.546 343.348 596.503 343.308 596.503 343.268L592.167 235.992C592.167 235.972 592.188 235.932 592.209 235.932Z" fill="white" fill-opacity="0.2"/>
</g>
<g opacity="0.02">
<path opacity="0.02" d="M596.549 343.211C596.571 343.211 596.571 343.191 596.592 343.191C596.634 343.191 596.677 343.231 596.677 343.271L603.861 451.382C603.861 451.422 603.819 451.461 603.776 451.461C603.734 451.461 603.691 451.422 603.691 451.382L596.507 343.271C596.528 343.251 596.528 343.231 596.549 343.211Z" fill="white" fill-opacity="0.2"/>
</g>
<g opacity="0.04">
<path opacity="0.04" d="M603.703 451.278C603.724 451.258 603.745 451.258 603.745 451.258C603.83 451.238 603.894 451.298 603.915 451.357L626.085 552.315C626.106 552.395 626.043 552.454 625.979 552.474C625.894 552.494 625.83 552.434 625.809 552.375L603.639 451.417C603.618 451.357 603.639 451.298 603.703 451.278Z" fill="white" fill-opacity="0.2"/>
</g>
<g opacity="0.14">
<path opacity="0.14" d="M625.644 551.92C625.899 551.761 626.218 551.821 626.388 552.039L645.369 578.148C645.539 578.367 645.475 578.684 645.242 578.843C645.008 579.002 644.668 578.943 644.498 578.704L625.516 552.595C625.346 552.397 625.389 552.079 625.644 551.92Z" fill="white" fill-opacity="0.2"/>
</g>
<g opacity="0.08">
<path opacity="0.08" d="M495.236 299.419C495.3 299.38 495.406 299.34 495.491 299.36L512.155 301.347C512.347 301.367 512.496 301.545 512.474 301.724C512.453 301.903 512.262 302.042 512.07 302.022L495.406 300.035C495.215 300.015 495.066 299.837 495.087 299.658C495.108 299.558 495.172 299.479 495.236 299.419Z" fill="white" fill-opacity="0.2"/>
</g>
<g opacity="0.13">
<path opacity="0.13" d="M495.157 299.298C495.285 299.219 495.455 299.179 495.625 299.239C495.901 299.318 496.05 299.596 495.965 299.855L480.406 344.82C480.321 345.078 480.023 345.217 479.747 345.138C479.47 345.058 479.322 344.78 479.407 344.522L494.966 299.557C495.009 299.437 495.072 299.358 495.157 299.298Z" fill="white" fill-opacity="0.2"/>
</g>
<g opacity="0.1">
<path opacity="0.1" d="M479.686 344.361C479.771 344.301 479.877 344.282 479.983 344.301C480.196 344.341 480.323 344.54 480.26 344.719L460.534 422.727C460.492 422.926 460.279 423.025 460.088 422.985C459.875 422.946 459.748 422.747 459.811 422.568L479.537 344.56C479.558 344.48 479.622 344.421 479.686 344.361Z" fill="white" fill-opacity="0.2"/>
</g>
<g opacity="0.04">
<path opacity="0.04" d="M460.083 422.569C460.104 422.549 460.147 422.549 460.189 422.549C460.274 422.569 460.317 422.628 460.296 422.708L437.977 524.679C437.956 524.759 437.892 524.798 437.807 524.779C437.722 524.759 437.679 524.699 437.701 524.62L460.019 422.648C460.041 422.608 460.062 422.589 460.083 422.569Z" fill="white" fill-opacity="0.2"/>
</g>
<g opacity="0.05">
<path opacity="0.05" d="M437.749 524.521C437.771 524.501 437.792 524.501 437.813 524.501C437.898 524.481 437.983 524.541 438.004 524.62L450.928 595.356C450.949 595.436 450.885 595.515 450.8 595.535C450.715 595.555 450.63 595.495 450.609 595.416L437.686 524.68C437.686 524.6 437.707 524.541 437.749 524.521Z" fill="white" fill-opacity="0.2"/>
</g>
<g opacity="0.12">
<path opacity="0.12" d="M450.541 595.078C450.669 594.999 450.839 594.979 450.967 595.058C451.158 595.158 451.222 595.396 451.115 595.575L419.359 648.25C419.253 648.428 418.998 648.488 418.806 648.389C418.615 648.289 418.551 648.051 418.658 647.872L450.414 595.197C450.456 595.138 450.499 595.098 450.541 595.078Z" fill="white" fill-opacity="0.2"/>
</g>
<g opacity="0.02">
<path opacity="0.02" d="M397.041 351.295C397.062 351.295 397.062 351.295 397.041 351.295C397.084 351.275 397.147 351.275 397.19 351.315L430.222 398.446C430.243 398.486 430.243 398.545 430.2 398.565C430.158 398.605 430.094 398.585 430.051 398.545L397.02 351.414C396.999 351.375 396.999 351.315 397.041 351.295Z" fill="white" fill-opacity="0.2"/>
</g>
<g opacity="0.14">
<path opacity="0.14" d="M361.86 350.343C361.967 350.284 362.094 350.244 362.222 350.244L397.103 350.8C397.443 350.8 397.719 351.079 397.719 351.397C397.719 351.715 397.421 351.973 397.081 351.973L362.2 351.416C361.86 351.416 361.584 351.158 361.584 350.82C361.605 350.622 361.711 350.443 361.86 350.343Z" fill="white" fill-opacity="0.2"/>
</g>
<g opacity="0.19">
<path opacity="0.19" d="M361.775 350.222C362.072 350.024 362.476 350.044 362.753 350.282C363.071 350.56 363.093 351.017 362.795 351.295L324.449 389.942C324.152 390.24 323.663 390.26 323.365 389.982C323.046 389.704 323.025 389.247 323.323 388.968L361.668 350.322C361.69 350.282 361.732 350.262 361.775 350.222Z" fill="white" fill-opacity="0.2"/>
</g>
<g opacity="0.14">
<path opacity="0.14" d="M323.581 389.072C323.752 388.972 323.964 388.952 324.155 389.052C324.41 389.191 324.495 389.489 324.368 389.727L282.579 460.006C282.43 460.245 282.111 460.324 281.856 460.205C281.601 460.066 281.516 459.768 281.644 459.53L323.433 389.25C323.475 389.151 323.518 389.111 323.581 389.072Z" fill="white" fill-opacity="0.2"/>
</g>
<g opacity="0.05">
<path opacity="0.05" d="M281.977 459.603C281.998 459.583 282.041 459.563 282.083 459.563C282.19 459.563 282.253 459.643 282.253 459.742L280.936 498.826C280.936 498.925 280.851 499.005 280.744 498.985C280.638 498.985 280.574 498.906 280.574 498.806L281.892 459.722C281.913 459.683 281.935 459.643 281.977 459.603Z" fill="white" fill-opacity="0.2"/>
</g>
<g opacity="0.03">
<path opacity="0.03" d="M282.027 459.666C282.07 459.646 282.112 459.646 282.155 459.646C282.218 459.666 282.24 459.746 282.218 459.805L236.348 558.141C236.327 558.2 236.242 558.22 236.178 558.2C236.114 558.18 236.093 558.101 236.114 558.041L281.985 459.706C281.985 459.686 282.006 459.666 282.027 459.666Z" fill="white" fill-opacity="0.2"/>
</g>
<g opacity="0.26">
<path opacity="0.26" d="M962.12 664.98H964.373L945.796 648.548C945.519 648.309 945.116 648.289 944.818 648.488C944.775 648.508 944.733 648.548 944.69 648.587C944.393 648.885 944.414 649.342 944.712 649.601L962.12 664.98Z" fill="white" fill-opacity="0.2"/>
</g>
<g opacity="0.02">
<path opacity="0.02" d="M930.001 588.642C930.043 588.622 930.086 588.642 930.086 588.681L945.305 649.065C945.305 649.085 945.284 649.125 945.262 649.125C945.241 649.125 945.199 649.105 945.199 649.085L929.98 588.701C929.958 588.681 929.98 588.661 930.001 588.642Z" fill="white" fill-opacity="0.2"/>
</g>
<g opacity="0.39">
<path opacity="0.39" d="M961.195 1.57037C961.493 1.37168 961.897 1.31207 962.279 1.43129C962.896 1.64985 963.193 2.28568 962.981 2.84203L948.251 39.8991C948.017 40.4753 947.337 40.7535 946.741 40.5548C946.125 40.3362 945.827 39.7004 946.04 39.144L960.77 2.08699C960.855 1.86842 961.025 1.68959 961.195 1.57037Z" fill="white" fill-opacity="0.2"/>
</g>
<g opacity="0.07">
<path opacity="0.07" d="M696.3 375.084C696.342 375.044 696.427 375.044 696.491 375.064C696.597 375.104 696.64 375.203 696.597 375.302L655.722 477.512C655.68 477.611 655.574 477.651 655.467 477.611C655.361 477.572 655.319 477.472 655.361 477.373L696.236 375.163C696.236 375.143 696.279 375.104 696.3 375.084Z" fill="white" fill-opacity="0.2"/>
</g>
<g opacity="0.05">
<path opacity="0.05" d="M655.442 477.309C655.485 477.289 655.506 477.27 655.548 477.289C655.633 477.289 655.718 477.369 655.697 477.468L645.09 578.466C645.09 578.546 645.005 578.605 644.899 578.605C644.814 578.605 644.729 578.526 644.75 578.426L655.357 477.429C655.378 477.369 655.4 477.329 655.442 477.309Z" fill="white" fill-opacity="0.2"/>
</g>
<g opacity="0.21">
<path opacity="0.21" d="M613.128 10.4903C613.426 10.2916 613.83 10.371 614.042 10.6492L657.447 69.7616C657.638 70.0398 657.574 70.3975 657.277 70.5962C656.979 70.775 656.575 70.7154 656.384 70.4372L612.98 11.3248C612.767 11.0665 612.852 10.689 613.128 10.4903Z" fill="white" fill-opacity="0.2"/>
</g>
<g opacity="0.18">
<path opacity="0.18" d="M450.434 594.918C450.604 594.799 450.838 594.779 451.03 594.858C451.327 594.997 451.476 595.315 451.327 595.613L424.375 650.692C424.226 650.97 423.886 651.09 423.567 650.97C423.269 650.831 423.121 650.513 423.269 650.215L450.222 595.136C450.286 595.057 450.349 594.977 450.434 594.918Z" fill="white" fill-opacity="0.2"/>
</g>
<g opacity="0.03">
<path opacity="0.03" d="M525.378 29.1273C525.399 29.1074 525.421 29.1074 525.442 29.1074C525.506 29.1074 525.527 29.1472 525.527 29.2068L517.407 119.097C517.407 119.157 517.365 119.177 517.301 119.177C517.237 119.177 517.216 119.137 517.216 119.077L525.336 29.1869C525.336 29.167 525.357 29.1472 525.378 29.1273Z" fill="white" fill-opacity="0.2"/>
</g>
<g opacity="0.05">
<path opacity="0.05" d="M517.217 118.977C517.259 118.957 517.302 118.938 517.344 118.957C517.429 118.977 517.472 119.057 517.451 119.136L485.567 215.842C485.545 215.922 485.46 215.961 485.375 215.942C485.29 215.922 485.248 215.842 485.269 215.763L517.153 119.057C517.174 119.017 517.195 118.977 517.217 118.977Z" fill="white" fill-opacity="0.2"/>
</g>
<g opacity="0.05">
<path opacity="0.05" d="M485.315 215.666C485.379 215.626 485.443 215.626 485.506 215.646C485.591 215.686 485.634 215.785 485.57 215.884L429.858 311.875C429.816 311.954 429.71 311.994 429.603 311.935C429.518 311.895 429.476 311.795 429.539 311.696L485.251 215.705C485.272 215.686 485.294 215.666 485.315 215.666Z" fill="white" fill-opacity="0.2"/>
</g>
<g opacity="0.04">
<path opacity="0.04" d="M429.628 311.698C429.671 311.658 429.735 311.658 429.798 311.698C429.862 311.738 429.883 311.817 429.841 311.877L358.06 405.105C358.017 405.165 357.932 405.185 357.868 405.145C357.805 405.105 357.783 405.026 357.826 404.966L429.607 311.738C429.607 311.718 429.607 311.698 429.628 311.698Z" fill="white" fill-opacity="0.2"/>
</g>
<g opacity="0.01">
<path opacity="0.01" d="M357.904 404.986C357.925 404.986 357.947 404.986 357.947 404.986C357.968 405.006 357.968 405.026 357.947 405.046L280.788 498.851C280.766 498.871 280.745 498.871 280.724 498.851C280.703 498.831 280.703 498.811 280.724 498.791L357.904 404.986Z" fill="white" fill-opacity="0.2"/>
</g>
<g opacity="0.15">
<path opacity="0.15" d="M272.866 497.876C272.973 497.816 273.079 497.776 273.206 497.796L280.816 498.372C281.092 498.392 281.305 498.631 281.284 498.889C281.262 499.147 281.007 499.346 280.731 499.326L273.121 498.75C272.845 498.73 272.633 498.492 272.654 498.233C272.654 498.074 272.739 497.955 272.866 497.876Z" fill="white" fill-opacity="0.2"/>
</g>
<g opacity="0.02">
<path opacity="0.02" d="M433.174 195.218C433.195 195.198 433.217 195.198 433.238 195.218L472.986 206.782C473.029 206.802 473.05 206.822 473.029 206.862C473.008 206.901 472.986 206.921 472.944 206.901L433.195 195.337C433.153 195.317 433.132 195.297 433.153 195.258C433.153 195.238 433.153 195.218 433.174 195.218Z" fill="white" fill-opacity="0.2"/>
</g>
<g opacity="0.1">
<path opacity="0.1" d="M384.605 209.329C384.627 209.309 384.669 209.289 384.712 209.289L433.09 194.943C433.281 194.883 433.494 194.983 433.558 195.181C433.621 195.36 433.515 195.559 433.303 195.619L384.924 209.964C384.733 210.024 384.52 209.925 384.456 209.726C384.414 209.567 384.478 209.408 384.605 209.329Z" fill="white" fill-opacity="0.2"/>
</g>
<g opacity="0.17">
<path opacity="0.17" d="M320.921 239.093C320.942 239.074 320.963 239.054 321.006 239.054L384.518 209.09C384.837 208.931 385.22 209.05 385.39 209.348C385.56 209.647 385.432 210.024 385.114 210.163L321.601 240.127C321.282 240.286 320.9 240.166 320.729 239.868C320.581 239.59 320.666 239.272 320.921 239.093Z" fill="white" fill-opacity="0.2"/>
</g>
<g opacity="0.21">
<path opacity="0.21" d="M245.19 276.365C245.211 276.345 245.232 276.325 245.275 276.325L320.967 238.97C321.329 238.791 321.775 238.93 321.966 239.268C322.158 239.606 322.03 240.023 321.647 240.202L245.955 277.557C245.594 277.736 245.147 277.597 244.956 277.259C244.786 276.961 244.892 276.563 245.19 276.365Z" fill="white" fill-opacity="0.2"/>
</g>
<g opacity="0.07">
<path opacity="0.07" d="M187.165 311.559C187.165 311.539 187.165 311.539 187.165 311.559L245.491 276.767C245.597 276.707 245.746 276.727 245.831 276.827C245.895 276.926 245.852 277.065 245.767 277.144L187.441 311.936C187.335 311.996 187.186 311.976 187.101 311.877C187.016 311.757 187.058 311.618 187.165 311.559Z" fill="white" fill-opacity="0.2"/>
</g>
<g opacity="0.17">
<path opacity="0.17" d="M172.192 319.406L172.214 319.386L245.291 276.487C245.568 276.328 245.908 276.408 246.078 276.666C246.248 276.924 246.163 277.202 245.887 277.401L172.809 320.3C172.532 320.459 172.192 320.379 172.022 320.141C171.873 319.902 171.958 319.565 172.192 319.406Z" fill="white" fill-opacity="0.2"/>
</g>
<g opacity="0.23">
<path opacity="0.23" d="M761.299 612.483C761.512 612.344 761.767 612.304 762.022 612.383L888.112 655.063C888.516 655.202 888.729 655.62 888.58 655.997C888.431 656.375 887.985 656.574 887.581 656.434L761.491 613.754C761.087 613.615 760.874 613.198 761.023 612.82C761.066 612.681 761.172 612.562 761.299 612.483Z" fill="white" fill-opacity="0.2"/>
</g>
<g opacity="0.27">
<path opacity="0.27" d="M688.244 611.392C688.372 611.313 688.542 611.253 688.733 611.253L761.769 612.306C762.215 612.306 762.576 612.664 762.576 613.081C762.576 613.498 762.194 613.836 761.747 613.836L688.712 612.783C688.266 612.783 687.904 612.425 687.904 612.008C687.904 611.75 688.032 611.531 688.244 611.392Z" fill="white" fill-opacity="0.2"/>
</g>
<g opacity="0.22">
<path opacity="0.22" d="M648.497 664.981L652.769 645.231C652.833 644.933 652.62 644.635 652.302 644.575C652.132 644.535 651.983 644.575 651.855 644.655C651.728 644.734 651.643 644.853 651.621 644.992L647.285 664.962H648.497V664.981Z" fill="white" fill-opacity="0.2"/>
</g>
<g opacity="0.08">
<path opacity="0.08" d="M593.66 471.21C593.66 471.21 593.681 471.19 593.703 471.19L721.982 413.806C722.088 413.746 722.237 413.806 722.28 413.905C722.322 414.005 722.301 414.124 722.173 414.184L593.894 471.567C593.788 471.627 593.639 471.567 593.596 471.468C593.554 471.388 593.575 471.269 593.66 471.21Z" fill="white" fill-opacity="0.2"/>
</g>
<g opacity="0.08">
<path opacity="0.08" d="M593.658 471.21C593.743 471.151 593.871 471.171 593.956 471.25C594.041 471.33 594.041 471.469 593.934 471.548L500.685 550.57C500.579 550.669 500.451 550.65 500.366 550.55C500.281 550.471 500.281 550.332 500.387 550.252L593.637 471.23C593.658 471.23 593.658 471.21 593.658 471.21Z" fill="white" fill-opacity="0.2"/>
</g>
<g opacity="0.04">
<path opacity="0.04" d="M500.47 550.314C500.513 550.294 500.577 550.294 500.619 550.314C500.683 550.353 500.683 550.433 500.641 550.473L423.928 650.517C423.885 650.576 423.8 650.576 423.758 650.537C423.694 650.497 423.694 650.417 423.737 650.378L500.449 550.334C500.449 550.334 500.449 550.334 500.47 550.314Z" fill="white" fill-opacity="0.2"/>
</g>
<g opacity="0.1">
<path opacity="0.1" d="M420.25 664.98L424.118 650.535C424.161 650.396 424.055 650.257 423.906 650.217C423.821 650.197 423.736 650.217 423.672 650.257C423.608 650.296 423.587 650.336 423.566 650.415L419.676 665H420.25V664.98Z" fill="white" fill-opacity="0.2"/>
</g>
<g opacity="0.05">
<path opacity="0.05" d="M821.073 66.5049C821.094 66.485 821.115 66.4851 821.136 66.4851L947.12 39.3828C947.205 39.3629 947.311 39.4225 947.311 39.502C947.333 39.5815 947.269 39.6808 947.184 39.6808L821.2 66.7831C821.115 66.803 821.009 66.7434 821.009 66.6639C820.988 66.6043 821.009 66.5447 821.073 66.5049Z" fill="white" fill-opacity="0.2"/>
</g>
<g opacity="0.39">
<path opacity="0.39" d="M946.417 38.5659C946.524 38.5063 946.63 38.4467 946.736 38.407L1034.31 11.1457C1034.97 10.947 1035.69 11.2649 1035.9 11.9008C1036.12 12.5167 1035.78 13.1923 1035.1 13.391L947.523 40.6523C946.864 40.851 946.141 40.533 945.929 39.8972C945.758 39.4005 945.971 38.864 946.417 38.5659Z" fill="white" fill-opacity="0.2"/>
</g>
<g opacity="0.19">
<path opacity="0.19" d="M180.524 553.83C180.524 553.81 180.524 553.83 180.524 553.83L272.839 497.817C273.115 497.658 273.455 497.718 273.625 497.976C273.795 498.234 273.732 498.552 273.455 498.711L181.141 554.704C180.865 554.863 180.524 554.804 180.354 554.545C180.206 554.307 180.269 553.989 180.524 553.83Z" fill="white" fill-opacity="0.2"/>
</g>
<g opacity="0.11">
<path opacity="0.11" d="M601.647 0H600.754L613.295 11.1867C613.422 11.286 613.614 11.3059 613.741 11.1668C613.869 11.0476 613.847 10.8687 613.72 10.7495L601.647 0Z" fill="white" fill-opacity="0.2"/>
</g>
<g opacity="0.05">
<path opacity="0.05" d="M613.421 10.8889C613.463 10.8691 613.527 10.8691 613.57 10.8889C613.633 10.9287 613.633 11.0081 613.612 11.0479L528.036 129.849C527.993 129.909 527.908 129.909 527.866 129.889C527.802 129.849 527.802 129.769 527.823 129.73L613.399 10.9287C613.399 10.9088 613.421 10.9088 613.421 10.8889Z" fill="white" fill-opacity="0.2"/>
</g>
<g opacity="0.08">
<path opacity="0.08" d="M527.802 129.632C527.887 129.572 528.015 129.592 528.079 129.652C528.164 129.731 528.143 129.85 528.057 129.93L422.735 217.873C422.649 217.953 422.522 217.933 422.437 217.853C422.352 217.774 422.373 217.655 422.458 217.575L527.802 129.632C527.781 129.632 527.781 129.632 527.802 129.632Z" fill="white" fill-opacity="0.2"/>
</g>
<g opacity="0.07">
<path opacity="0.07" d="M302.941 276.648C302.941 276.648 302.963 276.648 302.963 276.628L422.485 217.555C422.591 217.496 422.718 217.535 422.761 217.635C422.803 217.734 422.782 217.853 422.676 217.893L303.154 276.966C303.048 277.025 302.92 276.986 302.878 276.886C302.835 276.807 302.856 276.707 302.941 276.648Z" fill="white" fill-opacity="0.2"/>
</g>
<g opacity="0.04">
<path opacity="0.04" d="M187.221 311.639L187.242 311.619L303.023 276.688C303.087 276.668 303.15 276.708 303.172 276.748C303.193 276.807 303.172 276.867 303.108 276.887L187.327 311.818C187.263 311.837 187.2 311.798 187.178 311.758C187.157 311.718 187.178 311.678 187.221 311.639Z" fill="white" fill-opacity="0.2"/>
</g>
<g opacity="0.21">
<path opacity="0.21" d="M135.187 335.138C135.209 335.118 135.251 335.098 135.272 335.098L187.009 311.195C187.328 311.056 187.711 311.175 187.859 311.453C188.008 311.751 187.881 312.109 187.583 312.248L135.846 336.151C135.527 336.29 135.145 336.171 134.996 335.893C134.847 335.615 134.932 335.297 135.187 335.138Z" fill="white" fill-opacity="0.2"/>
</g>
<g opacity="0.17">
<path opacity="0.17" d="M472.056 1.09332C472.248 0.974102 472.503 0.974102 472.694 1.09332C472.949 1.25228 472.992 1.59006 472.822 1.80863L423.742 64.438C423.572 64.6565 423.21 64.7162 422.977 64.5572C422.743 64.3982 422.679 64.0605 422.849 63.8419L471.929 1.21254C471.971 1.15293 472.014 1.11319 472.056 1.09332Z" fill="white" fill-opacity="0.2"/>
</g>
<g opacity="0.21">
<path opacity="0.21" d="M344.731 102.431C344.753 102.411 344.774 102.411 344.795 102.391L422.974 63.5853C423.293 63.4263 423.718 63.5455 423.888 63.8436C424.058 64.1416 423.952 64.539 423.612 64.698L345.433 103.504C345.114 103.663 344.689 103.543 344.519 103.245C344.37 102.967 344.455 102.609 344.731 102.431Z" fill="white" fill-opacity="0.2"/>
</g>
<g opacity="0.24">
<path opacity="0.24" d="M238.686 115.326C238.771 115.266 238.877 115.227 239.005 115.207L345.029 102.272C345.412 102.232 345.773 102.49 345.837 102.848C345.879 103.205 345.603 103.543 345.221 103.603L239.196 116.538C238.814 116.578 238.452 116.32 238.388 115.962C238.367 115.723 238.473 115.465 238.686 115.326Z" fill="white" fill-opacity="0.2"/>
</g>
<g opacity="0.22">
<path opacity="0.22" d="M113.695 102.588C113.823 102.508 113.972 102.469 114.12 102.488L239.169 115.304C239.509 115.344 239.764 115.622 239.721 115.96C239.679 116.278 239.381 116.516 239.02 116.477L113.993 103.661C113.653 103.621 113.398 103.343 113.44 103.005C113.461 102.826 113.568 102.687 113.695 102.588Z" fill="white" fill-opacity="0.2"/>
</g>
<g opacity="0.05">
<path opacity="0.05" d="M821.225 664.979H821.905L712.671 592.335C712.607 592.296 712.501 592.296 712.437 592.335C712.416 592.355 712.395 592.355 712.395 592.375C712.331 592.455 712.352 592.574 712.437 592.634L821.225 664.979Z" fill="white" fill-opacity="0.2"/>
</g>
<g opacity="0.25">
<path opacity="0.25" d="M698.209 551.445C698.294 551.386 698.379 551.346 698.485 551.326C699.017 551.167 699.591 551.445 699.782 551.942L713.534 592.198C713.704 592.695 713.407 593.231 712.875 593.41C712.344 593.569 711.77 593.291 711.579 592.794L697.826 552.538C697.677 552.101 697.848 551.684 698.209 551.445Z" fill="white" fill-opacity="0.2"/>
</g>
<g opacity="0.07">
<path opacity="0.07" d="M547.632 529.705C547.696 529.665 547.802 529.645 547.887 529.685L712.642 592.255C712.769 592.314 712.833 592.453 712.791 592.572C712.727 592.692 712.578 592.751 712.451 592.711L547.696 530.142C547.569 530.082 547.505 529.943 547.547 529.824C547.569 529.764 547.59 529.724 547.632 529.705Z" fill="white" fill-opacity="0.2"/>
</g>
<g opacity="0.08">
<path opacity="0.08" d="M411.262 515.939C411.305 515.899 411.369 515.88 411.454 515.899L547.831 529.669C547.98 529.689 548.087 529.808 548.065 529.947C548.044 530.086 547.916 530.186 547.768 530.166L411.39 516.396C411.241 516.376 411.135 516.257 411.156 516.118C411.156 516.038 411.199 515.979 411.262 515.939Z" fill="white" fill-opacity="0.2"/>
</g>
<g opacity="0.06">
<path opacity="0.06" d="M291.954 530.718C291.975 530.698 291.996 530.698 292.039 530.698L411.412 515.975C411.518 515.955 411.603 516.034 411.624 516.114C411.646 516.213 411.561 516.293 411.475 516.313L292.102 531.036C291.996 531.056 291.911 530.976 291.89 530.897C291.869 530.817 291.89 530.758 291.954 530.718Z" fill="white" fill-opacity="0.2"/>
</g>
<g opacity="0.02">
<path opacity="0.02" d="M180.821 554.228C180.821 554.228 180.842 554.228 180.821 554.228L292.032 530.821C292.053 530.821 292.074 530.821 292.074 530.861C292.074 530.881 292.074 530.901 292.032 530.901L180.842 554.287C180.821 554.287 180.8 554.287 180.8 554.248C180.8 554.248 180.8 554.248 180.821 554.228Z" fill="white" fill-opacity="0.2"/>
</g>
<g opacity="0.08">
<path opacity="0.08" d="M180.713 554.088C180.798 554.028 180.905 554.028 180.99 554.088C181.096 554.147 181.117 554.286 181.053 554.406L100.047 664.543C99.9621 664.643 99.8133 664.663 99.7071 664.603C99.6008 664.543 99.5795 664.404 99.6433 664.285L180.65 554.147C180.671 554.108 180.692 554.088 180.713 554.088Z" fill="white" fill-opacity="0.2"/>
</g>
<g opacity="0.18">
<path opacity="0.18" d="M1.86499 364.847C1.90751 364.808 1.97127 364.788 2.03504 364.768L135.416 335.162C135.692 335.102 135.968 335.261 136.032 335.52C136.096 335.778 135.926 336.036 135.65 336.096L2.26886 365.702C1.99253 365.761 1.7162 365.602 1.65243 365.344C1.60992 365.145 1.69495 364.947 1.86499 364.847Z" fill="white" fill-opacity="0.2"/>
</g>
<g opacity="0.08">
<path opacity="0.08" d="M135.421 335.459C135.484 335.419 135.591 335.399 135.654 335.439C135.761 335.498 135.803 335.617 135.739 335.717L80.9204 426.184C80.8566 426.283 80.7291 426.323 80.6228 426.263C80.5165 426.204 80.474 426.084 80.5378 425.985L135.357 335.518C135.378 335.498 135.399 335.478 135.421 335.459Z" fill="white" fill-opacity="0.2"/>
</g>
<g opacity="0.3">
<path opacity="0.3" d="M1031.45 0L1033.64 12.4384C1033.74 12.9948 1034.3 13.3723 1034.89 13.273C1035.49 13.1736 1035.89 12.657 1035.78 12.1007L1033.64 0H1031.45Z" fill="white" fill-opacity="0.2"/>
</g>
<g opacity="0.08">
<path opacity="0.08" d="M1093.53 0L1034.66 12.0212C1034.61 12.0212 1034.59 12.0411 1034.55 12.0609C1034.46 12.1205 1034.42 12.2199 1034.44 12.3391C1034.49 12.4782 1034.63 12.5775 1034.78 12.5378L1096.17 0H1093.53Z" fill="white" fill-opacity="0.2"/>
</g>
<g opacity="0.08">
<path opacity="0.08" d="M812.171 0L820.864 66.6629C820.886 66.8219 821.034 66.9212 821.183 66.9013C821.332 66.8815 821.459 66.7424 821.438 66.6033L812.745 0.0198702H812.171V0Z" fill="white" fill-opacity="0.2"/>
</g>
<g opacity="0.06">
<path opacity="0.06" d="M461.787 157.17C461.808 157.15 461.83 157.15 461.851 157.15L633.832 120.511C633.939 120.491 634.045 120.55 634.066 120.65C634.087 120.749 634.024 120.848 633.917 120.868L461.936 157.508C461.83 157.528 461.723 157.468 461.702 157.369C461.702 157.289 461.723 157.21 461.787 157.17Z" fill="white" fill-opacity="0.2"/>
</g>
<g opacity="0.08">
<path opacity="0.08" d="M294.271 163.408C294.314 163.388 294.356 163.368 294.42 163.368L461.895 157.069C462.044 157.069 462.172 157.169 462.172 157.308C462.172 157.447 462.065 157.566 461.917 157.566L294.441 163.865C294.293 163.865 294.165 163.765 294.165 163.626C294.165 163.547 294.208 163.467 294.271 163.408Z" fill="white" fill-opacity="0.2"/>
</g>
<g opacity="0.07">
<path opacity="0.07" d="M129.68 133.385C129.723 133.346 129.786 133.346 129.871 133.346L294.477 163.409C294.605 163.428 294.69 163.548 294.668 163.667C294.647 163.786 294.52 163.866 294.392 163.846L129.786 133.783C129.659 133.763 129.574 133.644 129.595 133.525C129.595 133.465 129.638 133.405 129.68 133.385Z" fill="white" fill-opacity="0.2"/>
</g>
<g opacity="0.25">
<path opacity="0.25" d="M21.3388 167.698C21.4026 167.659 21.4663 167.619 21.5301 167.599L129.553 132.847C129.978 132.708 130.424 132.926 130.573 133.304C130.722 133.701 130.488 134.119 130.084 134.258L22.0615 169.01C21.6364 169.149 21.19 168.93 21.0412 168.553C20.9349 168.235 21.0625 167.897 21.3388 167.698Z" fill="white" fill-opacity="0.2"/>
</g>
<g opacity="0.06">
<path opacity="0.06" d="M19.9639 624.506C20.0064 624.467 20.0915 624.467 20.134 624.506L99.9286 664.266C100.014 664.305 100.035 664.405 99.9924 664.484C99.9499 664.564 99.8436 664.584 99.7586 664.544L19.9639 624.785C19.8789 624.745 19.8577 624.645 19.9002 624.566C19.9214 624.546 19.9427 624.526 19.9639 624.506Z" fill="white" fill-opacity="0.2"/>
</g>
<g opacity="0.2">
<path opacity="0.2" d="M200.72 664.979L224.569 649.541C224.994 649.262 225.122 648.686 224.803 648.289C224.505 647.872 223.889 647.772 223.464 648.05L197.298 664.979H200.72Z" fill="white" fill-opacity="0.2"/>
</g>
<g opacity="0.27">
<path opacity="0.27" d="M227.309 553.907C227.501 553.788 227.734 553.709 227.989 553.729C228.585 553.748 229.073 554.225 229.031 554.782L225.12 648.825C225.099 649.381 224.589 649.838 223.993 649.799C223.398 649.779 222.909 649.302 222.952 648.746L226.863 554.702C226.863 554.384 227.033 554.086 227.309 553.907Z" fill="white" fill-opacity="0.2"/>
</g>
<g opacity="0.19">
<path opacity="0.19" d="M164.667 484.027C164.943 483.848 165.347 483.888 165.56 484.146L228.456 554.366C228.69 554.624 228.647 555.021 228.371 555.26C228.094 555.498 227.669 555.438 227.414 555.18L164.518 484.961C164.284 484.702 164.327 484.305 164.603 484.066C164.624 484.047 164.646 484.027 164.667 484.027Z" fill="white" fill-opacity="0.2"/>
</g>
<g opacity="0.07">
<path opacity="0.07" d="M80.6016 425.928C80.6866 425.868 80.7929 425.868 80.8567 425.928L165.179 484.364C165.285 484.424 165.306 484.563 165.221 484.662C165.158 484.762 165.009 484.782 164.902 484.702L80.5803 426.265C80.474 426.206 80.4528 426.067 80.5378 425.967C80.5591 425.967 80.5803 425.947 80.6016 425.928Z" fill="white" fill-opacity="0.2"/>
</g>
<g opacity="0.1">
<path opacity="0.1" d="M791.723 664.981H792.956L699.175 551.942C699.005 551.744 698.728 551.704 698.494 551.843C698.494 551.843 698.473 551.843 698.473 551.863C698.261 552.022 698.218 552.3 698.388 552.499L791.723 664.981Z" fill="white" fill-opacity="0.2"/>
</g>
<g opacity="0.07">
<path opacity="0.07" d="M514.951 424.103C515.057 424.044 515.185 424.044 515.291 424.103L698.984 552.005C699.112 552.104 699.133 552.263 699.048 552.382C698.963 552.501 698.772 552.521 698.644 552.442L514.951 424.54C514.823 424.441 514.802 424.282 514.887 424.163C514.887 424.143 514.908 424.123 514.951 424.103Z" fill="white" fill-opacity="0.2"/>
</g>
<g opacity="0.04">
<path opacity="0.04" d="M337.03 334.626C337.073 334.586 337.158 334.586 337.2 334.626L515.176 424.198C515.261 424.238 515.282 424.337 515.24 424.417C515.197 424.496 515.091 424.516 515.006 424.476L337.03 334.904C336.945 334.864 336.924 334.765 336.967 334.685C336.988 334.665 337.009 334.645 337.03 334.626Z" fill="white" fill-opacity="0.2"/>
</g>
<g opacity="0.04">
<path opacity="0.04" d="M173.199 256.418C173.242 256.398 173.306 256.378 173.348 256.398L337.21 334.625C337.295 334.665 337.316 334.744 337.274 334.824C337.231 334.903 337.146 334.923 337.061 334.883L173.199 256.656C173.114 256.616 173.093 256.537 173.136 256.457C173.157 256.457 173.178 256.438 173.199 256.418Z" fill="white" fill-opacity="0.2"/>
</g>
<g opacity="0.07">
<path opacity="0.07" d="M21.6631 168.137C21.7481 168.078 21.8331 168.078 21.9181 168.137L173.409 256.359C173.515 256.419 173.558 256.558 173.494 256.657C173.43 256.756 173.281 256.796 173.175 256.737L21.6843 168.515C21.578 168.455 21.5355 168.316 21.5993 168.217C21.6206 168.177 21.6418 168.157 21.6631 168.137Z" fill="white" fill-opacity="0.2"/>
</g>
<g opacity="0.19">
<path opacity="0.19" d="M402.034 98.0549C402.246 97.9158 402.501 97.8761 402.757 97.9555L583.836 159.631C584.239 159.77 584.452 160.187 584.303 160.565C584.154 160.943 583.708 161.141 583.304 161.002L402.225 99.3266C401.821 99.1875 401.609 98.7702 401.758 98.3927C401.8 98.2536 401.906 98.1344 402.034 98.0549Z" fill="white" fill-opacity="0.2"/>
</g>
<g opacity="0.27">
<path opacity="0.27" d="M241.452 13.751C241.813 13.5126 242.281 13.4729 242.685 13.6914L403.06 97.7205C403.613 98.0185 403.826 98.6742 403.507 99.2107C403.188 99.7273 402.487 99.926 401.913 99.628L241.537 15.5791C240.984 15.281 240.772 14.6253 241.091 14.0888C241.176 13.9497 241.303 13.8305 241.452 13.751Z" fill="white" fill-opacity="0.2"/>
</g>
<path opacity="0.51" d="M1120.04 106.901C1121.12 106.901 1122 106.083 1122 105.073C1122 104.064 1121.12 103.245 1120.04 103.245C1118.96 103.245 1118.09 104.064 1118.09 105.073C1118.09 106.083 1118.96 106.901 1120.04 106.901Z" fill="white" fill-opacity="0.2"/>
<path opacity="0.44" d="M912.389 79.9537C913.398 79.9537 914.217 79.1887 914.217 78.2449C914.217 77.3012 913.398 76.5361 912.389 76.5361C911.379 76.5361 910.561 77.3012 910.561 78.2449C910.561 79.1887 911.379 79.9537 912.389 79.9537Z" fill="white" fill-opacity="0.2"/>
<path opacity="0.26" d="M581.373 42.9177C582.147 42.9177 582.776 42.3306 582.776 41.6063C582.776 40.8821 582.147 40.2949 581.373 40.2949C580.598 40.2949 579.97 40.8821 579.97 41.6063C579.97 42.3306 580.598 42.9177 581.373 42.9177Z" fill="white" fill-opacity="0.2"/>
<path opacity="0.31" d="M623.546 32.9654C624.403 32.9654 625.097 32.316 625.097 31.5149C625.097 30.7139 624.403 30.0645 623.546 30.0645C622.689 30.0645 621.994 30.7139 621.994 31.5149C621.994 32.316 622.689 32.9654 623.546 32.9654Z" fill="white" fill-opacity="0.2"/>
<path opacity="0.34" d="M676.745 76.2002C677.625 76.2002 678.339 75.533 678.339 74.71C678.339 73.8869 677.625 73.2197 676.745 73.2197C675.864 73.2197 675.15 73.8869 675.15 74.71C675.15 75.533 675.864 76.2002 676.745 76.2002Z" fill="white" fill-opacity="0.2"/>
<path opacity="0.34" d="M725.865 133.942C726.745 133.942 727.459 133.275 727.459 132.452C727.459 131.629 726.745 130.962 725.865 130.962C724.984 130.962 724.271 131.629 724.271 132.452C724.271 133.275 724.984 133.942 725.865 133.942Z" fill="white" fill-opacity="0.2"/>
<path opacity="0.21" d="M566.472 371.744C567.165 371.744 567.726 371.219 567.726 370.572C567.726 369.924 567.165 369.399 566.472 369.399C565.779 369.399 565.218 369.924 565.218 370.572C565.218 371.219 565.779 371.744 566.472 371.744Z" fill="white" fill-opacity="0.2"/>
<path opacity="0.24" d="M572.934 318.966C573.673 318.966 574.273 318.406 574.273 317.715C574.273 317.023 573.673 316.463 572.934 316.463C572.194 316.463 571.595 317.023 571.595 317.715C571.595 318.406 572.194 318.966 572.934 318.966Z" fill="white" fill-opacity="0.2"/>
<path opacity="0.27" d="M594.893 317.994C595.679 317.994 596.317 317.398 596.317 316.662C596.317 315.927 595.679 315.331 594.893 315.331C594.106 315.331 593.469 315.927 593.469 316.662C593.469 317.398 594.106 317.994 594.893 317.994Z" fill="white" fill-opacity="0.2"/>
<path opacity="0.28" d="M628.216 345.673C629.026 345.673 629.682 345.059 629.682 344.302C629.682 343.544 629.026 342.931 628.216 342.931C627.406 342.931 626.749 343.544 626.749 344.302C626.749 345.059 627.406 345.673 628.216 345.673Z" fill="white" fill-opacity="0.2"/>
<path opacity="0.28" d="M669.939 374.306C670.749 374.306 671.406 373.693 671.406 372.935C671.406 372.178 670.749 371.564 669.939 371.564C669.129 371.564 668.473 372.178 668.473 372.935C668.473 373.693 669.129 374.306 669.939 374.306Z" fill="white" fill-opacity="0.2"/>
<path opacity="0.27" d="M715.746 374.564C716.533 374.564 717.171 373.968 717.171 373.233C717.171 372.497 716.533 371.901 715.746 371.901C714.96 371.901 714.322 372.497 714.322 373.233C714.322 373.968 714.96 374.564 715.746 374.564Z" fill="white" fill-opacity="0.2"/>
<path opacity="0.23" d="M466.904 534.018C467.632 534.018 468.222 533.466 468.222 532.786C468.222 532.105 467.632 531.554 466.904 531.554C466.176 531.554 465.586 532.105 465.586 532.786C465.586 533.466 466.176 534.018 466.904 534.018Z" fill="white" fill-opacity="0.2"/>
<path opacity="0.25" d="M473.046 494.08C473.809 494.08 474.427 493.502 474.427 492.789C474.427 492.075 473.809 491.497 473.046 491.497C472.283 491.497 471.664 492.075 471.664 492.789C471.664 493.502 472.283 494.08 473.046 494.08Z" fill="white" fill-opacity="0.2"/>
<path opacity="0.27" d="M483.596 499.426C484.383 499.426 485.02 498.83 485.02 498.095C485.02 497.36 484.383 496.764 483.596 496.764C482.809 496.764 482.172 497.36 482.172 498.095C482.172 498.83 482.809 499.426 483.596 499.426Z" fill="white" fill-opacity="0.2"/>
<path opacity="0.3" d="M503.877 541.232C504.698 541.232 505.365 540.609 505.365 539.841C505.365 539.073 504.698 538.45 503.877 538.45C503.055 538.45 502.389 539.073 502.389 539.841C502.389 540.609 503.055 541.232 503.877 541.232Z" fill="white" fill-opacity="0.2"/>
<path opacity="0.31" d="M540.705 602.925C541.562 602.925 542.257 602.276 542.257 601.475C542.257 600.674 541.562 600.024 540.705 600.024C539.848 600.024 539.153 600.674 539.153 601.475C539.153 602.276 539.848 602.925 540.705 602.925Z" fill="white" fill-opacity="0.2"/>
<path opacity="0.24" d="M347.062 467.334C347.801 467.334 348.401 466.773 348.401 466.082C348.401 465.391 347.801 464.83 347.062 464.83C346.322 464.83 345.723 465.391 345.723 466.082C345.723 466.773 346.322 467.334 347.062 467.334Z" fill="white" fill-opacity="0.2"/>
<path opacity="0.58" d="M982.935 62.6884C984.085 62.6884 985.018 61.8166 985.018 60.7412C985.018 59.6657 984.085 58.7939 982.935 58.7939C981.784 58.7939 980.852 59.6657 980.852 60.7412C980.852 61.8166 981.784 62.6884 982.935 62.6884Z" fill="white" fill-opacity="0.2"/>
<path opacity="0.47" d="M730.485 4.3877C731.518 4.3877 732.355 3.60485 732.355 2.63916C732.355 1.67347 731.518 0.890625 730.485 0.890625C729.452 0.890625 728.614 1.67347 728.614 2.63916C728.614 3.60485 729.452 4.3877 730.485 4.3877Z" fill="white" fill-opacity="0.2"/>
<path opacity="0.43" d="M735.376 142.624C736.362 142.624 737.162 141.877 737.162 140.955C737.162 140.033 736.362 139.286 735.376 139.286C734.39 139.286 733.591 140.033 733.591 140.955C733.591 141.877 734.39 142.624 735.376 142.624Z" fill="white" fill-opacity="0.2"/>
<path opacity="0.37" d="M739.047 343.745C739.962 343.745 740.705 343.051 740.705 342.195C740.705 341.339 739.962 340.646 739.047 340.646C738.131 340.646 737.389 341.339 737.389 342.195C737.389 343.051 738.131 343.745 739.047 343.745Z" fill="white" fill-opacity="0.2"/>
<path opacity="0.3" d="M560.602 71.8286C561.424 71.8286 562.09 71.2059 562.09 70.4378C562.09 69.6696 561.424 69.0469 560.602 69.0469C559.78 69.0469 559.114 69.6696 559.114 70.4378C559.114 71.2059 559.78 71.8286 560.602 71.8286Z" fill="white" fill-opacity="0.2"/>
<path opacity="0.33" d="M580.603 140.617C581.472 140.617 582.176 139.958 582.176 139.146C582.176 138.334 581.472 137.676 580.603 137.676C579.735 137.676 579.03 138.334 579.03 139.146C579.03 139.958 579.735 140.617 580.603 140.617Z" fill="white" fill-opacity="0.2"/>
<path opacity="0.34" d="M592.252 237.482C593.133 237.482 593.847 236.815 593.847 235.992C593.847 235.169 593.133 234.502 592.252 234.502C591.372 234.502 590.658 235.169 590.658 235.992C590.658 236.815 591.372 237.482 592.252 237.482Z" fill="white" fill-opacity="0.2"/>
<path opacity="0.35" d="M596.606 344.798C597.51 344.798 598.243 344.113 598.243 343.268C598.243 342.423 597.51 341.738 596.606 341.738C595.702 341.738 594.97 342.423 594.97 343.268C594.97 344.113 595.702 344.798 596.606 344.798Z" fill="white" fill-opacity="0.2"/>
<path opacity="0.35" d="M603.774 452.911C604.678 452.911 605.411 452.226 605.411 451.381C605.411 450.536 604.678 449.851 603.774 449.851C602.87 449.851 602.138 450.536 602.138 451.381C602.138 452.226 602.87 452.911 603.774 452.911Z" fill="white" fill-opacity="0.2"/>
<path opacity="0.34" d="M625.944 553.83C626.824 553.83 627.538 553.163 627.538 552.34C627.538 551.517 626.824 550.85 625.944 550.85C625.063 550.85 624.35 551.517 624.35 552.34C624.35 553.163 625.063 553.83 625.944 553.83Z" fill="white" fill-opacity="0.2"/>
<path opacity="0.23" d="M512.112 302.917C512.84 302.917 513.43 302.365 513.43 301.685C513.43 301.005 512.84 300.453 512.112 300.453C511.384 300.453 510.794 301.005 510.794 301.685C510.794 302.365 511.384 302.917 512.112 302.917Z" fill="white" fill-opacity="0.2"/>
<path opacity="0.27" d="M495.458 301.027C496.245 301.027 496.882 300.431 496.882 299.696C496.882 298.96 496.245 298.364 495.458 298.364C494.672 298.364 494.034 298.96 494.034 299.696C494.034 300.431 494.672 301.027 495.458 301.027Z" fill="white" fill-opacity="0.2"/>
<path opacity="0.3" d="M479.914 346.071C480.748 346.071 481.424 345.439 481.424 344.66C481.424 343.881 480.748 343.249 479.914 343.249C479.081 343.249 478.405 343.881 478.405 344.66C478.405 345.439 479.081 346.071 479.914 346.071Z" fill="white" fill-opacity="0.2"/>
<path opacity="0.33" d="M460.168 424.142C461.036 424.142 461.741 423.484 461.741 422.672C461.741 421.859 461.036 421.201 460.168 421.201C459.299 421.201 458.595 421.859 458.595 422.672C458.595 423.484 459.299 424.142 460.168 424.142Z" fill="white" fill-opacity="0.2"/>
<path opacity="0.35" d="M437.846 526.17C438.75 526.17 439.482 525.485 439.482 524.64C439.482 523.795 438.75 523.11 437.846 523.11C436.942 523.11 436.209 523.795 436.209 524.64C436.209 525.485 436.942 526.17 437.846 526.17Z" fill="white" fill-opacity="0.2"/>
<path opacity="0.38" d="M419.017 649.618C419.944 649.618 420.696 648.915 420.696 648.048C420.696 647.181 419.944 646.479 419.017 646.479C418.09 646.479 417.338 647.181 417.338 648.048C417.338 648.915 418.09 649.618 419.017 649.618Z" fill="white" fill-opacity="0.2"/>
<path opacity="0.25" d="M397.106 352.665C397.869 352.665 398.488 352.087 398.488 351.374C398.488 350.66 397.869 350.082 397.106 350.082C396.343 350.082 395.725 350.66 395.725 351.374C395.725 352.087 396.343 352.665 397.106 352.665Z" fill="white" fill-opacity="0.2"/>
<path opacity="0.29" d="M362.217 352.188C363.027 352.188 363.683 351.574 363.683 350.817C363.683 350.06 363.027 349.446 362.217 349.446C361.407 349.446 360.75 350.06 360.75 350.817C360.75 351.574 361.407 352.188 362.217 352.188Z" fill="white" fill-opacity="0.2"/>
<path opacity="0.31" d="M323.894 390.917C324.751 390.917 325.446 390.267 325.446 389.466C325.446 388.665 324.751 388.016 323.894 388.016C323.037 388.016 322.343 388.665 322.343 389.466C322.343 390.267 323.037 390.917 323.894 390.917Z" fill="white" fill-opacity="0.2"/>
<path opacity="0.33" d="M282.087 461.218C282.955 461.218 283.66 460.56 283.66 459.748C283.66 458.936 282.955 458.277 282.087 458.277C281.218 458.277 280.514 458.936 280.514 459.748C280.514 460.56 281.218 461.218 282.087 461.218Z" fill="white" fill-opacity="0.2"/>
<path opacity="0.59" d="M945.253 651.169C946.497 651.169 947.506 650.226 947.506 649.063C947.506 647.9 946.497 646.957 945.253 646.957C944.009 646.957 943 647.9 943 649.063C943 650.226 944.009 651.169 945.253 651.169Z" fill="white" fill-opacity="0.2"/>
<path opacity="0.51" d="M930.037 590.509C931.117 590.509 931.992 589.69 931.992 588.681C931.992 587.671 931.117 586.853 930.037 586.853C928.957 586.853 928.081 587.671 928.081 588.681C928.081 589.69 928.957 590.509 930.037 590.509Z" fill="white" fill-opacity="0.2"/>
<path opacity="0.59" d="M961.869 4.59099C963.125 4.59099 964.144 3.63912 964.144 2.46493C964.144 1.29074 963.125 0.338867 961.869 0.338867C960.613 0.338867 959.595 1.29074 959.595 2.46493C959.595 3.63912 960.613 4.59099 961.869 4.59099Z" fill="white" fill-opacity="0.2"/>
<path opacity="0.49" d="M696.4 377.046C697.468 377.046 698.334 376.236 698.334 375.238C698.334 374.239 697.468 373.43 696.4 373.43C695.332 373.43 694.466 374.239 694.466 375.238C694.466 376.236 695.332 377.046 696.4 377.046Z" fill="white" fill-opacity="0.2"/>
<path opacity="0.45" d="M655.552 479.159C656.561 479.159 657.38 478.394 657.38 477.45C657.38 476.506 656.561 475.741 655.552 475.741C654.542 475.741 653.724 476.506 653.724 477.45C653.724 478.394 654.542 479.159 655.552 479.159Z" fill="white" fill-opacity="0.2"/>
<path opacity="0.41" d="M644.92 580.076C645.894 580.076 646.684 579.337 646.684 578.427C646.684 577.516 645.894 576.777 644.92 576.777C643.945 576.777 643.155 577.516 643.155 578.427C643.155 579.337 643.945 580.076 644.92 580.076Z" fill="white" fill-opacity="0.2"/>
<path opacity="0.49" d="M656.912 71.9063C657.98 71.9063 658.846 71.0968 658.846 70.0982C658.846 69.0996 657.98 68.29 656.912 68.29C655.844 68.29 654.978 69.0996 654.978 70.0982C654.978 71.0968 655.844 71.9063 656.912 71.9063Z" fill="white" fill-opacity="0.2"/>
<path opacity="0.43" d="M450.777 597.048C451.763 597.048 452.562 596.301 452.562 595.379C452.562 594.457 451.763 593.71 450.777 593.71C449.791 593.71 448.991 594.457 448.991 595.379C448.991 596.301 449.791 597.048 450.777 597.048Z" fill="white" fill-opacity="0.2"/>
<path opacity="0.34" d="M525.443 30.6973C526.323 30.6973 527.037 30.0301 527.037 29.207C527.037 28.384 526.323 27.7168 525.443 27.7168C524.562 27.7168 523.849 28.384 523.849 29.207C523.849 30.0301 524.562 30.6973 525.443 30.6973Z" fill="white" fill-opacity="0.2"/>
<path opacity="0.37" d="M517.328 120.651C518.255 120.651 519.007 119.948 519.007 119.081C519.007 118.215 518.255 117.512 517.328 117.512C516.4 117.512 515.648 118.215 515.648 119.081C515.648 119.948 516.4 120.651 517.328 120.651Z" fill="white" fill-opacity="0.2"/>
<path opacity="0.39" d="M485.416 217.416C486.367 217.416 487.138 216.696 487.138 215.807C487.138 214.918 486.367 214.197 485.416 214.197C484.465 214.197 483.694 214.918 483.694 215.807C483.694 216.696 484.465 217.416 485.416 217.416Z" fill="white" fill-opacity="0.2"/>
<path opacity="0.4" d="M429.707 313.425C430.669 313.425 431.45 312.695 431.45 311.795C431.45 310.895 430.669 310.166 429.707 310.166C428.744 310.166 427.964 310.895 427.964 311.795C427.964 312.695 428.744 313.425 429.707 313.425Z" fill="white" fill-opacity="0.2"/>
<path opacity="0.4" d="M280.769 500.458C281.732 500.458 282.512 499.728 282.512 498.829C282.512 497.929 281.732 497.199 280.769 497.199C279.807 497.199 279.026 497.929 279.026 498.829C279.026 499.728 279.807 500.458 280.769 500.458Z" fill="white" fill-opacity="0.2"/>
<path opacity="0.24" d="M472.964 208.078C473.704 208.078 474.303 207.517 474.303 206.826C474.303 206.135 473.704 205.574 472.964 205.574C472.225 205.574 471.625 206.135 471.625 206.826C471.625 207.517 472.225 208.078 472.964 208.078Z" fill="white" fill-opacity="0.2"/>
<path opacity="0.29" d="M433.213 196.671C434.035 196.671 434.701 196.049 434.701 195.281C434.701 194.512 434.035 193.89 433.213 193.89C432.392 193.89 431.726 194.512 431.726 195.281C431.726 196.049 432.392 196.671 433.213 196.671Z" fill="white" fill-opacity="0.2"/>
<path opacity="0.34" d="M384.816 211.115C385.696 211.115 386.41 210.448 386.41 209.625C386.41 208.802 385.696 208.135 384.816 208.135C383.935 208.135 383.222 208.802 383.222 209.625C383.222 210.448 383.935 211.115 384.816 211.115Z" fill="white" fill-opacity="0.2"/>
<path opacity="0.38" d="M321.301 241.156C322.229 241.156 322.981 240.453 322.981 239.586C322.981 238.719 322.229 238.017 321.301 238.017C320.374 238.017 319.622 238.719 319.622 239.586C319.622 240.453 320.374 241.156 321.301 241.156Z" fill="white" fill-opacity="0.2"/>
<path opacity="0.39" d="M245.612 278.555C246.563 278.555 247.334 277.834 247.334 276.945C247.334 276.057 246.563 275.336 245.612 275.336C244.661 275.336 243.891 276.057 243.891 276.945C243.891 277.834 244.661 278.555 245.612 278.555Z" fill="white" fill-opacity="0.2"/>
<path opacity="0.37" d="M172.529 321.411C173.456 321.411 174.208 320.708 174.208 319.841C174.208 318.974 173.456 318.271 172.529 318.271C171.601 318.271 170.85 318.974 170.85 319.841C170.85 320.708 171.601 321.411 172.529 321.411Z" fill="white" fill-opacity="0.2"/>
<path opacity="0.59" d="M761.746 615.445C763.143 615.445 764.276 614.386 764.276 613.08C764.276 611.774 763.143 610.716 761.746 610.716C760.349 610.716 759.217 611.774 759.217 613.08C759.217 614.386 760.349 615.445 761.746 615.445Z" fill="white" fill-opacity="0.2"/>
<path opacity="0.56" d="M652.198 647.017C653.325 647.017 654.238 646.163 654.238 645.11C654.238 644.056 653.325 643.202 652.198 643.202C651.071 643.202 650.157 644.056 650.157 645.11C650.157 646.163 651.071 647.017 652.198 647.017Z" fill="white" fill-opacity="0.2"/>
<path opacity="0.59" d="M722.065 416.169C723.356 416.169 724.403 415.191 724.403 413.984C724.403 412.776 723.356 411.798 722.065 411.798C720.773 411.798 719.727 412.776 719.727 413.984C719.727 415.191 720.773 416.169 722.065 416.169Z" fill="white" fill-opacity="0.2"/>
<path opacity="0.59" d="M593.782 473.438C594.991 473.438 595.971 472.522 595.971 471.391C595.971 470.261 594.991 469.345 593.782 469.345C592.573 469.345 591.593 470.261 591.593 471.391C591.593 472.522 592.573 473.438 593.782 473.438Z" fill="white" fill-opacity="0.2"/>
<path opacity="0.56" d="M500.532 552.319C501.659 552.319 502.572 551.465 502.572 550.411C502.572 549.358 501.659 548.504 500.532 548.504C499.405 548.504 498.491 549.358 498.491 550.411C498.491 551.465 499.405 552.319 500.532 552.319Z" fill="white" fill-opacity="0.2"/>
<path opacity="0.52" d="M423.821 652.341C424.925 652.341 425.819 651.505 425.819 650.473C425.819 649.442 424.925 648.605 423.821 648.605C422.718 648.605 421.823 649.442 421.823 650.473C421.823 651.505 422.718 652.341 423.821 652.341Z" fill="white" fill-opacity="0.2"/>
<path opacity="0.59" d="M947.145 41.8259C948.495 41.8259 949.589 40.8029 949.589 39.5409C949.589 38.2789 948.495 37.2559 947.145 37.2559C945.795 37.2559 944.7 38.2789 944.7 39.5409C944.7 40.8029 945.795 41.8259 947.145 41.8259Z" fill="white" fill-opacity="0.2"/>
<path opacity="0.49" d="M273.163 500.08C274.231 500.08 275.097 499.271 275.097 498.272C275.097 497.273 274.231 496.464 273.163 496.464C272.095 496.464 271.229 497.273 271.229 498.272C271.229 499.271 272.095 500.08 273.163 500.08Z" fill="white" fill-opacity="0.2"/>
<path opacity="0.59" d="M613.511 12.9528C614.673 12.9528 615.615 12.0721 615.615 10.9857C615.615 9.89926 614.673 9.01855 613.511 9.01855C612.348 9.01855 611.406 9.89926 611.406 10.9857C611.406 12.0721 612.348 12.9528 613.511 12.9528Z" fill="white" fill-opacity="0.2"/>
<path opacity="0.56" d="M527.909 131.695C529.036 131.695 529.949 130.841 529.949 129.787C529.949 128.734 529.036 127.88 527.909 127.88C526.782 127.88 525.868 128.734 525.868 129.787C525.868 130.841 526.782 131.695 527.909 131.695Z" fill="white" fill-opacity="0.2"/>
<path opacity="0.55" d="M422.595 219.637C423.722 219.637 424.636 218.783 424.636 217.73C424.636 216.676 423.722 215.822 422.595 215.822C421.468 215.822 420.555 216.676 420.555 217.73C420.555 218.783 421.468 219.637 422.595 219.637Z" fill="white" fill-opacity="0.2"/>
<path opacity="0.53" d="M303.066 278.669C304.17 278.669 305.064 277.833 305.064 276.801C305.064 275.77 304.17 274.934 303.066 274.934C301.963 274.934 301.068 275.77 301.068 276.801C301.068 277.833 301.963 278.669 303.066 278.669Z" fill="white" fill-opacity="0.2"/>
<path opacity="0.48" d="M187.285 313.524C188.342 313.524 189.198 312.723 189.198 311.736C189.198 310.748 188.342 309.947 187.285 309.947C186.229 309.947 185.372 310.748 185.372 311.736C185.372 312.723 186.229 313.524 187.285 313.524Z" fill="white" fill-opacity="0.2"/>
<path opacity="0.46" d="M423.293 65.8877C424.326 65.8877 425.164 65.1048 425.164 64.1392C425.164 63.1735 424.326 62.3906 423.293 62.3906C422.26 62.3906 421.423 63.1735 421.423 64.1392C421.423 65.1048 422.26 65.8877 423.293 65.8877Z" fill="white" fill-opacity="0.2"/>
<path opacity="0.51" d="M345.115 104.775C346.195 104.775 347.07 103.957 347.07 102.947C347.07 101.938 346.195 101.119 345.115 101.119C344.035 101.119 343.159 101.938 343.159 102.947C343.159 103.957 344.035 104.775 345.115 104.775Z" fill="white" fill-opacity="0.2"/>
<path opacity="0.56" d="M239.11 117.787C240.237 117.787 241.15 116.933 241.15 115.879C241.15 114.826 240.237 113.972 239.11 113.972C237.983 113.972 237.069 114.826 237.069 115.879C237.069 116.933 237.983 117.787 239.11 117.787Z" fill="white" fill-opacity="0.2"/>
<path opacity="0.59" d="M114.061 105.034C115.224 105.034 116.166 104.153 116.166 103.067C116.166 101.98 115.224 101.1 114.061 101.1C112.899 101.1 111.957 101.98 111.957 103.067C111.957 104.153 112.899 105.034 114.061 105.034Z" fill="white" fill-opacity="0.2"/>
<path opacity="0.59" d="M712.539 595.375C714.241 595.375 715.621 594.086 715.621 592.494C715.621 590.903 714.241 589.613 712.539 589.613C710.837 589.613 709.457 590.903 709.457 592.494C709.457 594.086 710.837 595.375 712.539 595.375Z" fill="white" fill-opacity="0.2"/>
<path opacity="0.59" d="M547.788 532.446C549.291 532.446 550.509 531.307 550.509 529.903C550.509 528.498 549.291 527.359 547.788 527.359C546.286 527.359 545.067 528.498 545.067 529.903C545.067 531.307 546.286 532.446 547.788 532.446Z" fill="white" fill-opacity="0.2"/>
<path opacity="0.59" d="M411.407 518.42C412.757 518.42 413.852 517.397 413.852 516.135C413.852 514.873 412.757 513.85 411.407 513.85C410.057 513.85 408.963 514.873 408.963 516.135C408.963 517.397 410.057 518.42 411.407 518.42Z" fill="white" fill-opacity="0.2"/>
<path opacity="0.57" d="M180.228 555.05C181.034 555.05 181.689 554.438 181.689 553.684C181.689 552.93 181.034 552.318 180.228 552.318C179.421 552.318 178.767 552.93 178.767 553.684C178.767 554.438 179.421 555.05 180.228 555.05Z" fill="white" fill-opacity="0.2"/>
<path opacity="0.59" d="M135.179 336.91C136.147 336.91 136.932 336.176 136.932 335.271C136.932 334.366 136.147 333.632 135.179 333.632C134.211 333.632 133.426 334.366 133.426 335.271C133.426 336.176 134.211 336.91 135.179 336.91Z" fill="white" fill-opacity="0.2"/>
<path opacity="0.59" d="M1034.72 14.823C1036.22 14.823 1037.44 13.6843 1037.44 12.2797C1037.44 10.875 1036.22 9.73633 1034.72 9.73633C1033.22 9.73633 1032 10.875 1032 12.2797C1032 13.6843 1033.22 14.823 1034.72 14.823Z" fill="white" fill-opacity="0.2"/>
<path opacity="0.59" d="M821.153 69.0859C822.609 69.0859 823.789 67.9828 823.789 66.622C823.789 65.2613 822.609 64.1582 821.153 64.1582C819.698 64.1582 818.518 65.2613 818.518 66.622C818.518 67.9828 819.698 69.0859 821.153 69.0859Z" fill="white" fill-opacity="0.2"/>
<path opacity="0.59" d="M633.891 123.072C635.299 123.072 636.441 122.005 636.441 120.688C636.441 119.371 635.299 118.304 633.891 118.304C632.482 118.304 631.34 119.371 631.34 120.688C631.34 122.005 632.482 123.072 633.891 123.072Z" fill="white" fill-opacity="0.2"/>
<path opacity="0.59" d="M461.915 159.652C463.288 159.652 464.402 158.612 464.402 157.328C464.402 156.044 463.288 155.003 461.915 155.003C460.541 155.003 459.428 156.044 459.428 157.328C459.428 158.612 460.541 159.652 461.915 159.652Z" fill="white" fill-opacity="0.2"/>
<path opacity="0.59" d="M293.723 164.598C294.691 164.598 295.476 163.864 295.476 162.959C295.476 162.054 294.691 161.32 293.723 161.32C292.755 161.32 291.97 162.054 291.97 162.959C291.97 163.864 292.755 164.598 293.723 164.598Z" fill="white" fill-opacity="0.2"/>
<path opacity="0.59" d="M129.831 135.849C131.181 135.849 132.276 134.826 132.276 133.564C132.276 132.302 131.181 131.279 129.831 131.279C128.481 131.279 127.387 132.302 127.387 133.564C127.387 134.826 128.481 135.849 129.831 135.849Z" fill="white" fill-opacity="0.2"/>
<path opacity="0.59" d="M20.0709 626.628C21.2448 626.628 22.1965 625.739 22.1965 624.641C22.1965 623.544 21.2448 622.654 20.0709 622.654C18.897 622.654 17.9453 623.544 17.9453 624.641C17.9453 625.739 18.897 626.628 20.0709 626.628Z" fill="white" fill-opacity="0.2"/>
<path opacity="0.59" d="M224.018 652.102C225.966 652.102 227.546 650.625 227.546 648.803C227.546 646.982 225.966 645.505 224.018 645.505C222.069 645.505 220.489 646.982 220.489 648.803C220.489 650.625 222.069 652.102 224.018 652.102Z" fill="white" fill-opacity="0.2"/>
<path opacity="0.59" d="M226.658 555.198C227.627 555.198 228.412 554.464 228.412 553.559C228.412 552.654 227.627 551.92 226.658 551.92C225.69 551.92 224.905 552.654 224.905 553.559C224.905 554.464 225.69 555.198 226.658 555.198Z" fill="white" fill-opacity="0.2"/>
<path opacity="0.59" d="M164.148 485.336C165.116 485.336 165.901 484.603 165.901 483.697C165.901 482.792 165.116 482.059 164.148 482.059C163.179 482.059 162.395 482.792 162.395 483.697C162.395 484.603 163.179 485.336 164.148 485.336Z" fill="white" fill-opacity="0.2"/>
<path opacity="0.59" d="M80.6872 428.252C81.9782 428.252 83.0248 427.274 83.0248 426.067C83.0248 424.86 81.9782 423.882 80.6872 423.882C79.3962 423.882 78.3496 424.86 78.3496 426.067C78.3496 427.274 79.3962 428.252 80.6872 428.252Z" fill="white" fill-opacity="0.2"/>
<path opacity="0.59" d="M2.1681 367.251C3.36551 367.251 4.3362 366.343 4.3362 365.224C4.3362 364.105 3.36551 363.197 2.1681 363.197C0.970693 363.197 0 364.105 0 365.224C0 366.343 0.970693 367.251 2.1681 367.251Z" fill="white" fill-opacity="0.2"/>
<path opacity="0.59" d="M698.79 555.598C700.786 555.598 702.404 554.086 702.404 552.221C702.404 550.355 700.786 548.843 698.79 548.843C696.795 548.843 695.177 550.355 695.177 552.221C695.177 554.086 696.795 555.598 698.79 555.598Z" fill="white" fill-opacity="0.2"/>
<path opacity="0.59" d="M515.118 427.357C516.902 427.357 518.349 426.005 518.349 424.337C518.349 422.669 516.902 421.316 515.118 421.316C513.333 421.316 511.887 422.669 511.887 424.337C511.887 426.005 513.333 427.357 515.118 427.357Z" fill="white" fill-opacity="0.2"/>
<path opacity="0.59" d="M337.141 337.566C338.796 337.566 340.138 336.312 340.138 334.765C340.138 333.217 338.796 331.963 337.141 331.963C335.485 331.963 334.144 333.217 334.144 334.765C334.144 336.312 335.485 337.566 337.141 337.566Z" fill="white" fill-opacity="0.2"/>
<path opacity="0.59" d="M21.8055 170.879C23.3199 170.879 24.5475 169.732 24.5475 168.316C24.5475 166.901 23.3199 165.753 21.8055 165.753C20.2911 165.753 19.0635 166.901 19.0635 168.316C19.0635 169.732 20.2911 170.879 21.8055 170.879Z" fill="white" fill-opacity="0.2"/>
<path opacity="0.59" d="M583.557 163.27C585.294 163.27 586.703 161.954 586.703 160.329C586.703 158.705 585.294 157.389 583.557 157.389C581.82 157.389 580.411 158.705 580.411 160.329C580.411 161.954 581.82 163.27 583.557 163.27Z" fill="white" fill-opacity="0.2"/>
<path opacity="0.59" d="M402.475 101.674C404.259 101.674 405.706 100.322 405.706 98.654C405.706 96.986 404.259 95.6338 402.475 95.6338C400.691 95.6338 399.244 96.986 399.244 98.654C399.244 100.322 400.691 101.674 402.475 101.674Z" fill="white" fill-opacity="0.2"/>
<path opacity="0.59" d="M242.101 17.9444C244.049 17.9444 245.629 16.4677 245.629 14.646C245.629 12.8244 244.049 11.3477 242.101 11.3477C240.152 11.3477 238.572 12.8244 238.572 14.646C238.572 16.4677 240.152 17.9444 242.101 17.9444Z" fill="white" fill-opacity="0.2"/>
</svg>
